<svg width="20" height="20" viewBox="0 0 20 20" fill="none" xmlns="http://www.w3.org/2000/svg">
<g id="Live area" clip-path="url(#clip0_2429_4891)">
<g id="Vector">
<path fill-rule="evenodd" clip-rule="evenodd" d="M10 2C5.58172 2 2 5.58172 2 10C2 14.4183 5.58172 18 10 18C14.4183 18 18 14.4183 18 10C18 5.58172 14.4183 2 10 2ZM0 10C0 4.47715 4.47715 0 10 0C15.5228 0 20 4.47715 20 10C20 15.5228 15.5228 20 10 20C4.47715 20 0 15.5228 0 10Z" fill="#9C99C0"/>
<path fill-rule="evenodd" clip-rule="evenodd" d="M10 4C10.5523 4 11 4.44772 11 5V9.38197L14.4472 11.1056C14.9412 11.3526 15.1414 11.9532 14.8944 12.4472C14.6474 12.9412 14.0468 13.1414 13.5528 12.8944L9.55279 10.8944C9.214 10.725 9 10.3788 9 10V5C9 4.44772 9.44771 4 10 4Z" fill="#9C99C0"/>
</g>
</g>
<defs>
<clipPath id="clip0_2429_4891">
<rect width="20" height="20" fill="white"/>
</clipPath>
</defs>
</svg>
