<svg width="20" height="20" viewBox="0 0 20 20" fill="none" xmlns="http://www.w3.org/2000/svg">
<g id="notication">
<path id="Vector" fill-rule="evenodd" clip-rule="evenodd" d="M10 0C6.13401 0 3 3.13401 3 7V10.7648L1.6671 11.9563C1.24264 12.3357 1 12.8781 1 13.4474V15C1 16.1046 1.89543 17 3 17H6.12602C6.57006 18.7252 8.13616 20 10 20C11.8638 20 13.4299 18.7252 13.874 17H17C18.1046 17 19 16.1046 19 15V13.46C19 12.8761 18.7448 12.3213 18.3014 11.9413L17 10.8262V7C17 3.13401 13.866 0 10 0ZM11.7324 17C11.3866 17.5978 10.7403 18 10 18C9.25972 18 8.61337 17.5978 8.26756 17H11.7324ZM17 15V13.46L15.3493 12.0456C15.1276 11.8556 15 11.5782 15 11.2862V7C15 4.23858 12.7614 2 10 2C7.23858 2 5 4.23858 5 7V11.2122C5 11.4969 4.87868 11.768 4.66645 11.9577L3 13.4474L3 15H17Z" fill="#9C99C0"/>
</g>
</svg>
