<svg width="32" height="32" viewBox="0 0 32 32" fill="none" xmlns="http://www.w3.org/2000/svg">
<g id="Group 1000001341">
<mask id="mask0_141_7016" style="mask-type:alpha" maskUnits="userSpaceOnUse" x="0" y="0" width="32" height="32">
<rect id="Rectangle 34624271" width="32" height="32" rx="10" fill="#D9D9D9"/>
</mask>
<g mask="url(#mask0_141_7016)">
<rect id="Rectangle 34624272" width="32" height="32" rx="10" fill="url(#paint0_linear_141_7016)"/>
<g id="Group">
<path id="Vector" d="M10.0124 34.1174C9.80442 34.0653 9.79916 34.0628 9.83385 33.854C9.87339 33.6158 10.3762 30.7567 10.4333 30.4277C10.4395 30.3921 10.4424 30.3557 10.4427 30.3196C10.4427 30.3079 10.4321 30.2922 10.4216 30.2852C10.4071 30.2754 10.3931 30.2833 10.3848 30.2991C10.3537 30.3583 10.3436 30.4226 10.3327 30.4877C10.2713 30.8544 10.2087 31.221 10.1449 31.5874C10.0963 31.8666 10.0888 31.9009 9.78777 31.8066C9.1261 31.5992 8.4741 31.3666 7.85851 31.0457C7.21128 30.7084 6.37978 30.2318 5.86125 29.7228C5.75801 29.6214 5.75624 29.6007 5.81682 29.4731C6.91637 27.1578 9.60167 24.9402 12.7242 24.6157C12.9234 24.5951 12.7444 24.8813 14.3109 28.169C14.5087 28.5854 14.7453 28.9826 15.0177 29.3556C15.4287 29.9175 16.0424 30.2243 16.6549 29.8626C16.892 29.7227 17.0795 29.5251 17.2427 29.3061C17.9857 28.3093 19.2766 25.0621 19.3905 24.706C19.4116 24.6399 19.4539 24.6195 19.5242 24.622C20.1914 24.6459 21.7441 25.0323 22.9076 25.7655C23.3759 26.0605 23.9698 26.4471 24.2347 26.7425C24.4255 26.9554 25.4527 27.6919 26.3961 29.4871C26.4707 29.629 26.4554 29.6588 26.3304 29.766C25.5994 30.393 24.7701 30.8651 23.8989 31.2687C23.6053 31.4046 23.3038 31.5245 22.9938 31.6218C22.6684 31.7239 22.5698 31.7968 22.2558 31.8465C22.0827 31.8738 22.1335 31.9138 21.8706 30.3792C21.867 30.3581 21.8577 30.3374 21.8481 30.3179C21.8385 30.2984 21.8241 30.2775 21.7989 30.2842C21.7756 30.2905 21.7681 30.314 21.7718 30.3356C22.4086 34.0598 22.4662 34.0237 22.3521 34.0647C20.3122 34.7973 18.0983 34.8183 15.9549 34.8043C13.9451 34.791 11.9844 34.6111 10.0124 34.1174Z" fill="#6280FF"/>
<path id="Vector_2" d="M22.548 16.5235C22.2883 16.5704 22.0439 16.4582 21.8365 16.4002C21.572 16.3286 21.8884 16.7506 21.3299 18.1586C19.7811 22.0503 14.6758 22.3993 12.1814 20.0759C11.3832 19.3309 10.8886 18.418 10.6154 17.379C10.4148 16.6221 10.5642 16.3602 10.4022 16.393C10.1474 16.4506 9.70085 16.7268 9.01342 16.2825C8.00353 15.6295 8.27733 14.2809 9.24872 14.2448C9.91052 14.2213 10.1928 14.4101 10.5793 14.8692C10.6679 14.9694 10.6933 14.8874 10.6375 14.82C10.5489 14.7122 10.4751 14.5954 10.368 14.5014C10.249 14.3973 10.2499 14.3553 10.3514 14.2485C10.9189 13.655 11.1571 12.9374 11.1662 12.134C11.1712 11.8211 11.1629 11.792 11.431 11.9277C12.0099 12.2229 12.7243 12.1932 13.1595 11.6136C13.5609 11.0799 13.5041 10.6129 13.5258 10.2442C13.5277 10.1842 13.6011 10.1707 13.6375 10.2177C13.7131 10.3101 14.4362 11.6434 15.7645 11.8236C16.8166 11.9653 17.673 10.9544 17.8103 9.7758C17.8167 9.72658 17.8289 9.67662 17.8657 9.66627C17.923 9.64653 17.9355 9.70181 17.9857 9.82236C18.054 9.98396 18.1121 10.1502 18.1896 10.3072C18.6021 11.1443 19.2702 11.6757 20.1755 11.9195C20.7503 12.0714 20.6796 11.9436 20.6913 12.4061C20.7108 13.122 20.9296 13.6937 21.6298 14.1964C21.8256 14.3371 21.9868 14.3801 21.8762 14.4813C21.7459 14.6024 21.5972 14.7336 21.5274 14.8994C21.5246 14.9067 21.5384 14.9213 21.5468 14.9305C21.595 14.9782 21.7471 14.5238 22.3514 14.3115C23.1269 14.0394 23.6953 14.4516 23.8021 14.9552C23.8906 15.3713 23.483 16.358 22.548 16.5235Z" fill="#FF967F"/>
<path id="Vector_3" d="M16.076 26.1819C14.9318 26.2426 13.5921 25.6469 12.9972 24.6866C12.9082 24.5428 12.9087 24.5165 13.0238 24.4014C13.4526 23.9725 13.8963 23.1788 13.9605 22.3929C13.9742 22.2259 14.0032 22.0598 13.989 21.8923C13.9408 21.3261 13.8125 21.1962 14.1526 21.3058C15.0775 21.6039 15.6804 21.5717 16.4004 21.572C16.9274 21.5721 17.4411 21.4843 17.9462 21.3412C18.1583 21.2812 18.2679 21.2099 18.2611 21.4332C18.2538 21.6699 18.1785 21.7962 18.2408 22.1284C18.2506 22.1809 18.2084 23.3482 19.1962 24.3983C19.2997 24.5084 19.3037 24.5626 19.2264 24.691C19.1888 24.7535 19.1496 24.8167 19.1018 24.8715C18.4101 25.6645 17.548 26.1156 16.4744 26.1807C16.3494 26.1884 16.2237 26.1819 16.076 26.1819Z" fill="#FF967F"/>
<path id="Vector_4" d="M12.182 6.98547C12.2812 6.98826 12.2852 6.99068 12.3203 6.88666C12.8584 5.29258 14.7417 3.99736 17.1118 4.17888C18.8132 4.30918 20.492 5.35313 20.9007 6.98523C20.9775 7.29172 21.0972 7.11341 21.9254 7.52882C24.5046 8.82259 25.3282 11.5999 23.7258 13.9899C23.4998 14.327 23.4754 14.2934 23.3102 14.242C22.9608 14.1332 22.7036 14.0619 22.3234 14.246C22.1139 14.3474 21.9478 14.3196 21.7697 14.1971C21.4248 13.9597 21.1324 13.6786 20.9554 13.2937C20.7506 12.8484 20.7839 12.2864 20.7779 12.113C20.7727 11.9627 20.7665 11.9574 20.6195 11.9308C18.2509 11.5016 18.1206 9.71232 17.8599 9.21778C17.8477 9.19465 17.7967 9.19743 17.7889 9.22456C17.779 9.25901 17.7696 9.29497 17.7692 9.33045C17.7608 10.0018 17.5148 10.861 16.9598 11.352C16.3646 11.8786 15.5414 11.8309 14.8696 11.4097C13.754 10.7103 13.4497 9.49048 13.3385 9.51058C13.2734 9.52233 13.322 9.59783 13.3697 9.81289C13.7565 11.5602 12.4981 12.6254 11.1937 11.686C10.9038 11.4772 11.3656 12.4276 10.6947 13.658C10.5747 13.878 10.4219 14.0727 10.2401 14.2475C10.1628 14.3218 10.0898 14.3301 10.0012 14.2895C9.54852 14.0824 9.24803 14.1059 8.93384 14.2334C8.72877 14.3165 8.70411 14.3398 8.55356 14.1296C6.56824 11.3584 8.15639 6.87286 12.182 6.98547Z" fill="#000E3F"/>
<path id="Vector_5" d="M12.8157 13.3163C12.3674 13.1205 12.3882 12.5477 12.8761 12.2598C13.6078 11.8281 14.3824 12.3482 13.9847 12.9508C13.7129 13.3626 13.1572 13.4654 12.8157 13.3163ZM19.5041 12.4047C19.8428 12.7431 19.7286 13.201 19.3513 13.3278C18.4222 13.6399 17.6692 12.5357 18.4074 12.1811C18.7198 12.031 19.1876 12.0884 19.5041 12.4047Z" fill="#000E3F"/>
<path id="Vector_6" d="M16.1436 29.9338C15.8657 29.9165 15.6379 29.8421 15.4442 29.6813C15.3196 29.5778 15.2054 29.4648 15.1059 29.3364C14.8172 28.9635 14.5946 28.5525 14.387 28.1322C13.9433 27.2336 13.553 26.312 13.1809 25.3827C13.1512 25.3086 13.1152 25.2358 13.1152 25.1532C13.1152 25.1174 13.1671 25.0862 13.1962 25.1073C13.2379 25.1369 13.2772 25.1697 13.3136 25.2054C13.8615 25.754 14.5339 26.0615 15.2895 26.211C15.4714 26.2469 15.6538 26.2631 15.8388 26.2609C16.0085 26.2588 16.1784 26.2567 16.348 26.2612C16.7984 26.2729 17.2257 26.1686 17.6421 26.0118C17.9678 25.8891 18.2727 25.7263 18.5496 25.5163C18.7071 25.3969 18.867 25.2792 18.9944 25.1254C19.0057 25.1118 19.0339 25.1042 19.053 25.1061C19.0874 25.1096 19.0981 25.1396 19.1001 25.1698C19.1016 25.1913 19.1009 25.214 19.0957 25.2347C19.0887 25.2629 19.0774 25.2901 19.0662 25.3171C18.8625 25.8099 18.6653 26.3054 18.4524 26.7942C18.2511 27.2563 18.0384 27.7136 17.8214 28.1687C17.6419 28.5452 17.4368 28.909 17.1895 29.2466C17.0464 29.4421 16.8714 29.6089 16.673 29.7529C16.5046 29.875 16.3135 29.9146 16.1436 29.9338ZM17.2019 17.4959C17.4883 17.5634 17.6211 17.7529 17.6273 17.9931C17.6606 19.2813 15.7217 19.7155 14.9405 18.8371C14.6608 18.5227 14.3611 17.7657 14.9043 17.5353C15.1908 17.4138 16.2684 17.276 17.2019 17.4959Z" fill="white"/>
<path id="Vector_7" opacity="0.18" d="M15.4542 29.6896C15.152 29.4418 14.9165 29.1036 14.722 28.7642C14.6781 28.6876 14.6423 28.6287 14.7175 28.6006C14.7657 28.5825 16.786 28.9428 18.468 25.7483C18.5671 25.5603 18.6762 25.3796 18.8656 25.2606C18.9196 25.2266 18.9548 25.1645 19.0026 25.1194C19.0301 25.0934 19.0847 25.1011 19.0983 25.159C19.1153 25.2316 19.118 25.191 18.5808 26.503C18.351 27.0643 18.0846 27.6094 17.8264 28.158C17.5352 28.7767 17.1435 29.4542 16.6096 29.7945C16.4614 29.8889 15.7736 29.9514 15.4542 29.6896Z" fill="#000E3F"/>
<g id="Group_2" opacity="0.65">
<path id="Vector_8" d="M14.259 22.5842C14.018 22.3055 13.989 22.189 14.0027 21.9849C14.0147 21.8051 13.9864 21.6226 13.9744 21.4414C13.973 21.42 13.9623 21.3993 13.9589 21.3778C13.9045 21.0313 14.3058 21.6007 16.2595 21.5919C16.8817 21.5891 17.4919 21.5013 18.0843 21.3122C18.3275 21.2346 18.3515 21.2474 18.3003 21.4816C18.1856 22.0055 18.3528 22.127 18.1643 22.3967C17.9506 22.7023 17.6817 22.9408 17.3465 23.1136C16.2968 23.6546 14.9988 23.4399 14.259 22.5842ZM22.0611 15.9201C22.0161 15.8816 22.0073 15.835 22.0402 15.7857C22.2729 15.4373 22.6279 15.2476 22.8957 15.2343C22.952 15.2315 23.0109 15.1635 23.0589 15.2114C23.1157 15.268 23.084 15.3504 23.0679 15.4187C22.96 15.8751 22.3371 16.1557 22.0611 15.9201ZM9.2044 15.2945C9.20734 15.2093 9.23035 15.1884 9.30807 15.2071C9.66541 15.2931 9.88872 15.3287 10.2464 15.7907C10.274 15.8262 10.2581 15.8624 10.2341 15.8897C9.95273 16.2105 9.18666 15.8074 9.2044 15.2945ZM11.7204 16.5343C12.236 16.0351 13.1443 16.0346 13.6843 16.5611C14.4167 17.2751 13.8335 18.1728 12.9586 18.3624C11.8911 18.5937 10.8025 17.4229 11.7204 16.5343ZM20.5633 16.5343C20.0478 16.0351 19.1394 16.0346 18.5994 16.5611C17.867 17.2751 18.4501 18.1728 19.3251 18.3624C20.3926 18.5937 21.4811 17.4229 20.5633 16.5343Z" fill="#DB5E43"/>
</g>
<path id="Vector_9" d="M19.0426 5.48412C18.3951 8.94577 20.5434 10.6658 20.5383 10.6566C20.6413 10.7509 20.5177 10.9111 20.3989 10.8394C18.6768 9.80154 18.0812 7.26396 18.8338 5.42321C18.8831 5.30278 19.0667 5.35618 19.0427 5.48339L19.0426 5.48412ZM14.6308 8.41247C15.256 9.85827 16.5055 10.2937 16.4963 10.2886C16.6235 10.3445 16.5604 10.5356 16.4244 10.5062C14.3988 10.0705 13.3983 7.60683 14.082 5.67969C14.1254 5.55714 14.3108 5.60176 14.2936 5.72964C14.2334 6.17526 14.2993 7.66696 14.6308 8.41247ZM21.5615 8.56565C23.441 9.97676 23.6426 12.2156 22.449 13.6063C22.4074 13.6547 22.334 13.6606 22.2851 13.6196C22.2116 13.5579 22.2601 13.4667 22.2587 13.4758C22.7158 12.6307 22.8373 11.7604 22.6765 10.9847C22.4266 9.76509 21.4032 8.71187 21.4122 8.72223C21.3274 8.62408 21.4578 8.48785 21.5615 8.56565ZM9.83312 8.88256C10.4284 10.4893 10.4816 12.3711 9.24623 13.588C9.22433 13.6095 9.19467 13.6216 9.16378 13.6215C9.13288 13.6215 9.10328 13.6092 9.08148 13.5876C9.01527 13.5217 9.06735 13.4359 9.06533 13.4451C10.0271 11.8853 9.81714 10.7069 9.62119 8.9319C9.60699 8.80566 9.78813 8.76231 9.83312 8.88256ZM16.5319 7.29011L16.5897 7.50832C16.6153 7.5791 16.638 7.65109 16.6611 7.72326C16.9385 8.47901 17.214 8.5975 17.0354 8.70739C17.0141 8.72041 16.9892 8.72637 16.9643 8.72439C16.9393 8.7224 16.9157 8.71259 16.8968 8.69637C15.885 7.82444 15.6623 6.05296 16.4885 4.94864C16.5634 4.84862 16.7218 4.93211 16.6809 5.04891C16.381 5.90565 16.3806 6.56664 16.5319 7.29011ZM11.6907 7.78981C11.8691 8.01165 11.9999 8.26891 12.0934 8.5378C12.3825 9.35773 12.3081 10.3831 11.7756 11.0035C11.7578 11.0242 11.7332 11.0381 11.7061 11.0427C11.679 11.0473 11.6512 11.0423 11.6274 11.0287C11.6036 11.0151 11.5854 10.9936 11.5759 10.9681C11.5665 10.9426 11.5664 10.9146 11.5757 10.889C11.5962 10.7798 11.975 10.0259 11.7027 8.64406C11.5569 7.93155 11.4013 7.80779 11.5704 7.75384C11.5918 7.74708 11.6147 7.7469 11.6362 7.75333C11.6577 7.75975 11.6766 7.77247 11.6907 7.78981ZM26.0107 28.8164V29.1662H24.9726V28.1391H25.5456C25.4579 28.0227 25.3672 27.9086 25.2737 27.7967H24.9726V27.4566C24.8608 27.3372 24.7454 27.221 24.6265 27.1084V27.7967H23.5884V26.7696H24.2603C24.2513 26.7607 24.2425 26.7515 24.2339 26.7421C24.1467 26.6448 24.0235 26.5377 23.8812 26.4272H23.5883V26.2126C23.4742 26.1332 23.3589 26.0556 23.2423 25.9798V26.4273H22.2041V25.4002H22.2412C21.9694 25.2696 21.6908 25.1558 21.4171 25.0578H20.8199V24.8655C20.7052 24.833 20.5898 24.8028 20.4738 24.775V25.0578H19.4357V24.6399C19.415 24.6531 19.3996 24.6738 19.3895 24.7056C19.3598 24.7987 19.2493 25.0899 19.0897 25.4858V26.4272H18.6981C18.6491 26.5416 18.5997 26.6557 18.5497 26.7696H19.0897V27.7967H18.0807C17.9544 28.0608 17.8278 28.3142 17.7055 28.5428V29.1662H17.3393C17.308 29.2135 17.2755 29.26 17.2418 29.3057C17.1897 29.3758 17.1343 29.4435 17.0758 29.5085H17.7055V30.5356H16.6673V29.8538C16.6628 29.8565 16.6585 29.8596 16.6539 29.8623C16.5426 29.928 16.4314 29.971 16.3213 29.9951V30.5357H15.2831V29.6552C15.1847 29.564 15.0954 29.4636 15.0166 29.3554C14.9712 29.2933 14.9285 29.2296 14.8851 29.1662H13.8989V28.1391H14.2959C14.2396 28.0209 14.1861 27.9074 14.1343 27.7968H13.899V27.2886C13.7682 27.0029 13.6406 26.7158 13.5162 26.4273H12.5148V25.4002H13.097C13.0536 25.2864 13.0112 25.1723 12.9698 25.0578H12.5148V24.6411C12.3988 24.6563 12.2834 24.6735 12.1688 24.6939V25.0578H11.1306V24.9512C10.7437 25.0743 10.366 25.2243 10.0004 25.4001H10.7846V26.4272H9.7464V25.5272C9.62967 25.5879 9.51428 25.6511 9.40032 25.7168V26.4273H8.36216V26.4107C8.21205 26.526 8.06548 26.6457 7.92264 26.7697H8.01615V27.7968H6.97823V27.7161C6.85837 27.8549 6.74297 27.9974 6.63222 28.1435V29.1662H5.97244C5.91779 29.2672 5.86566 29.3694 5.81608 29.4729C5.80984 29.4861 5.80464 29.4975 5.7998 29.5086H6.63222V30.3316C6.92976 30.5308 7.24634 30.7157 7.54388 30.8781H8.01639V31.125C8.13071 31.1814 8.24601 31.2353 8.36247 31.2864V30.8781H9.40063V31.6811C9.51562 31.7196 9.63092 31.757 9.7467 31.7936V30.8781H10.2654C10.2848 30.764 10.3048 30.6499 10.3239 30.5357H9.74676V29.5086H10.7849V30.5357H10.4139L10.354 30.8781H10.7849V31.9052H10.1737L10.1137 32.2476H10.7849V33.2747H9.93378L9.87406 33.6171H10.7848V34.295C10.9002 34.3193 11.0155 34.3427 11.1309 34.3649V33.617H12.169V34.5392C12.2843 34.5558 12.3997 34.5714 12.5151 34.5863V33.617H13.5532V34.6442H13.0002C13.9777 34.7501 14.96 34.7976 15.9543 34.8041C17.2403 34.8125 18.5515 34.8071 19.8355 34.6442H19.436V33.617H20.4741V34.5492C20.5898 34.5294 20.7051 34.5081 20.8202 34.4852V33.617H21.8583V34.2254C21.9744 34.1903 22.0897 34.1531 22.2044 34.1138V33.617H22.3492C22.3295 33.5028 22.3094 33.3886 22.2888 33.2746H22.2044V32.8053C22.0683 32.0493 21.9354 31.2927 21.8056 30.5356H20.8202V29.5085H21.8583V30.3415C21.8634 30.3537 21.8678 30.366 21.87 30.3788C22.1031 31.7395 22.0898 31.8621 22.2044 31.8534V30.878H23.2426V31.5374C23.359 31.4955 23.4744 31.4508 23.5886 31.4032V30.878H24.6268V30.906C24.8454 30.7897 25.0599 30.6662 25.27 30.5356H24.9729V29.5085H26.011V30.0237C26.1196 29.9404 26.2259 29.8543 26.3299 29.7655C26.3401 29.7568 26.3484 29.7493 26.357 29.7415V29.5085H26.4064C26.4027 29.5011 26.3998 29.4946 26.3957 29.4866C26.2757 29.2586 26.1473 29.0351 26.0107 28.8164ZM24.6265 28.1391V29.1662H23.5884V28.1391H24.6265ZM23.2424 29.1662H22.2042V28.1391H23.2424V29.1662ZM23.2424 26.7696V27.7967H22.2042V26.7696H23.2424ZM21.8582 27.7967H20.82V26.7696H21.8582V27.7967ZM21.8582 25.4002V26.4273H20.82V25.4002H21.8582ZM19.4359 25.4002H20.474V26.4273H19.4359V25.4002ZM19.4359 26.7696H20.474V27.7967H19.4359V26.7696ZM20.474 28.1391V29.1662H19.4359V28.1391H20.474ZM18.0517 28.1391H19.0899V29.1662H18.0517V28.1391ZM18.0517 30.0506V29.5085H19.0899V30.5356H18.0517V30.0506ZM19.0899 31.9051H18.0517V30.878H19.0899V31.9051ZM19.4359 30.878H20.474V31.9051H19.4359V30.878ZM12.5149 29.9936V29.5085H13.5531V30.5356H12.5149V29.9936ZM13.5531 30.878V31.9051H12.5149V30.878H13.5531ZM13.8992 30.878H14.9373V31.9051H13.8992V30.878ZM14.9373 32.2475V33.2746H13.8991V32.2475H14.9373ZM15.2833 32.2475H16.3215V33.2746H15.2833V32.2475ZM16.6675 32.2475H17.7057V33.2746H16.6675V32.2475ZM18.0517 32.2475H19.0899V33.2746H18.0517V32.2475ZM17.7056 30.878V31.9051H16.6675V30.878H17.7056ZM16.3214 30.878V31.9051H15.2833V30.878H16.3214ZM14.9373 29.5085V30.5356H13.8991V29.5085H14.9373ZM13.5531 29.1662H12.5149V28.1391H13.5531V29.1662ZM11.621 28.1391H12.1689V29.1662H11.1308V28.1391H11.621ZM11.1308 27.7967V26.7696H12.1689V27.7967H11.1308ZM13.5531 26.7696V27.7967H12.5149V26.7696H13.5531ZM11.1308 25.4002H12.1689V26.4273H11.1308V25.4002ZM10.7847 26.7696V27.7967H9.74658V26.7696H10.7847ZM8.36241 26.7696H9.40057V27.7967H8.36241V26.7696ZM9.40057 28.1391V29.1662H8.36241V28.1391H9.40057ZM6.97823 28.1391H8.01639V29.1662H6.97823V28.1391ZM6.97823 30.5356V29.5085H8.01639V30.5356H6.97823ZM9.40057 29.9936V30.5356H8.36241V29.5085H9.40057V29.9936ZM9.74658 29.1662V28.1391H10.7847V29.1662H9.74658ZM11.1308 30.0506V29.5085H12.1689V30.5356H11.1308V30.0506ZM11.1308 30.878H12.1689V31.9051H11.1308V30.878ZM11.6787 33.2745H11.1308V32.2474H12.169V33.2745H11.6787ZM12.5149 33.2745V32.2474H13.5531V33.2745H12.5149ZM13.8992 34.644V33.6169H14.9373V34.644H13.8992ZM15.2833 34.644V33.6169H16.3215V34.644H15.2833ZM16.6675 34.644V33.6169H17.7057V34.644H16.6675ZM19.0899 34.644H18.0517V33.6169H19.0899V34.644ZM19.9838 33.2745H19.4359V32.2474H20.474V33.2745H19.9838ZM21.8582 33.2745H20.82V32.2474H21.8582V33.2745ZM21.8582 30.878V31.9051H20.82V30.878H21.8582ZM20.474 29.9936V30.5356H19.4359V29.5085H20.474V29.9936ZM20.82 29.1662V28.1391H21.8582V29.1662H20.82ZM22.2042 30.5356V29.5085H23.2424V30.5356H22.2042ZM24.6265 29.9936V30.5356H23.5884V29.5085H24.6265V29.9936Z" fill="#322BBF"/>
<path id="Vector_10" d="M10.0591 32.0582C10.0249 32.2561 9.99294 32.4428 9.96038 32.6294C9.8916 33.0242 9.8225 33.4189 9.75359 33.8137C9.75237 33.8209 9.75188 33.8282 9.7506 33.8354C9.71994 34.0057 9.68303 34.029 9.5115 33.9792C8.61078 33.7177 7.73761 33.3862 6.91242 32.942C6.368 32.6489 5.84599 32.3195 5.39306 31.8941C5.33443 31.8391 5.26779 31.7924 5.20794 31.7386C5.16167 31.6969 5.14723 31.6445 5.15555 31.5802C5.23205 30.9909 5.38896 30.4235 5.6242 29.877C5.63565 29.8505 5.65015 29.8242 5.66845 29.802C5.7007 29.7628 5.74348 29.7581 5.78662 29.7828C5.81178 29.7972 5.83448 29.8166 5.85614 29.8361C6.29518 30.2311 6.79143 30.5452 7.30482 30.834C7.52893 30.96 7.75922 31.0753 7.98712 31.1947C8.43154 31.4276 8.90239 31.598 9.37502 31.7631C9.56939 31.831 9.76865 31.8849 9.9654 31.9461C10.046 31.9711 10.0628 31.9952 10.0591 32.0582ZM8.41697 32.0036C8.11777 32.007 7.84979 32.2644 7.85744 32.541C7.86509 32.8171 8.15094 33.1003 8.42334 33.0823C8.73795 33.0617 8.97528 32.8317 8.97656 32.5322C8.97797 32.2045 8.69903 31.9964 8.41697 32.0036ZM27.0338 31.519C27.0498 31.6311 27.0014 31.7132 26.9225 31.7906C26.7175 31.9916 26.4935 32.17 26.26 32.3356C25.7495 32.6976 25.2063 33.0028 24.6342 33.2622C24.0697 33.5183 23.4889 33.7274 22.8989 33.9148C22.8009 33.946 22.7004 33.9699 22.6004 33.995C22.5508 34.0075 22.5134 33.9893 22.4978 33.939C22.4848 33.8972 22.4711 33.8551 22.4639 33.8121C22.3683 33.2515 22.2738 32.6908 22.1789 32.1301C22.1741 32.1014 22.1659 32.073 22.1637 32.0441C22.1606 32.0042 22.1786 31.9728 22.2159 31.9568C22.2428 31.9453 22.2718 31.9381 22.3001 31.9304C22.7205 31.8174 23.1286 31.6695 23.5334 31.5114C24.1043 31.2883 24.6424 31.0018 25.1688 30.6919C25.4918 30.5011 25.8029 30.2912 26.1003 30.0632C26.2051 29.9831 26.3029 29.8938 26.4092 29.8157C26.481 29.763 26.5278 29.7772 26.5661 29.86C26.6707 30.0858 26.7535 30.3201 26.8256 30.5577C26.9062 30.8233 26.9662 31.0942 27.018 31.3666C27.0274 31.4167 27.0287 31.4682 27.0338 31.519ZM23.2597 32.5466C23.2399 32.867 23.5451 33.0835 23.7892 33.0802C24.102 33.076 24.3478 32.8774 24.3544 32.5325C24.3598 32.2433 24.1008 32.0079 23.7944 32.0023C23.5134 31.9971 23.241 32.23 23.2597 32.5466Z" fill="#322BBF"/>
<path id="Vector_11" d="M5.08814 31.8195C5.01237 31.7485 4.99114 31.6552 5.00313 31.5579C5.30355 29.1197 7.17762 26.8511 9.3018 25.5874C10.3641 24.9555 11.563 24.5898 12.648 24.4573C13.0496 24.4083 14.0682 22.9744 13.7674 21.4523C13.675 20.9846 13.1886 21.2382 12.0768 20.19C11.1256 19.2932 10.5206 18.0407 10.3744 16.9931C10.2938 16.416 10.4199 16.6691 9.79279 16.6757C8.65475 16.6877 7.81915 15.3831 8.39282 14.5854C8.44172 14.5174 8.54839 14.4664 8.52373 14.3711C8.48988 14.2404 7.83152 13.6345 7.5877 12.1755C7.39254 11.0077 7.67962 9.69353 8.38982 8.67356C9.75197 6.71735 11.6766 6.86829 11.8556 6.79418C11.9597 6.75113 11.8711 6.69398 11.8074 6.64185C11.4218 6.32579 10.7583 6.17012 10.2192 6.26306C9.9639 6.30708 9.90282 6.04255 10.3076 6.00968C10.8056 5.96917 11.2781 6.05212 11.7149 6.30151C11.7596 6.327 11.8036 6.35376 11.8491 6.3778C11.8815 6.39487 11.9146 6.35927 11.9011 6.31156C11.6278 5.35195 12.0178 3.84282 12.3331 4.03282C12.4128 4.08083 12.3826 4.16542 12.3334 4.2451C11.8331 5.05358 12.1302 6.54122 12.2453 6.57415C12.2517 6.57603 12.2646 6.55884 12.2731 6.54903C12.2777 6.54376 12.2791 6.53577 12.2823 6.52923C13.8942 3.23372 19.2202 3.14084 20.8418 6.35528C21.112 6.89087 20.9744 6.99592 21.2258 7.07694C24.4161 8.10496 25.7916 11.4954 23.7295 14.254C23.6509 14.3591 23.6459 14.3668 23.7287 14.4603C24.0911 14.8693 24.0262 15.5117 23.7729 15.8935C23.5995 16.1547 23.3943 16.3815 23.1103 16.5225C22.349 16.9005 21.8641 16.4578 21.8559 16.6649C21.8091 17.8529 21.1199 19.1859 20.2398 20.0851C19.713 20.6233 18.8843 21.1045 18.5868 21.1959C18.5248 21.215 18.4957 21.2586 18.4823 21.3232C18.2394 22.4957 18.5854 23.5198 19.3494 24.3301C19.4297 24.4154 19.5198 24.4507 19.6378 24.4643C23.3098 24.8863 26.6343 28.0462 27.1951 31.4762C27.221 31.6345 27.1782 31.7599 27.0623 31.8712C22.8811 35.8851 9.77834 36.2157 5.08814 31.8195ZM22.1404 34.0501C22.306 34.0105 22.3365 33.9964 22.2996 33.8125C22.238 33.505 22.195 33.1939 22.1413 32.8849C21.7249 30.4871 21.6033 30.2159 21.7878 30.1825C21.8879 30.1644 21.928 30.2834 21.9455 30.3829C21.9472 30.392 22.172 31.664 22.182 31.6961C22.2124 31.794 22.3124 31.7754 22.4095 31.7416C22.9785 31.5436 24.8082 30.992 26.2737 29.7135C26.3612 29.6372 26.37 29.6183 26.3128 29.5072C25.4712 27.8718 24.0755 26.4782 22.4528 25.5975C21.5656 25.116 20.5926 24.8376 19.5936 24.697C19.3303 24.66 19.5701 24.878 18.0244 28.115C17.4627 29.2914 16.6425 30.5927 15.5087 29.9168C14.7387 29.4579 14.0996 27.9328 13.7161 27.0714C12.6072 24.5809 12.8836 24.6447 12.5307 24.71C12.3351 24.7461 12.1388 24.7794 11.944 24.8194C9.39066 25.343 7.08147 27.1725 5.89313 29.4808C5.85446 29.5559 5.8566 29.6193 5.92049 29.6781C6.40438 30.1228 6.97878 30.4795 7.55356 30.7976C8.47269 31.3062 9.6166 31.6977 9.89976 31.7617C10.0581 31.7974 10.0476 31.6873 10.0944 31.4175C10.289 30.2933 10.2788 30.3107 10.3158 30.2366C10.366 30.1361 10.5207 30.1747 10.5269 30.2809C10.5325 30.3776 10.1349 32.5175 9.93526 33.7308C9.88985 34.0067 9.88361 34.0251 10.2032 34.0914C10.6649 34.1872 11.121 34.309 11.5875 34.3829C15.7902 35.0488 19.0416 34.79 22.1404 34.0501ZM21.8425 7.57536C20.8699 7.11387 20.9354 7.39935 20.8133 6.95554C20.4167 5.51464 18.9177 4.28548 16.6935 4.23123C16.3997 4.22409 16.1057 4.25975 15.8144 4.30655C14.9897 4.43909 14.2426 4.74794 13.5883 5.26616C12.8965 5.81417 12.6438 6.29988 12.3937 6.91491C12.3392 7.04884 12.2773 7.03364 12.1437 7.03455C7.97955 7.06331 6.72157 11.6918 8.66313 14.1452C8.73939 14.2416 8.8239 14.194 8.90119 14.1622C9.22352 14.0294 9.54751 14.035 9.87253 14.1517C10.0506 14.2157 10.1029 14.2763 10.195 14.183C10.293 14.0837 10.3936 13.9875 10.4721 13.871C10.6997 13.5328 10.8539 13.1655 10.9401 12.7678C11.0674 12.1801 10.9768 11.9832 10.9935 11.7264C11.0025 11.5882 11.1015 11.5425 11.2254 11.6155C11.3268 11.6752 11.425 11.7401 11.5276 11.7978C11.7277 11.9108 11.9558 11.9663 12.1861 11.9582C12.5511 11.945 12.8567 11.7933 13.0614 11.4806C13.7649 10.4061 12.9861 9.49185 13.3123 9.40926C13.3713 9.39431 13.4219 9.42609 13.4623 9.5105C13.6778 9.96054 13.9187 10.528 14.5417 11.0679C14.8677 11.3506 15.2308 11.5681 15.6684 11.6398C16.0394 11.7006 16.3861 11.6467 16.707 11.4435C17.0636 11.2176 17.2937 10.8938 17.4469 10.5127C17.5925 10.1506 17.6795 9.7749 17.678 9.38238C17.6777 9.32395 17.6786 9.26558 17.7023 9.21012C17.7205 9.1675 17.7473 9.13353 17.7951 9.12524C17.8503 9.11567 17.9014 9.13069 17.9294 9.17997C17.9581 9.23035 17.98 9.28514 17.9989 9.34006C18.0581 9.51292 18.1122 9.68747 18.1722 9.85997C18.3512 10.3735 18.6375 10.8135 19.057 11.1716C19.3887 11.4547 19.7638 11.6436 20.1832 11.755C20.3399 11.7967 20.4966 11.8341 20.6595 11.8498C20.7999 11.8634 20.8503 11.9254 20.8647 12.0644C20.8699 12.1151 20.8677 12.1666 20.8679 12.2177C20.8685 12.3345 20.8634 12.4516 20.8699 12.5681C20.8834 12.8098 20.9281 13.0434 21.0325 13.2669C21.216 13.6597 21.5133 13.9426 21.8753 14.171C21.9912 14.2442 22.0973 14.2607 22.2266 14.1968C22.4345 14.094 22.6593 14.055 22.8928 14.0693C23.0417 14.0783 23.1827 14.117 23.3226 14.1662C23.4459 14.2095 23.4724 14.1995 23.5484 14.1004C23.7497 13.8377 23.9096 13.5513 24.052 13.2535C25.0781 11.1065 24.1595 8.67477 21.8425 7.57536ZM8.46571 15.1934C8.46602 15.4043 8.4766 15.4682 8.54429 15.6198C8.71185 15.9952 8.9996 16.2463 9.38564 16.3804C9.64928 16.472 9.92075 16.4771 10.1879 16.3765C10.2499 16.3531 10.3131 16.3314 10.3775 16.3165C10.4583 16.2978 10.5261 16.3402 10.5466 16.4173C10.554 16.4452 10.5539 16.475 10.557 16.5039C10.5735 16.6561 10.5835 16.8092 10.6076 16.9602C10.7001 17.542 10.8939 18.0925 11.1664 18.6138C11.4428 19.1422 11.799 19.6117 12.2363 20.0259C12.7083 20.4729 13.2521 20.7995 13.8516 21.0394C14.5369 21.3137 15.2579 21.4129 15.9923 21.4301C16.2131 21.4352 16.4332 21.418 16.6541 21.4029C17.0015 21.3793 17.3433 21.3319 17.6799 21.25C18.5041 21.0494 19.2396 20.6764 19.8729 20.1146C20.4536 19.5994 20.8852 18.977 21.196 18.2723C21.3495 17.9244 21.4779 17.5674 21.5526 17.1929C21.5927 16.9917 21.6126 16.7897 21.6219 16.5852C21.6335 16.3273 21.7113 16.2773 21.9551 16.355C22.0812 16.3951 22.2046 16.4412 22.3408 16.4448C22.7833 16.4565 23.1504 16.2939 23.4346 15.9652C23.6519 15.7138 23.7768 15.4218 23.743 15.079C23.7085 14.7291 23.4749 14.4462 23.1353 14.3473C23.0281 14.3162 22.9193 14.299 22.808 14.3029C22.3685 14.3183 22.0142 14.502 21.7381 14.8378C21.6963 14.8886 21.6592 14.9434 21.6143 14.9911C21.5828 15.0245 21.539 15.0376 21.4938 15.0115C21.4492 14.9856 21.429 14.9299 21.4459 14.8779C21.4714 14.7999 21.5216 14.7355 21.5741 14.6748C21.6315 14.6084 21.6976 14.5494 21.7585 14.4859C21.8193 14.4224 21.8205 14.4095 21.752 14.3707C21.5576 14.2608 21.3977 14.1111 21.2381 13.9582C20.8649 13.6008 20.6782 13.1635 20.6331 12.6566C20.6189 12.4969 20.5978 12.3382 20.5977 12.1775C20.5976 12.1192 20.5674 12.0853 20.5069 12.0724C20.3701 12.043 20.2332 12.0126 20.098 11.9766C19.5811 11.8389 19.1315 11.5791 18.7485 11.2134C18.558 11.0316 18.3949 10.8238 18.2556 10.5976C18.1279 10.3902 18.0415 10.1657 17.9436 9.94559C17.9322 9.91997 17.9305 9.88032 17.8983 9.87868C17.8554 9.87656 17.8686 9.91931 17.8639 9.94419C17.7763 10.4106 17.603 10.8407 17.3066 11.2171C16.8304 11.8216 16.1022 12.0423 15.3686 11.8116C14.8911 11.6614 14.5047 11.3767 14.1609 11.0271C13.97 10.833 13.8082 10.6158 13.6571 10.3904C13.6502 10.3801 13.6341 10.3758 13.6222 10.3687C13.6168 10.3809 13.6076 10.3927 13.6066 10.4051C13.6039 10.4415 13.6054 10.4781 13.6038 10.5145C13.5884 10.8543 13.5153 11.1792 13.3464 11.4786C13.0636 11.9798 12.4635 12.354 11.7454 12.1331C11.6115 12.0919 11.4784 12.0495 11.356 11.9786C11.2942 11.9428 11.261 11.9633 11.2594 12.0378C11.2563 12.1981 11.2447 12.358 11.2248 12.5171C11.1813 12.8603 11.095 13.19 10.9508 13.5049C10.8156 13.7999 10.6453 14.0709 10.4081 14.2981C10.3425 14.361 10.3412 14.3837 10.4105 14.4396C10.5214 14.5289 10.595 14.6478 10.6829 14.7551C10.7146 14.7938 10.7385 14.842 10.754 14.8896C10.7687 14.935 10.7423 14.9752 10.7034 15.0014C10.6611 15.03 10.6164 15.0218 10.5818 14.9899C10.5498 14.9604 10.5226 14.9248 10.4983 14.8886C10.3279 14.6345 10.0836 14.477 9.80099 14.374C9.53551 14.2772 9.26422 14.2759 8.99899 14.3708C8.69661 14.4791 8.4348 14.7704 8.46571 15.1934ZM18.1558 21.8696C18.1549 21.7116 18.1566 21.566 18.1847 21.4218C18.1915 21.3863 18.1614 21.3662 18.1305 21.3711C18.08 21.3791 18.0306 21.3953 17.9814 21.4104C17.5072 21.5557 17.0186 21.6312 16.5258 21.654C16.1595 21.671 15.7909 21.6756 15.4224 21.6327C15.1448 21.6 14.8685 21.5575 14.5939 21.5053C14.4264 21.4737 14.2664 21.4202 14.1039 21.373C14.0524 21.3581 14.0137 21.389 14.0154 21.4387C14.0165 21.4677 14.0213 21.4965 14.0253 21.5253C14.0851 21.9555 14.0727 22.385 13.9766 22.8074C13.8395 23.4101 13.5497 23.9388 13.1305 24.3953C12.9878 24.5506 13.0161 24.5968 13.1576 24.7891C14.5329 26.6586 18.0072 26.5168 19.1558 24.6536C19.2242 24.5425 19.2291 24.5337 19.1403 24.4483C18.7944 24.1152 18.3688 23.4179 18.2344 22.7481C18.1752 22.453 18.1527 22.1569 18.1558 21.8696ZM17.1129 29.216C17.7469 28.3392 18.5507 26.4094 18.9452 25.4105C18.9593 25.3749 19.0086 25.3365 18.9648 25.297C18.9554 25.2885 18.8354 25.3754 18.8215 25.3887C17.448 26.7082 14.6976 26.7034 13.2658 25.2673C13.2596 25.261 13.2423 25.2646 13.2304 25.2656C13.2162 25.267 13.2516 25.3534 13.257 25.367C14.0119 27.2616 14.1757 27.4499 14.4205 28.0152C14.6164 28.4674 14.8734 28.8832 15.1602 29.2824C15.2901 29.4634 15.4541 29.609 15.6475 29.7216C16.205 30.0463 16.7379 29.7347 17.1129 29.216ZM5.23911 31.552C5.20766 31.7428 5.51346 31.9053 5.63714 32.009C6.63803 32.8485 8.30439 33.5583 9.54653 33.9074C9.68881 33.9473 9.66476 33.866 9.82993 32.9187C9.9907 31.9969 10.0393 32.0571 9.80074 31.9835C9.44182 31.8729 9.08834 31.7469 8.73725 31.614C7.84975 31.2781 6.50811 30.5401 5.80538 29.8902C5.7503 29.8392 5.7238 29.8441 5.69302 29.913C5.37203 30.6322 5.2855 31.2715 5.23911 31.552ZM26.9614 31.5076C26.8332 30.7031 26.5716 30.0223 26.5069 29.914C26.4103 29.7526 26.4267 30.1061 24.6734 31.0628C23.9062 31.4814 23.1258 31.7663 22.3033 32.017C22.2068 32.0464 22.2417 32.0985 22.4807 33.4607C22.5677 33.9562 22.5561 33.9354 22.7169 33.8904C22.7524 33.8804 22.788 33.8712 22.823 33.8597C23.3476 33.6881 23.8708 33.514 24.3773 33.2925C25.2009 32.9322 26.2868 32.3422 26.8996 31.7058C26.9674 31.6355 26.9748 31.5919 26.9614 31.5076Z" fill="#000E3F"/>
<path id="Vector_12" d="M13.6148 15.5415C13.2696 15.5168 12.9694 15.2198 12.9707 14.8719C12.9722 14.4744 13.3349 14.1985 13.6385 14.1941C14.0104 14.1887 14.3401 14.4823 14.352 14.8771C14.3635 15.2554 13.9828 15.5677 13.6148 15.5415ZM13.9255 13.2546C13.125 13.9421 12.005 13.292 12.417 12.5294C12.5922 12.2052 12.8805 12.0371 13.238 11.9636C14.0923 11.788 14.6056 12.6706 13.9255 13.2546ZM12.6263 12.6441C12.4769 12.9657 12.732 13.2544 13.0561 13.2959C13.7572 13.3858 14.2298 12.6985 13.9003 12.3495C13.5605 11.9896 12.8202 12.2263 12.6263 12.6441ZM15.5051 16.4181C15.1266 15.9393 15.7087 15.3417 15.8478 15.5535C15.923 15.668 15.7792 15.7328 15.7368 15.7817C15.6363 15.8977 15.573 16.0224 15.6372 16.1817C15.7015 16.3414 15.8205 16.4253 15.9883 16.441C16.1064 16.4521 16.2247 16.4501 16.3323 16.3866C16.4148 16.3379 16.4925 16.2983 16.5501 16.3703C16.5838 16.4123 16.5854 16.4763 16.5496 16.5115C16.2647 16.791 15.7435 16.7195 15.5051 16.4181ZM9.28681 15.0536C9.58619 15.0929 9.83073 15.2048 10.0413 15.3862C10.113 15.448 10.1769 15.5197 10.2395 15.591C10.2676 15.6231 10.2879 15.6638 10.3042 15.7036C10.3247 15.7539 10.3015 15.8093 10.256 15.8353C10.2118 15.8605 10.1678 15.8513 10.1334 15.821C10.1009 15.7924 10.0776 15.7538 10.049 15.7206C9.86225 15.5037 9.64047 15.3449 9.34666 15.3034C9.30351 15.2973 9.26116 15.2818 9.22016 15.2663C9.17549 15.2494 9.1466 15.2152 9.14935 15.1664C9.15254 15.1089 9.1903 15.0749 9.24397 15.0592C9.26447 15.0533 9.28699 15.0536 9.28681 15.0536ZM23.0438 15.1637C23.042 15.2119 23.0248 15.2455 22.9895 15.2605C22.943 15.2802 22.8937 15.296 22.8441 15.3056C22.5592 15.3604 22.3257 15.4969 22.1491 15.7266C22.127 15.7553 22.1029 15.7829 22.0769 15.8085C22.0294 15.8553 21.9822 15.8613 21.9409 15.8286C21.8879 15.7866 21.8712 15.7297 21.9058 15.6752C21.9446 15.6139 21.9853 15.5519 22.0356 15.5002C22.266 15.2633 22.5445 15.1124 22.8741 15.0589C22.9022 15.0543 22.9325 15.0543 22.9606 15.0593C23.0107 15.068 23.0463 15.1202 23.0438 15.1637ZM7.79223 32.5327C7.7967 32.1963 8.09993 31.9063 8.43762 31.9153C8.77213 31.9242 9.05364 32.2149 9.05174 32.5404C9.04997 32.8581 8.74716 33.1553 8.40188 33.1546C8.09571 33.154 7.76855 32.8567 7.79223 32.5327ZM8.41247 32.9118C8.63235 32.9319 8.81754 32.7084 8.81221 32.5328C8.80493 32.2937 8.63707 32.1782 8.43205 32.1559C8.22588 32.1335 8.03971 32.3227 8.03451 32.5384C8.02968 32.7389 8.2014 32.9085 8.41247 32.9118ZM24.4214 32.5383C24.4467 32.8386 24.1825 33.1522 23.8141 33.1515C23.4657 33.1509 23.1758 32.8751 23.1722 32.5335C23.1689 32.2109 23.4629 31.9149 23.7913 31.9159C24.1471 31.917 24.4627 32.2356 24.4214 32.5383ZM24.1884 32.5503C24.1917 32.3297 24.0265 32.1599 23.8029 32.154C23.5961 32.1486 23.4061 32.3379 23.4083 32.5471C23.4104 32.7377 23.5809 32.9053 23.7794 32.9118C24.0201 32.9197 24.1849 32.774 24.1884 32.5503ZM18.58 15.5415C18.9252 15.5168 19.2253 15.2198 19.2241 14.8719C19.2225 14.4744 18.8599 14.1985 18.5563 14.1941C18.1844 14.1887 17.8547 14.4823 17.8428 14.8771C17.8313 15.2554 18.212 15.5677 18.58 15.5415ZM18.9568 11.9636C19.3143 12.0371 19.6026 12.2053 19.7778 12.5294C20.1898 13.292 19.0698 13.9421 18.2693 13.2546C17.5892 12.6706 18.1024 11.788 18.9568 11.9636ZM18.2944 12.3495C17.9649 12.6985 18.4375 13.3858 19.1386 13.2959C19.4627 13.2544 19.7178 12.9657 19.5685 12.6441C19.3745 12.2263 18.6343 11.9896 18.2944 12.3495Z" fill="#000E3F"/>
</g>
</g>
</g>
<defs>
<linearGradient id="paint0_linear_141_7016" x1="28.3333" y1="-1.33333" x2="16" y2="32" gradientUnits="userSpaceOnUse">
<stop offset="0.0197768" stop-color="#6059E3"/>
<stop offset="1" stop-color="#A5A1F3"/>
</linearGradient>
</defs>
</svg>
