<svg width="20" height="20" viewBox="0 0 20 20" fill="none" xmlns="http://www.w3.org/2000/svg">
<g id="Live area">
<path id="Vector" fill-rule="evenodd" clip-rule="evenodd" d="M11 10.1253L11.8787 13.4045C11.8798 13.409 11.881 13.4136 11.8822 13.4181C11.8834 13.4227 11.8847 13.4272 11.886 13.4317L12.9176 17.2817C13.0605 17.8151 13.6088 18.1317 14.1423 17.9888L18.006 16.9535C18.5395 16.8105 18.856 16.2622 18.7131 15.7287L15.0896 2.20578C14.9467 1.67232 14.3984 1.35574 13.8649 1.49868L10.7463 2.33429C10.5632 2.12908 10.2967 1.99988 10 1.99988H2C1.44772 1.99988 1 2.4476 1 2.99988V16.9999C1 17.5522 1.44772 17.9999 2 17.9999H10C10.5523 17.9999 11 17.5522 11 16.9999V10.1253ZM14.073 13.8664L14.5906 15.7981L16.5224 15.2805L16.0048 13.3487L14.073 13.8664ZM15.4872 11.4169L13.4166 3.68935L11.4848 4.20699L13.5553 11.9345L15.4872 11.4169ZM3 13.9999V15.9999H5V13.9999H3ZM5 11.9999H3V3.99988H5V11.9999ZM7 13.9999V15.9999H9V13.9999H7ZM9 11.9999H7V3.99988H9V11.9999Z" fill="#9C99C0"/>
</g>
</svg>
