<svg width="20" height="20" viewBox="0 0 20 20" fill="none" xmlns="http://www.w3.org/2000/svg">
<g id="Live area" clip-path="url(#clip0_2429_4780)">
<g id="Vector">
<path d="M13.7071 6.70711C14.0976 6.31658 14.0976 5.68342 13.7071 5.29289C13.3166 4.90237 12.6834 4.90237 12.2929 5.29289L9.5 8.08579L8.20711 6.79289C7.81658 6.40237 7.18342 6.40237 6.79289 6.79289C6.40237 7.18342 6.40237 7.81658 6.79289 8.20711L8.79289 10.2071C8.98043 10.3946 9.23478 10.5 9.5 10.5C9.76522 10.5 10.0196 10.3946 10.2071 10.2071L13.7071 6.70711Z" fill="#9C99C0"/>
<path fill-rule="evenodd" clip-rule="evenodd" d="M4 0C2.89543 0 2 0.895432 2 2V19C2 19.3746 2.20935 19.7178 2.54242 19.8892C2.87549 20.0606 3.27642 20.0315 3.58124 19.8137L10 15.2289L16.4188 19.8137C16.7236 20.0315 17.1245 20.0606 17.4576 19.8892C17.7907 19.7178 18 19.3746 18 19V2C18 0.89543 17.1046 0 16 0H4ZM4 2L16 2V17.0568L10.5812 13.1863C10.2335 12.9379 9.76646 12.9379 9.41876 13.1863L4 17.0568V2Z" fill="#9C99C0"/>
</g>
</g>
<defs>
<clipPath id="clip0_2429_4780">
<rect width="20" height="20" fill="white"/>
</clipPath>
</defs>
</svg>
