<svg width="14" height="15" viewBox="0 0 14 15" fill="none" xmlns="http://www.w3.org/2000/svg">
<g id="Live area" clip-path="url(#clip0_2349_10950)">
<g id="Vector">
<path fill-rule="evenodd" clip-rule="evenodd" d="M7.00065 2.16659C4.05513 2.16659 1.66732 4.5544 1.66732 7.49992C1.66732 10.4454 4.05513 12.8333 7.00065 12.8333C9.94617 12.8333 12.334 10.4454 12.334 7.49992C12.334 4.5544 9.94617 2.16659 7.00065 2.16659ZM0.333984 7.49992C0.333984 3.81802 3.31875 0.833252 7.00065 0.833252C10.6825 0.833252 13.6673 3.81802 13.6673 7.49992C13.6673 11.1818 10.6825 14.1666 7.00065 14.1666C3.31875 14.1666 0.333984 11.1818 0.333984 7.49992Z" fill="#19191B"/>
<path fill-rule="evenodd" clip-rule="evenodd" d="M7.00065 3.49992C7.36884 3.49992 7.66732 3.7984 7.66732 4.16659V7.0879L9.96546 8.23697C10.2948 8.40163 10.4283 8.80208 10.2636 9.1314C10.0989 9.46071 9.69849 9.5942 9.36917 9.42954L6.70251 8.0962C6.47665 7.98328 6.33398 7.75243 6.33398 7.49992V4.16659C6.33398 3.7984 6.63246 3.49992 7.00065 3.49992Z" fill="#19191B"/>
</g>
</g>
<defs>
<clipPath id="clip0_2349_10950">
<rect width="13.3333" height="13.3333" fill="white" transform="translate(0.333984 0.833252)"/>
</clipPath>
</defs>
</svg>
