<svg width="12" height="11" viewBox="0 0 12 11" fill="none" xmlns="http://www.w3.org/2000/svg">
<g id="Live area">
<path id="Vector" d="M2.91599 8.01696C2.75978 8.17317 2.75978 8.42644 2.91599 8.58265C3.0722 8.73886 3.32546 8.73886 3.48167 8.58265L5.99883 6.06549L8.51599 8.58265C8.67219 8.73886 8.92546 8.73886 9.08167 8.58265C9.23788 8.42644 9.23788 8.17317 9.08167 8.01696L6.56451 5.4998L9.08167 2.98265C9.23788 2.82644 9.23788 2.57317 9.08167 2.41696C8.92546 2.26075 8.67219 2.26075 8.51598 2.41696L5.99883 4.93412L3.48167 2.41696C3.32546 2.26075 3.0722 2.26075 2.91599 2.41696C2.75978 2.57317 2.75978 2.82644 2.91599 2.98265L5.43314 5.4998L2.91599 8.01696Z" fill="white"/>
</g>
</svg>
