<svg width="22" height="21" viewBox="0 0 22 21" fill="none" xmlns="http://www.w3.org/2000/svg">
<g id="browser-2">
<path id="Vector 1" d="M1.5 7.33331V18C1.5 19.1046 2.39543 20 3.5 20H18.5C19.6046 20 20.5 19.1046 20.5 18V7.33331M1.5 7.33331H11H20.5M1.5 7.33331V3C1.5 1.89543 2.39543 1 3.5 1H18.5C19.6046 1 20.5 1.89543 20.5 3V7.33331" stroke="#D6D5E3" stroke-width="2"/>
<path id="Vector" d="M4.66664 5.22244C5.24961 5.22244 5.7222 4.74985 5.7222 4.16688C5.7222 3.58392 5.24961 3.11133 4.66664 3.11133C4.08367 3.11133 3.61108 3.58392 3.61108 4.16688C3.61108 4.74985 4.08367 5.22244 4.66664 5.22244Z" fill="#D6D5E3"/>
<path id="Vector_2" d="M7.83339 5.22244C8.41635 5.22244 8.88894 4.74985 8.88894 4.16688C8.88894 3.58392 8.41635 3.11133 7.83339 3.11133C7.25042 3.11133 6.77783 3.58392 6.77783 4.16688C6.77783 4.74985 7.25042 5.22244 7.83339 5.22244Z" fill="#D6D5E3"/>
<path id="Vector_3" d="M10.9999 5.22244C11.5829 5.22244 12.0554 4.74985 12.0554 4.16688C12.0554 3.58392 11.5829 3.11133 10.9999 3.11133C10.4169 3.11133 9.94434 3.58392 9.94434 4.16688C9.94434 4.74985 10.4169 5.22244 10.9999 5.22244Z" fill="#D6D5E3"/>
</g>
</svg>
