<svg width="21" height="22" viewBox="0 0 21 22" fill="none" xmlns="http://www.w3.org/2000/svg">
<g id="browser-2">
<path id="Vector 1" d="M1 7.83331V18.5C1 19.6046 1.89543 20.5 3 20.5H18C19.1046 20.5 20 19.6046 20 18.5V7.83331M1 7.83331H10.5H20M1 7.83331V3.5C1 2.39543 1.89543 1.5 3 1.5H18C19.1046 1.5 20 2.39543 20 3.5V7.83331" stroke="#6059E3" stroke-width="2"/>
<path id="Vector" d="M4.16688 5.72195C4.74985 5.72195 5.22244 5.24936 5.22244 4.6664C5.22244 4.08343 4.74985 3.61084 4.16688 3.61084C3.58392 3.61084 3.11133 4.08343 3.11133 4.6664C3.11133 5.24936 3.58392 5.72195 4.16688 5.72195Z" fill="#6059E3"/>
<path id="Vector_2" d="M7.33388 5.72195C7.91684 5.72195 8.38943 5.24936 8.38943 4.6664C8.38943 4.08343 7.91684 3.61084 7.33388 3.61084C6.75091 3.61084 6.27832 4.08343 6.27832 4.6664C6.27832 5.24936 6.75091 5.72195 7.33388 5.72195Z" fill="#6059E3"/>
<path id="Vector_3" d="M10.4999 5.72195C11.0829 5.72195 11.5554 5.24936 11.5554 4.6664C11.5554 4.08343 11.0829 3.61084 10.4999 3.61084C9.91692 3.61084 9.44434 4.08343 9.44434 4.6664C9.44434 5.24936 9.91692 5.72195 10.4999 5.72195Z" fill="#6059E3"/>
</g>
</svg>
