<svg width="20" height="20" viewBox="0 0 20 20" fill="none" xmlns="http://www.w3.org/2000/svg">
<g id="Live area" clip-path="url(#clip0_2429_4967)">
<path id="Vector" fill-rule="evenodd" clip-rule="evenodd" d="M15.7071 0.292893C15.3166 -0.0976311 14.6834 -0.0976311 14.2929 0.292893L11.2973 3.2885C11.2958 3.28996 11.2944 3.29142 11.2929 3.29289C11.2914 3.29436 11.29 3.29584 11.2885 3.29731L2.29292 12.2929C2.18315 12.4027 2.10044 12.5365 2.05134 12.6838L0.0513438 18.6838C-0.0684344 19.0431 0.0250881 19.4393 0.29292 19.7071C0.560753 19.9749 0.95692 20.0685 1.31625 19.9487L7.31626 17.9487C7.46353 17.8996 7.59736 17.8169 7.70713 17.7071L19.7071 5.70711C20.0977 5.31658 20.0977 4.68342 19.7071 4.29289L15.7071 0.292893ZM16 6.5858L17.5858 5L15 2.41421L13.4142 4.00001L16 6.5858ZM12 5.41423L14.5858 8.00001L6.45985 16.126L2.58117 17.4189L3.87406 13.5402L12 5.41423Z" fill="#19191B"/>
</g>
<defs>
<clipPath id="clip0_2429_4967">
<rect width="20" height="20" fill="white"/>
</clipPath>
</defs>
</svg>
