<svg width="144" height="120" viewBox="0 0 144 120" fill="none" xmlns="http://www.w3.org/2000/svg">
<g id="hinhanh">
<path id="Vector" fill-rule="evenodd" clip-rule="evenodd" d="M134.482 65.3369C136.502 81.8283 132.788 100.105 120.281 111.165C108.161 121.884 90.182 120.587 74.039 118.792C60.0412 117.235 48.0241 110.764 37.128 101.917C24.5575 91.7113 9.79821 81.3638 8.20099 65.3369C6.51196 48.3887 15.6419 31.4056 29.0379 20.7385C41.3798 10.9107 58.2983 11.2259 74.039 12.9106C87.7785 14.3811 99.8685 20.4126 110.268 29.4325C121.63 39.2882 132.662 50.4812 134.482 65.3369Z" fill="#C1C4FB"/>
<path id="Vector_2" d="M69.2279 106.829C100.477 106.829 125.81 105.081 125.81 102.923C125.81 100.766 100.477 99.0173 69.2279 99.0173C37.9783 99.0173 12.6455 100.766 12.6455 102.923C12.6455 105.081 37.9783 106.829 69.2279 106.829Z" fill="#C1C4FB"/>
<path id="Vector_3" d="M71.7572 121.751C109.631 121.751 140.334 117.748 140.334 112.809C140.334 107.87 109.631 103.866 71.7572 103.866C33.8834 103.866 3.18066 107.87 3.18066 112.809C3.18066 117.748 33.8834 121.751 71.7572 121.751Z" fill="#C1C4FB"/>
<path id="Vector_4" d="M121.896 77.8319C121.896 77.8319 127.44 77.4259 127.368 84.0873C127.303 90.0257 122.948 90.3483 122.004 90.3483C121.888 90.3483 121.824 90.344 121.824 90.344H79.5596V88.2473H121.752C121.752 88.2473 124.737 87.6396 124.848 84.3248C124.992 79.9961 121.464 79.9961 121.464 79.9961H79.5596V77.8319H121.896Z" fill="#3E89FC"/>
<path id="Vector_5" d="M127.135 102.12C127.214 102.12 127.279 102.185 127.279 102.264C127.279 102.344 127.214 102.408 127.135 102.408V102.12ZM127.135 103.608C127.214 103.608 127.279 103.673 127.279 103.752C127.279 103.831 127.214 103.896 127.135 103.896V103.608ZM127.135 105.288C127.214 105.288 127.279 105.353 127.279 105.432C127.279 105.512 127.214 105.576 127.135 105.576V105.288Z" fill="black"/>
<path id="Vector_6" d="M127.135 105.576V107.657H81.3833C81.3833 107.657 78.0598 107.099 77.9374 104.053C77.7775 100.074 81.7028 100.074 81.7028 100.074H127.135V102.12H81.1198C81.0406 102.12 80.9758 102.185 80.9758 102.264C80.9758 102.344 81.0406 102.408 81.1198 102.408H127.135V103.608H83.8558C83.7766 103.608 83.7118 103.673 83.7118 103.752C83.7118 103.831 83.7766 103.896 83.8558 103.896H127.135V105.288H90.7678C90.6886 105.288 90.6238 105.353 90.6238 105.432C90.6238 105.512 90.6886 105.576 90.7678 105.576H127.135Z" fill="#E5E5E5"/>
<path id="Vector_7" d="M127.135 105.432V105.576H90.7676C90.6884 105.576 90.6236 105.512 90.6236 105.432C90.6236 105.353 90.6884 105.288 90.7676 105.288H127.135V105.432ZM127.135 103.752V103.896H83.8556C83.7764 103.896 83.7116 103.831 83.7116 103.752C83.7116 103.673 83.7764 103.608 83.8556 103.608H127.135V103.752ZM127.135 102.408H81.1196C81.0404 102.408 80.9756 102.344 80.9756 102.264C80.9756 102.185 81.0404 102.12 81.1196 102.12H127.135V102.408Z" fill="black"/>
<path id="Vector_8" d="M121.464 79.9963C121.464 79.9963 124.992 79.9963 124.848 84.325C124.737 87.64 121.752 88.2475 121.752 88.2475H80.6426V86.2315H119.855C119.934 86.2315 119.999 86.1667 119.999 86.0875C119.999 86.0083 119.934 85.9435 119.855 85.9435H80.6426V84.2314H115.488C115.567 84.2314 115.632 84.1666 115.632 84.0874C115.632 84.008 115.567 83.9434 115.488 83.9434H80.6426V82.1045H116.784C116.863 82.1045 116.928 82.0397 116.928 81.9605C116.928 81.8813 116.863 81.8165 116.784 81.8165H80.6426V79.9963H121.464Z" fill="#E5E5E5"/>
<path id="Vector_9" d="M122.472 90.3484C122.472 90.3484 123.768 94.2666 122.472 97.9185L109.584 97.9934V90.3484H122.472Z" fill="#A9D9FF"/>
<path id="Vector_10" d="M119.855 85.9435C119.934 85.9435 119.999 86.0083 119.999 86.0875C119.999 86.1667 119.934 86.2315 119.855 86.2315H80.6426V85.9435H119.855ZM116.784 81.8164C116.863 81.8164 116.928 81.8812 116.928 81.9604C116.928 82.0396 116.863 82.1044 116.784 82.1044H80.6426V81.8164H116.784ZM115.488 83.9433C115.567 83.9433 115.632 84.0079 115.632 84.0873C115.632 84.1665 115.567 84.2313 115.488 84.2313H80.6426V83.9433H115.488Z" fill="black"/>
<path id="Vector_11" d="M109.584 90.3484V97.9934L93.5508 98.0855H88.6562V90.3484H109.584Z" fill="white"/>
<path id="Vector_12" d="M107.784 77.8262V77.8319H79.5601V79.4159H74.6641V58.6799H107.784V77.8262ZM99.9361 69.9595V65.5919H94.0796V69.9595H99.9361ZM87.4081 72.5198V64.0554H77.6881V72.5198H87.4081Z" fill="#A9D9FF"/>
<path id="Vector_13" d="M94.0791 65.592H99.9356V69.9596H94.0791V65.592Z" fill="white"/>
<path id="Vector_14" d="M88.6569 98.0812V98.0855H81.2222C81.2222 98.0855 80.6879 98.0537 79.9363 98.1647L75.6004 98.1892C75.6004 98.1892 74.3044 94.402 75.6004 90.3484H88.6569V98.0812Z" fill="#A9D9FF"/>
<path id="Vector_15" d="M77.6885 64.0554H87.4085V72.5197H77.6885V64.0554Z" fill="white"/>
<path id="Vector_16" d="M80.643 86.0875V86.2315C80.5638 86.2315 80.499 86.1667 80.499 86.0875C80.499 86.0083 80.5638 85.9435 80.643 85.9435V86.0875ZM80.643 84.0873V84.2313C80.5638 84.2313 80.499 84.1665 80.499 84.0873C80.499 84.0079 80.5638 83.9433 80.643 83.9433V84.0873ZM80.643 81.9604V82.1044C80.5638 82.1044 80.499 82.0396 80.499 81.9604C80.499 81.8812 80.5638 81.8164 80.643 81.8164V81.9604Z" fill="black"/>
<path id="Vector_17" d="M77.9367 104.053C78.0591 107.099 81.3827 107.657 81.3827 107.657H128.34V109.584H81.302C81.302 109.584 75.2123 109.957 75.1316 103.836C75.0755 99.5142 78.1326 98.4284 79.9355 98.1649L93.5507 98.0857H128.34V100.074H81.7023C81.7023 100.074 77.7769 100.074 77.9367 104.053Z" fill="#295FC5"/>
<path id="Vector_18" d="M53.7551 51.1919V69.5764H24.3359V51.1919H53.7551ZM48.2342 59.9759V56.0001H41.2315V59.9759H48.2342ZM36.4319 61.8954V58.0564H33.4555V55.2239H27.4075V58.6799H30.4315V61.8954H36.4319Z" fill="#E5E5E5"/>
<path id="Vector_19" d="M41.2314 56.0002H48.2342V59.9761H41.2314V56.0002Z" fill="white"/>
<path id="Vector_20" d="M39.046 92.7114L37.7759 102.264H24.3364L23.0879 92.7114H25.9074C25.9233 92.746 25.9319 92.7661 25.9319 92.7676C25.9447 92.7984 25.9677 92.8238 25.9972 92.8395C26.0266 92.8551 26.0606 92.8601 26.0933 92.8534C26.126 92.8468 26.1553 92.829 26.1763 92.8031C26.1973 92.7772 26.2086 92.7448 26.2084 92.7114H30.2879V92.7158C30.2893 92.7935 30.3541 92.8554 30.4319 92.8554H30.4362C30.514 92.854 30.5745 92.7906 30.5759 92.7114H33.8879V92.7129C33.8883 92.7508 33.9036 92.7871 33.9306 92.8138C33.9575 92.8405 33.9939 92.8554 34.0319 92.8554H34.0333C34.1125 92.854 34.1773 92.7892 34.1759 92.7114H39.046ZM36.4324 58.0564V61.8954H30.4319V58.6799H33.4559V58.0564H36.4324Z" fill="#A9D9FF"/>
<path id="Vector_21" d="M35.8313 86.4648C35.814 86.4965 35.7967 86.5267 35.7794 86.5582C35.7521 86.5065 35.7276 86.4533 35.7046 86.3955C35.6902 86.3581 35.6772 86.3193 35.6642 86.2803L35.6182 86.2774C35.6182 86.2701 35.6196 86.2629 35.6196 86.2544C36.7313 84.273 38.3081 82.7839 40.3054 81.8306C40.3224 81.8224 40.3409 81.8176 40.3597 81.8166C40.3786 81.8156 40.3974 81.8183 40.4152 81.8246C40.433 81.8309 40.4494 81.8407 40.4634 81.8534C40.4774 81.866 40.4888 81.8813 40.4969 81.8984C40.5314 81.9704 40.5012 82.0554 40.4292 82.0899C38.4622 83.0289 36.9156 84.5021 35.8313 86.4648Z" fill="black"/>
<path id="Vector_22" d="M35.6194 86.2545C35.6424 85.6755 35.2824 84.9974 35.2306 84.4098C35.1543 83.5488 35.1831 82.3896 35.5056 81.5861C36.073 80.1747 37.5619 78.9034 39.1171 78.8875C39.6096 78.8832 40.2317 79.0013 40.704 78.8904C41.4744 78.7089 41.5651 78.0165 41.7682 77.4102C42.2491 75.9672 44.5949 75.9472 45.3624 77.1237C45.8995 77.9473 46.1789 79.0806 45.9255 80.0526C45.6979 80.9254 44.8282 82.2214 44.0765 82.7281C43.1045 83.3833 41.8388 83.1069 40.9056 83.8773C40.4794 84.2285 40.2259 84.9717 40.3181 85.5217C40.429 86.1726 40.9373 86.6347 40.992 87.3347C41.1044 88.8077 39.3519 88.9432 38.2445 88.6667C37.5864 88.5024 37.2365 88.0576 36.7685 87.6227C36.3624 87.2454 36.001 86.9862 35.7792 86.5584C35.7965 86.5267 35.8138 86.4965 35.8311 86.4649C36.9154 84.5022 38.462 83.0291 40.429 82.0902C40.501 82.0557 40.5312 81.9707 40.4967 81.8987C40.4886 81.8816 40.4772 81.8663 40.4632 81.8536C40.4492 81.841 40.4328 81.8312 40.415 81.8249C40.3972 81.8186 40.3784 81.8159 40.3595 81.8169C40.3406 81.8179 40.3222 81.8227 40.3051 81.8309C38.3079 82.7842 36.7311 84.2731 35.6194 86.2545Z" fill="#A9D9FF"/>
<path id="Vector_23" d="M33.8877 92.7116C33.8877 92.654 33.8733 89.4126 35.5783 86.3266C35.5912 86.3022 35.6056 86.2777 35.62 86.2546C35.62 86.2633 35.6186 86.2703 35.6186 86.2777L35.6647 86.2806C35.6776 86.3196 35.6906 86.3583 35.705 86.3958C35.728 86.4534 35.7525 86.5068 35.7799 86.5585C34.157 89.561 34.1757 92.6785 34.1757 92.7103V92.7117L33.8877 92.7116Z" fill="black"/>
<path id="Vector_24" d="M34.0317 92.7114H34.1757C34.1771 92.7892 34.1123 92.854 34.0331 92.8554H34.0317C33.9938 92.8554 33.9573 92.8405 33.9304 92.8138C33.9034 92.7871 33.8881 92.7508 33.8877 92.7129V92.7114H34.0317Z" fill="black"/>
<path id="Vector_25" d="M33.2652 82.3335C34.2056 83.0146 34.3179 84.3826 33.7088 85.3676C33.0363 86.4548 31.3601 87.7954 29.9892 87.3951C29.9878 87.3806 29.9849 87.3663 29.982 87.3519C29.288 83.4063 27.7572 78.2063 24.4193 75.8419C24.3545 75.7972 24.2638 75.8116 24.2177 75.8764C24.1716 75.9412 24.1875 76.0319 24.2523 76.078C27.5009 78.3777 29.0043 83.4782 29.694 87.3662C27.9704 87.2567 26.13 86.8046 24.5273 86.2199C23.5049 85.847 22.2132 85.0204 22.3184 83.7734C22.3774 83.0737 22.8987 82.6343 23.4243 82.2484C23.8289 81.9503 24.2595 81.6148 24.0968 81.0359C23.9312 80.447 23.2097 80.4009 22.7014 80.1849C21.98 79.8782 21.2369 79.4937 20.7459 78.8774C19.4859 77.2919 19.6529 75.3164 21.3118 74.1239C22.7763 73.0727 24.5518 72.9331 26.2078 73.5566C27.7313 74.1326 29.6681 75.4777 29.6638 77.2186C29.6609 78.5406 29.0878 79.5702 30.2024 80.6156C31.0966 81.4537 32.2918 81.6279 33.2652 82.3335Z" fill="#3E89FC"/>
<path id="Vector_26" d="M33.4552 58.0564V58.6799H27.4072V55.2239H33.4552V58.0564Z" fill="white"/>
<path id="Vector_27" d="M30.4317 92.7115H30.5757C30.5743 92.7907 30.5138 92.8541 30.436 92.8555H30.4317C30.3539 92.8555 30.2891 92.7936 30.2877 92.7158V92.7115H30.4317ZM30.2877 92.7115C30.2848 92.5934 30.2085 90.2865 29.7002 87.4008C29.6987 87.3892 29.6959 87.3777 29.6944 87.3662C29.7434 87.3705 29.7923 87.3734 29.8413 87.3763C29.8787 87.3805 29.9147 87.3821 29.9522 87.3835C29.9651 87.3878 29.9767 87.3907 29.9896 87.395C30.508 90.344 30.5757 92.684 30.5757 92.7072V92.7115H30.2877ZM26.0642 92.7115H26.2082C26.2082 92.7304 26.2045 92.7492 26.1973 92.7666C26.1901 92.7841 26.1795 92.8 26.1661 92.8134C26.1527 92.8268 26.1368 92.8374 26.1193 92.8446C26.1018 92.8518 26.0831 92.8555 26.0642 92.8555C26.008 92.8555 25.9547 92.8224 25.9317 92.7676C25.9317 92.7662 25.9231 92.7462 25.9072 92.7115H26.0642Z" fill="black"/>
<path id="Vector_28" d="M24.2523 76.0781C24.1875 76.032 24.1717 75.9413 24.2178 75.8765C24.2639 75.8117 24.3546 75.7973 24.4194 75.842C27.7573 78.2064 29.288 83.4063 29.9821 87.352C29.985 87.3664 29.9879 87.3807 29.9893 87.3952C29.9763 87.3909 29.9648 87.388 29.9519 87.3837C29.9144 87.3823 29.8784 87.3807 29.841 87.3765C29.792 87.3735 29.7431 87.3708 29.6941 87.3664C29.0043 83.4783 27.501 78.3778 24.2523 76.0781ZM23.5208 89.6415C23.5511 89.6055 23.5784 89.5653 23.6029 89.5235C23.6043 89.525 23.6072 89.5264 23.6087 89.5277L23.6375 89.5493C23.6619 89.5695 23.6879 89.5882 23.7123 89.6098C25.4994 91.0224 26.169 92.5906 26.1963 92.6554C26.205 92.6741 26.2079 92.6929 26.2079 92.7116H25.9069C25.7701 92.4236 25.0746 91.0541 23.5295 89.8316C23.5223 89.8258 23.5165 89.82 23.5107 89.8172C23.5295 89.8056 23.5482 89.7941 23.5683 89.784L23.6187 89.7192C23.5871 89.6919 23.5539 89.6674 23.5208 89.6415Z" fill="black"/>
<path id="Vector_29" d="M23.432 89.7552L23.4608 89.7768C23.4767 89.7898 23.4925 89.8013 23.5112 89.8171C22.9871 90.1123 22.6732 90.347 22.0324 90.491C21.2274 90.6725 20.408 90.6867 19.5829 90.6955C18.2365 90.7099 17.1191 90.3125 15.9844 89.6501C14.9404 89.041 13.8935 88.0488 13.6919 86.7643C13.4615 85.3027 14.8655 83.6021 16.4567 83.972C16.9016 84.0758 16.9895 84.5538 17.1968 84.8879C17.433 85.2695 17.6533 85.3703 18.1084 85.4163C19.2949 85.5344 20.3231 84.62 21.5528 85.0779C22.6357 85.4797 23.4508 86.5523 23.6768 87.6626C23.7805 88.1709 23.8957 89.025 23.6034 89.5232C22.2916 88.5152 20.7364 87.8614 18.9839 87.5776C18.9047 87.5647 18.8312 87.6194 18.8183 87.6971C18.8053 87.7763 18.86 87.8499 18.9378 87.8628C20.6456 88.1381 22.1591 88.7746 23.432 89.7552Z" fill="#295FC5"/>
<path id="Vector_30" d="M23.4609 89.7767L23.4321 89.7551C22.1591 88.7745 20.6457 88.1381 18.9378 87.8629C18.8601 87.85 18.8053 87.7764 18.8183 87.6974C18.8313 87.6196 18.9047 87.5649 18.9839 87.5778C20.7364 87.8617 22.2916 88.5154 23.6034 89.5234C23.579 89.5652 23.5516 89.6054 23.5213 89.6414C23.5545 89.6674 23.5876 89.6919 23.6193 89.7191L23.5689 89.7839C23.5487 89.794 23.53 89.8055 23.5113 89.817C23.4926 89.8012 23.4767 89.7897 23.4609 89.7767Z" fill="black"/>
<path id="Vector_31" d="M111.705 32.0399L111.129 34.6319L101.337 32.0399H111.705ZM106.56 18.3599L101.304 21.0959L104.688 17.241L106.56 18.3599ZM101.736 46.3909L100.296 47.9519L96.336 41.0759L101.736 46.3909ZM98.064 8.20791L92.376 15.0479L95.112 7.05591L98.064 8.20791Z" fill="white"/>
<path id="Vector_32" d="M82.842 40.1371V40.1544C82.842 40.2336 82.9068 40.2969 82.986 40.2969C83.0594 40.2969 83.1213 40.2408 83.1285 40.1688C83.8874 40.2566 84.59 40.356 85.2367 40.464C85.2353 40.4726 85.2338 40.4798 85.2338 40.4885C85.2338 40.5677 85.2985 40.6325 85.3778 40.6325C85.4482 40.6325 85.5073 40.5806 85.5188 40.5129V40.5115C87.8142 40.9089 89.365 41.3856 90.1757 41.6736C90.6236 41.8334 90.8468 41.9357 90.8468 41.9357L89.9454 44.028C89.7926 43.9833 89.6401 43.9387 89.4874 43.8969C84.1983 42.4209 79.2791 42.3763 77.6852 42.408C77.3381 42.4152 77.1481 42.4253 77.1481 42.4253L76.9854 39.8333C77.3281 39.8333 77.6636 39.8361 77.9919 39.8419C79.8007 39.8721 81.4164 39.983 82.842 40.1371Z" fill="#A9D9FF"/>
<path id="Vector_33" d="M87.3262 30.5324C87.551 29.9218 87.7625 29.4725 87.9585 29.1961C88.258 28.7713 88.8038 28.5178 89.4199 28.5178C89.957 28.5178 90.402 28.7151 90.4769 28.9901C90.5505 29.2565 90.2625 29.6065 89.6865 29.9477C89.0527 30.3236 88.2593 30.5209 87.3262 30.5324Z" fill="#FFC962"/>
<path id="Vector_34" d="M87.9577 29.196C87.7619 29.4725 87.5502 29.9218 87.3254 30.5323C88.2586 30.5208 89.052 30.3235 89.6857 29.9477C90.2617 29.6064 90.5497 29.2565 90.4762 28.9901C90.4013 28.715 89.9565 28.5178 89.4192 28.5178C88.803 28.5178 88.2573 28.7712 87.9577 29.196ZM87.1686 30.541C87.3861 29.9419 87.6136 29.4336 87.8397 29.1125C88.8966 27.612 92.1841 28.6315 89.7592 30.0715C89.0421 30.4963 88.1721 30.6734 87.2651 30.6778C87.2651 30.6576 87.2622 30.6374 87.2536 30.6202C87.2501 30.6116 87.2458 30.6034 87.2406 30.5957C87.2356 30.5875 87.2293 30.5802 87.2219 30.5741C87.2158 30.568 87.2091 30.5627 87.2017 30.5582C87.1963 30.5539 87.1905 30.5501 87.1845 30.5467C87.1787 30.5453 87.1744 30.5424 87.1686 30.541ZM87.2521 30.7354C87.242 30.7642 87.232 30.793 87.2233 30.8218C87.1889 30.8218 87.1557 30.8203 87.1211 30.8203C87.1801 30.8203 87.2305 30.7858 87.2521 30.7354Z" fill="black"/>
<path id="Vector_35" d="M87.2412 30.5957C87.2469 30.6043 87.2512 30.6129 87.2541 30.62C87.2512 30.6112 87.2469 30.603 87.2412 30.5957Z" fill="black"/>
<path id="Vector_36" d="M87.2406 30.5957C87.2464 30.6029 87.2507 30.6116 87.2536 30.6202C87.2624 30.6375 87.2651 30.6577 87.2651 30.6778C87.2176 30.6778 87.1686 30.6778 87.1211 30.6764C87.1369 30.6303 87.1529 30.5857 87.1686 30.541C87.1744 30.5425 87.1787 30.5453 87.1845 30.5468C87.1902 30.5497 87.1974 30.554 87.2017 30.5583C87.2089 30.5626 87.2161 30.5684 87.2219 30.5741C87.2291 30.5799 87.2363 30.5885 87.2406 30.5957Z" fill="black"/>
<path id="Vector_37" d="M87.0225 30.5294C87.2701 29.8368 87.4991 29.3457 87.7222 29.0289C88.075 28.5278 88.71 28.2297 89.4199 28.2297C90.1069 28.2297 90.6425 28.5033 90.7549 28.9137C90.8341 29.2017 90.7377 29.6582 89.8333 30.1953C89.1336 30.6101 88.2581 30.8217 87.2327 30.8217H87.2239C87.2327 30.7929 87.2426 30.7641 87.2527 30.7353C87.2615 30.7181 87.2657 30.6979 87.2657 30.6777C88.1729 30.6734 89.0426 30.4963 89.7598 30.0715C92.1847 28.6315 88.8972 27.612 87.8402 29.1125C87.6142 29.4336 87.3866 29.9419 87.1692 30.5409C87.1583 30.5362 87.1465 30.5337 87.1346 30.5337C87.1332 30.5323 87.1318 30.5323 87.1305 30.5323H87.1202C87.0873 30.5323 87.0556 30.5309 87.0225 30.5294Z" fill="black"/>
<path id="Vector_38" d="M87.2323 30.8217C88.2576 30.8217 89.1331 30.61 89.8329 30.1953C90.7372 29.6582 90.8337 29.2017 90.7545 28.9137C90.6422 28.5033 90.1065 28.2297 89.4195 28.2297C88.7096 28.2297 88.0745 28.5278 87.7217 29.0289C87.4985 29.3457 87.2696 29.8367 87.022 30.5294C85.9577 30.4977 84.7439 30.2284 83.6611 29.7777C83.6207 28.6401 83.5545 27.9518 83.4638 27.6738C83.314 27.2246 82.8617 26.9322 82.3118 26.9322C81.923 26.9322 81.5715 27.0878 81.37 27.3455C81.239 27.514 81.1065 27.8092 81.2203 28.2556C81.3571 28.7898 82.1808 29.445 83.3803 29.9706C83.4507 32.0932 83.422 35.0265 83.4132 35.7378L83.0028 35.6889C82.9827 35.6864 82.9623 35.6881 82.943 35.6941C82.9236 35.7 82.9057 35.71 82.8905 35.7234C82.875 35.7368 82.8626 35.7534 82.8542 35.772C82.8457 35.7907 82.8414 35.811 82.8416 35.8314V38.6898C80.6785 38.0908 78.7721 36.9993 77.286 35.5708C75.1232 33.49 73.8531 30.6978 73.9827 27.6796C74.2448 21.623 80.0523 16.9559 86.9558 17.254C93.8577 17.5521 99.2417 22.7044 98.9798 28.7596C98.7982 32.9543 95.9572 36.4823 91.9337 38.1556C90.1483 38.9001 88.1292 39.2774 86.0083 39.1852C85.9363 39.1823 85.8643 39.178 85.7923 39.1737L86.3928 36.2447C86.4014 36.2058 86.3913 36.1641 86.3683 36.131C86.3566 36.115 86.3418 36.1016 86.3247 36.0917C86.3076 36.0817 86.2886 36.0755 86.2689 36.0734L85.8988 36.0302C86.0299 35.3735 86.5742 32.7124 87.2236 30.8217H87.2323Z" fill="#FFC962"/>
<path id="Vector_39" d="M87.2019 30.5581C87.1967 30.5535 87.1909 30.5496 87.1846 30.5466C87.1904 30.5495 87.1962 30.5538 87.2019 30.5581ZM87.1213 30.6762C87.1688 30.6777 87.2178 30.6777 87.2653 30.6777C87.2653 30.6978 87.2611 30.718 87.2523 30.7353C87.2307 30.7857 87.1803 30.8202 87.1213 30.8202H87.1198C87.104 30.8202 87.0896 30.8173 87.0752 30.8116C87.0896 30.7655 87.1054 30.7209 87.1213 30.6762Z" fill="black"/>
<path id="Vector_40" d="M87.1201 30.5322H87.1303C87.1318 30.5322 87.1332 30.5322 87.1345 30.5337C87.1464 30.5337 87.1582 30.5361 87.1691 30.5409C87.1534 30.5855 87.1374 30.6301 87.1215 30.6762C87.074 30.6762 87.0265 30.6748 86.9775 30.6719C86.9775 30.6575 86.9806 30.6431 86.9863 30.6287L86.995 30.6071C87.0207 30.561 87.0697 30.5322 87.1201 30.5322Z" fill="black"/>
<path id="Vector_41" d="M87.1201 30.5324C87.0697 30.5324 87.0208 30.5612 86.9949 30.6073C87.0036 30.5814 87.0121 30.554 87.0222 30.5295C87.0553 30.531 87.087 30.5324 87.1201 30.5324ZM87.1201 30.8204C87.1043 30.8204 87.0885 30.8204 87.0726 30.819C87.0741 30.8161 87.0741 30.8132 87.0756 30.8118C87.0899 30.8175 87.1043 30.8204 87.1201 30.8204ZM87.1216 30.6764C87.1059 30.7211 87.0899 30.7657 87.0756 30.8118C87.0462 30.8029 87.0207 30.7841 87.0036 30.7585C86.9854 30.7335 86.9762 30.703 86.9776 30.6721C87.0265 30.675 87.0741 30.6764 87.1216 30.6764ZM86.9862 30.6289C86.9805 30.6433 86.9774 30.6577 86.9774 30.6721H86.9717C86.9761 30.6577 86.9819 30.6433 86.9862 30.6289Z" fill="black"/>
<path id="Vector_42" d="M87.0036 30.7583C87.0208 30.7842 87.0468 30.8029 87.0756 30.8116C87.074 30.813 87.074 30.8159 87.0726 30.8188C87.0236 30.8188 86.9734 30.8173 86.9229 30.8144C86.9387 30.7655 86.9545 30.718 86.9718 30.6719H86.9776C86.9762 30.7028 86.9854 30.7333 87.0036 30.7583Z" fill="black"/>
<path id="Vector_43" d="M86.9231 30.8145C86.2722 32.7369 85.7336 35.3836 85.6127 35.9956L83.7016 35.771C83.7088 35.1273 83.7391 32.2415 83.6729 30.0945C84.7372 30.5207 85.8748 30.7727 86.9231 30.8145ZM85.7927 39.1737C85.8647 39.178 85.9367 39.1823 86.0087 39.1852C88.1297 39.2774 90.1487 38.9001 91.9341 38.1556V38.157L90.1759 41.6735C89.3652 41.3855 87.8144 40.9089 85.5189 40.5114L85.7927 39.1737Z" fill="#FFC962"/>
<path id="Vector_44" d="M86.3929 36.2448L85.7924 39.1738L85.6484 39.1652L86.2518 36.216L85.8731 36.1714C85.8761 36.1512 85.886 36.1037 85.899 36.0303L86.2691 36.0735C86.3094 36.0778 86.3454 36.0994 86.3684 36.1311C86.3915 36.1642 86.4016 36.206 86.3929 36.2448Z" fill="black"/>
<path id="Vector_45" d="M86.0789 36.3412L85.5029 39.1535C84.7021 39.0929 83.9081 38.9628 83.1299 38.7647V35.9941L83.5259 36.0402L85.7291 36.2994L86.0789 36.3412Z" fill="#FFC962"/>
<path id="Vector_46" d="M86.0039 52.236C86.4719 52.308 86.3639 53.424 84.9239 54.684C83.4839 55.944 80.9308 56.3789 79.9386 56.7734C79.3354 56.2824 78.49 55.679 77.9932 55.3305C77.9932 55.3305 79.5239 51.192 79.9559 51.588C80.3879 51.984 80.3159 53.676 80.3159 53.676C80.3159 53.676 85.5359 52.164 86.0039 52.236Z" fill="#FDA181"/>
<path id="Vector_47" d="M87.2239 30.8217C86.5744 32.7125 86.0301 35.3736 85.8991 36.0302L85.7567 36.0129C85.8819 35.3793 86.4203 32.7355 87.0728 30.8188C87.0887 30.8203 87.1045 30.8203 87.1203 30.8203H87.1218C87.1562 30.8203 87.1893 30.8217 87.2239 30.8217ZM85.5031 39.1536L86.0791 36.3412L85.7291 36.2995V36.298C85.7968 36.298 85.8575 36.2505 85.8703 36.1814C85.8703 36.18 85.8717 36.1771 85.8731 36.1713L86.2519 36.216L85.6487 39.1651C85.5995 39.1622 85.5506 39.1579 85.5031 39.1536ZM85.7925 39.1737L85.5189 40.5115C85.4728 40.5028 85.4254 40.4956 85.3779 40.487L85.6487 39.1651L85.7925 39.1737Z" fill="black"/>
<path id="Vector_48" d="M85.6123 35.9956C85.7333 35.3836 86.2718 32.7369 86.9227 30.8145C86.9732 30.8173 87.0235 30.8188 87.0725 30.8188C86.4201 32.7354 85.8816 35.3793 85.7563 36.0129L85.6123 35.9956ZM85.8989 36.0301C85.8859 36.1036 85.876 36.1511 85.8729 36.1713L85.7289 36.154C85.7289 36.154 85.739 36.105 85.7563 36.0129L85.8989 36.0301Z" fill="black"/>
<path id="Vector_49" d="M85.5874 36.1266C85.5874 36.1223 85.596 36.0777 85.6119 35.9956L85.7559 36.0129C85.7386 36.105 85.7285 36.154 85.7285 36.154L85.5859 36.1367C85.5859 36.1338 85.5874 36.1295 85.5874 36.1266Z" fill="black"/>
<path id="Vector_50" d="M85.7011 36.2952C85.6653 36.2886 85.6333 36.2685 85.6118 36.239C85.5904 36.2095 85.5811 36.1729 85.5858 36.1368L85.7283 36.154L85.8723 36.1713C85.8709 36.1771 85.8695 36.18 85.8695 36.1814C85.8632 36.2142 85.8457 36.2439 85.8199 36.2652C85.7942 36.2865 85.7618 36.2981 85.7283 36.298C85.7199 36.298 85.7112 36.2966 85.7011 36.2952ZM85.5024 39.1536C85.5499 39.1579 85.599 39.1622 85.648 39.1651L85.3773 40.487C85.3312 40.4798 85.2837 40.4712 85.2362 40.464V40.4582L85.5024 39.1536ZM83.701 35.771L85.612 35.9956C85.5962 36.0777 85.5875 36.1224 85.5875 36.1267C85.5875 36.1296 85.5858 36.1339 85.5858 36.1368L83.6982 35.9164C83.6997 35.9121 83.6997 35.9064 83.6997 35.9006C83.6995 35.8963 83.6995 35.8516 83.701 35.771Z" fill="black"/>
<path id="Vector_51" d="M83.1295 38.7649C83.8927 38.9593 84.6862 39.0918 85.5025 39.1537L85.2361 40.4583V40.4641C84.5895 40.3561 83.8868 40.2567 83.1279 40.1689C83.1294 40.1646 83.1294 40.1588 83.1294 40.1531L83.1295 38.7649Z" fill="#FFC962"/>
<path id="Vector_52" d="M85.3776 40.4871C85.4251 40.4958 85.4725 40.5029 85.5186 40.5116V40.513C85.5071 40.5807 85.448 40.6326 85.3776 40.6326C85.2983 40.6326 85.2336 40.5678 85.2336 40.4886C85.2336 40.4799 85.2351 40.4727 85.2365 40.4641C85.284 40.4713 85.3315 40.4799 85.3776 40.4871ZM83.6611 29.7778C84.744 30.2286 85.9578 30.4978 87.0221 30.5295C87.012 30.554 87.0034 30.5813 86.9947 30.6073L86.9861 30.6289C86.9818 30.6433 86.976 30.6577 86.9716 30.6721C85.8296 30.6332 84.6488 30.3366 83.6683 29.9362C83.6668 29.9161 83.6667 29.8959 83.6653 29.8758V29.8714L83.6611 29.7778Z" fill="black"/>
<path id="Vector_53" d="M83.668 29.9363C84.6486 30.3366 85.8294 30.6332 86.9712 30.6721C86.9539 30.7182 86.9382 30.7657 86.9222 30.8147C85.8739 30.7729 84.7363 30.5209 83.6722 30.0947L83.668 29.9363ZM83.6997 35.9008C83.6997 35.9065 83.6997 35.9123 83.6982 35.9166L83.5557 35.8993C83.5557 35.8993 83.5571 35.8475 83.5571 35.7539L83.7011 35.7712C83.6997 35.8518 83.6997 35.8964 83.6997 35.9008Z" fill="black"/>
<path id="Vector_54" d="M83.5576 35.7539C83.5664 35.0771 83.5966 32.1812 83.5273 30.0342C83.5763 30.0543 83.6254 30.0745 83.6728 30.0947C83.739 32.2417 83.7088 35.1275 83.7016 35.7711L83.5576 35.7539Z" fill="black"/>
<path id="Vector_55" d="M83.6723 30.0946C83.6249 30.0744 83.5758 30.0543 83.5268 30.0341C83.5268 30.0283 83.5254 30.024 83.5254 30.0197C83.5528 30.0183 83.5801 30.0096 83.6032 29.9938C83.6262 29.9779 83.6435 29.9563 83.6536 29.9304C83.6579 29.9333 83.6623 29.9347 83.6681 29.9362L83.6723 30.0946Z" fill="black"/>
<path id="Vector_56" d="M83.6543 29.9303C83.6617 29.9131 83.6658 29.8943 83.6658 29.8756C83.6673 29.8958 83.6673 29.9159 83.6689 29.9361C83.6637 29.9351 83.6588 29.9331 83.6543 29.9303ZM83.6615 29.7777L83.6657 29.8713C83.6642 29.8123 83.6225 29.7633 83.5722 29.7417C83.5737 29.7417 83.5764 29.7417 83.578 29.7431C83.6054 29.7547 83.6342 29.7662 83.6615 29.7777ZM83.5218 29.8756C83.565 29.8943 83.6097 29.9131 83.6543 29.9303C83.6444 29.9563 83.6271 29.9779 83.6039 29.9937C83.5807 30.0095 83.5535 30.0182 83.5262 30.0196L83.5218 29.8756ZM83.5578 35.7537C83.5578 35.8473 83.5564 35.8991 83.5564 35.8991L83.4124 35.8819C83.4124 35.8588 83.4138 35.8099 83.4138 35.7379L83.5578 35.7537ZM85.7294 36.2995L83.5262 36.0403C83.5348 36.0417 83.5449 36.0431 83.555 36.0431H83.5564C83.6298 36.0431 83.6903 35.9884 83.699 35.9164L85.5867 36.1367C85.5767 36.2116 85.627 36.2807 85.702 36.2951C85.7119 36.2966 85.7207 36.298 85.7292 36.298V36.2995H85.7294ZM83.4138 35.7379C83.4226 35.0265 83.4513 32.0932 83.3809 29.9707C83.4081 29.9836 83.437 29.9951 83.4658 30.0081C83.486 30.0167 83.5076 30.0254 83.5277 30.034C83.5969 32.1811 83.5666 35.0769 83.5578 35.7537L83.4138 35.7379Z" fill="black"/>
<path id="Vector_57" d="M83.5152 29.7317C83.534 29.7303 83.5543 29.7346 83.5716 29.7418C83.622 29.7634 83.6637 29.8124 83.665 29.8714V29.8757C83.665 29.8944 83.6608 29.9132 83.6535 29.9304C83.6088 29.9132 83.5642 29.8944 83.521 29.8757C83.5196 29.8268 83.5181 29.7792 83.5152 29.7317ZM83.5268 30.0341C83.5066 30.0255 83.485 30.0168 83.4648 30.0082C83.4821 30.0154 83.5023 30.0197 83.521 30.0197H83.5253C83.5253 30.024 83.5268 30.0284 83.5268 30.0341Z" fill="black"/>
<path id="Vector_58" d="M83.5211 29.8757C83.4765 29.857 83.4335 29.8368 83.3887 29.8181C83.3995 29.7932 83.4171 29.7719 83.4396 29.7566C83.462 29.7413 83.4883 29.7327 83.5154 29.7317C83.5183 29.7792 83.5197 29.8267 83.5211 29.8757Z" fill="black"/>
<path id="Vector_59" d="M83.4864 29.7361C83.4774 29.7377 83.4686 29.7406 83.4605 29.7447C83.4691 29.7418 83.4778 29.7375 83.4864 29.7361ZM83.4648 30.0082C83.4395 29.9979 83.4177 29.9804 83.4021 29.9579C83.3865 29.9354 83.3778 29.9089 83.377 29.8815C83.377 29.87 83.377 29.8585 83.38 29.847C83.3814 29.8369 83.3842 29.8282 83.3886 29.8196V29.8182C83.4334 29.8369 83.4765 29.857 83.5211 29.8758C83.5225 29.9233 83.5241 29.9708 83.5254 30.0198H83.5211C83.5022 30.0198 83.4821 30.0154 83.4648 30.0082ZM83.4115 35.882L83.5555 35.8993L83.6981 35.9166C83.6893 35.9886 83.629 36.0433 83.5555 36.0433H83.5541C83.5351 36.0431 83.5164 36.0392 83.499 36.0319C83.4816 36.0245 83.4658 36.0137 83.4526 36.0002C83.4393 35.9867 83.4289 35.9707 83.4218 35.9531C83.4148 35.9355 83.4113 35.9168 83.4115 35.8978V35.882Z" fill="black"/>
<path id="Vector_60" d="M83.377 29.8813C83.3784 29.9361 83.4115 29.985 83.4648 30.0081C83.436 29.9951 83.4072 29.9836 83.3798 29.9706C83.3784 29.9404 83.3784 29.9101 83.377 29.8813Z" fill="black"/>
<path id="Vector_61" d="M83.369 29.6509C82.3465 29.1815 81.6065 28.6055 81.4999 28.1836C81.4322 27.9157 81.4655 27.694 81.598 27.5226C81.7449 27.334 82.0127 27.2202 82.3122 27.2202C82.6332 27.2202 83.0567 27.3628 83.1906 27.7645C83.2452 27.9301 83.3186 28.3938 83.369 29.6509Z" fill="#FFC962"/>
<path id="Vector_62" d="M82.9854 35.8315L83.4116 35.8819V35.8978C83.4102 35.9669 83.4591 36.0259 83.5254 36.0403L83.1294 35.9943V38.7648C83.0804 38.7533 83.0329 38.7418 82.9854 38.7288V35.8315Z" fill="black"/>
<path id="Vector_63" d="M82.9858 40.1529V38.7287C83.0333 38.7417 83.0808 38.7532 83.1298 38.7647V40.1529C83.1298 40.1586 83.1298 40.1644 83.1284 40.1687C83.0808 40.163 83.0333 40.1586 82.9858 40.1529ZM83.0031 35.6889L83.4135 35.7378C83.4135 35.8098 83.412 35.8588 83.412 35.8818L82.9858 35.8314V38.7287L82.8418 38.6898V35.8314C82.8418 35.7897 82.8591 35.7508 82.8908 35.7234C82.921 35.6961 82.9613 35.6846 83.0031 35.6889Z" fill="black"/>
<path id="Vector_64" d="M82.9858 38.7288V40.153C82.9383 40.1472 82.8893 40.1429 82.8418 40.1371V38.6899L82.9858 38.7288Z" fill="black"/>
<path id="Vector_65" d="M82.9858 40.153C83.0333 40.1588 83.0808 40.1631 83.1284 40.1689C83.1212 40.2409 83.0592 40.297 82.9858 40.297C82.9066 40.297 82.8418 40.2337 82.8418 40.1545V40.1372C82.8893 40.143 82.9383 40.1473 82.9858 40.153Z" fill="black"/>
<path id="Vector_66" d="M82.8416 38.6898V40.137C81.416 39.983 79.8004 39.8721 77.9917 39.8418L77.2861 35.5708C78.7722 36.9993 80.6788 38.0908 82.8416 38.6898Z" fill="#FFC962"/>
<path id="Vector_67" d="M82.4397 6.33594L82.1229 12.8879L80.6426 6.33594H82.4397Z" fill="white"/>
<path id="Vector_68" d="M78.5273 44.7263C79.9486 44.7652 84.0007 44.9625 88.158 45.9748L88.1278 46.1015L87.7678 47.9519C82.123 46.8719 78.5518 46.7279 78.5518 46.7279L78.5244 44.8314L78.5273 44.7263Z" fill="#295FC5"/>
<path id="Vector_69" d="M83.1899 27.7648C83.056 27.363 82.6326 27.2204 82.3115 27.2204C82.012 27.2204 81.7441 27.3342 81.5972 27.5228C81.4648 27.6942 81.4316 27.916 81.4992 28.1838C81.6057 28.6057 82.3459 29.1817 83.3683 29.6512C83.318 28.394 83.2446 27.9304 83.1899 27.7648ZM81.3596 28.2198C81.0241 26.8964 82.9912 26.7121 83.3267 27.7201C83.4201 28.0024 83.4793 28.7713 83.5153 29.7318C83.5054 29.7318 83.4966 29.7332 83.4865 29.7361C83.4779 29.7376 83.4694 29.7419 83.4606 29.7448C83.4284 29.7595 83.4027 29.7857 83.3886 29.8182C82.2856 29.3257 81.4849 28.7123 81.3596 28.2198Z" fill="black"/>
<path id="Vector_70" d="M83.3266 27.7201C82.9911 26.7121 81.0241 26.8964 81.3596 28.2197C81.4849 28.7122 82.2855 29.3257 83.3886 29.8181V29.8196C83.3843 29.8282 83.3814 29.8383 83.3799 29.8469C83.3769 29.8585 83.3769 29.87 83.3769 29.8815C83.3783 29.9103 83.3783 29.9405 83.3799 29.9708C82.1804 29.4452 81.3567 28.79 81.2199 28.2557C81.1062 27.8093 81.2386 27.5141 81.3697 27.3457C81.5711 27.0879 81.9226 26.9324 82.3114 26.9324C82.8614 26.9324 83.3137 27.2247 83.4634 27.674C83.5542 27.9519 83.6204 28.6402 83.6607 29.7778C83.6334 29.7663 83.6044 29.7548 83.5772 29.7433C83.5756 29.7418 83.5729 29.7418 83.5714 29.7418C83.5537 29.7342 83.5344 29.7307 83.5151 29.7317C83.4793 28.7713 83.4202 28.0023 83.3266 27.7201Z" fill="black"/>
<path id="Vector_71" d="M77.9929 55.3305C78.4897 55.679 79.335 56.2823 79.9384 56.7734C80.3014 57.0686 80.5777 57.322 80.6397 57.4559C80.6872 57.5596 80.2451 57.9715 79.5136 58.5532C78.4294 57.4415 76.0547 56.0001 76.0547 56.0001C76.9532 55.4399 77.5797 55.0439 77.5797 55.0439C77.5797 55.0439 77.7424 55.1548 77.9929 55.3305Z" fill="#A9D9FF"/>
<path id="Vector_72" d="M89.4244 44.136L88.6684 46.1016C88.4985 46.0569 88.3286 46.0152 88.1587 45.9749C84.0014 44.9625 79.9492 44.7653 78.528 44.7264C78.1838 44.7177 77.9937 44.7177 77.9937 44.7177L77.6884 42.588L77.6855 42.408C79.2795 42.3763 84.1985 42.4209 89.4878 43.8969L89.4244 44.136Z" fill="#3E89FC"/>
<path id="Vector_73" d="M73.0961 12.4761L74.3763 18.3599L70.6899 13.1241L73.0961 12.4761ZM72.3603 37.0079L67.1043 41.0759L66.0963 39.1996L72.3603 37.0079ZM69.6963 28.2196L61.4609 27.0762L62.0643 24.4799L69.6963 28.2196Z" fill="white"/>
<path id="Vector_74" d="M69.8398 64.944C68.6158 65.196 64.8358 62.64 64.8358 62.64L64.7249 62.6054C64.8228 62.28 64.8919 61.9977 64.9078 61.812C64.9438 61.3901 64.5031 60.1718 64.0625 59.0789C65.4694 61.1798 67.7633 64.0713 70.1422 64.8345C70.014 64.8921 69.9118 64.9296 69.8398 64.944Z" fill="#295FC5"/>
<path id="Vector_75" d="M61.8202 115.458C63.6677 115.978 65.3281 115.629 65.9473 115.459L66.0236 116.172C66.0236 116.172 70.2356 117.036 71.0636 117.327C71.8916 117.618 71.7476 119.196 71.7476 119.196L61.5596 118.584L61.8202 115.458Z" fill="#1E1950"/>
<path id="Vector_76" d="M60.7021 78.1244V78.1228C61.3314 78.0294 61.9578 77.9099 62.5684 77.76C67.8604 76.464 68.0764 75.96 68.0764 75.96C68.0764 75.96 68.2088 91.1995 66.9128 99.3355C66.9128 99.3355 66.7084 114.012 66.2044 115.38C66.2044 115.38 66.1136 115.413 65.948 115.459C65.3288 115.629 63.6685 115.978 61.821 115.458C61.7346 115.435 61.6482 115.409 61.5604 115.38C61.5604 115.38 61.6079 101.736 61.8239 99.864C62.0399 97.992 59.4594 83.34 59.4594 83.34L59.3701 83.3169C60.1448 80.3031 60.7021 78.1244 60.7021 78.1244Z" fill="#403882"/>
<path id="Vector_77" d="M60.2639 49.2119C60.2639 49.2119 64.2153 49.9305 61.9631 53.1618C61.197 53.2022 60.0724 53.3001 59.2214 53.3793C58.5374 53.4441 58.0319 53.4959 58.0319 53.4959L57.6388 51.9479L57.4199 51.0839C57.4199 51.0839 60.1559 49.8599 60.2639 49.2119Z" fill="#1E1950"/>
<path id="Vector_78" d="M60.0365 56.1846V56.9521L57.5928 55.4055L60.0365 56.1846Z" fill="#295FC5"/>
<path id="Vector_79" d="M59.2219 53.3794L60.0369 56.1845L57.5932 55.4055L57.0244 55.224L58.0324 53.496C58.0324 53.496 58.5379 53.4442 59.2219 53.3794Z" fill="#A9D9FF"/>
<path id="Vector_80" d="M56.5895 46.0986C56.7219 46.0698 56.7853 45.8409 56.7291 45.5889C56.6744 45.3354 56.5218 45.154 56.3893 45.1828C56.2568 45.2116 56.1935 45.4406 56.2482 45.6926C56.3043 45.946 56.457 46.1274 56.5895 46.0986ZM58.0611 45.2318C58.1173 45.4852 58.2699 45.6666 58.4024 45.6378C58.5349 45.609 58.5983 45.3801 58.5421 45.1266C58.4874 44.8746 58.3347 44.6918 58.2023 44.722C58.0698 44.7508 58.0064 44.9783 58.0611 45.2318ZM57.7703 46.1044C57.7875 46.1764 58.1115 47.4969 58.3923 47.9519L59.0159 47.1599C58.4816 46.9266 57.812 46.1519 57.7703 46.1044ZM52.2003 47.8439C52.2723 46.6199 53.4243 46.7639 53.4243 46.7639L53.4747 45.8279C53.4747 45.8279 54.5778 45.1166 55.3395 44.0092C55.3914 43.9948 55.4389 43.9818 55.4835 43.9718C55.6391 43.9502 55.9861 43.9228 56.205 43.9703C56.2827 43.9862 56.3591 43.9372 56.3763 43.8594C56.3841 43.822 56.3768 43.7831 56.356 43.7511C56.3353 43.719 56.3027 43.6964 56.2655 43.6881C56.0293 43.6377 55.7197 43.6564 55.5541 43.6737C55.9847 42.9278 56.2237 42.035 55.9083 41.0759C55.9083 41.0759 57.8667 41.1105 58.5781 43.1121C58.1533 43.1913 57.8365 43.3526 57.8221 43.3598C57.7515 43.3972 57.7242 43.4836 57.7602 43.5542C57.7861 43.6031 57.8365 43.6319 57.8883 43.6319C57.9114 43.6319 57.933 43.6262 57.9546 43.6161C57.9575 43.6147 58.257 43.4606 58.6487 43.39C58.6559 43.3886 58.6616 43.3871 58.6688 43.3871C58.8215 43.8508 58.9899 44.3649 59.1584 44.8891C59.7488 46.7337 60.3464 48.7223 60.2643 49.2119C60.1563 49.8599 57.4203 51.0839 57.4203 51.0839C57.4203 51.0839 56.6283 51.3503 55.5843 50.9212C55.5843 50.9212 56.2237 51.7953 57.6392 51.9479L58.0323 53.4959L57.0243 55.2239L54.3243 54.3959C55.4763 51.6239 53.9283 48.8159 53.9283 48.8159C53.9283 48.8159 52.1283 49.0679 52.2003 47.8439ZM58.3016 49.7274C58.7999 49.3919 58.8488 48.5999 58.8488 48.5999C58.8488 48.5999 57.6723 48.9844 56.6168 48.8879C56.6168 48.8879 57.8034 50.0644 58.3016 49.7274Z" fill="#FDA181"/>
<path id="Vector_81" d="M59.0151 47.16L58.3916 47.952C58.1108 47.497 57.7868 46.1765 57.7695 46.1045C57.8113 46.152 58.4809 46.9267 59.0151 47.16Z" fill="#F77556"/>
<path id="Vector_82" d="M58.8482 48.6001C58.8482 48.6001 58.7992 49.3921 58.301 49.7276C57.8028 50.0646 56.6162 48.8881 56.6162 48.8881C57.6717 48.9846 58.8482 48.6001 58.8482 48.6001Z" fill="white"/>
<path id="Vector_83" d="M59.2146 43.3671C59.0476 43.3469 58.8647 43.3555 58.6688 43.3872C58.6544 43.3411 58.6386 43.2951 58.6242 43.249C58.6184 43.2331 58.6141 43.2159 58.6084 43.2C58.5983 43.1698 58.5882 43.141 58.5781 43.1122L58.5983 43.1078C58.8301 43.0661 59.0476 43.0575 59.2492 43.0819C59.3269 43.0906 59.3845 43.1626 59.3744 43.2418C59.3658 43.3195 59.2938 43.3771 59.2146 43.3671Z" fill="black"/>
<path id="Vector_84" d="M58.402 45.6379C58.2695 45.6667 58.1169 45.4852 58.0607 45.2318C58.006 44.9783 58.0693 44.7508 58.2018 44.722C58.3343 44.6918 58.4869 44.8747 58.5417 45.1267C58.5978 45.3801 58.5345 45.6091 58.402 45.6379Z" fill="#231F20"/>
<path id="Vector_85" d="M58.6485 43.39C58.2568 43.4605 57.9573 43.6146 57.9544 43.6161C57.9328 43.6261 57.9112 43.6319 57.8881 43.6319C57.8363 43.6319 57.7859 43.6031 57.76 43.5541C57.724 43.4836 57.7513 43.3972 57.8219 43.3597C57.8363 43.3525 58.1531 43.1913 58.5779 43.1121C58.588 43.1409 58.5981 43.1697 58.6081 43.1999C58.6139 43.2157 58.6182 43.233 58.624 43.2489C58.6384 43.2949 58.6542 43.341 58.6686 43.3871C58.6614 43.3871 58.6557 43.3885 58.6485 43.39Z" fill="black"/>
<path id="Vector_86" d="M57.42 51.0841L57.6389 51.9481C56.2233 51.7955 55.584 50.9214 55.584 50.9214C56.628 51.3505 57.42 51.0841 57.42 51.0841Z" fill="#F77556"/>
<path id="Vector_87" d="M57.0237 55.224L55.6312 57.4315L54.2258 55.2254L54.2243 55.224L53.7549 54.4882V54.4867L54.3237 54.396L57.0237 55.224Z" fill="#A9D9FF"/>
<path id="Vector_88" d="M56.3893 45.1829C56.5218 45.1541 56.6744 45.3356 56.7292 45.589C56.7853 45.841 56.722 46.07 56.5895 46.0988C56.457 46.1276 56.3044 45.9461 56.2482 45.6927C56.1935 45.4407 56.2568 45.2117 56.3893 45.1829Z" fill="#231F20"/>
<path id="Vector_89" d="M55.7285 58.6799L54.2266 55.2253L55.632 57.4314L57.0245 55.2239L57.5933 55.4053L55.7285 58.6799Z" fill="#295FC5"/>
<path id="Vector_90" d="M56.2043 43.9704C55.9854 43.9228 55.6384 43.9502 55.4829 43.9718C55.4382 43.9819 55.3907 43.9948 55.3389 44.0092C55.3806 43.9502 55.4195 43.8897 55.4584 43.8292H55.4598C55.4915 43.7788 55.5232 43.727 55.5534 43.6737C55.719 43.6564 56.0286 43.6377 56.2648 43.6881C56.3426 43.7054 56.3915 43.7817 56.3757 43.8595C56.3584 43.9372 56.2821 43.9862 56.2043 43.9704Z" fill="black"/>
<path id="Vector_91" d="M55.3395 44.0093C55.0112 44.1001 54.5677 44.2585 54.428 44.4039C54.4148 44.4181 54.3987 44.4295 54.3809 44.4372C54.363 44.4449 54.3438 44.4487 54.3243 44.4485C54.2883 44.4485 54.2523 44.4356 54.225 44.4082C54.2113 44.3952 54.2004 44.3796 54.1928 44.3623C54.1852 44.3451 54.1811 44.3265 54.1807 44.3076C54.1803 44.2887 54.1836 44.27 54.1905 44.2524C54.1973 44.2348 54.2076 44.2188 54.2207 44.2052C54.4928 43.9172 55.3309 43.7113 55.4259 43.6897L55.4475 43.6853C55.4648 43.6839 55.5023 43.6781 55.5541 43.6738C55.5239 43.7271 55.4922 43.7789 55.4605 43.8293H55.4591C55.4202 43.8898 55.3813 43.9503 55.3395 44.0093Z" fill="black"/>
<path id="Vector_92" d="M51.0211 75.744C51.0283 75.456 50.484 74.1456 50.484 74.1456L50.8166 73.9885C50.8166 73.9885 52.8124 69.7319 52.5964 68.5799C52.4985 68.0543 50.8468 64.0165 49.9684 61.8897C49.6459 61.1106 49.4284 60.5879 49.4284 60.5879L49.3132 60.5649L48.4651 64.7164L47.1604 67.176L50.0275 72.5199C48.3672 72.9316 47.2828 73.6906 46.7745 74.1154C45.4324 71.9423 42.9744 67.932 42.9484 67.644C42.9124 67.248 47.8444 55.8 48.0244 55.584C48.0662 55.5336 48.432 55.4415 48.9676 55.332C50.2968 55.057 52.6713 54.6639 53.7556 54.4868V54.4882L54.2251 55.224L54.2265 55.2255L55.7284 58.68L57.5932 55.4055L60.0369 56.952V56.1845L59.2219 53.3794C60.0729 53.3002 61.1976 53.2023 61.9636 53.162C62.4259 53.1389 62.7571 53.136 62.8204 53.172C63.0724 53.316 69.3004 59.796 69.7324 59.76C70.0392 59.7341 73.8609 57.3711 76.0555 56.0002C76.0555 56.0002 78.43 57.4416 79.5144 58.5533C77.1369 60.4455 71.7038 64.1319 70.1428 64.8346C67.764 64.0714 65.47 61.1799 64.0632 59.0789C64.5038 60.1719 64.9444 61.3901 64.9084 61.812C64.8926 61.9978 64.8235 62.28 64.7256 62.6055C64.39 63.7215 63.7204 65.34 63.7204 65.34C63.7204 65.34 67.1764 71.64 68.0764 75.96C68.0764 75.96 67.8604 76.464 62.5684 77.76C61.9579 77.9098 61.3315 78.0293 60.7022 78.1229C55.8768 78.853 50.8425 78.1245 50.8425 78.1245C50.9462 77.0386 51.0168 75.8909 51.0211 75.744Z" fill="#3E89FC"/>
<path id="Vector_93" d="M52.1996 47.8441C52.1276 49.0681 53.9276 48.8161 53.9276 48.8161C53.9276 48.8161 55.4756 51.6241 54.3236 54.3961L53.7548 54.4868C52.6704 54.6639 50.2959 55.057 48.9668 55.3321V55.3306C48.9624 55.3306 47.6636 55.3292 47.4836 53.2801C47.3036 51.2281 49.8956 50.1841 50.1476 48.9241C50.3996 47.6641 48.7436 46.6201 49.0316 44.6041C49.3196 42.5881 50.9396 40.0321 55.5836 39.2761C60.2276 38.5201 60.8943 42.6183 59.1576 44.8892C58.9892 44.365 58.8207 43.8509 58.668 43.3873C58.8639 43.3556 59.0468 43.347 59.2138 43.3671C59.2325 43.3694 59.2515 43.368 59.2697 43.363C59.2879 43.358 59.3049 43.3494 59.3198 43.3377C59.3346 43.3261 59.347 43.3116 59.3563 43.2952C59.3655 43.2787 59.3714 43.2606 59.3736 43.2418C59.376 43.2231 59.3746 43.2041 59.3695 43.1859C59.3645 43.1677 59.3559 43.1507 59.3443 43.1358C59.3326 43.121 59.3181 43.1086 59.3017 43.0993C59.2852 43.0901 59.2671 43.0842 59.2484 43.082C59.0468 43.0575 58.8293 43.0661 58.5975 43.1079L58.5773 43.1122C57.866 41.1106 55.9076 41.0761 55.9076 41.0761C56.2229 42.0351 55.9839 42.9279 55.5533 43.6738C55.5015 43.6782 55.464 43.6839 55.4468 43.6853L55.4252 43.6897C55.3301 43.7113 54.492 43.9172 54.2199 44.2052C54.1652 44.2628 54.1666 44.3535 54.2242 44.4082C54.2516 44.4356 54.2876 44.4486 54.3236 44.4486C54.361 44.4486 54.3999 44.4341 54.4272 44.4039C54.5669 44.2585 55.0104 44.1001 55.3388 44.0093C54.577 45.1167 53.474 45.8281 53.474 45.8281L53.4236 46.7641C53.4236 46.7641 52.2716 46.6201 52.1996 47.8441Z" fill="#1E1950"/>
<path id="Vector_94" d="M50.0274 72.5198L50.8165 73.9884L50.4839 74.1455L48.0517 75.2932L47.6283 75.4919C47.6283 75.4919 47.2813 74.9347 46.7744 74.1153C47.2827 73.6905 48.3671 72.9316 50.0274 72.5198Z" fill="#A9D9FF"/>
<path id="Vector_95" d="M50.4833 74.1455C50.4833 74.1455 51.0276 75.4559 51.0204 75.7439C51.0161 75.8908 50.9455 77.0385 50.8418 78.1242C50.7425 79.1682 50.6129 80.1532 50.4833 80.1359C50.3839 80.1229 50.1348 79.9717 49.8382 79.7226C49.3457 79.3065 48.725 78.6181 48.4558 77.8319C48.0238 76.5719 48.0511 75.2932 48.0511 75.2932L50.4833 74.1455Z" fill="#FDA181"/>
<path id="Vector_96" d="M49.2484 101.376C49.3564 99.3241 49.7827 79.9935 49.8388 79.7228C50.1355 79.9719 50.3846 80.1231 50.4839 80.1361C50.6135 80.1533 50.7432 79.1684 50.8425 78.1244C50.8425 78.1244 55.8768 78.853 60.7022 78.1228V78.1244C60.7022 78.1244 60.1449 80.3031 59.3702 83.317C57.7056 89.7812 55.0401 100.084 54.7204 100.944C54.7204 100.944 54.4684 106.802 51.3364 114.326C51.3364 114.326 51.2212 114.364 51.0124 114.408C50.3731 114.546 48.8539 114.759 47.0567 114.217C46.8551 114.155 46.6492 114.084 46.4404 114.002C46.4404 114.002 49.1404 103.428 49.2484 101.376Z" fill="#295FC5"/>
<path id="Vector_97" d="M47.0567 114.217C48.8538 114.76 50.373 114.546 51.0124 114.408L50.6164 118.404L40.8604 118.584C40.8604 118.584 40.8604 117.396 41.1484 116.82C41.4364 116.244 46.4404 115.344 46.4404 115.344L47.0567 114.217Z" fill="#1E1950"/>
<path id="Vector_98" d="M49.4282 60.588C49.4282 60.588 49.6456 61.1107 49.9682 61.8897L49.9653 61.8912L48.4648 64.7165L49.313 60.5649L49.4282 60.588Z" fill="#295FC5"/>
<path id="Vector_99" d="M95.4723 26.184C95.3309 24.838 94.1498 22.7084 93.0727 21.9596C92.7674 21.7474 91.7489 21.2543 91.3639 21.5954C90.733 22.1543 91.6674 23.1187 92.0163 23.4959C92.5985 24.1257 93.24 24.7676 93.627 25.507C93.9145 26.0564 94.0187 26.7836 94.3925 27.2638C95.4408 28.6102 95.9778 26.9074 95.3763 25.896M95.0883 29.928C94.9545 30.2586 94.5558 31.5466 94.7025 31.944C94.9269 32.5512 95.6135 32.7135 96.0338 32.1359C96.6976 31.2233 95.2857 29.2287 94.8963 30.4079" fill="white"/>
</g>
</svg>
