<svg width="20" height="20" viewBox="0 0 20 20" fill="none" xmlns="http://www.w3.org/2000/svg">
<g id="Live area" clip-path="url(#clip0_2429_4005)">
<g id="Vector">
<path fill-rule="evenodd" clip-rule="evenodd" d="M2 2C2 0.895432 2.89543 0 4 0H16C17.1046 0 18 0.89543 18 2V18C18 19.1046 17.1046 20 16 20H4C2.89543 20 2 19.1046 2 18V2ZM16 2L4 2V18H16V2Z" fill="#9C99C0"/>
<path fill-rule="evenodd" clip-rule="evenodd" d="M6 10C6 9.44771 6.44772 9 7 9H13C13.5523 9 14 9.44771 14 10C14 10.5523 13.5523 11 13 11H7C6.44772 11 6 10.5523 6 10Z" fill="#9C99C0"/>
<path fill-rule="evenodd" clip-rule="evenodd" d="M6 14C6 13.4477 6.44772 13 7 13H10C10.5523 13 11 13.4477 11 14C11 14.5523 10.5523 15 10 15H7C6.44772 15 6 14.5523 6 14Z" fill="#9C99C0"/>
<path fill-rule="evenodd" clip-rule="evenodd" d="M6 6C6 5.44772 6.44772 5 7 5H13C13.5523 5 14 5.44772 14 6C14 6.55228 13.5523 7 13 7H7C6.44772 7 6 6.55228 6 6Z" fill="#9C99C0"/>
</g>
</g>
<defs>
<clipPath id="clip0_2429_4005">
<rect width="20" height="20" fill="white"/>
</clipPath>
</defs>
</svg>
