<svg width="240" height="238" viewBox="0 0 240 238" fill="none" xmlns="http://www.w3.org/2000/svg">
<g clip-path="url(#clip0_791_6195)">
<path d="M38.8428 205.805H18.5435V212.257H38.8428V205.805Z" fill="#EBEBEB"/>
<path d="M27.5211 220.393C24.1379 220.45 15.6105 220.594 12.3427 220.635H7.22172H6.96191V220.369V213.918V213.664H7.25059L17.4003 213.704C19.9233 213.704 25.0212 213.785 27.55 213.82H27.6885V213.952L27.5557 220.404L27.5211 220.393ZM27.5211 220.393L27.3825 213.941L27.5211 214.079C24.9866 214.114 19.9002 214.171 17.3714 214.195L7.22172 214.241L7.51039 213.952V220.404L7.24481 220.145H12.2735C15.4893 220.185 24.2129 220.329 27.5442 220.381L27.5211 220.393Z" fill="#EBEBEB"/>
<path d="M104.158 39.657C100.775 39.7147 92.2472 39.8588 88.9794 39.8934H83.8584H83.6274V39.6282V33.1765V32.8882H83.9161L94.0658 32.9285C96.5946 32.9285 101.687 33.0035 104.215 33.0381H104.354V33.1995L104.215 39.6513L104.158 39.657ZM104.158 39.657L104.019 33.1995L104.158 33.3379C101.623 33.3725 96.5368 33.4244 94.0081 33.4475L83.8584 33.4878L84.147 33.1995V39.6513L83.8815 39.3918H88.9101C92.1259 39.4264 100.85 39.5706 104.181 39.6282L104.158 39.657Z" fill="#EBEBEB"/>
<path d="M232.778 213.94H212.479V220.392H232.778V213.94Z" fill="#EBEBEB"/>
<path d="M110.757 9.31806L106.467 10.1137L105.509 14.6282L104.55 10.1137L100.261 9.31806L104.533 8.27447L105.509 4.01367L106.484 8.27447L110.757 9.31806Z" fill="#6C63FF"/>
<path d="M51.2096 31.1466L48.8136 31.5906L48.2766 34.1159L47.7397 31.5906L45.3438 31.1466L47.7339 30.5643L48.2766 28.1831L48.8251 30.5643L51.2096 31.1466Z" fill="#6C63FF"/>
<path d="M167.227 32.0866L164.831 32.5305L164.294 35.0559L163.763 32.5305L161.361 32.0866L163.751 31.5043L164.294 29.123L164.842 31.5043L167.227 32.0866Z" fill="#6C63FF"/>
<path d="M201.683 56.5504L199.287 56.9885L198.75 59.5139L198.219 56.9885L195.817 56.5446L198.207 55.9623L198.75 53.5811L199.298 55.9623L201.683 56.5504Z" fill="#6C63FF"/>
<path d="M152.233 77.3467L149.837 77.7907L149.3 80.3103L148.763 77.7907L146.367 77.3467L148.752 76.7644L149.3 74.3774L149.843 76.7644L152.233 77.3467Z" fill="#6C63FF"/>
<path d="M73.1779 71.2814L70.7819 71.7254L70.245 74.2507L69.7138 71.7254L67.3179 71.2814L69.7023 70.6991L70.245 68.3179L70.7935 70.6991L73.1779 71.2814Z" fill="#6C63FF"/>
<path d="M31.9093 92.8677L29.5133 93.3117L28.9764 95.8313L28.4452 93.3117L26.0435 92.8677L28.4337 92.2854L28.9764 89.8984L29.5248 92.2854L31.9093 92.8677Z" fill="#6C63FF"/>
<path d="M142.291 63.2383C142.108 63.2383 141.931 63.3112 141.802 63.4409C141.672 63.5707 141.599 63.7467 141.599 63.9302C141.599 64.1137 141.672 64.2896 141.802 64.4194C141.931 64.5491 142.108 64.622 142.291 64.622C142.475 64.622 142.651 64.5491 142.781 64.4194C142.911 64.2896 142.984 64.1137 142.984 63.9302C142.984 63.7467 142.911 63.5707 142.781 63.4409C142.651 63.3112 142.475 63.2383 142.291 63.2383Z" fill="#6C63FF"/>
<path d="M77.8544 53.6152C77.6808 53.631 77.5194 53.7111 77.4019 53.8396C77.2844 53.9682 77.2192 54.1359 77.2192 54.31C77.2192 54.4841 77.2844 54.6518 77.4019 54.7804C77.5194 54.9089 77.6808 54.9889 77.8544 55.0048C78.028 54.9889 78.1893 54.9089 78.3069 54.7804C78.4244 54.6518 78.4895 54.4841 78.4895 54.31C78.4895 54.1359 78.4244 53.9682 78.3069 53.8396C78.1893 53.7111 78.028 53.631 77.8544 53.6152Z" fill="#6C63FF"/>
<path d="M20.3739 97.6992C20.2003 97.715 20.039 97.7951 19.9214 97.9236C19.8039 98.0521 19.7388 98.2199 19.7388 98.394C19.7388 98.568 19.8039 98.7358 19.9214 98.8644C20.039 98.9929 20.2003 99.0729 20.3739 99.0887C20.5475 99.0729 20.7089 98.9929 20.8264 98.8644C20.9439 98.7358 21.0091 98.568 21.0091 98.394C21.0091 98.2199 20.9439 98.0521 20.8264 97.9236C20.7089 97.7951 20.5475 97.715 20.3739 97.6992Z" fill="#6C63FF"/>
<path d="M66.4229 58.5679C66.2927 58.5679 66.1679 58.6195 66.0759 58.7114C65.9838 58.8033 65.9321 58.928 65.9321 59.058C65.9321 59.1879 65.9838 59.3126 66.0759 59.4045C66.1679 59.4964 66.2927 59.548 66.4229 59.548C66.553 59.548 66.6778 59.4964 66.7699 59.4045C66.8619 59.3126 66.9136 59.1879 66.9136 59.058C66.9136 58.928 66.8619 58.8033 66.7699 58.7114C66.6778 58.6195 66.553 58.5679 66.4229 58.5679Z" fill="#6C63FF"/>
<path d="M38.9414 63.4399C38.8113 63.4399 38.6865 63.4916 38.5944 63.5835C38.5024 63.6754 38.4507 63.8 38.4507 63.93C38.4507 64.06 38.5024 64.1847 38.5944 64.2766C38.6865 64.3685 38.8113 64.4201 38.9414 64.4201C39.0716 64.4201 39.1964 64.3685 39.2884 64.2766C39.3805 64.1847 39.4322 64.06 39.4322 63.93C39.4322 63.8 39.3805 63.6754 39.2884 63.5835C39.1964 63.4916 39.0716 63.4399 38.9414 63.4399Z" fill="#6C63FF"/>
<path d="M97.5762 14.6284C97.446 14.6284 97.3212 14.68 97.2292 14.772C97.1372 14.8639 97.0854 14.9885 97.0854 15.1185C97.0854 15.2485 97.1372 15.3731 97.2292 15.465C97.3212 15.5569 97.446 15.6086 97.5762 15.6086C97.7063 15.6086 97.8312 15.5569 97.9232 15.465C98.0152 15.3731 98.0669 15.2485 98.0669 15.1185C98.0669 14.9885 98.0152 14.8639 97.9232 14.772C97.8312 14.68 97.7063 14.6284 97.5762 14.6284Z" fill="#6C63FF"/>
<path d="M172.85 40.8501C172.72 40.8501 172.595 40.9017 172.503 40.9936C172.411 41.0855 172.359 41.2102 172.359 41.3402C172.359 41.4702 172.411 41.5948 172.503 41.6867C172.595 41.7786 172.72 41.8303 172.85 41.8303C172.98 41.8303 173.105 41.7786 173.197 41.6867C173.289 41.5948 173.341 41.4702 173.341 41.3402C173.341 41.2102 173.289 41.0855 173.197 40.9936C173.105 40.9017 172.98 40.8501 172.85 40.8501Z" fill="#6C63FF"/>
<path d="M219.014 86.0703C217.282 86.0703 217.282 88.734 219.014 88.734C220.746 88.734 220.729 86.0703 219.014 86.0703Z" fill="#6C63FF"/>
<path d="M132.881 16.4443C131.149 16.4443 131.149 19.1023 132.881 19.1023C134.613 19.1023 134.595 16.4443 132.881 16.4443Z" fill="#6C63FF"/>
<path d="M43.4905 105.576L94.7181 121.679L80.2037 191.905L20.0908 174.815L43.4905 105.576Z" fill="#6C63FF"/>
<path opacity="0.6" d="M43.4905 105.576L94.7181 121.679L80.2037 191.905L20.0908 174.815L43.4905 105.576Z" fill="white"/>
<path d="M20.0906 174.815L2.85693 166.253L36.643 102.399L39.3334 105.362L43.4903 105.576L20.0906 174.815Z" fill="#6C63FF"/>
<path opacity="0.4" d="M20.0906 174.815L2.85693 166.253L36.643 102.399L39.3334 105.362L43.4903 105.576L20.0906 174.815Z" fill="white"/>
<path opacity="0.5" d="M13.6244 163.382L2.85693 166.253L36.643 102.399L39.3334 105.362L13.6244 163.382Z" fill="#6C63FF"/>
<path d="M20.2118 173.195C19.2765 171.523 18.2546 169.909 17.2269 168.3C16.1993 166.691 15.1254 165.112 14.0285 163.549L13.8784 163.33L13.6243 163.382C12.0482 163.688 10.472 163.993 8.90743 164.368C7.34284 164.743 5.77824 165.094 4.23096 165.521C5.83597 165.377 7.42944 165.164 9.01713 164.944C10.6048 164.725 12.1925 164.449 13.7744 164.166L13.3703 163.999C14.4518 165.579 15.5565 167.135 16.6842 168.669C17.8101 170.197 18.9647 171.725 20.2118 173.195Z" fill="#6C63FF"/>
<path d="M13.6128 163.929C15.9222 159.115 18.1392 154.266 20.3446 149.406C22.5501 144.545 24.6862 139.668 26.8628 134.796C29.0394 129.924 31.1178 124.994 33.2136 120.105L36.3139 112.725C37.3185 110.257 38.3519 107.795 39.3276 105.316C38.1729 107.714 37.0587 110.142 35.9213 112.558L32.5958 119.834C30.3904 124.688 28.2484 129.572 26.0776 134.444C23.9068 139.316 21.8226 144.245 19.7268 149.14C17.6311 154.036 15.5873 158.971 13.6128 163.929Z" fill="#6C63FF"/>
<path d="M43.017 109.646L96.6463 113.111L100.07 199.157L37.5957 197.209L43.017 109.646Z" fill="#455A64"/>
<path d="M37.5956 197.209L18.7627 192.383L35.598 107.997L38.935 110.644L43.0169 109.646L37.5956 197.209Z" fill="#37474F"/>
<path opacity="0.1" d="M28.4794 185.827L18.7627 192.383L35.598 107.997L38.935 110.644L28.4794 185.827Z" fill="black"/>
<path d="M37.307 195.277C35.9849 193.617 34.5878 192.043 33.1964 190.475C31.805 188.906 30.3616 187.396 28.9125 185.902L28.7104 185.695L28.4795 185.827C27.0303 186.652 25.5928 187.482 24.1609 188.382C22.7291 189.281 21.3089 190.157 19.9175 191.138C21.4359 190.486 22.9254 189.765 24.4092 189.016C25.893 188.266 27.3594 187.488 28.8201 186.71L28.3871 186.635C29.8266 188.153 31.2854 189.635 32.7634 191.08C34.2529 192.504 35.7424 193.94 37.307 195.277Z" fill="#263238"/>
<path d="M28.6006 186.468C29.6398 180.177 30.5809 173.875 31.4873 167.562C32.3937 161.249 33.2655 154.93 34.1604 148.616C35.0553 142.303 35.8462 135.961 36.6372 129.624L37.7919 120.117C38.1498 116.94 38.5367 113.774 38.8715 110.592C38.3404 113.734 37.8727 116.888 37.3704 120.036L35.9963 129.486C35.0668 135.793 34.2124 142.118 33.3232 148.432C32.4341 154.745 31.6663 161.099 30.8464 167.435C30.0266 173.772 29.2819 180.108 28.6006 186.468Z" fill="#263238"/>
<path d="M95.5145 37.0855C100.306 32.4729 113.043 26.9725 125.23 38.2386C142.551 54.2094 136.379 97.9532 133.971 104.618C133.971 104.618 104.215 115.256 77.5649 100.254C77.5649 100.254 91.7503 70.6357 89.2677 55.5297C88.7028 52.1793 88.9776 48.7413 90.0677 45.5228C91.1578 42.3043 93.0291 39.4056 95.5145 37.0855Z" fill="#263238"/>
<path d="M86.7099 71.9848C86.6176 72.2269 86.5367 72.4691 86.4444 72.7112C85.2507 75.7862 83.7761 78.7449 82.0392 81.5499C80.4478 84.2791 78.468 86.7631 76.1619 88.9242C76.0984 88.9818 75.9945 88.8954 76.058 88.8377C78.4309 86.6064 80.0532 83.7639 81.5427 80.933C83.003 78.1611 84.2947 75.3039 85.4109 72.3768C87.7151 66.4346 89.2497 60.2228 89.9777 53.8922C89.9777 53.7711 90.2086 53.7827 90.2029 53.8922C90.174 54.7801 90.122 55.6623 90.0528 56.5444C90.0705 56.5372 90.0898 56.5348 90.1088 56.5373C90.1278 56.5399 90.1458 56.5474 90.1609 56.5591C90.1761 56.5707 90.188 56.5861 90.1953 56.6038C90.2027 56.6215 90.2053 56.6407 90.2029 56.6597C89.6717 62.5752 88.9731 68.3755 87.2238 74.0662C85.4511 79.6556 82.9138 84.9737 79.6837 89.8698C77.8949 92.6547 75.9339 95.3256 73.8121 97.8667C73.8094 97.8723 73.8054 97.8772 73.8004 97.881C73.7954 97.8849 73.7897 97.8875 73.7835 97.8887C73.7774 97.8899 73.771 97.8896 73.765 97.8879C73.7589 97.8863 73.7534 97.8832 73.7487 97.879C73.7441 97.8749 73.7405 97.8697 73.7382 97.8638C73.7359 97.858 73.735 97.8517 73.7355 97.8455C73.7361 97.8393 73.738 97.8333 73.7413 97.8279C73.7446 97.8226 73.7491 97.8181 73.7544 97.8148C79.6952 90.0831 83.829 81.204 86.7099 71.9848Z" fill="#263238"/>
<path d="M119.792 35.7651C135.12 44.8748 139.756 63.0942 139.86 79.3244C139.94 84.321 139.527 89.3132 138.625 94.2286C138.625 94.2469 138.617 94.2645 138.604 94.2775C138.592 94.2905 138.574 94.2978 138.556 94.2978C138.537 94.2978 138.52 94.2905 138.507 94.2775C138.494 94.2645 138.486 94.2469 138.486 94.2286C139.478 85.6382 139.22 76.9496 137.718 68.4332C136.269 60.4593 133.971 52.2202 129.301 45.3706C126.815 41.5943 123.535 38.4048 119.688 36.0245C119.544 35.9092 119.648 35.6786 119.792 35.7651Z" fill="#263238"/>
<path d="M124.693 95.3646C148.364 116.79 165.211 135.246 164.992 143.64C164.49 162.442 154.559 166.501 152.793 165.907C134.116 159.565 122.245 124.072 114.394 102.618C106.599 81.3253 117.91 89.23 124.693 95.3646Z" fill="#F1B4A1"/>
<path d="M137.205 157.339L167.873 134.484C167.873 134.484 138.325 104.013 122.961 92.6603C110.058 83.1182 103.574 89.8525 111.657 108.735C119.307 126.603 137.205 157.339 137.205 157.339Z" fill="#6C63FF"/>
<path d="M150.882 117.539L147.995 114.76C146.788 115.429 146.107 116.778 145.79 118.341C145.059 120.504 144.83 122.805 145.12 125.069C145.293 126.309 145.824 128.119 147.429 127.819C149.161 127.502 149.918 124.787 150.316 123.409C150.771 121.487 150.962 119.512 150.882 117.539ZM139.37 126.603C138.654 125.121 137.291 123.622 135.675 124.948C133.943 126.384 134.104 129.347 134.456 131.325C134.711 132.941 135.242 134.501 136.027 135.937C136.39 136.749 137.011 137.417 137.793 137.84C139.953 138.745 140.132 135.886 140.299 134.456C140.605 131.844 140.524 129.071 139.37 126.603ZM143.532 110.494L141.304 108.407C140.311 108.539 139.71 109.456 139.387 110.603C138.88 112.163 138.684 113.806 138.81 115.441C138.919 116.427 139.121 118.133 140.23 118.571C141.338 119.01 142.227 117.862 142.614 116.974C143.093 115.919 143.908 112.685 143.532 110.511V110.494ZM126.737 109.883C126.478 106.965 124.734 104.451 122.835 102.324C121.553 100.871 119.243 97.9477 117.021 99.5793C115.289 100.842 116.028 103.333 116.686 104.953C117.767 107.548 119.57 109.779 121.882 111.382C122.852 112.033 124.313 112.835 125.346 112.46C126.397 112.293 126.859 111.261 126.737 109.883ZM148.474 140.227C147.897 138.301 145.98 135.078 144.491 135.367C143.272 135.615 142.291 138.382 143.336 141.911C144.462 145.727 146.575 147.348 147.562 146.909C149.531 146.062 149.196 142.747 148.474 140.25V140.227Z" fill="#263238"/>
<path d="M158.976 131.261C156.844 132.482 154.787 133.83 152.816 135.297C150.72 136.722 148.694 138.221 146.656 139.708C144.618 141.196 136.737 147.428 134.768 148.991C134.682 149.06 134.815 149.204 134.907 149.141C137.008 147.722 145.299 142.078 147.302 140.613C149.306 139.149 151.298 137.69 153.238 136.162C155.177 134.634 157.308 133.141 159.051 131.383C159.086 131.319 159.034 131.215 158.976 131.261Z" fill="#263238"/>
<path opacity="0.1" d="M154.923 144.136L137.205 157.339C137.205 157.339 119.307 126.609 111.657 108.735C106.409 96.4774 107.304 89.3453 112.102 88.4517C119.78 98.3513 140.086 124.573 154.923 144.136Z" fill="black"/>
<path d="M114.908 89.4663C119.258 92.5586 122.574 96.8886 124.422 101.891C127.471 110.205 143.561 149.446 146.309 158.008C149.058 166.57 170.494 208.25 170.494 208.25C170.494 208.25 158.722 220.9 155.287 223.494C150.512 227.115 133.221 232.875 133.221 232.875C133.221 232.875 125.981 170.646 124.619 164.327C123.256 158.008 114.908 89.4663 114.908 89.4663Z" fill="#6C63FF"/>
<path d="M153.486 185.989C152.643 188.624 150.766 190.751 148.694 192.504C147.574 193.455 145.449 195.462 144.467 193.288C144.175 192.43 144.175 191.5 144.467 190.642C144.884 189.022 145.577 187.487 146.517 186.104C147.631 184.374 149.565 182.068 151.869 182.183C154.005 182.339 153.976 184.403 153.486 185.989Z" fill="#263238"/>
<path d="M140.501 198.402C140.432 201.285 139.981 204.399 138.14 206.757C137.285 207.858 136.217 208.302 135.293 207.702C134.26 207.264 133.729 205.655 133.469 204.491C132.856 201.693 133.067 198.777 134.075 196.096C134.71 194.424 135.9 192.06 138.07 192.314C140.865 192.642 140.553 196.43 140.501 198.402Z" fill="#263238"/>
<path d="M151.176 196.119C152.487 196.932 151.679 200.674 150.761 202.507C149.606 204.854 147.499 207.587 145.426 206.866C144.375 206.497 143.931 203.828 145.749 200.195C147.447 196.834 150.108 195.45 151.176 196.119Z" fill="#263238"/>
<path d="M159.444 215.342C159.08 216.316 158.243 218.057 157.036 218.225C155.829 218.392 155.518 217.216 155.431 216.333C155.318 214.947 155.427 213.551 155.754 212.199C156.112 210.372 156.99 208.74 158.681 208.44C162.024 207.898 159.923 214.085 159.444 215.342Z" fill="#263238"/>
<path d="M158.295 237.92H103.967C101.606 228.66 97.9685 214.408 94.8047 201.989C94.6142 201.227 94.4179 200.466 94.2274 199.728C94.1061 199.261 93.9964 198.806 93.881 198.356C90.8326 186.421 88.4308 176.983 88.3731 176.764L88.2865 176.447C88.2576 176.331 88.2461 176.268 88.2461 176.268H140.698L158.295 237.92Z" fill="#37474F"/>
<path d="M138.994 176.222C138.994 176.256 138.994 176.32 138.994 176.4C138.994 177.017 138.994 177.634 138.994 178.251C138.994 179.819 138.902 181.388 138.798 182.956C138.383 189.089 137.581 195.19 136.396 201.221C134.861 209.176 132.829 217.027 130.311 224.728C130.086 225.397 129.953 225.772 129.941 225.812L125.756 227.876L125.415 228.049L117.113 232.177C115.958 232.754 115.109 233.175 114.873 233.301L114.809 233.336C114.809 233.336 114.717 235.198 114.601 237.92H57.9408C59.0955 228.326 59.2283 227.057 59.2283 227.057C58.8935 225.207 57.4097 220.438 57.9408 214.892C59.0955 202.709 66.601 178.245 67.2707 176.787C67.4266 176.429 67.5247 176.245 67.5247 176.245H81.8544H115.802H138.994V176.222Z" fill="#37474F"/>
<path d="M114.867 233.175V233.302C114.867 234.841 114.827 236.387 114.804 237.914H114.227C114.354 236.369 114.458 234.818 114.642 233.273C114.642 233.135 114.642 232.996 114.683 232.858C114.683 232.835 114.692 232.813 114.708 232.797C114.724 232.781 114.746 232.771 114.769 232.771C114.792 232.771 114.814 232.781 114.831 232.797C114.847 232.813 114.856 232.835 114.856 232.858C114.862 232.973 114.867 233.077 114.867 233.175Z" fill="#263238"/>
<path d="M108.078 236.15C110.485 234.484 113.083 233.083 115.635 231.641C118.187 230.2 120.889 228.758 123.602 227.496C128.908 225.034 134.502 223.252 140.08 221.523C140.113 221.51 140.149 221.51 140.182 221.524C140.214 221.538 140.24 221.565 140.253 221.597C140.266 221.63 140.265 221.667 140.251 221.699C140.237 221.732 140.211 221.757 140.178 221.77C134.808 224.077 129.595 226.717 124.255 229.081C121.564 230.275 118.856 231.388 116.172 232.598C113.487 233.809 110.86 235.124 108.147 236.254C108.06 236.277 108.008 236.19 108.078 236.15Z" fill="#263238"/>
<path d="M122.777 209.882C122.846 207.247 123.031 204.618 123.158 201.988C123.47 195.785 123.735 189.54 124.313 183.354C124.32 183.308 124.344 183.267 124.38 183.237C124.415 183.208 124.46 183.191 124.506 183.191C124.552 183.191 124.597 183.208 124.632 183.237C124.668 183.267 124.692 183.308 124.699 183.354C124.78 188.157 124.595 192.971 124.497 197.768C124.445 200.172 124.376 202.571 124.313 204.975C124.179 207.267 124.163 209.565 124.266 211.859C124.393 213.589 124.774 216.956 127.038 217.164C129.168 217.36 130.334 215.065 130.865 213.376C132.216 209.103 132.696 204.491 133.134 200.045C133.394 197.411 133.654 194.787 133.81 192.147C133.966 189.506 134.179 185.551 134.035 182.887C134.035 182.72 134.272 182.725 134.301 182.887C134.722 185.193 134.739 189.806 134.682 192.533C134.162 217.019 130.294 218.415 128.25 218.813C127.999 218.862 127.744 218.889 127.488 218.893C127.488 219.47 127.39 220.012 127.349 220.56C127.292 221.43 127.182 222.289 127.067 223.16C126.941 224.008 126.764 224.847 126.535 225.674C126.351 226.512 126.052 227.321 125.646 228.078C125.63 228.101 125.607 228.119 125.58 228.128C125.554 228.138 125.524 228.138 125.497 228.13C125.47 228.122 125.446 228.105 125.43 228.082C125.413 228.059 125.404 228.031 125.404 228.003C125.384 227.172 125.453 226.34 125.612 225.524C125.727 224.682 125.843 223.794 126.016 222.993C126.189 222.191 126.339 221.344 126.512 220.525C126.622 219.948 126.703 219.406 126.807 218.847C126.145 218.733 125.523 218.456 124.996 218.041C124.469 217.626 124.053 217.087 123.787 216.472C122.8 214.465 122.725 212.078 122.777 209.882Z" fill="#263238"/>
<path d="M73.2351 205.229C76.6587 205.471 80.0362 205.909 83.4714 205.506C86.7044 205.174 89.7851 203.966 92.3798 202.012C98.0262 197.641 100.503 190.48 102.027 183.775C102.032 183.743 102.049 183.714 102.075 183.694C102.101 183.675 102.134 183.667 102.166 183.671C102.198 183.676 102.227 183.693 102.246 183.719C102.266 183.745 102.274 183.777 102.27 183.81C101.629 189.633 100.376 195.652 96.6117 200.334C94.9926 202.396 92.9438 204.082 90.6073 205.275C88.1259 206.427 85.4099 206.985 82.6746 206.907C79.4677 206.879 76.2769 206.449 73.1773 205.627C73.1282 205.615 73.0853 205.585 73.0569 205.544C73.0285 205.502 73.0168 205.451 73.0241 205.401C73.0313 205.352 73.057 205.306 73.096 205.274C73.1351 205.242 73.1847 205.226 73.2351 205.229Z" fill="#263238"/>
<path d="M147.96 203.862C147.008 203.753 146.072 203.862 145.102 203.136C144.132 202.409 143.313 201.17 142.556 199.1C140.911 194.562 140.103 187.782 139.566 181.503C139.566 181.365 139.491 181.365 139.496 181.503C139.774 186.888 140.224 192.51 141.35 197.151C141.729 198.909 142.311 200.617 143.082 202.242C143.786 203.591 144.571 204.237 145.328 204.491C145.76 204.632 146.216 204.681 146.668 204.637C147.121 204.592 147.559 204.454 147.954 204.231C148.047 204.208 148.03 203.862 147.96 203.862Z" fill="#263238"/>
<path d="M72.6577 177.917C70.816 187.978 68.6163 198.183 66.6245 208.215C66.1106 211.219 65.2158 214.183 65.3947 217.233C65.655 220.314 66.1412 223.373 66.8496 226.383C66.5263 228.32 66.2146 230.257 65.8624 232.189C65.5102 234.12 65.1984 236.017 64.8289 237.926C65.0079 235.988 65.2273 234.063 65.4063 232.131C65.5853 230.2 65.8393 228.268 66.0645 226.366C65.2132 223.413 64.6334 220.389 64.3324 217.331C64.2304 216.269 64.2556 215.198 64.4075 214.142C65.0195 210.026 65.8797 206.007 66.7169 201.971C68.4489 193.899 70.4118 185.897 72.6 177.946L72.6577 177.917Z" fill="#263238"/>
<path d="M61.3302 197.451C61.5611 197.733 145.501 197.635 146.5 196.603C146.673 196.424 151.419 187.234 151.251 183.878C150.992 178.609 147.06 172.301 147.268 168.698C147.62 162.667 124.024 103.333 120.473 94.638C116.923 85.9434 100.844 84.0408 92.5933 90.9076C80.5384 100.94 61.9075 176.568 60.3083 181.52C58.3857 187.453 61.1108 197.186 61.3302 197.451Z" fill="#EBEBEB"/>
<path d="M110.427 174.002C110.162 173.154 125.634 170.145 127.309 169.897C128.983 169.649 143.74 169.764 143.896 170.064C144.052 170.364 130.346 171.067 129.237 171.044C128.129 171.021 110.554 174.417 110.427 174.002Z" fill="#C7C7C7"/>
<path d="M126.351 172.947C125.664 172.52 135.149 172.532 135.12 172.849C135.092 173.166 127.413 173.604 126.351 172.947Z" fill="#C7C7C7"/>
<path d="M98.4189 87.0508C98.4189 87.0508 98.7595 149.152 98.0494 154.601C97.3393 160.049 84.961 234.795 84.961 234.795C84.961 234.795 58.4033 229.416 54.8007 226.862C51.1981 224.307 44.8877 209.565 44.8877 209.565C44.8877 209.565 60.6434 171.512 62.0752 167.528C64.119 161.877 83.1886 102.647 88.0556 94.6499C90.396 90.8738 94.1104 88.1501 98.4189 87.0508Z" fill="#6C63FF"/>
<path d="M71.6241 181.25C70.198 181.826 69.4302 183.285 69.0838 184.992C68.3527 187.155 68.1237 189.456 68.414 191.72C68.5872 192.954 69.1184 194.764 70.7234 194.465C72.4554 194.147 73.2118 191.438 73.6101 190.06C74.0085 188.682 75.3479 179.693 71.6241 181.25ZM62.6579 193.277C61.942 191.795 60.5795 190.296 58.9629 191.622C57.2309 193.058 57.3926 196.016 57.7447 197.999C57.998 199.615 58.5293 201.176 59.3151 202.611C59.6794 203.423 60.2999 204.094 61.0818 204.52C63.241 205.419 63.42 202.56 63.5874 201.135C63.8934 198.495 63.8126 195.722 62.6579 193.277ZM65.1405 175.086C63.8126 174.908 63.0563 175.928 62.6753 177.277C62.1676 178.836 61.9714 180.48 62.0979 182.115C62.2076 183.101 62.4097 184.801 63.5182 185.245C64.6267 185.689 65.51 184.53 65.9026 183.648C66.6474 182.022 68.085 175.473 65.1521 175.086H65.1405ZM65.5504 218.386C65.2906 215.463 63.5528 212.949 61.6534 210.822C60.3717 209.375 58.0565 206.446 55.8395 208.083C54.1075 209.346 54.8465 211.836 55.5047 213.451C56.5818 216.048 58.3859 218.28 60.7007 219.88C61.6707 220.537 63.1256 221.332 64.1648 220.958C65.2098 220.767 65.6774 219.735 65.5504 218.386ZM71.7569 206.901C71.1795 204.981 69.2627 201.758 67.779 202.046C66.5608 202.289 65.5793 205.056 66.6243 208.59C67.7501 212.407 69.8632 214.027 70.8504 213.589C72.8192 212.719 72.4843 209.375 71.7569 206.901ZM83.933 207.558C82.9111 208.884 83.3557 210.654 84.3487 212.205C85.0191 213.392 85.8747 214.465 86.8832 215.382C87.2141 215.69 87.6081 215.922 88.0379 216.063L88.8116 211.392C87.9917 209.536 85.7285 205.229 83.933 207.558ZM97.4255 99.372C96.571 98.4322 95.1508 99.4297 94.4176 100C92.4257 101.574 90.584 104.071 90.0933 106.694C89.4466 108.291 89.3023 109.865 90.7976 110.194C92.0331 110.465 93.5169 108.782 94.2617 108.02C95.5553 106.718 96.5708 105.166 97.2465 103.46C97.6218 102.428 98.2973 100.329 97.4255 99.372ZM94.3598 130.27C93.5111 131.169 92.4315 132.732 93.6786 133.793C94.9256 134.854 97.0445 134.035 98.4647 133.47C98.4647 131.446 98.4647 129.348 98.4647 127.22C96.9354 128.001 95.5479 129.032 94.3598 130.27ZM88.494 122.867C86.277 122.417 84.0831 124.412 82.761 125.94C81.6632 127.154 80.7842 128.549 80.163 130.062C79.7554 130.854 79.6215 131.758 79.7819 132.634C80.4401 134.877 82.7726 133.21 83.9907 132.444C86.2424 131.025 88.3497 129.215 89.5332 126.782C90.2318 125.289 90.5551 123.294 88.494 122.867ZM97.8816 119.338C97.183 120.048 95.9764 121.281 96.3401 122.411C96.623 123.346 97.6334 123.484 98.4936 123.374C98.4936 121.846 98.4936 120.313 98.4936 118.762C98.2511 118.992 98.0606 119.177 97.8816 119.338ZM74.3203 131.037C72.6171 136.03 70.9255 141.017 69.3897 145.63C70.1345 145.912 71.0121 145.578 71.803 144.811C73.9219 142.77 74.7764 139.835 75.2671 137.027C75.5442 135.292 76.2486 132.098 74.3203 131.037ZM85.9248 136.278C84.9664 135.482 82.201 136.457 80.1052 139.495C77.842 142.764 77.9113 145.422 78.8755 145.918C80.7865 146.898 83.1825 144.534 84.6489 142.418C85.7921 140.769 87.0911 137.246 85.9364 136.278H85.9248ZM91.7906 152.283C90.1164 152.324 89.0367 153.8 88.4363 155.524C87.9364 156.793 87.6402 158.134 87.5587 159.496C87.5241 160.367 87.7319 161.566 88.8635 161.549C89.9951 161.531 91.1036 159.946 91.5943 159.052C92.2237 157.899 95.1161 152.197 91.7906 152.283Z" fill="#263238"/>
<path d="M80.44 101.326C58.6857 124.7 43.4901 144.534 44.4369 152.877C46.5558 171.569 56.7978 174.786 58.5068 174.013C76.5718 166.109 89.1925 127.099 95.1738 105.057C101.109 83.1702 86.6695 94.6323 80.44 101.326Z" fill="#F1B4A1"/>
<path d="M43.3286 138.711L75.7118 159.064C75.7118 159.064 92.9454 121.823 96.2652 102.289C98.9556 86.4799 94.2849 83.1013 79.5511 97.4231C65.6025 110.955 43.3286 138.711 43.3286 138.711Z" fill="#6C63FF"/>
<path d="M57.1387 122.036C55.4067 124.054 53.7844 125.992 52.2891 127.802C52.5328 128.621 52.876 129.407 53.311 130.143C53.6641 130.951 54.2724 131.621 55.043 132.051C57.2023 132.951 57.3812 130.097 57.5487 128.667C57.8833 126.453 57.7435 124.193 57.1387 122.036ZM66.5321 111.214C65.7623 112.091 64.9925 112.973 64.2227 113.861C63.4722 114.714 62.7216 115.59 61.9826 116.421L61.9076 116.507C62.0231 117.51 62.2771 118.992 63.2932 119.39C64.4075 119.851 65.2908 118.681 65.6776 117.793C66.1453 116.709 66.9536 113.388 66.5321 111.214ZM73.4602 130.817C71.3991 130.241 69.9096 132.397 69.0609 133.919C67.7078 136.385 67.0944 139.187 67.2942 141.991C67.3866 143.144 67.6752 144.788 68.6163 145.358C69.4361 146.067 70.5273 145.785 71.503 144.839C73.6161 142.804 74.4879 139.875 74.9671 137.067C75.2962 135.136 76.1218 131.503 73.4602 130.8V130.817ZM94.1522 100.017C92.1603 101.591 90.3186 104.088 89.8279 106.711C89.1813 108.308 89.0369 109.882 90.5322 110.211C91.7678 110.482 93.2515 108.798 93.9963 108.037C94.5317 107.486 95.0239 106.894 95.4685 106.267C95.7918 104.872 96.0459 103.54 96.2768 102.283C96.4654 101.153 96.6194 100.088 96.7387 99.0891C95.8842 98.7259 94.7699 99.5042 94.1522 100V100.017ZM88.246 122.867C86.029 122.417 83.8351 124.412 82.513 125.94C81.4152 127.154 80.5362 128.548 79.9149 130.062C79.5074 130.854 79.3734 131.758 79.5339 132.634C80.192 134.876 82.5245 133.21 83.7427 132.443C85.7068 131.286 87.3921 129.711 88.679 127.831C89.0658 126.799 89.4411 125.761 89.8337 124.723C89.8597 124.269 89.7091 123.822 89.4133 123.476C89.1175 123.13 88.6992 122.912 88.246 122.867ZM79.8572 139.495C77.594 142.764 77.6633 145.422 78.6274 145.918C79.5916 146.413 80.7232 146.039 81.7739 145.255C82.9286 142.464 84.2103 139.385 85.492 136.156C84.3835 135.603 81.8144 136.635 79.8399 139.495H79.8572Z" fill="#263238"/>
<path d="M75.5446 149.596C73.6424 148.045 71.6489 146.609 69.5749 145.295C67.4906 143.859 65.366 142.51 63.2241 141.144C61.0821 139.777 52.4509 134.675 50.2743 133.406C50.1761 133.349 50.0895 133.527 50.1819 133.591C52.2661 135.032 60.5221 140.746 62.6121 142.072C64.7021 143.398 66.7805 144.747 68.8994 146.004C71.0182 147.261 73.1948 148.708 75.4637 149.7C75.5099 149.717 75.5792 149.665 75.5446 149.596Z" fill="#263238"/>
<path d="M72.1382 156.7C73.5411 157.478 74.921 158.279 76.3066 159.081L76.0121 159.179C80.0535 147.774 84.4471 136.508 88.9042 125.265C90.3822 121.518 91.9122 117.77 93.3613 114.022C90.0704 125.675 85.596 136.952 81.1043 148.184C79.5513 151.995 77.9636 155.789 76.2835 159.548C74.8979 158.608 73.5065 157.668 72.1382 156.7Z" fill="#263238"/>
<path d="M93.7886 116.951C93.2551 119.312 91.9808 121.441 90.1514 123.028C91.3696 121.016 92.5012 118.923 93.7886 116.951Z" fill="#263238"/>
<path d="M151.349 164.431C147.037 156.279 144.196 138.071 154.352 102.952C155.76 98.092 191.515 105.651 190.285 110.915C188.727 117.551 181.262 142.96 180.471 144.747C173.889 159.842 154.277 169.961 151.349 164.431Z" fill="#F1B4A1"/>
<path d="M148.474 157.737C147.58 155.093 146.965 152.363 146.639 149.591C146.477 148.207 146.338 146.817 146.281 145.422C146.224 144.019 146.255 142.613 146.373 141.213C146.574 138.434 146.916 135.667 147.395 132.922C147.851 130.178 148.485 127.466 149.294 124.804C148.809 127.537 148.457 130.282 148.14 133.026C147.822 135.77 147.562 138.526 147.372 141.277C147.297 142.649 147.227 144.027 147.279 145.382C147.331 146.737 147.395 148.132 147.505 149.504C147.712 152.226 147.99 154.97 148.474 157.737Z" fill="#263238"/>
<path d="M170.598 120.261C166.28 120.307 154.283 107.398 154.352 102.964C154.542 90.8848 164.311 78.2235 165.275 69.5693C166.101 62.2988 166.488 51.4133 170.419 51.6958C176.152 52.1109 177.319 65.9369 177.503 73.9108C181.239 71.6968 184.657 70.1401 186.989 69.9613C194.714 69.3848 201.734 103.489 195.972 108.862C190.436 114.045 174.911 120.192 170.598 120.261Z" fill="#F1B4A1"/>
<path d="M205.822 117.839C200.626 98.8124 191.596 68.3468 189.12 65.9137C187.076 68.6236 182.001 98.5126 179.218 117.153L178.063 116.98C178.063 116.853 179.992 104.1 182.209 91.4036C186.758 65.3833 188.15 64.9278 188.819 64.7087C188.934 64.6719 189.054 64.6595 189.174 64.6724C189.293 64.6854 189.408 64.7233 189.512 64.7837C192.832 66.5652 204.598 109.041 206.925 117.539L205.822 117.839Z" fill="#263238"/>
<path d="M174.622 116.628L173.502 116.357C173.531 116.236 176.585 103.627 179.939 91.0692C186.804 65.3718 188.172 64.922 188.83 64.7087C188.948 64.6718 189.072 64.6604 189.195 64.6753C189.317 64.6902 189.435 64.7311 189.541 64.7952C192.687 66.6287 201.151 107.968 202.819 116.236L201.665 116.467C197.941 97.9649 191.313 68.3238 189.067 65.9022C186.937 68.243 179.119 98.0456 174.622 116.628Z" fill="#263238"/>
<path d="M165.09 109.064L224.193 108.845L232.824 208.711L164.369 212.159L165.09 109.064Z" fill="#6C63FF"/>
<path d="M164.368 212.159L143.492 208.238L156.874 107.812L160.691 110.609L165.09 109.064L164.368 212.159Z" fill="#6C63FF"/>
<path opacity="0.2" d="M164.368 212.159L143.492 208.238L156.874 107.812L160.691 110.609L165.09 109.064L164.368 212.159Z" fill="black"/>
<path opacity="0.1" d="M153.728 199.665L143.492 208.238L156.874 107.812L160.691 110.609L153.728 199.665Z" fill="black"/>
<g opacity="0.1">
<path d="M163.941 209.927C162.394 208.1 160.777 206.387 159.161 204.675C157.544 202.963 155.882 201.325 154.201 199.711L153.971 199.486L153.728 199.665C152.187 200.766 150.651 201.867 149.15 203.055C147.649 204.242 146.136 205.396 144.675 206.67C146.298 205.765 147.885 204.784 149.461 203.787C151.038 202.79 152.596 201.729 154.149 200.656L153.67 200.61C155.333 202.255 157.017 203.86 158.722 205.424C160.414 206.952 162.146 208.474 163.941 209.927Z" fill="black"/>
<path d="M153.896 200.403C154.658 192.936 155.31 185.464 155.951 177.98C156.592 170.496 157.146 163.018 157.752 155.535C158.358 148.051 158.843 140.544 159.328 133.049L160.038 121.8C160.241 118.046 160.477 114.305 160.65 110.54C160.258 114.27 159.935 118.035 159.571 121.742L158.595 132.945C157.954 140.44 157.394 147.907 156.794 155.39C156.193 162.874 155.703 170.381 155.218 177.876C154.733 185.372 154.265 192.907 153.896 200.403Z" fill="black"/>
</g>
<path d="M181.475 116.605L180.32 116.467C180.32 116.334 181.896 103.506 183.784 90.7983C187.664 64.6742 189.027 64.5071 189.846 64.409C190.666 64.311 192.058 64.1323 200.47 89.7144C204.551 102.145 208.345 114.772 208.385 114.899L207.276 115.233C201.821 97.0368 192.439 67.9549 189.956 65.6486C187.982 68.3124 183.732 98.063 181.475 116.605Z" fill="#263238"/>
<path d="M177.503 115.948L176.349 115.717C176.349 115.591 178.929 102.941 181.799 90.4063C187.688 64.6685 189.085 64.5013 189.835 64.4091C190.742 64.2995 192.104 64.1381 197.676 89.4838C200.378 101.77 202.774 114.276 202.797 114.386L201.642 114.599C198.23 96.7254 192.116 68.1279 189.922 65.6487C187.768 68.2086 181.198 97.5961 177.503 115.948Z" fill="#263238"/>
<path d="M168.976 111.024L217.957 111.041L237.142 188.335L176.908 191.287L168.976 111.024Z" fill="#455A64"/>
<path d="M168.976 111.024L163.156 114.587L157.614 113.59L157.585 197.768L176.909 191.287L168.976 111.024Z" fill="#37474F"/>
<path opacity="0.1" d="M163.156 114.587L157.614 113.59L157.585 197.768L166.898 185.239L163.156 114.587Z" fill="black"/>
<path d="M237.143 188.335L176.909 191.287L157.585 197.768L216.78 194.747L237.143 188.335Z" fill="#263238"/>
<path d="M176.175 190.792C174.859 189.921 168.202 185.384 166.822 184.663L166.632 184.565L166.482 184.709C165.535 185.632 159.519 194.62 158.647 195.664C159.68 194.851 165.939 186.174 166.897 185.286L166.557 185.338C167.919 186.029 174.738 190.204 176.175 190.792Z" fill="#263238"/>
<path d="M166.499 185.164C166.395 179.289 166.193 173.42 165.979 167.55C165.766 161.681 165.477 155.811 165.229 149.942C164.981 144.073 164.652 138.209 164.282 132.34L163.734 123.547C163.52 120.612 163.335 117.683 163.093 114.754C163.139 117.689 163.237 120.63 163.306 123.564L163.612 132.368C163.826 138.238 164.109 144.107 164.363 149.977C164.617 155.846 164.94 161.71 165.316 167.573C165.691 173.437 166.031 179.306 166.499 185.164Z" fill="#263238"/>
<path d="M175.269 73.2478C174.166 77.1166 179.362 76.1941 179.362 76.1941C179.362 76.1941 172.203 79.3191 172.619 83.7471C173.029 88.0136 179.264 86.676 179.715 86.5895C179.333 86.7567 172.833 89.801 173.704 94.2059C174.617 98.7896 180.632 96.3738 181.037 96.2124C180.731 96.4833 176.747 100.139 178.15 103.333C180.604 108.828 191.054 99.7698 195.897 100.317C195.897 100.317 195.897 108.62 195.955 108.862C195.955 108.862 206.076 100.45 206.451 93.8715C206.521 92.9167 206.262 91.9668 205.717 91.1792C205.172 90.3917 204.374 89.8138 203.455 89.5415C203.455 89.5415 207.017 87.1891 206.44 83.6952C206.139 81.9078 202.976 80.8124 202.976 80.8124C202.976 80.8124 205.753 78.8117 205.043 75.7386C204.465 73.2824 201.428 72.5502 201.428 72.5502C201.428 72.5502 203.195 69.3906 201.809 67.0728C199.096 62.3739 177.625 64.9626 175.269 73.2478Z" fill="#F1B4A1"/>
<path d="M201.007 72.3539C201.022 72.3539 201.037 72.3479 201.048 72.3371C201.059 72.3262 201.065 72.3116 201.065 72.2963C201.065 72.281 201.059 72.2663 201.048 72.2555C201.037 72.2447 201.022 72.2386 201.007 72.2386C193.744 71.3738 185.499 72.6422 179.068 76.2112C178.854 76.3322 178.952 76.7243 179.212 76.6378C186.556 74.222 193.253 72.6595 201.007 72.3539Z" fill="#263238"/>
<path d="M203.137 80.7489C203.218 80.7489 203.218 80.6105 203.137 80.599C195.632 79.7456 186.394 81.4292 179.466 86.4165C179.229 86.5895 179.189 86.993 179.466 86.8028C184.321 83.8335 196.145 80.991 203.137 80.7489Z" fill="#263238"/>
<path d="M180.673 96.731C187.503 92.1992 195.106 90.3138 203.189 89.4951C203.293 89.4951 203.264 89.3394 203.189 89.3221C199.148 88.6475 194.032 89.7084 190.141 90.8615C186.506 91.8696 183.198 93.8096 180.546 96.4888C180.413 96.6214 180.528 96.8232 180.673 96.731Z" fill="#263238"/>
<path d="M179.241 76.1362C178.987 76.2746 179.472 76.4879 179.241 76.6378C178.196 77.2663 172.226 81.5732 173.069 84.0582C173.745 86.0474 176.891 86.5201 178.173 86.2261L181.389 85.4939L178.623 87.3043C177.384 88.093 176.284 89.0807 175.367 90.2274C174.489 91.3806 173.906 92.7124 174.16 93.9866C174.239 94.6128 174.53 95.1932 174.985 95.6315C175.44 96.0699 176.031 96.3398 176.66 96.3967C178.074 96.4937 179.489 96.2277 180.771 95.6241L184.368 94.0847L181.481 96.7022C180.679 97.431 179.973 98.2582 179.38 99.1642C178.779 100.009 178.444 101.012 178.415 102.047C178.421 102.51 178.556 102.961 178.805 103.351C179.054 103.742 179.407 104.055 179.824 104.255C180.822 104.566 181.888 104.584 182.896 104.307C185.072 103.857 187.179 102.935 189.316 102.122C190.384 101.707 191.458 101.286 192.549 100.923C193.622 100.492 194.776 100.295 195.932 100.346C194.794 100.423 193.682 100.721 192.658 101.222C191.608 101.666 190.58 102.162 189.547 102.658C187.487 103.718 185.332 104.581 183.109 105.235C181.909 105.611 180.625 105.629 179.414 105.287C178.777 105.028 178.23 104.589 177.839 104.024C177.448 103.458 177.231 102.791 177.214 102.105C177.217 100.83 177.601 99.5851 178.317 98.5299C178.963 97.5092 179.739 96.5769 180.627 95.7567L181.342 96.8349C179.837 97.5717 178.165 97.9017 176.493 97.7919C175.566 97.7013 174.7 97.2939 174.039 96.6388C173.421 95.9714 173.019 95.1336 172.884 94.2346C172.573 92.4241 173.41 90.7233 174.414 89.4779C175.441 88.233 176.666 87.1656 178.04 86.3183L178.49 87.3907C176.851 87.7079 173.294 87.5637 171.839 84.6059C170.494 80.4778 177.844 76.7186 179.241 76.1362Z" fill="#263238"/>
<path d="M179.362 76.1938C178.533 76.1777 177.712 76.0358 176.926 75.7729C176.607 75.6747 176.321 75.4929 176.096 75.2465C175.872 75.0001 175.718 74.698 175.65 74.3719C175.599 73.64 175.762 72.9091 176.118 72.2674C176.476 71.541 176.891 70.7914 177.347 70.0361C176.569 70.4885 175.894 71.0994 175.367 71.8292C175.054 72.2114 174.82 72.6517 174.678 73.1247C174.536 73.5977 174.49 74.0941 174.541 74.5852C174.652 75.1205 174.924 75.6093 175.321 75.9863C175.711 76.3225 176.186 76.544 176.695 76.6263C177.607 76.7687 178.542 76.6173 179.362 76.1938Z" fill="#263238"/>
<path d="M117.113 105.08C111.629 106.233 102.524 97.6308 99.0253 90.7927C98.7886 90.3199 99.6373 85.4768 100.388 79.5382C100.832 75.9347 101.242 71.9103 101.346 68.2087C101.346 67.4477 124.44 74.5106 124.44 74.5106C124.44 74.5106 121.9 82.2077 121.732 88.6537C121.726 89.1635 121.764 89.6728 121.848 90.1758C121.864 90.2575 121.874 90.3404 121.876 90.4237C122.31 93.3238 122.402 103.984 117.113 105.08Z" fill="#F1B4A1"/>
<path d="M102.76 68.3701C103.655 74.6547 107.119 89.8759 119.503 90.5101C120.296 90.5591 121.092 90.5398 121.882 90.4525C121.895 90.3684 121.895 90.2829 121.882 90.1988C121.802 89.6954 121.761 89.1864 121.761 88.6767C121.911 82.2192 124.422 74.5278 124.422 74.5278C124.422 74.5278 107.777 69.4137 102.76 68.3701Z" fill="#D27C68"/>
<path d="M98.413 42.3499C95.9189 50.5889 100.324 74.3491 106.196 79.6362C114.711 87.3045 128.625 88.0079 135.144 77.7912C141.454 67.8916 135.144 37.0224 128.608 32.2427C118.949 25.1279 102.102 30.1844 98.413 42.3499Z" fill="#F1B4A1"/>
<path d="M98.413 42.3499C95.9189 50.5889 100.324 74.3491 106.196 79.6362C114.711 87.3045 128.625 88.0079 135.144 77.7912C141.454 67.8916 135.144 37.0224 128.608 32.2427C118.949 25.1279 102.102 30.1844 98.413 42.3499Z" fill="#F1B4A1"/>
<path d="M118.302 57.5306C118.302 57.473 118.187 57.6287 118.198 57.6921C118.47 59.3007 118.51 61.1861 117.119 61.9183C117.078 61.9183 117.119 62.0221 117.147 62.0048C118.897 61.5147 118.845 59.0124 118.302 57.5306Z" fill="#263238"/>
<path d="M116.634 56.0428C114.007 56.1985 114.515 61.4337 116.946 61.2895C119.376 61.1454 118.845 55.916 116.634 56.0428Z" fill="#263238"/>
<path d="M128.082 56.4928C128.082 56.4294 128.215 56.562 128.215 56.6254C128.256 58.2571 128.573 60.1136 130.08 60.5691C130.126 60.5691 130.126 60.6671 130.08 60.6614C128.261 60.5115 127.857 58.038 128.082 56.4928Z" fill="#263238"/>
<path d="M129.445 54.7112C132.049 54.3653 132.546 59.6005 130.132 59.9003C127.719 60.2001 127.257 54.9995 129.445 54.7112Z" fill="#263238"/>
<path d="M114.273 51.8112C114.979 51.6572 115.677 51.4647 116.363 51.2347C117.165 51.0156 117.823 50.9233 118.389 50.2718C118.528 50.0696 118.596 49.8275 118.584 49.5827C118.571 49.3379 118.478 49.1039 118.32 48.9169C117.587 48.1558 116.542 48.1847 115.566 48.4095C114.579 48.6039 113.7 49.159 113.101 49.9662C112.454 50.8138 113.314 51.9727 114.273 51.8112Z" fill="#263238"/>
<path d="M131.847 50.7442C131.127 50.6992 130.41 50.6165 129.699 50.4963C128.879 50.3925 128.209 50.3982 127.557 49.8274C127.391 49.6472 127.289 49.4173 127.267 49.1734C127.245 48.9295 127.305 48.6852 127.436 48.4783C128.048 47.625 129.087 47.4981 130.08 47.5846C131.086 47.6346 132.038 48.0582 132.747 48.7723C132.901 48.9435 133.002 49.1559 133.037 49.3833C133.072 49.6108 133.04 49.8435 132.944 50.0529C132.848 50.2623 132.693 50.4393 132.499 50.5621C132.304 50.6848 132.077 50.7481 131.847 50.7442Z" fill="#263238"/>
<path d="M118.753 72.129C119.174 72.4749 119.613 72.965 120.202 72.9593C120.814 72.8931 121.405 72.6964 121.934 72.3827C121.986 72.3827 122.044 72.3827 122.015 72.4576C121.814 72.8097 121.52 73.0991 121.164 73.2935C120.808 73.488 120.405 73.5799 120 73.5589C119.661 73.5038 119.346 73.3495 119.096 73.1154C118.845 72.8814 118.669 72.5782 118.591 72.2443C118.568 72.129 118.689 72.0829 118.753 72.129Z" fill="#263238"/>
<path d="M120 67.1247C120.471 67.728 121.062 68.2277 121.736 68.5928C122.409 68.9578 123.151 69.1804 123.914 69.2465C124.581 69.3109 125.254 69.2798 125.912 69.1542C126.039 69.1415 126.165 69.1164 126.287 69.0793L126.639 68.9928C126.723 68.9677 126.797 68.9159 126.849 68.8451C126.901 68.7744 126.929 68.6886 126.928 68.6007C126.934 68.5452 126.934 68.4891 126.928 68.4335V68.2894C126.847 67.0383 126.553 65.1529 126.553 65.1529C127.032 65.3374 129.439 66.1734 129.358 65.5277C128.544 60.1599 127.626 54.1867 125.698 49.0149C125.689 48.9759 125.665 48.9421 125.631 48.9211C125.596 48.9 125.555 48.8933 125.516 48.9025C125.477 48.9116 125.443 48.9359 125.422 48.97C125.401 49.004 125.394 49.0451 125.404 49.0841C125.981 54.2731 127.471 59.3296 128.135 64.536C127.361 64.3226 126.102 63.9075 125.45 63.9594C125.277 64.0286 126.085 67.5975 126.073 68.1626C126.078 68.1834 126.078 68.2051 126.073 68.226C124.001 68.6815 122.355 68.1914 120.19 66.9691C120.029 66.8826 119.907 67.0037 120 67.1247Z" fill="#263238"/>
<path d="M125.132 68.5892C124.527 69.5431 123.686 70.3253 122.69 70.8609C122.14 71.1342 121.518 71.229 120.912 71.1319C119.584 70.9128 119.44 69.725 119.59 68.6872C119.671 68.1355 119.819 67.5955 120.028 67.0786C121.524 68.1135 123.313 68.6429 125.132 68.5892Z" fill="#263238"/>
<path d="M122.69 70.8607C122.14 71.134 121.518 71.2288 120.912 71.1316C119.584 70.9125 119.44 69.7248 119.59 68.687C120.993 68.7043 122.453 69.523 122.69 70.8607Z" fill="#FF97B8"/>
<path d="M103.626 62.708C104.85 61.5087 106.08 53.8923 106.08 53.8923C106.08 53.8923 120.086 47.6135 121.154 34.6351C121.154 34.6351 128.354 41.9286 134.433 43.3239C134.433 43.3239 133.619 30.0111 121.276 28.7714C121.276 28.7714 109.036 24.6894 99.3365 36.5551C89.6371 48.4207 99.9138 63.1577 99.9138 63.1577L103.626 62.708Z" fill="#263238"/>
<path d="M120.698 32.2135C121.379 34.2603 121.073 36.6415 120.588 38.7113C120.068 40.8244 119.245 42.8516 118.146 44.7307C117.093 46.6821 115.728 48.4485 114.105 49.9601C112.2 51.6206 109.856 52.7218 107.558 53.7366C107.489 53.7712 107.558 53.898 107.616 53.8692C110.046 52.8775 112.488 51.8512 114.584 50.2426C116.373 48.7779 117.903 47.0239 119.11 45.0535C120.429 43.1237 121.322 40.9365 121.732 38.6364C122.095 36.3647 121.639 34.3064 120.975 32.1443C120.9 31.9886 120.646 32.0463 120.698 32.2135Z" fill="#263238"/>
<path d="M123.464 26.056C120.935 24.4358 114.89 21.2301 109.561 21.0399C104.128 20.8496 97.108 23.4095 94.6543 24.2167C92.6336 24.8798 85.8614 25.5486 80.671 28.3853C77.2532 30.2476 75.7174 35.206 76.1851 37.6622C76.8837 41.3579 84.4815 39.2189 84.8452 40.6488C85.0762 41.6001 83.7541 46.3164 86.0634 48.5362C88.3728 50.7559 88.2746 50.4042 89.5968 51.6208C92.801 54.5785 96.8482 37.1606 103.401 32.4904C109.954 27.8202 123.464 26.056 123.464 26.056Z" fill="#6C63FF"/>
<path opacity="0.1" d="M122.887 26.3211C122.887 26.3211 109.902 27.8202 103.355 32.4961C96.808 37.172 93.7711 53.9097 90.5611 50.9461C89.1466 49.6373 88.6328 47.9538 88.4019 45.2208C89.9376 40.4354 93.1418 33.113 98.0839 28.5005C102.703 24.1705 109.717 22.7349 116.911 23.052C118.991 23.9735 120.989 25.067 122.887 26.3211Z" fill="black"/>
<path d="M90.1856 59.2485C93.8633 53.9326 97.4717 45.411 103.355 39.2879C109.238 33.1648 123.937 31.4062 125.871 31.8329C130.6 32.8649 131.287 35.2923 132.106 35.004C132.926 34.7157 129.023 28.5234 127.811 27.5087C125.922 26.1472 123.752 25.2234 121.46 24.8046C119.376 24.5221 106.38 23.7552 100.861 28.46C95.3413 33.1648 86.3232 47.3886 86.9063 51.4937C87.0449 52.4739 88.1996 53.2811 88.3843 54.6706C88.6268 56.504 88.673 58.5797 89.0021 59.8596C89.2965 60.9378 89.9778 59.5771 90.1856 59.2485Z" fill="#6C63FF"/>
<path d="M104.948 36.3766C103.957 35.5352 103.04 34.6113 102.206 33.6148C101.347 32.6209 100.609 31.5294 100.006 30.363C100.004 30.3523 99.9997 30.3422 99.9933 30.3333C99.9869 30.3245 99.9787 30.3171 99.9692 30.3118C99.9596 30.3065 99.9491 30.3033 99.9382 30.3025C99.9273 30.3016 99.9164 30.3032 99.9061 30.307C99.8959 30.3108 99.8866 30.3169 99.879 30.3246C99.8713 30.3324 99.8654 30.3418 99.8618 30.352C99.8581 30.3623 99.8567 30.3733 99.8577 30.3841C99.8588 30.395 99.8621 30.4055 99.8676 30.4149C100.309 31.6946 100.952 32.8956 101.773 33.9723C102.611 35.0259 103.639 35.9137 104.804 36.5899C104.937 36.6591 105.052 36.4688 104.948 36.3766Z" fill="#263238"/>
<path d="M90.6304 56.6081C90.5342 56.2699 90.4205 55.937 90.2897 55.6106C90.1681 55.2359 90.0868 54.8494 90.0472 54.4575C90.0747 53.7024 90.0205 52.9466 89.8856 52.2031C89.6778 51.6208 89.4047 51.0637 89.0715 50.5426C88.6595 49.9747 88.4557 49.2826 88.4942 48.5823C88.4942 48.4901 88.3614 48.4612 88.3499 48.5823C88.1247 49.9372 88.8868 51.05 89.2967 52.2839C89.5623 53.0737 89.4122 53.8982 89.5392 54.7054C89.6037 55.4715 89.9157 56.1959 90.4283 56.7695C90.4918 56.7926 90.6592 56.7292 90.6304 56.6081Z" fill="#263238"/>
<path d="M92.9514 52.0126C92.6108 51.4361 92.224 50.9056 91.9353 50.2829C91.661 49.691 91.4295 49.0802 91.2425 48.4552C91.0462 47.8441 90.9076 47.2156 90.7287 46.5987C90.515 45.8722 90.2148 45.1631 90.0358 44.4251C90.0358 44.327 89.8742 44.3789 89.8973 44.4769C90.0763 45.238 90.1282 46.0394 90.2841 46.812C90.4332 47.4774 90.6261 48.1323 90.8614 48.7723C91.0706 49.3907 91.3393 49.9874 91.6639 50.5539C91.9707 51.1347 92.3931 51.6468 92.9052 52.0588C92.9115 52.0597 92.918 52.0592 92.924 52.0573C92.9301 52.0553 92.9356 52.0519 92.9401 52.0474C92.9446 52.0429 92.9479 52.0374 92.9499 52.0314C92.9519 52.0253 92.9524 52.0189 92.9514 52.0126Z" fill="#263238"/>
<path d="M95.2835 47.8961C94.4672 46.9508 93.7924 45.8924 93.2802 44.7538C92.7894 43.641 92.368 42.4937 91.9523 41.3521C91.9523 41.2713 91.7906 41.3002 91.8079 41.3521C91.9917 42.6045 92.3271 43.83 92.8067 45.0017C93.0512 45.5671 93.3591 46.1029 93.7247 46.5988C94.1508 47.1107 94.6351 47.5712 95.1681 47.971C95.2316 48.0517 95.3413 47.9652 95.2835 47.8961Z" fill="#263238"/>
<path d="M97.7259 43.9869C97.3073 43.5928 96.97 43.1208 96.7328 42.5974C96.4211 42.0324 96.1266 41.4558 95.8495 40.8677C95.5839 40.2912 95.3068 39.7607 95.0412 39.2015C94.7365 38.6566 94.5515 38.0532 94.4985 37.4314C94.4985 37.4115 94.4906 37.3925 94.4765 37.3784C94.4625 37.3643 94.4434 37.3564 94.4235 37.3564C94.4036 37.3564 94.3845 37.3643 94.3704 37.3784C94.3563 37.3925 94.3484 37.4115 94.3484 37.4314C94.3026 38.0522 94.3831 38.6759 94.5851 39.2649C94.7725 39.9233 95.0179 40.5638 95.3184 41.1791C95.6175 41.7879 95.955 42.3771 96.3287 42.9433C96.624 43.4701 97.0731 43.8945 97.6162 44.1599C97.7201 44.2003 97.824 44.0676 97.7259 43.9869Z" fill="#263238"/>
<path d="M99.8564 38.8729C99.5042 38.4001 99.1578 37.9273 98.8461 37.4257C98.5343 36.9241 98.2687 36.4167 97.9685 35.8978C97.6683 35.3789 97.3912 34.8197 97.114 34.2604C97.1051 34.2451 97.0911 34.2334 97.0744 34.2275C97.0577 34.2216 97.0394 34.2217 97.0228 34.2279C97.0062 34.2341 96.9924 34.246 96.9837 34.2615C96.975 34.2769 96.9721 34.2949 96.9755 34.3123C97.1221 34.9031 97.3151 35.4815 97.5528 36.042C97.7976 36.6011 98.0812 37.1425 98.4015 37.6621C98.7148 38.1775 99.0579 38.6742 99.4292 39.1496C99.779 39.6435 100.22 40.0662 100.728 40.395C100.803 40.4354 100.913 40.3489 100.873 40.2682C100.581 39.7706 100.241 39.3032 99.8564 38.8729Z" fill="#263238"/>
<path d="M108.788 34.3813C108.436 33.7586 108.089 33.1533 107.679 32.5709C107.26 31.9677 106.805 31.3901 106.317 30.8412C105.391 29.7686 104.349 28.8018 103.211 27.9584C103.147 27.9123 103.043 27.9584 103.101 28.0564C104.931 30.207 106.854 32.2884 108.666 34.4563C108.669 34.4678 108.675 34.4785 108.682 34.4875C108.69 34.4965 108.7 34.5035 108.711 34.508C108.722 34.5125 108.734 34.5144 108.746 34.5134C108.757 34.5124 108.769 34.5087 108.779 34.5024C108.789 34.4962 108.797 34.4877 108.804 34.4775C108.81 34.4674 108.813 34.4559 108.814 34.4441C108.815 34.4323 108.813 34.4205 108.809 34.4095C108.804 34.3986 108.797 34.389 108.788 34.3813Z" fill="#263238"/>
<path d="M112.113 30.9797C111.747 30.373 111.316 29.8084 110.826 29.2962C109.756 28.2535 108.572 27.333 107.298 26.5517C107.217 26.4998 107.125 26.5979 107.2 26.6613C108.239 27.6184 109.296 28.5582 110.277 29.5787C110.772 30.0733 111.238 30.5949 111.675 31.1412C112.102 31.7177 112.396 32.3289 112.8 32.8709C112.808 32.8805 112.818 32.8877 112.829 32.8913C112.841 32.8949 112.853 32.8948 112.865 32.891C112.876 32.8871 112.886 32.8798 112.893 32.87C112.9 32.8602 112.904 32.8484 112.904 32.8363C112.762 32.1726 112.494 31.5423 112.113 30.9797Z" fill="#263238"/>
<path d="M116.126 29.8207C115.799 29.2271 115.413 28.6687 114.971 28.1544C114.122 27.1754 113.113 26.347 111.986 25.704C111.911 25.6579 111.836 25.7732 111.9 25.8251C112.89 26.6657 113.805 27.5897 114.636 28.5868C115.052 29.0827 115.439 29.5958 115.837 30.1032C116.195 30.6508 116.581 31.18 116.992 31.6887C117.027 31.7233 117.084 31.6887 117.073 31.6311C116.815 30.9991 116.498 30.393 116.126 29.8207Z" fill="#263238"/>
<path d="M119.18 28.0104C118.776 27.5549 118.337 27.1167 117.904 26.6843C117.493 26.2378 117.014 25.8601 116.484 25.5657C116.403 25.5196 116.351 25.6292 116.403 25.6868C117.205 26.5632 117.99 27.4569 118.77 28.3505C119.444 29.221 120.025 30.1603 120.502 31.1526C120.502 31.193 120.594 31.1526 120.588 31.118C120.443 29.964 119.952 28.8806 119.18 28.0104Z" fill="#263238"/>
<path d="M122.661 27.8319C121.93 26.8906 121.027 26.0962 120 25.491C119.925 25.4507 119.844 25.5717 119.913 25.6179C120.833 26.3176 121.641 27.1537 122.309 28.0971C122.992 29.0316 123.573 30.0367 124.041 31.0952C124.041 31.1471 124.151 31.1356 124.139 31.0952C123.911 29.9064 123.404 28.7883 122.661 27.8319Z" fill="#263238"/>
<path d="M126.749 30.5418C126.676 30.2879 126.585 30.0394 126.478 29.798C126.256 29.3124 125.985 28.8506 125.669 28.42C125.007 27.5599 124.261 26.768 123.441 26.0561C123.425 26.0431 123.406 26.0367 123.386 26.0383C123.366 26.04 123.347 26.0495 123.334 26.0647C123.321 26.08 123.315 26.0999 123.316 26.1199C123.318 26.1399 123.327 26.1584 123.343 26.1714C124.123 26.8922 124.815 27.7032 125.404 28.5872C125.692 29.0158 125.949 29.4648 126.172 29.9306C126.281 30.1555 126.379 30.3919 126.472 30.6282C126.537 30.8671 126.626 31.0989 126.737 31.3201C126.745 31.3321 126.755 31.3419 126.767 31.3488C126.779 31.3557 126.793 31.3593 126.807 31.3593C126.821 31.3593 126.834 31.3557 126.846 31.3488C126.859 31.3419 126.869 31.3321 126.876 31.3201C126.883 31.055 126.84 30.7908 126.749 30.5418Z" fill="#263238"/>
<path d="M129.411 31.2107C129.214 30.8128 128.992 30.4277 128.747 30.0575C128.51 29.6918 128.247 29.343 127.962 29.014C127.667 28.6738 127.384 28.3451 127.078 27.9934C127.073 27.9839 127.065 27.9757 127.056 27.9695C127.046 27.9632 127.036 27.9591 127.025 27.9574C127.014 27.9557 127.003 27.9565 126.992 27.9596C126.982 27.9628 126.972 27.9682 126.963 27.9756C126.955 27.983 126.949 27.9922 126.944 28.0024C126.94 28.0126 126.938 28.0237 126.939 28.0347C126.939 28.0458 126.942 28.0566 126.947 28.0665C126.952 28.0763 126.96 28.0848 126.968 28.0915C127.266 28.4319 127.534 28.7963 127.771 29.1812C127.996 29.5444 128.233 29.8961 128.458 30.2536C128.683 30.611 128.92 30.9685 129.145 31.326C129.349 31.712 129.572 32.0873 129.815 32.4503C129.861 32.5079 129.936 32.4503 129.919 32.3926C129.795 31.9807 129.624 31.5842 129.411 31.2107Z" fill="#263238"/>
<path d="M104.25 61.9472C104.25 61.9472 98.6959 54.3826 95.2492 56.3775C91.8025 58.3725 96.0921 69.4252 100.226 70.8551C100.743 71.0754 101.3 71.1889 101.863 71.1887C102.426 71.1884 102.982 71.0744 103.5 70.8535C104.017 70.6327 104.484 70.3095 104.873 69.9035C105.262 69.4975 105.565 69.0171 105.763 68.4911L104.25 61.9472Z" fill="#F1B4A1"/>
<path d="M96.554 59.5142C96.4905 59.5142 96.4789 59.6006 96.554 59.6237C99.4407 60.7249 101.028 63.3541 102.148 66.087C101.271 65.0434 100.093 64.4899 98.6844 65.5392C98.6151 65.5911 98.6844 65.7065 98.7652 65.6892C99.2675 65.5177 99.8105 65.5054 100.32 65.6541C100.83 65.8027 101.281 66.1049 101.612 66.5194C102.159 67.2165 102.629 67.9704 103.014 68.768C103.153 69.0217 103.592 68.8775 103.511 68.5835C103.511 68.5835 103.511 68.5374 103.511 68.5143C103.465 64.8531 100.503 59.7967 96.554 59.5142Z" fill="#263238"/>
<path d="M101.409 111.491C103.464 119.759 98.1471 128.973 98.1471 128.973C83.9387 135.194 64.4303 129.797 63.9684 128.869C63.9684 128.869 63.3911 122.631 62.3461 120.872C61.3011 119.113 53.6051 110.073 51.5209 107.813C49.4367 105.553 48.7728 95.4052 49.4771 93.5083C50.1815 91.6114 62.9581 91.8651 65.8794 93.1681C70.4693 95.0998 75.1903 96.7047 80.007 97.9709C80.007 97.9709 84.6546 78.2005 93.9614 78.535C98.2337 78.6906 93.0723 87.1834 92.3679 95.8319C91.958 100.865 99.8734 105.322 101.409 111.491Z" fill="#F1B4A1"/>
<path d="M59.9907 100.611C61.3417 101.442 63.0564 101.505 64.6095 101.88L69.3495 102.877C72.5233 103.563 75.6509 104.447 78.714 105.524C80.2531 106.093 81.7388 106.797 83.1537 107.628C84.6437 108.439 85.8638 109.668 86.664 111.162C88.2108 114.08 88.7429 117.429 88.1766 120.682C88.3777 117.487 87.6263 114.305 86.0173 111.537C84.4585 108.816 81.2947 107.57 78.3675 106.446C75.3593 105.347 72.2974 104.4 69.1936 103.609C66.1106 102.658 62.7908 102.226 59.9907 100.611Z" fill="#263238"/>
<path d="M53.894 111.358L52.8779 110.811C53.1146 110.378 58.6514 100.219 64.1938 98.2991C65.2157 97.9416 66.8438 97.5265 68.7318 97.0537C74.1819 95.67 83.3039 93.3637 83.6907 90.4867C83.8581 89.2298 82.0857 87.9498 80.5731 87.0965L81.1504 86.0933C83.8408 87.6096 85.0532 89.0972 84.8454 90.6423C84.3604 94.292 75.4982 96.5348 69.0262 98.1665C67.1672 98.6393 65.5621 99.0486 64.5807 99.383C59.4712 101.159 53.9518 111.26 53.894 111.358Z" fill="#263238"/>
<path d="M51.5904 109.571L50.6782 108.862C50.9842 108.47 58.1837 99.2677 63.6627 97.3593C64.8173 96.9557 66.815 96.5175 69.107 96.0102C74.4012 94.857 83.2519 92.8909 83.6329 90.3252C83.7715 89.4143 82.7092 88.3015 80.573 87.0965L81.1504 86.0933C83.8119 87.5923 85.007 89.028 84.7876 90.4924C84.3258 93.5943 77.5304 95.3356 69.3668 97.1402C67.1152 97.6361 65.1638 98.0627 64.0553 98.449C58.8938 100.242 51.6655 109.479 51.5904 109.571Z" fill="#263238"/>
<path d="M69.3379 85.4765C69.3379 85.4765 68.5527 81.9537 69.9152 79.4745C71.2778 76.9953 76.7856 76.3092 78.8179 76.7531C80.8501 77.1971 88.8983 82.34 91.2654 85.2286C93.6325 88.1172 92.6279 92.7239 88.1304 91.5708C83.6329 90.4177 69.3379 85.4765 69.3379 85.4765Z" fill="#F1B4A1"/>
<path d="M87.4319 81.7808C90.7112 83.5105 95.4628 88.2786 91.3405 91.6169C88.6039 93.2083 84.8916 90.3716 82.1377 89.7835C83.9332 89.9795 85.6364 90.6656 87.3338 91.1269C88.8926 91.565 90.8787 91.8303 91.762 90.1813C93.6095 86.9698 89.6893 83.6546 87.4319 81.7808Z" fill="#263238"/>
<path d="M66.3647 79.3249C66.3647 79.3249 68.0968 76.1711 70.7872 75.2197C73.4776 74.2684 78.0386 77.3992 79.2683 79.0712C80.4981 80.7432 83.1135 89.9221 82.9691 93.6525C82.8248 97.3828 79.0143 100.179 76.399 96.3508C73.7836 92.5224 66.3647 79.3249 66.3647 79.3249Z" fill="#F1B4A1"/>
<path d="M75.8389 76.2979C77.6793 77.4017 79.2338 78.9225 80.3768 80.7374C81.5777 82.5536 82.1088 84.7733 82.4783 86.7855C82.9604 88.8544 83.2427 90.9647 83.3212 93.0874C83.4027 94.1786 83.1122 95.2653 82.4969 96.1707C81.8816 97.0762 80.9778 97.7472 79.9322 98.0747C80.883 97.6795 81.6714 96.9739 82.1685 96.0732C82.6656 95.1725 82.842 94.13 82.6688 93.1162C82.3987 91.0533 82.0132 89.0072 81.5141 86.9873C81.0927 84.9002 80.7347 82.9514 79.6782 81.1352C78.6918 79.3108 77.3923 77.6735 75.8389 76.2979Z" fill="#263238"/>
<path d="M57.5254 83.689C57.5254 83.689 58.4376 80.0336 60.9259 78.3789C63.4143 76.7241 69.0087 78.719 70.7408 80.1085C72.4728 81.4981 77.767 90.1407 78.6735 93.9461C79.5799 97.7514 76.4391 101.591 72.6633 98.3798C68.8875 95.1684 57.5254 83.689 57.5254 83.689Z" fill="#F1B4A1"/>
<path d="M66.4395 78.1714C68.6473 78.8194 70.6775 79.9633 72.3745 81.5155C74.1066 83.0433 75.2613 85.1709 76.2427 87.1139C77.3196 89.0879 78.2069 91.1593 78.8927 93.3004C79.2858 94.3798 79.2924 95.5618 78.9114 96.6456C78.5304 97.7293 77.7853 98.6477 76.8028 99.2448C77.6759 98.6002 78.2958 97.671 78.5552 96.618C78.8145 95.5651 78.697 94.4547 78.223 93.4791C77.3766 91.4474 76.4128 89.4664 75.3363 87.5463C74.3086 85.5341 73.3849 83.6199 71.7914 82.0747C70.2474 80.4737 68.4365 79.1529 66.4395 78.1714Z" fill="#263238"/>
<path d="M49.2983 95.3937C49.4138 92.3148 50.6897 86.4454 53.6342 83.2513C56.5786 80.0571 67.3865 85.7882 70.3136 88.5038C73.2407 91.2194 77.565 100.439 75.0247 102.047C72.4844 103.656 65.0194 95.9587 63.143 94.7249C61.2667 93.491 49.2983 95.3937 49.2983 95.3937Z" fill="#F1B4A1"/>
<path d="M56.2036 97.2325C57.595 95.5316 59.7254 94.1882 62.0867 94.4073C64.4885 94.7417 66.1281 96.5348 67.8602 97.9013C69.5922 99.2677 71.1683 100.974 73.0562 101.937C74.0089 102.358 75.0134 102.514 75.1809 101.603C75.3877 100.58 75.364 99.5247 75.1116 98.5124V98.5643C74.4754 96.533 73.6621 94.5613 72.681 92.6718C71.6822 90.8038 70.5159 89.028 68.807 87.8403C67.0682 86.6347 65.2272 85.5832 63.3049 84.698C61.3805 83.7486 59.4387 82.8722 57.4795 82.0688C61.5209 83.3949 65.5623 84.8364 69.2458 87.2003C71.1568 88.3822 72.4385 90.3368 73.4835 92.2279C74.521 94.1586 75.3865 96.1766 76.07 98.2587V98.2876C76.3588 99.4714 76.3588 100.707 76.07 101.891C75.9603 102.245 75.7615 102.564 75.4926 102.819C75.1992 103.069 74.8273 103.208 74.4419 103.211C73.8039 103.222 73.1738 103.069 72.6117 102.767C70.5217 101.614 68.9456 100.006 67.3059 98.4951C65.6663 96.9845 64.0555 95.2664 61.977 94.9089C59.8986 94.5514 57.7163 95.6354 56.2036 97.2325Z" fill="#263238"/>
<path d="M55.1295 172.065C51.9368 163.417 51.5442 152.462 66.2837 119.021C68.3217 114.409 101.23 118.226 100.566 123.593C99.2558 134.11 90.2261 150.98 86.6177 156.423C77.513 170.145 57.2945 177.917 55.1295 172.065Z" fill="#F1B4A1"/>
<path d="M53.6056 166.201C53.1225 163.673 52.9288 161.099 53.0282 158.527C53.0802 157.247 53.1552 155.967 53.3054 154.693C53.4639 153.413 53.7089 152.146 54.0386 150.899C54.6582 148.411 55.4157 145.958 56.3075 143.554C57.1744 141.133 58.2124 138.776 59.4136 136.502C58.5188 138.901 57.7509 141.328 57.0119 143.767C56.2729 146.206 55.5916 148.651 55.0027 151.113C54.7198 152.346 54.4254 153.58 54.2868 154.814C54.1483 156.048 53.9866 157.328 53.8827 158.591C53.6571 161.121 53.5646 163.661 53.6056 166.201Z" fill="#263238"/>
<path d="M40.3267 189.2C33.6584 198.218 26.7014 208.682 25.0098 219.994C25.0098 220.162 25.2638 220.219 25.3042 220.052C26.072 216.967 27.0579 213.94 28.2544 210.994C32.6365 209.789 36.9146 208.803 39.2239 204.456C41.5737 199.988 41.2735 194.164 40.829 189.298C40.8001 189.039 40.4421 189.027 40.3267 189.2Z" fill="#6C63FF"/>
<path d="M28.3005 210.908C31.2969 204.197 35.142 197.457 40.0321 191.939C40.0668 191.898 40.1187 191.939 40.0841 191.991C36.8856 195.923 34.455 200.201 32.0764 204.56C34.2876 202.323 36.6951 200.316 38.7966 197.941C38.837 197.895 38.9006 197.941 38.8659 198.01C36.7875 200.501 34.5185 203.199 31.8166 205.044C31.0891 206.382 30.3559 207.727 29.6169 209.08C29.7959 208.976 29.9864 208.89 30.1942 208.798C30.2289 208.798 30.2577 208.826 30.1942 208.844C29.9864 208.947 29.7843 209.057 29.5707 209.149C29.2185 209.783 28.8721 210.418 28.5084 211.052C28.4333 211.173 28.237 211.052 28.3005 210.908Z" fill="#263238"/>
<path d="M30.5119 208.567C32.3064 207.566 34.0188 206.425 35.6329 205.154C35.6733 205.119 35.7368 205.182 35.6964 205.217C34.1314 206.562 32.417 207.722 30.5869 208.676C30.5119 208.734 30.4484 208.613 30.5119 208.567Z" fill="#263238"/>
<path d="M24.2245 218.311C24.2245 218.343 24.2372 218.374 24.26 218.397C24.2827 218.419 24.3136 218.432 24.3457 218.432C24.3779 218.432 24.4087 218.419 24.4314 218.397C24.4542 218.374 24.4669 218.343 24.4669 218.311C24.5016 214.586 24.4669 210.816 24.5247 207.103C25.4831 205.177 27.5326 204.116 28.9587 202.571C29.9844 201.442 30.8774 200.2 31.6202 198.869C33.3351 195.689 34.3841 192.193 34.7032 188.595C35.0958 184.611 33.5832 171.465 31.9031 171.926C31.0313 172.163 28.2081 178.672 27.4576 180.823C26.2439 184.379 25.355 188.038 24.8018 191.754C23.4393 200.489 23.5836 209.49 24.2245 218.311Z" fill="#6C63FF"/>
<path d="M24.1955 202.248C24.3976 197.537 25.4599 192.775 26.4587 188.203C27.5268 183.279 28.7681 178.643 31.3199 174.25C31.3661 174.169 31.4874 174.25 31.4469 174.325C29.7548 177.742 28.444 181.334 27.5383 185.037C27.7115 184.772 27.9136 184.518 28.1157 184.271C28.185 184.167 28.3466 184.271 28.2773 184.363C28.0524 184.762 27.7874 185.136 27.4864 185.481C27.4864 185.481 27.4864 185.481 27.4517 185.481C26.5799 188.998 25.9564 192.602 25.4195 196.188L25.5349 196.05C25.5349 196.021 25.61 196.05 25.5927 196.096L25.3791 196.448C25.1077 198.275 24.8595 200.091 24.6054 201.896C27.8559 199.123 30.6329 195.854 32.1975 191.824C30.6618 196.004 28.2485 199.717 24.5246 202.254L24.3168 203.712C24.3168 203.81 24.1436 203.781 24.1436 203.683C24.1436 203.257 24.1436 202.824 24.184 202.398C24.1737 202.388 24.1658 202.376 24.1607 202.362C24.1556 202.349 24.1536 202.334 24.1547 202.32C24.1558 202.306 24.16 202.292 24.1671 202.279C24.1741 202.267 24.1838 202.256 24.1955 202.248Z" fill="#263238"/>
<path d="M25.7255 195.416C28.2023 191.714 30.5116 188.122 32.3476 184.029C32.3476 183.983 32.4457 184.029 32.4284 184.063C30.8985 188.099 28.7508 192.245 25.8525 195.514C25.789 195.577 25.6735 195.491 25.7255 195.416Z" fill="#263238"/>
<path d="M29.0278 183.106C30.0554 181.29 31.1408 179.52 32.1108 177.669C32.1108 177.617 32.2089 177.669 32.1858 177.715C31.3899 179.649 30.3831 181.49 29.1836 183.204C29.1698 183.223 29.1493 183.236 29.1265 183.24C29.1036 183.244 29.0799 183.24 29.0602 183.227C29.0405 183.215 29.0263 183.195 29.0202 183.173C29.0142 183.151 29.0169 183.127 29.0278 183.106Z" fill="#263238"/>
<path d="M21.6959 207.541C21.646 210.01 21.354 212.468 20.8241 214.881C20.8645 215.146 20.905 215.411 20.9396 215.682C21.7021 213.017 22.144 210.27 22.2559 207.501C22.2772 207.463 22.2883 207.42 22.2883 207.377C22.2883 207.333 22.2772 207.29 22.2559 207.253C22.3617 203.54 22.085 199.827 21.4303 196.171C20.2757 189.327 17.7527 182.76 12.9723 177.629C12.9332 177.594 12.8867 177.569 12.8363 177.556C12.7859 177.543 12.7331 177.541 12.6821 177.552C12.6311 177.563 12.5832 177.585 12.5424 177.617C12.5016 177.65 12.4689 177.691 12.4469 177.738C10.5186 182.633 11.1883 188.48 12.8337 193.363C13.7379 196.008 15.0256 198.506 16.6557 200.778C18.2781 203.078 20.368 205.016 21.6959 207.541Z" fill="#6C63FF"/>
<path d="M13.5492 179.906C18.0813 187.251 21.2336 195.957 21.632 204.629C21.632 204.785 21.3779 204.825 21.3549 204.664C21.2509 203.885 21.1297 203.113 21.0027 202.357C19.1263 200.564 17.2038 198.673 15.8643 196.436C15.8643 196.396 15.8932 196.35 15.9278 196.384C17.4827 198.292 19.1504 200.106 20.9218 201.815C20.5928 199.895 20.2117 198.01 19.7672 196.148L19.4092 195.727C19.3284 195.635 19.4612 195.502 19.542 195.594L19.6517 195.715C19.0133 193.172 18.2229 190.669 17.2846 188.22C16.1299 186.848 14.8424 185.66 13.9995 184.005C13.9949 183.997 13.9939 183.987 13.9966 183.978C13.9993 183.969 14.0055 183.961 14.0139 183.956C14.0224 183.952 14.0323 183.951 14.0415 183.953C14.0507 183.956 14.0584 183.962 14.063 183.971C14.7385 184.916 15.3909 185.868 16.1588 186.744C16.459 187.096 16.7996 187.424 17.1114 187.764C16.0704 185.102 14.8315 182.522 13.4048 180.044C13.3942 180.024 13.3903 180.001 13.3939 179.979C13.3974 179.957 13.4082 179.936 13.4245 179.921C13.4409 179.905 13.4619 179.895 13.4844 179.892C13.5069 179.89 13.5297 179.894 13.5492 179.906Z" fill="#263238"/>
<path d="M14.4674 188.964C15.9339 190.936 17.6024 192.81 18.9592 194.845C18.9996 194.903 18.913 194.966 18.8668 194.92C17.1231 193.147 15.6048 191.166 14.3462 189.022C14.3462 188.958 14.4212 188.906 14.4674 188.964Z" fill="#263238"/>
<path d="M19.1671 195.3L19.2306 195.364C19.271 195.404 19.2306 195.473 19.1614 195.433L19.0978 195.37C19.0932 195.36 19.0917 195.349 19.0935 195.339C19.0953 195.328 19.1004 195.318 19.108 195.311C19.1156 195.303 19.1254 195.298 19.1359 195.296C19.1465 195.294 19.1574 195.296 19.1671 195.3Z" fill="#263238"/>
<path d="M6.45387 194.021C6.98784 198.122 8.64168 201.998 11.2343 205.223C12.3016 206.488 13.6209 207.517 15.1082 208.244C16.7883 209.075 18.5723 210.032 20.3043 210.712C21.1277 212.812 21.7407 214.989 22.1345 217.21C22.1865 217.02 22.2442 216.824 22.3019 216.633C21.1877 207.068 14.987 198.892 7.06008 193.646C6.99871 193.599 6.92441 193.571 6.84709 193.567C6.76977 193.563 6.69308 193.583 6.62726 193.624C6.56143 193.665 6.50958 193.724 6.4786 193.795C6.44763 193.866 6.439 193.945 6.45387 194.021Z" fill="#6C63FF"/>
<path d="M9.19029 196.851C9.13833 196.8 9.19029 196.702 9.27111 196.742C13.6282 199.978 17.1022 204.254 19.3746 209.178C19.4323 209.305 19.2534 209.421 19.1783 209.294C18.8088 208.648 18.4335 208.02 18.0236 207.403C16.2108 207.062 14.4961 205.794 13.1566 204.583C13.1162 204.554 13.1566 204.497 13.2086 204.531C13.9013 205.17 14.6713 205.72 15.5006 206.169C16.2339 206.538 17.0306 206.774 17.81 207.074C17.1403 206.013 16.4398 204.991 15.7085 204.007C13.7645 203.251 11.9434 202.211 10.3046 200.922C10.2584 200.887 10.3046 200.801 10.3565 200.836C11.9932 201.824 13.6815 202.725 15.414 203.534C14.309 202.078 13.1175 200.69 11.8461 199.377C11.2283 199.054 10.6048 198.731 10.0101 198.379C9.95815 198.379 10.0101 198.27 10.0505 198.287C10.5435 198.463 11.0143 198.695 11.4535 198.979C10.7202 198.258 9.98125 197.52 9.19029 196.851Z" fill="#263238"/>
<path d="M9.35815 200.149C9.46696 200.212 9.56943 200.286 9.66414 200.368C9.66414 200.368 9.66414 200.432 9.6295 200.42C9.51862 200.368 9.41239 200.306 9.31196 200.236C9.25422 200.201 9.30618 200.115 9.35815 200.149Z" fill="#263238"/>
<path d="M34.657 237.92H12.9316L14.6868 218.167L15.0736 213.808H32.5151L32.9019 218.167L34.657 237.92Z" fill="#455A64"/>
<path d="M32.9021 218.167L14.814 216.731L15.0738 213.808H32.5153L32.9021 218.167Z" fill="#37474F"/>
<path d="M33.5599 210.764H14.0342V215.076H33.5599V210.764Z" fill="#455A64"/>
<path d="M6.44824 237.92C79.1934 237.568 160.801 237.562 233.552 237.92C160.807 238.277 79.1992 238.271 6.44824 237.92Z" fill="#263238"/>
<path d="M193.992 28.1833C193.504 32.8702 191.721 37.3293 188.842 41.0626C185.963 44.7959 182.101 47.6564 177.688 49.3246C173.275 50.9928 168.485 51.4029 163.852 50.5092C159.219 49.6155 154.926 47.4531 151.453 44.2636L138.717 46.1317L145.068 35.1366C143.607 31.5573 142.983 27.6924 143.242 23.8359C143.502 19.9793 144.638 16.2326 146.565 12.8806C148.492 9.52858 151.159 6.65943 154.364 4.49127C157.568 2.32311 161.225 0.913002 165.057 0.368147C168.888 -0.176707 172.794 0.158031 176.477 1.34691C180.16 2.5358 183.523 4.54753 186.31 7.22919C189.097 9.91085 191.236 13.1919 192.563 16.8228C193.89 20.4537 194.371 24.339 193.968 28.1833H193.992Z" fill="white"/>
<path d="M193.992 28.1832C193.501 32.8695 191.723 37.3291 188.853 41.0694C188.14 42.0028 187.369 42.8906 186.544 43.7273C185.695 44.5368 184.798 45.2954 183.859 45.999C181.988 47.4174 179.926 48.5664 177.734 49.4122C175.532 50.2828 173.22 50.8417 170.863 51.0727C169.687 51.1794 168.504 51.2025 167.324 51.1419C166.143 51.111 164.965 50.9876 163.803 50.7729C159.108 49.9109 154.746 47.7608 151.205 44.5633L151.505 44.6556L138.804 46.6044L137.88 46.7485L138.348 45.9356L144.698 34.9174L144.669 35.3499C143.174 31.7059 142.537 27.7673 142.808 23.8384C143.08 19.9094 144.252 16.0954 146.234 12.6909C148.218 9.29988 150.943 6.40054 154.207 4.20967C157.465 2.05068 161.17 0.655846 165.044 0.129643C168.919 -0.396559 172.862 -0.0404873 176.579 1.17119C180.259 2.41982 183.612 4.47448 186.394 7.18474C189.169 9.8827 191.294 13.1743 192.61 16.8116C193.926 20.4489 194.399 24.3371 193.992 28.1832ZM193.992 28.1832C194.4 24.3542 193.922 20.4827 192.595 16.8673C191.268 13.2518 189.128 9.98892 186.339 7.33007C183.55 4.67123 180.187 2.68746 176.509 1.53168C172.83 0.375902 168.936 0.0789824 165.125 0.663809C161.349 1.22847 157.753 2.64846 154.611 4.81507C151.5 6.99754 148.9 9.82825 146.99 13.1118C145.114 16.4083 144.011 20.0867 143.763 23.8705C143.523 27.6496 144.135 31.4343 145.553 34.9463L145.645 35.1769L145.524 35.3845L139.115 46.3392L138.659 45.6703L151.407 43.8888H151.58L151.707 44.0098C155.105 47.1819 159.318 49.3479 163.878 50.2656C165.019 50.4985 166.178 50.6393 167.342 50.6865C170.837 50.9312 174.345 50.4199 177.624 49.1874C179.826 48.3957 181.898 47.2824 183.773 45.8837C184.714 45.1903 185.612 44.4413 186.463 43.6408C187.287 42.8137 188.059 41.9356 188.773 41.0117C191.664 37.2981 193.47 32.8582 193.992 28.1832Z" fill="#263238"/>
<path d="M177.734 29.8955C175.333 33.0985 172.272 35.7491 168.756 37.6676C165.243 35.748 162.183 33.0975 159.784 29.8955C156.626 25.7154 156.782 19.1829 161.302 17.7877C166.302 16.2194 168.756 23.732 168.756 23.732C168.756 23.732 171.25 16.1733 176.215 17.7877C180.73 19.2291 180.903 25.7039 177.734 29.8955Z" fill="#6C63FF"/>
</g>
<defs>
<clipPath id="clip0_791_6195">
<rect width="240" height="238" fill="white"/>
</clipPath>
</defs>
</svg>
