<svg width="256" height="235" viewBox="0 0 256 235" fill="none" xmlns="http://www.w3.org/2000/svg">
<g clip-path="url(#clip0_791_5897)">
<path d="M180.398 235.3C219.399 235.3 251.015 216.994 251.015 194.412C251.015 171.83 219.399 153.523 180.398 153.523C141.397 153.523 109.781 171.83 109.781 194.412C109.781 216.994 141.397 235.3 180.398 235.3Z" fill="#F2F4F8"/>
<path d="M74.9136 215.682L57.0685 205.351L42.5169 213.775L44.9422 206.755L30.3981 209.563L47.3674 199.713L-6.8417 168.344C-7.02931 168.281 -7.19245 168.161 -7.30804 168C-7.42364 167.839 -7.48584 167.646 -7.48584 167.447C-7.48584 167.249 -7.42364 167.055 -7.30804 166.894C-7.19245 166.733 -7.02931 166.613 -6.8417 166.55L121.158 92.7014C121.64 92.4573 122.172 92.3301 122.712 92.3301C123.251 92.3301 123.783 92.4573 124.265 92.7014L205.848 139.874C206.036 139.937 206.199 140.057 206.314 140.218C206.43 140.38 206.492 140.573 206.492 140.771C206.492 140.97 206.43 141.163 206.314 141.324C206.199 141.485 206.036 141.606 205.848 141.669L78.0126 215.682C77.5323 215.926 77.0015 216.054 76.4631 216.054C75.9247 216.054 75.3939 215.926 74.9136 215.682Z" fill="#E0E0E0"/>
<path d="M7.32068 171.039L9.21448 169.943L7.84466 169.327C7.84466 169.327 6.73682 169.612 6.73682 169.68C6.74428 169.932 6.76929 170.183 6.81167 170.431L7.32068 171.039Z" fill="#6C63FF"/>
<path opacity="0.5" d="M7.32068 171.039L9.21448 169.943L7.84466 169.327C7.84466 169.327 6.73682 169.612 6.73682 169.68C6.74428 169.932 6.76929 170.183 6.81167 170.431L7.32068 171.039Z" fill="black"/>
<path d="M79.472 207.498C78.6137 207.934 77.6648 208.162 76.7024 208.162C75.74 208.162 74.7912 207.934 73.9328 207.498L11.7368 171.459L104.832 117.545L107.011 116.283L169.199 152.322C170.696 153.207 170.696 154.649 169.199 155.527L79.472 207.498Z" fill="#6C63FF"/>
<path d="M56.1404 139.46L34.4328 151.984L20.3902 143.853L4.05713 153.32V165.123C4.05713 166.557 5.659 168.591 6.24286 168.261C7.31881 168.522 8.36487 168.895 9.36427 169.372C10.9882 170.303 12.4959 171.425 13.8555 172.713L63.6857 143.86L56.1404 139.46Z" fill="#6C63FF"/>
<path opacity="0.15" d="M56.1404 139.46L34.4328 151.984L20.3902 143.853L4.05713 153.32V165.123C4.05713 166.557 5.659 168.591 6.24286 168.261C7.31881 168.522 8.36487 168.895 9.36427 169.372C10.9882 170.303 12.4959 171.425 13.8555 172.713L63.6857 143.86L56.1404 139.46Z" fill="black"/>
<path opacity="0.4" d="M4.05713 165.123C4.05713 166.467 5.45689 168.336 6.11561 168.291H6.17549H6.24286C6.28777 168.291 8.219 167.06 8.42859 167.03L10.3074 160.806C10.3074 160.806 10.1951 153.53 10.3074 153.53C9.94699 152.482 9.52968 151.455 9.05736 150.452L4.05713 153.35V165.123Z" fill="black"/>
<path d="M73.9255 207.498L70.1828 205.313L13.8703 172.683C13.8297 171.948 13.5688 171.241 13.1217 170.656C12.4528 169.776 11.6155 169.038 10.659 168.487C9.8568 167.99 8.94309 167.703 8.00172 167.653C7.37023 167.647 6.75433 167.85 6.25013 168.231C5.53755 166.792 5.19043 165.198 5.23961 163.591H3.06885C3.06885 166.542 4.04195 169.5 5.23212 170.183L6.31002 170.814C6.91633 171.167 7.40288 171.189 7.40288 170.859V170.281C7.40288 169.643 8.3685 169.673 9.57364 170.371C10.7788 171.069 11.7369 172.143 11.7369 172.789V173.359C11.7369 173.697 12.5678 174.433 13.5858 175.018L68.0345 206.552L73.9255 209.961C74.7778 210.405 75.7271 210.629 76.6876 210.614V208.144C75.727 208.169 74.776 207.946 73.9255 207.498Z" fill="#6C63FF"/>
<path opacity="0.3" d="M73.9255 207.498L70.1828 205.313L13.8703 172.683C13.8297 171.948 13.5688 171.241 13.1217 170.656C12.4528 169.776 11.6155 169.038 10.659 168.487C9.8568 167.99 8.94309 167.703 8.00172 167.653C7.37023 167.647 6.75433 167.85 6.25013 168.231C5.53755 166.792 5.19043 165.198 5.23961 163.591H3.06885C3.06885 166.542 4.04195 169.5 5.23212 170.183L6.31002 170.814C6.91633 171.167 7.40288 171.189 7.40288 170.859V170.281C7.40288 169.643 8.3685 169.673 9.57364 170.371C10.7788 171.069 11.7369 172.143 11.7369 172.789V173.359C11.7369 173.697 12.5678 174.433 13.5858 175.018L68.0345 206.552L73.9255 209.961C74.7778 210.405 75.7271 210.629 76.6876 210.614V208.144C75.727 208.169 74.776 207.946 73.9255 207.498Z" fill="black"/>
<path d="M170.337 153.914V156.421C170.312 156.759 170.197 157.084 170.005 157.362C169.813 157.64 169.55 157.862 169.244 158.005H169.199L85.3331 206.56L79.4496 209.968C78.5969 210.412 77.6479 210.636 76.6875 210.621V208.151C77.6521 208.174 78.6062 207.947 79.4571 207.491L83.1998 205.321L169.169 155.528C169.495 155.394 169.776 155.173 169.982 154.888C170.189 154.602 170.312 154.265 170.337 153.914Z" fill="#6C63FF"/>
<path opacity="0.2" d="M170.337 153.914V156.421C170.312 156.759 170.197 157.084 170.005 157.362C169.813 157.64 169.55 157.862 169.244 158.005H169.199L85.3331 206.56L79.4496 209.968C78.5969 210.412 77.6479 210.636 76.6875 210.621V208.151C77.6521 208.174 78.6062 207.947 79.4571 207.491L83.1998 205.321L169.169 155.528C169.495 155.394 169.776 155.173 169.982 154.888C170.189 154.602 170.312 154.265 170.337 153.914Z" fill="black"/>
<path d="M76.7024 191.513V205.929C76.0581 205.946 75.4206 205.793 74.8535 205.486L68.0343 201.544L16.0708 171.445V156.391L76.7024 191.513Z" fill="#EBEBEB"/>
<path opacity="0.15" d="M44.9868 181.52L59.5384 189.951C59.5384 189.951 58.0413 188.375 52.2626 185.071C46.6635 181.865 44.9868 181.52 44.9868 181.52Z" fill="black"/>
<path d="M167.672 140.647V151.751C167.637 152.393 167.452 153.017 167.132 153.574C166.812 154.131 166.367 154.605 165.831 154.957L85.3333 201.544L78.5216 205.486C77.9568 205.792 77.322 205.945 76.6802 205.929V193.038L167.672 140.647Z" fill="#F5F5F5"/>
<path d="M13.0242 154.664V167.428C12.9603 167.382 12.8927 167.342 12.8221 167.308C12.0253 166.804 11.1128 166.515 10.1723 166.467C9.54294 166.459 8.92904 166.662 8.42822 167.045V152.029L13.0242 154.664Z" fill="#37474F"/>
<path d="M16.0635 171.452C16.0257 170.715 15.7645 170.008 15.3149 169.425C15.0898 169.112 14.8395 168.818 14.5664 168.546L14.3044 168.299L13.9676 168.006L13.6831 167.796C13.4874 167.645 13.2824 167.507 13.0693 167.383V154.664L16.0635 156.428V171.452Z" fill="#E0E0E0"/>
<path d="M104.833 99.9685L11.737 153.913V155.16C11.737 155.858 10.7714 156.113 9.57373 155.423C8.37607 154.732 7.40297 153.861 7.40297 152.66L7.2832 151.473L102.138 96.5524L102.52 96.3271C102.621 96.5035 102.677 96.702 102.684 96.9053V97.4834C102.684 98.1516 103.643 99.2628 104.833 99.9685Z" fill="#6C63FF"/>
<path opacity="0.1" d="M104.833 99.9685L11.737 153.913V155.16C11.737 155.858 10.7714 156.113 9.57373 155.423C8.37607 154.732 7.40297 153.861 7.40297 152.66L7.2832 151.473L102.138 96.5524L102.52 96.3271C102.621 96.5035 102.677 96.702 102.684 96.9053V97.4834C102.684 98.1516 103.643 99.2628 104.833 99.9685Z" fill="black"/>
<path d="M73.9331 189.907L13.1144 154.664C12.3658 154.259 11.6173 153.913 11.3403 154.086L11.7371 153.868L104.833 99.9459L105.926 99.3227C106.524 98.9699 107.834 99.1651 108.86 99.7582L169.17 134.723C170.667 135.616 170.667 137.058 169.17 137.936L79.4723 189.907C78.6139 190.343 77.6651 190.571 76.7027 190.571C75.7403 190.571 74.7914 190.343 73.9331 189.907Z" fill="#6C63FF"/>
<path d="M102.55 96.3044L102.168 96.5296L7.28329 151.451C7.23537 151.352 7.16637 151.264 7.08118 151.195L6.75931 151.015L6.07814 150.617L5.23978 150.159C5.07725 150.05 4.8822 150 4.68733 150.018C4.49245 150.035 4.30958 150.12 4.16937 150.257C4.12516 150.281 4.0868 150.314 4.05709 150.354C3.94466 150.473 3.84897 150.607 3.77264 150.752C3.67107 150.92 3.58823 151.099 3.52562 151.285C3.45077 151.481 3.39089 151.691 3.331 151.909C3.27112 152.126 3.24118 152.374 3.19627 152.659C3.16733 152.805 3.14981 152.954 3.14387 153.102C3.14387 153.215 3.14387 153.328 3.14387 153.455C3.14387 153.718 3.10645 153.996 3.10645 154.289V151.616C3.10645 150.114 4.3565 148.222 5.88352 147.336L95.6183 95.3659C97.1528 94.4799 99.361 94.3298 100.559 95.013L101.689 95.6737C101.764 95.7263 101.958 95.8314 102.168 95.9515C102.327 96.0289 102.46 96.1516 102.55 96.3044Z" fill="#6C63FF"/>
<path d="M73.9481 189.951L70.2054 187.767L26.9474 162.69L13.1144 154.664C12.1338 154.086 11.3329 153.913 11.2805 154.176C11.2769 154.188 11.2769 154.201 11.2805 154.213V154.844C11.2805 155.535 10.3074 155.535 9.10972 154.844C7.91206 154.153 7.42551 153.343 7.41054 152.659V151.976C7.42159 151.825 7.39836 151.674 7.3426 151.534C7.28685 151.393 7.20002 151.267 7.08867 151.165L6.7668 150.985L6.08562 150.587L5.23978 150.159C5.07725 150.05 4.8822 150 4.68733 150.018C4.49245 150.035 4.30958 150.12 4.16937 150.257C4.12516 150.281 4.0868 150.314 4.05709 150.354C3.98238 150.43 3.9193 150.516 3.86995 150.61C3.83083 150.652 3.79805 150.7 3.77264 150.752C3.67107 150.92 3.58823 151.099 3.52562 151.285C3.45077 151.481 3.39089 151.691 3.331 151.909C3.27112 152.126 3.24118 152.374 3.19627 152.659C3.16733 152.805 3.14981 152.954 3.14387 153.102C3.14387 153.215 3.14387 153.328 3.14387 153.455C3.14387 153.718 3.10645 153.996 3.10645 154.289V163.659H5.23978V154.221C5.23978 153.996 5.23978 153.771 5.23978 153.56L5.29218 153.02C5.28647 153.003 5.28647 152.984 5.29218 152.967C5.47931 154.671 7.10364 156.188 8.51089 156.991C9.29219 157.483 10.1872 157.762 11.1083 157.802C11.8093 157.81 12.4886 157.559 13.0171 157.097L13.2117 157.202L13.586 157.427L68.0346 188.96L73.9256 192.369C73.9256 192.369 73.9256 192.369 73.9631 192.369C74.8061 192.8 75.7417 193.016 76.6877 193V190.53C75.7408 190.568 74.7991 190.37 73.9481 189.951Z" fill="#6C63FF"/>
<path opacity="0.3" d="M73.9481 189.951L70.2054 187.767L26.9474 162.69L13.1144 154.664C12.1338 154.086 11.3329 153.913 11.2805 154.176C11.2769 154.188 11.2769 154.201 11.2805 154.213V154.844C11.2805 155.535 10.3074 155.535 9.10972 154.844C7.91206 154.153 7.42551 153.343 7.41054 152.659V151.976C7.42159 151.825 7.39836 151.674 7.3426 151.534C7.28685 151.393 7.20002 151.267 7.08867 151.165L6.7668 150.985L6.08562 150.587L5.23978 150.159C5.07725 150.05 4.8822 150 4.68733 150.018C4.49245 150.035 4.30958 150.12 4.16937 150.257C4.12516 150.281 4.0868 150.314 4.05709 150.354C3.98238 150.43 3.9193 150.516 3.86995 150.61C3.83083 150.652 3.79805 150.7 3.77264 150.752C3.67107 150.92 3.58823 151.099 3.52562 151.285C3.45077 151.481 3.39089 151.691 3.331 151.909C3.27112 152.126 3.24118 152.374 3.19627 152.659C3.16733 152.805 3.14981 152.954 3.14387 153.102C3.14387 153.215 3.14387 153.328 3.14387 153.455C3.14387 153.718 3.10645 153.996 3.10645 154.289V163.659H5.23978V154.221C5.23978 153.996 5.23978 153.771 5.23978 153.56L5.29218 153.02C5.28647 153.003 5.28647 152.984 5.29218 152.967C5.47931 154.671 7.10364 156.188 8.51089 156.991C9.29219 157.483 10.1872 157.762 11.1083 157.802C11.8093 157.81 12.4886 157.559 13.0171 157.097L13.2117 157.202L13.586 157.427L68.0346 188.96L73.9256 192.369C73.9256 192.369 73.9256 192.369 73.9631 192.369C74.8061 192.8 75.7417 193.016 76.6877 193V190.53C75.7408 190.568 74.7991 190.37 73.9481 189.951Z" fill="black"/>
<path opacity="0.1" d="M108.86 99.7806C107.834 99.1874 106.524 98.9922 105.925 99.3451L104.84 99.9683C103.642 99.2625 102.684 98.1513 102.684 97.4606V96.8525C102.677 96.6492 102.621 96.4507 102.52 96.2743C102.446 96.1168 102.329 95.9838 102.183 95.8914C101.973 95.7713 101.778 95.6662 101.704 95.6137L100.573 94.9529C99.3757 94.2697 97.1675 94.4199 95.633 95.3058L5.84584 147.269L5.74854 147.336L69.1497 184.05C69.7215 184.341 70.3537 184.493 70.9949 184.493C71.636 184.493 72.2682 184.341 72.84 184.05L163.181 131.232L108.86 99.7806Z" fill="black"/>
<path d="M170.337 136.3V138.815C170.31 139.152 170.195 139.476 170.003 139.754C169.811 140.032 169.549 140.255 169.244 140.399H169.199L85.3331 188.968L79.4496 192.377C78.5962 192.818 77.6472 193.04 76.6875 193.023V190.553C77.6521 190.576 78.6062 190.348 79.4571 189.892L83.1998 187.722L169.169 137.937C169.498 137.802 169.783 137.577 169.989 137.288C170.196 136.998 170.317 136.655 170.337 136.3Z" fill="#6C63FF"/>
<path opacity="0.2" d="M170.337 136.3V138.815C170.31 139.152 170.195 139.476 170.003 139.754C169.811 140.032 169.549 140.255 169.244 140.399H169.199L85.3331 188.968L79.4496 192.377C78.5962 192.818 77.6472 193.04 76.6875 193.023V190.553C77.6521 190.576 78.6062 190.348 79.4571 189.892L83.1998 187.722L169.169 137.937C169.498 137.802 169.783 137.577 169.989 137.288C170.196 136.998 170.317 136.655 170.337 136.3Z" fill="black"/>
<path d="M64.0745 178.75L66.4773 177.361C65.8303 177.137 65.1358 177.088 64.4638 177.218C63.8275 177.519 64.0745 178.75 64.0745 178.75Z" fill="black"/>
<path d="M62.4281 177.233C62.6995 176.936 63.0297 176.698 63.3976 176.536C63.7655 176.373 64.1632 176.289 64.5652 176.289C64.9672 176.289 65.3648 176.373 65.7328 176.536C66.1007 176.698 66.4309 176.936 66.7023 177.233C69.0377 179.381 69.1575 181.513 70.1231 181.475C71.0887 181.438 71.1111 164.312 71.1111 164.312L61.9116 172.894L62.4281 177.233Z" fill="black"/>
<path d="M158.832 114.932L158.982 114.849L157.485 113.993L94.0011 77.2041L1.49681 137.276C-0.000270814 138.161 -0.30717 139.438 0.890491 140.129L3.05377 141.375L62.3979 175.754L62.817 175.454L158.832 114.932Z" fill="#455A64"/>
<path d="M70.3626 156.204L65.7666 155.25V173.712C68.5362 174.891 70.3027 176.002 70.5947 178.33L70.3626 156.204Z" fill="#6C63FF"/>
<path d="M63.7004 173.952L4.91774 139.911C4.37978 139.559 3.93209 139.084 3.6109 138.526C3.2897 137.968 3.10401 137.341 3.06885 136.698V118.506L62.4279 153.163C62.4279 153.163 63.1315 155.738 65.2349 156.549C67.3383 157.36 65.7365 158.178 65.7365 158.178V173.697C63.9175 173.494 63.7004 173.952 63.7004 173.952Z" fill="#EBEBEB"/>
<path d="M69.1274 155.573C68.5136 155.22 68.0345 155.197 68.0345 155.528V156.106C68.0345 156.744 67.0689 156.714 65.8637 156.016C64.6586 155.318 63.6855 154.244 63.6855 153.606V153.028C63.6855 152.69 62.8696 151.954 61.8516 151.368L157.5 96.4023L158.997 97.2583C159.197 97.4787 159.323 97.7574 159.356 98.0541V98.6322C159.356 99.2779 160.329 100.352 161.527 101.05C162.725 101.748 163.698 101.801 163.698 101.132V100.562C163.698 100.224 164.177 100.246 164.783 100.599L69.1274 155.573Z" fill="#37474F"/>
<path d="M158.832 97.3484L158.982 97.2583L157.485 96.4024L94.0011 59.6133L1.49681 113.22C-0.000270814 114.106 -0.30717 115.383 0.890491 116.073L3.05377 117.327L62.4278 153.163L158.832 97.3484Z" fill="#455A64"/>
<path d="M163.705 99.9985L68.1167 155.34L71.4627 157.968L166.722 102.799C166.488 102.09 166.044 101.469 165.449 101.02L163.705 99.9985Z" fill="#455A64"/>
<path d="M166.363 127.583C166.425 127.55 166.482 127.509 166.535 127.463C166.579 127.439 166.617 127.405 166.647 127.365C166.722 127.29 166.785 127.204 166.834 127.11C166.873 127.067 166.906 127.019 166.932 126.967C167.033 126.799 167.116 126.62 167.179 126.434C167.253 126.239 167.313 126.029 167.373 125.811C167.433 125.593 167.463 125.345 167.508 125.06C167.537 124.914 167.554 124.766 167.56 124.617C167.56 124.504 167.56 124.392 167.56 124.264C167.56 124.001 167.598 123.724 167.598 123.431V107.626C167.609 105.975 167.306 104.337 166.707 102.799L71.4779 157.968L71.0737 182.744L166.333 127.635L166.363 127.583Z" fill="#455A64"/>
<path opacity="0.1" d="M71.4775 157.968C71.4775 157.968 146.503 122.748 153.33 119.519C157.821 117.387 160.067 121.862 158.982 126.494C158.046 130.541 154.071 134.708 154.071 134.708L166.332 127.635C166.394 127.602 166.452 127.562 166.504 127.515C166.549 127.491 166.587 127.458 166.617 127.418C166.691 127.342 166.754 127.256 166.804 127.162C166.843 127.12 166.876 127.072 166.901 127.02C167.003 126.852 167.086 126.673 167.148 126.487C167.223 126.291 167.283 126.081 167.343 125.863C167.403 125.646 167.433 125.398 167.478 125.113C167.506 124.967 167.524 124.818 167.53 124.67C167.53 124.557 167.53 124.444 167.53 124.317C167.53 124.054 167.567 123.776 167.567 123.483V107.626C167.578 105.975 167.276 104.337 166.677 102.799L71.4775 157.968Z" fill="black"/>
<path d="M72.361 162.795H70.2277C70.2749 161.177 69.9199 159.572 69.1947 158.125C68.6905 158.507 68.0746 158.71 67.4431 158.704C66.5039 158.655 65.5923 158.368 64.7933 157.87C63.8339 157.322 62.996 156.584 62.3306 155.7C62.2847 155.638 62.2422 155.572 62.2034 155.505C61.8203 154.968 61.5971 154.333 61.5596 153.673L5.23963 121.073L3.33086 119.955L0.890628 118.543C0.678545 118.446 0.496869 118.292 0.365026 118.099C0.233182 117.906 0.156127 117.681 0.14209 117.447V114.939C0.152711 115.179 0.227966 115.411 0.359812 115.61C0.491658 115.81 0.675138 115.97 0.890628 116.073L7.358 119.827L61.8067 151.361C62.8172 151.946 63.648 152.682 63.648 153.012V153.591C63.6976 153.977 63.8741 154.337 64.1496 154.612C64.6312 155.183 65.2151 155.659 65.8712 156.016C67.0764 156.714 68.0495 156.766 68.0495 156.106V155.528C68.0495 155.197 68.5285 155.212 69.1348 155.565L70.2127 156.196C71.3879 156.917 72.361 159.845 72.361 162.795Z" fill="#37474F"/>
<path d="M70.2277 162.795V178.637C70.2277 178.863 70.2277 179.08 70.2277 179.298L70.1753 179.831C70.1789 179.848 70.1789 179.866 70.1753 179.884C69.9807 178.187 68.3639 176.67 66.9566 175.867C66.1733 175.373 65.2759 175.091 64.3517 175.049C63.6509 175.043 62.9721 175.294 62.4429 175.754L62.2483 175.649L61.8815 175.424L7.43286 143.89L4.30397 142.081C4.01953 141.916 3.70514 141.743 3.41321 141.563L0.778357 140.061C0.60273 139.952 0.456792 139.801 0.353598 139.622C0.250405 139.442 0.193171 139.24 0.187012 139.033V141.533C0.195294 141.726 0.249139 141.915 0.344124 142.083C0.439109 142.251 0.572531 142.395 0.733447 142.501C1.04035 142.689 1.3697 142.869 1.70654 143.072L2.31286 143.425L3.35333 144.033C3.59286 144.176 3.80245 144.303 4.00455 144.408L4.46116 144.679L5.2621 145.144L48.5201 170.183L62.3231 178.179C63.3037 178.757 64.1047 178.93 64.1571 178.66C64.1571 178.615 64.1571 178.57 64.1571 178.555V177.999C64.1571 177.301 65.1227 177.301 66.3204 177.999C67.518 178.697 68.0046 179.501 68.027 180.176V180.86C68.015 181.011 68.037 181.163 68.0914 181.305C68.1458 181.446 68.2312 181.574 68.3414 181.678L68.6633 181.858C68.8579 181.963 69.0899 182.106 69.3444 182.256L70.1903 182.744C70.3544 182.853 70.5504 182.902 70.7462 182.884C70.9421 182.867 71.1261 182.783 71.2682 182.647C71.3081 182.623 71.3436 182.592 71.373 182.557C71.4478 182.477 71.5132 182.389 71.5676 182.294C71.6019 182.254 71.632 182.212 71.6574 182.166C71.7592 181.998 71.8421 181.819 71.9044 181.633C71.9816 181.429 72.0466 181.221 72.0991 181.01C72.1515 180.777 72.1964 180.537 72.2338 180.259C72.2669 180.116 72.2844 179.97 72.2862 179.824C72.2862 179.703 72.2862 179.598 72.2862 179.471C72.2862 179.2 72.2862 178.923 72.2862 178.637V162.795H70.2277Z" fill="#37474F"/>
<path opacity="0.1" d="M166.737 102.791L76.2011 155.227L7.76229 115.622C6.73679 115.037 6.73679 114.076 7.76229 113.483L97.3548 61.5649L157.492 96.402L158.989 97.2654C159.182 97.4735 159.307 97.7353 159.349 98.0162V98.5943C159.349 99.24 160.322 100.321 161.512 101.012C161.574 101.05 161.639 101.083 161.707 101.11L163.698 99.9533L164.648 100.501L164.776 100.561L165.479 100.967C166.072 101.434 166.51 102.07 166.737 102.791Z" fill="black"/>
<path d="M12.8597 115.991L15.5843 114.534L13.0992 113.934C12.8642 114.216 12.7164 114.561 12.6739 114.926C12.6313 115.292 12.6959 115.662 12.8597 115.991Z" fill="#6C63FF"/>
<path opacity="0.5" d="M12.8597 115.991L15.5843 114.534L13.0992 113.934C12.8642 114.216 12.7164 114.561 12.6739 114.926C12.6313 115.292 12.6959 115.662 12.8597 115.991Z" fill="black"/>
<path d="M85.0187 152.412C84.1604 152.849 83.2116 153.076 82.2492 153.076C81.2867 153.076 80.3379 152.849 79.4795 152.412L17.291 116.374L110.387 63.3297L112.565 62.0684L174.753 97.2132C176.251 98.0992 176.251 99.5407 174.753 100.419L85.0187 152.412Z" fill="#6C63FF"/>
<path d="M61.6721 85.2827L39.9645 97.806L25.9295 89.6749L9.61133 99.1049V110.067C9.61133 111.501 11.2132 113.535 11.7896 113.205C12.8655 113.466 13.9116 113.839 14.911 114.316C16.5355 115.246 18.0433 116.368 19.4022 117.657L69.2324 89.6749L61.6721 85.2827Z" fill="#6C63FF"/>
<path opacity="0.15" d="M61.6721 85.2827L39.9645 97.806L25.9295 89.6749L9.61133 99.1049V110.067C9.61133 111.501 11.2132 113.535 11.7896 113.205C12.8655 113.466 13.9116 113.839 14.911 114.316C16.5355 115.246 18.0433 116.368 19.4022 117.657L69.2324 89.6749L61.6721 85.2827Z" fill="black"/>
<path d="M18.5713 100.449V112.319C18.5113 112.275 18.4488 112.235 18.3841 112.199C17.5797 111.701 16.6633 111.414 15.7193 111.365C15.1059 111.303 14.4891 111.448 13.9678 111.778V97.791L18.5713 100.449Z" fill="#37474F"/>
<path d="M21.6252 116.374C21.5792 115.639 21.3189 114.934 20.8766 114.346C20.6518 114.033 20.4014 113.74 20.1281 113.468L19.8661 113.22L19.5218 112.927L19.2373 112.717C19.0398 112.569 18.8349 112.432 18.6235 112.304V100.509L21.6626 102.274V102.214L21.6252 116.374Z" fill="#E0E0E0"/>
<path opacity="0.4" d="M9.611 110.067C9.611 111.501 11.2129 113.536 11.7892 113.205L13.9675 111.779V102.769L11.7818 99.0152L10.5916 98.5947L9.60352 99.1653L9.611 110.067Z" fill="black"/>
<path d="M82.2493 137.328V150.843C81.6081 150.861 80.9734 150.711 80.4079 150.407L73.5812 146.458L21.6177 116.373V102.213L82.2493 137.328Z" fill="#EBEBEB"/>
<path opacity="0.15" d="M25.5474 111.283L40.0915 119.707C40.0915 119.707 38.5944 118.13 32.8232 114.834C27.2166 111.629 25.5474 111.283 25.5474 111.283Z" fill="black"/>
<path d="M173.196 86.4692V96.6951C173.161 97.3377 172.976 97.9629 172.654 98.5199C172.333 99.0769 171.885 99.5501 171.347 99.901L90.9096 146.451L84.0979 150.4C83.53 150.704 82.8926 150.854 82.249 150.835V138.898L173.196 86.4692Z" fill="#F5F5F5"/>
<path d="M110.387 45.7985L17.2912 99.7059V100.96C17.2912 101.658 16.3181 101.913 15.1279 101.215C13.9378 100.517 12.9497 99.6533 12.9497 98.4596L12.8374 97.2733L107.692 42.3449L108.074 42.1196C108.171 42.2972 108.225 42.4953 108.231 42.6977V43.2759C108.231 43.9741 109.197 45.0853 110.387 45.7985Z" fill="#6C63FF"/>
<path opacity="0.1" d="M110.387 45.7985L17.2912 99.7059V100.96C17.2912 101.658 16.3181 101.913 15.1279 101.215C13.9378 100.517 12.9497 99.6533 12.9497 98.4596L12.8374 97.2733L107.692 42.3449L108.074 42.1196C108.171 42.2972 108.225 42.4953 108.231 42.6977V43.2759C108.231 43.9741 109.197 45.0853 110.387 45.7985Z" fill="black"/>
<path d="M79.4798 135.722L18.6686 100.509C17.92 100.104 17.1715 99.7584 16.8945 99.9311L17.2913 99.7058L110.387 45.7985L111.472 45.1678C112.079 44.8224 113.389 45.0177 114.407 45.6033L174.754 80.5529C176.251 81.4389 176.251 82.8804 174.754 83.7589L85.019 135.722C84.1607 136.158 83.2118 136.386 82.2494 136.386C81.287 136.386 80.3381 136.158 79.4798 135.722Z" fill="#6C63FF"/>
<path d="M112.984 60.8145L146.608 80.3353C148.03 81.1612 148.03 82.5051 146.608 83.3385L142.08 85.9588C141.278 86.3658 140.392 86.5779 139.493 86.5779C138.595 86.5779 137.709 86.3658 136.907 85.9588L103.298 66.453C101.868 65.6271 101.868 64.2832 103.298 63.4498L107.789 60.8295C108.592 60.4153 109.482 60.1979 110.385 60.1953C111.288 60.1927 112.179 60.4049 112.984 60.8145Z" fill="white"/>
<path d="M108.074 42.1195L107.692 42.3447L12.8373 97.2731C12.7882 97.1707 12.7165 97.0809 12.6277 97.0103L12.3134 96.8301L11.6322 96.4322C11.3702 96.2896 11.0858 96.1169 10.7863 95.9442C10.6222 95.8357 10.4262 95.7862 10.2304 95.804C10.0346 95.8217 9.85056 95.9055 9.70844 96.0418C9.66666 96.066 9.63084 96.0994 9.60365 96.1394C9.49127 96.2557 9.39554 96.3871 9.3192 96.5298C9.21602 96.6997 9.13312 96.8811 9.07219 97.0704C8.99393 97.2711 8.92892 97.4768 8.87756 97.6861C8.82517 97.9188 8.78025 98.1591 8.74283 98.4369C8.71022 98.5798 8.69265 98.7257 8.69043 98.8723C8.69043 98.9925 8.69043 99.0976 8.69043 99.2252C8.69043 99.4955 8.69043 99.7733 8.69043 100.059V97.3857C8.69043 95.8841 9.94049 93.9996 11.46 93.1137L101.202 41.1359C102.699 40.25 104.945 40.0998 106.135 40.783L107.265 41.4512H107.31C107.385 41.5038 107.58 41.6089 107.789 41.729C107.918 41.831 108.016 41.9659 108.074 42.1195Z" fill="#6C63FF"/>
<path d="M79.4797 152.412L75.737 150.227L19.4619 117.65C19.4203 116.917 19.1594 116.213 18.7133 115.63C18.048 114.747 17.21 114.008 16.2507 113.461C15.4343 112.952 14.5012 112.662 13.5409 112.62C12.9093 112.612 12.293 112.815 11.7894 113.198C11.0642 111.751 10.7092 110.146 10.7564 108.528H8.62305C8.62305 111.478 9.59615 114.437 10.7863 115.12L11.8642 115.751C12.4705 116.103 12.9496 116.126 12.9496 115.796V115.217C12.9496 114.579 13.9227 114.609 15.1278 115.308C16.333 116.006 17.2911 117.124 17.2911 117.725V118.303C17.2911 118.641 18.122 119.377 19.1325 119.962L73.5812 151.496L79.4797 154.912C80.3324 155.356 81.2814 155.58 82.2418 155.565V153.095C81.2777 153.11 80.3262 152.875 79.4797 152.412Z" fill="#6C63FF"/>
<path opacity="0.3" d="M79.4797 152.412L75.737 150.227L19.4619 117.65C19.4203 116.917 19.1594 116.213 18.7133 115.63C18.048 114.747 17.21 114.008 16.2507 113.461C15.4343 112.952 14.5012 112.662 13.5409 112.62C12.9093 112.612 12.293 112.815 11.7894 113.198C11.0642 111.751 10.7092 110.146 10.7564 108.528H8.62305C8.62305 111.478 9.59615 114.437 10.7863 115.12L11.8642 115.751C12.4705 116.103 12.9496 116.126 12.9496 115.796V115.217C12.9496 114.579 13.9227 114.609 15.1278 115.308C16.333 116.006 17.2911 117.124 17.2911 117.725V118.303C17.2911 118.641 18.122 119.377 19.1325 119.962L73.5812 151.496L79.4797 154.912C80.3324 155.356 81.2814 155.58 82.2418 155.565V153.095C81.2777 153.11 80.3262 152.875 79.4797 152.412Z" fill="black"/>
<path d="M79.5023 135.737L75.7596 133.559L32.5016 108.528L18.6686 100.509C17.688 99.9311 16.8871 99.7584 16.8347 100.029V100.659C16.8347 101.358 15.8691 101.358 14.6714 100.659C13.4738 99.9611 12.9872 99.1577 12.9647 98.482V97.7988C12.9775 97.6467 12.9551 97.4938 12.8993 97.3518C12.8435 97.2099 12.7557 97.0828 12.6429 96.9804L12.3285 96.8002C12.1339 96.6951 11.9018 96.5525 11.6473 96.4023C11.3928 96.2521 11.1009 96.087 10.8015 95.9143C10.6373 95.8058 10.4413 95.7563 10.2455 95.774C10.0497 95.7918 9.86569 95.8756 9.72358 96.0119C9.68179 96.0361 9.64598 96.0695 9.61878 96.1095C9.54176 96.1845 9.47618 96.2705 9.42416 96.3648C9.38833 96.4056 9.35812 96.451 9.33434 96.4999C9.23117 96.6698 9.14826 96.8512 9.08732 97.0405C9.00907 97.2412 8.94405 97.4469 8.8927 97.6561C8.8403 97.8889 8.79539 98.1291 8.75796 98.4069C8.72535 98.5499 8.70779 98.6958 8.70557 98.8424C8.70557 98.9625 8.70557 99.0676 8.70557 99.1953C8.70557 99.4656 8.70557 99.7434 8.70557 100.029V108.528H10.8389V100.036C10.8389 99.8184 10.8389 99.5932 10.8389 99.3755L10.8913 98.8424C10.8877 98.8251 10.8877 98.8072 10.8913 98.7898C11.0859 100.487 12.7028 102.011 14.11 102.807C14.8795 103.287 15.7577 103.563 16.6625 103.61C17.3633 103.616 18.0421 103.365 18.5713 102.904L18.7584 103.009L19.1327 103.235L73.5814 134.768L79.4798 138.177H79.5248C80.3661 138.605 81.2986 138.821 82.2419 138.807V136.337C81.2932 136.368 80.3518 136.162 79.5023 135.737Z" fill="#6C63FF"/>
<path opacity="0.3" d="M79.5023 135.737L75.7596 133.559L32.5016 108.528L18.6686 100.509C17.688 99.9311 16.8871 99.7584 16.8347 100.029V100.659C16.8347 101.358 15.8691 101.358 14.6714 100.659C13.4738 99.9611 12.9872 99.1577 12.9647 98.482V97.7988C12.9775 97.6467 12.9551 97.4938 12.8993 97.3518C12.8435 97.2099 12.7557 97.0828 12.6429 96.9804L12.3285 96.8002C12.1339 96.6951 11.9018 96.5525 11.6473 96.4023C11.3928 96.2521 11.1009 96.087 10.8015 95.9143C10.6373 95.8058 10.4413 95.7563 10.2455 95.774C10.0497 95.7918 9.86569 95.8756 9.72358 96.0119C9.68179 96.0361 9.64598 96.0695 9.61878 96.1095C9.54176 96.1845 9.47618 96.2705 9.42416 96.3648C9.38833 96.4056 9.35812 96.451 9.33434 96.4999C9.23117 96.6698 9.14826 96.8512 9.08732 97.0405C9.00907 97.2412 8.94405 97.4469 8.8927 97.6561C8.8403 97.8889 8.79539 98.1291 8.75796 98.4069C8.72535 98.5499 8.70779 98.6958 8.70557 98.8424C8.70557 98.9625 8.70557 99.0676 8.70557 99.1953C8.70557 99.4656 8.70557 99.7434 8.70557 100.029V108.528H10.8389V100.036C10.8389 99.8184 10.8389 99.5932 10.8389 99.3755L10.8913 98.8424C10.8877 98.8251 10.8877 98.8072 10.8913 98.7898C11.0859 100.487 12.7028 102.011 14.11 102.807C14.8795 103.287 15.7577 103.563 16.6625 103.61C17.3633 103.616 18.0421 103.365 18.5713 102.904L18.7584 103.009L19.1327 103.235L73.5814 134.768L79.4798 138.177H79.5248C80.3661 138.605 81.2986 138.821 82.2419 138.807V136.337C81.2932 136.368 80.3518 136.162 79.5023 135.737Z" fill="black"/>
<path d="M175.906 82.1221V84.6297C175.88 84.9681 175.764 85.2933 175.571 85.5718C175.377 85.8503 175.113 86.072 174.806 86.2139H174.769L90.9322 134.761L85.0487 138.177C84.1964 138.621 83.2471 138.846 82.2866 138.83V136.36C83.2536 136.383 84.2101 136.155 85.0637 135.699L88.8064 133.529L174.783 83.7213C175.098 83.5819 175.368 83.3595 175.566 83.0778C175.764 82.7961 175.881 82.4657 175.906 82.1221Z" fill="#6C63FF"/>
<path opacity="0.2" d="M175.906 82.1221V84.6297C175.88 84.9681 175.764 85.2933 175.571 85.5718C175.377 85.8503 175.113 86.072 174.806 86.2139H174.769L90.9322 134.761L85.0487 138.177C84.1964 138.621 83.2471 138.846 82.2866 138.83V136.36C83.2536 136.383 84.2101 136.155 85.0637 135.699L88.8064 133.529L174.783 83.7213C175.098 83.5819 175.368 83.3595 175.566 83.0778C175.764 82.7961 175.881 82.4657 175.906 82.1221Z" fill="black"/>
<path d="M175.906 98.8345V101.357C175.88 101.696 175.764 102.021 175.571 102.299C175.377 102.578 175.113 102.799 174.806 102.941H174.769L90.9322 151.488L85.0487 154.904C84.1964 155.348 83.2471 155.573 82.2866 155.557V153.087C83.2536 153.11 84.2101 152.883 85.0637 152.426L88.8064 150.257L174.783 100.456C175.1 100.314 175.372 100.088 175.57 99.8024C175.768 99.5166 175.884 99.1818 175.906 98.8345Z" fill="#6C63FF"/>
<path opacity="0.2" d="M175.906 98.8345V101.357C175.88 101.696 175.764 102.021 175.571 102.299C175.377 102.578 175.113 102.799 174.806 102.941H174.769L90.9322 151.488L85.0487 154.904C84.1964 155.348 83.2471 155.573 82.2866 155.557V153.087C83.2536 153.11 84.2101 152.883 85.0637 152.426L88.8064 150.257L174.783 100.456C175.1 100.314 175.372 100.088 175.57 99.8024C175.768 99.5166 175.884 99.1818 175.906 98.8345Z" fill="black"/>
<path d="M27.9727 112.687V146.383L32.8232 140.767L37.6737 151.999V118.303L27.9727 112.687Z" fill="#6C63FF"/>
<path opacity="0.5" d="M27.9727 112.687V146.383L32.8232 140.767L37.6737 151.999V118.303L27.9727 112.687Z" fill="black"/>
<path d="M47.3675 182.887V192.031C47.3674 193.52 46.9765 194.982 46.2341 196.271C45.4917 197.56 44.4239 198.631 43.1382 199.374L30.4131 206.755L42.5319 205.351L40.1067 212.371L52.8318 204.99C54.1165 204.245 55.1834 203.175 55.9257 201.886C56.6679 200.598 57.0595 199.136 57.061 197.647V188.503L47.3675 182.887Z" fill="#6C63FF"/>
<path opacity="0.5" d="M47.3675 182.887V192.031C47.3674 193.52 46.9765 194.982 46.2341 196.271C45.4917 197.56 44.4239 198.631 43.1382 199.374L30.4131 206.755L42.5319 205.351L40.1067 212.371L52.8318 204.99C54.1165 204.245 55.1834 203.175 55.9257 201.886C56.6679 200.598 57.0595 199.136 57.061 197.647V188.503L47.3675 182.887Z" fill="black"/>
<path d="M230.266 27.5241V19.3104L223.349 18.7022C223.25 18.6945 223.152 18.7154 223.065 18.7623L216.163 22.719C216.104 22.7585 216.053 22.81 216.015 22.8704C215.976 22.9307 215.951 22.9985 215.94 23.0693C215.93 23.1401 215.934 23.2124 215.953 23.2814C215.972 23.3504 216.005 23.4146 216.051 23.4698L223.386 31.4433L230.266 27.5241Z" fill="#6C63FF"/>
<path d="M223.386 31.4732L216.051 23.4997C215.979 23.425 215.932 23.33 215.916 23.2276C215.901 23.1252 215.917 23.0204 215.963 22.9276C216.009 22.8348 216.082 22.7584 216.173 22.709C216.263 22.6595 216.367 22.6394 216.47 22.6513L223.386 23.2519V31.4732Z" fill="#6C63FF"/>
<path d="M230.266 19.3104L223.386 23.2746L216.47 22.6665C216.388 22.6588 216.306 22.6718 216.23 22.704C216.784 22.3737 222.81 18.9125 223.065 18.7773C223.154 18.7294 223.256 18.7085 223.357 18.7173L230.266 19.3104Z" fill="#6C63FF"/>
<path opacity="0.5" d="M230.266 19.3104L223.386 23.2746L216.47 22.6665C216.388 22.6588 216.306 22.6718 216.23 22.704C216.784 22.3737 222.81 18.9125 223.065 18.7773C223.154 18.7294 223.256 18.7085 223.357 18.7173L230.266 19.3104Z" fill="white"/>
<path d="M223.394 13.9872C223.44 13.1194 223.69 12.2748 224.123 11.5221C224.556 10.7694 225.16 10.1297 225.886 9.65513L227.915 8.48388C228.686 8.08786 229.541 7.88135 230.408 7.88135C231.274 7.88135 232.129 8.08786 232.9 8.48388L254.503 21.0222C255.229 21.4964 255.834 22.1359 256.267 22.8887C256.7 23.6416 256.95 24.4864 256.996 25.3543V50.416C256.946 51.2809 256.694 52.1221 256.261 52.8718C255.828 53.6216 255.226 54.2591 254.503 54.7331L252.474 55.9043C251.702 56.2968 250.848 56.5014 249.982 56.5014C249.116 56.5014 248.262 56.2968 247.489 55.9043L241.104 52.2104L232.803 47.3978L225.856 43.381C225.131 42.9064 224.527 42.2667 224.093 41.514C223.66 40.7613 223.41 39.9167 223.364 39.0489L223.394 13.9872Z" fill="#6C63FF"/>
<path d="M245.034 36.1057C245.02 34.4573 244.676 32.8285 244.023 31.3156C243.427 29.7319 242.365 28.3676 240.977 27.404C238.896 26.1727 237.152 28.6728 236.882 31.6235C236.635 28.365 234.929 23.8302 232.84 22.6139C232.386 22.2624 231.815 22.0985 231.245 22.1557C230.674 22.213 230.147 22.487 229.771 22.9217C229.009 23.9504 228.635 25.2166 228.716 26.4955C228.716 31.4808 231.71 36.0081 234.188 40.7607L236.822 45.761L239.495 43.8915C242.002 42.0821 245.011 41.0985 245.034 36.1057Z" fill="#FAFAFA"/>
<path opacity="0.2" d="M257.026 50.4008C256.975 51.271 256.72 52.1168 256.281 52.8696C255.843 53.6223 255.234 54.2607 254.503 54.7329L252.475 55.9041C251.772 56.2579 251.002 56.4589 250.217 56.4938C249.431 56.5287 248.647 56.3969 247.916 56.1068C249.084 56.5498 249.982 55.8891 249.982 54.4626V29.4009C249.949 28.5289 249.691 27.6804 249.233 26.9383L256.247 22.8765C256.705 23.6186 256.963 24.4671 256.996 25.3391L257.026 50.4008Z" fill="black"/>
<path opacity="0.5" d="M223.476 13.2739C223.768 12.2152 224.734 11.8774 225.886 12.5231L247.519 25.0539C248.26 25.5104 248.867 26.1554 249.278 26.9234L256.285 22.8615C255.857 22.1055 255.244 21.4722 254.503 21.0221L232.908 8.48376C232.135 8.09125 231.281 7.88672 230.415 7.88672C229.549 7.88672 228.695 8.09125 227.922 8.48376L225.886 9.66251C225.262 10.0698 224.727 10.5998 224.312 11.2205C223.898 11.8412 223.614 12.5398 223.476 13.2739Z" fill="white"/>
<path d="M169.499 67.7975C180.03 67.4446 185.255 72.8729 191.633 82.1077C198.01 91.3425 215.586 116.945 215.586 116.945L201.91 124.866L171.969 83.6693L169.499 67.7975Z" fill="#F1B4A1"/>
<path d="M159.985 0.428143C137.117 1.56936 127.865 19.7913 131.039 36.4665C133.793 50.9269 144.632 58.7502 159.401 58.7502H161.25C177.321 58.7502 188.017 42.2326 189.994 33.3281C194.619 12.6511 180.255 -0.577927 159.985 0.428143Z" fill="#37474F"/>
<path d="M216.38 215.832C216.941 229.7 194.29 232.417 174.394 222.897C159.386 215.72 152.687 210.539 139.026 200.313C122.101 187.617 117.026 168.389 129.1 145.55L186.67 142.547C196.693 154.199 232.795 169.681 244.772 197.22C250.588 211.778 230.609 219.444 216.327 215.832H216.38Z" fill="#455A64"/>
<path d="M216.38 215.832C214.883 202.761 204.964 196.312 196.454 189.982C187.943 183.653 170.06 172.684 170.06 172.684C170.06 172.684 178.953 174.764 187.112 166.347C186.863 168.154 186.22 169.884 185.229 171.414C184.238 172.944 182.923 174.236 181.378 175.199C181.378 175.199 206.132 189.397 213.565 201.432C216.272 205.708 217.276 210.848 216.38 215.832Z" fill="#37474F"/>
<path d="M155.553 67.7974H148.958C142.573 68.2478 136.233 68.7434 136.233 68.7434C126.008 72.4448 126.053 80.5309 125.544 84.7729C124.796 90.7793 126.487 94.203 128.456 99.909L137.888 127.268C137.888 127.268 134.235 135.437 129.107 145.55C152.776 158.794 181.557 154.372 188.668 144.702C188.968 142.652 187.92 120.954 186.767 110.48C190.066 107.847 192.215 104.031 192.761 99.8382C193.307 95.6453 192.207 91.4037 189.694 88.0089C180.794 75.8084 172.695 68.4506 169.483 67.7974H155.553Z" fill="#6C63FF"/>
<path opacity="0.3" d="M155.553 67.7974H148.958C142.573 68.2478 136.233 68.7434 136.233 68.7434C126.008 72.4448 126.053 80.5309 125.544 84.7729C124.796 90.7793 126.487 94.203 128.456 99.909L137.888 127.268C137.888 127.268 134.235 135.437 129.107 145.55C152.776 158.794 181.557 154.372 188.668 144.702C188.968 142.652 187.92 120.954 186.767 110.48C190.066 107.847 192.215 104.031 192.761 99.8382C193.307 95.6453 192.207 91.4037 189.694 88.0089C180.794 75.8084 172.695 68.4506 169.483 67.7974H155.553Z" fill="black"/>
<path opacity="0.15" d="M135.964 131.435C135.156 133.177 134.108 135.392 132.888 137.899C132.678 138.342 132.461 138.793 132.237 139.243C131.96 139.814 131.675 140.399 131.376 140.993C130.627 142.449 129.879 143.996 129.13 145.55C130.006 146.038 130.889 146.488 131.772 146.931C147.611 154.83 165.247 155.228 176.992 151.699C169.008 152.763 160.9 152.41 153.038 150.655C151.185 150.227 149.436 149.432 147.892 148.316C146.349 147.201 145.043 145.788 144.052 144.161C143.06 142.533 142.401 140.723 142.116 138.837C141.83 136.951 141.922 135.027 142.387 133.177C142.448 132.921 142.528 132.67 142.626 132.426C144.123 128.755 147.424 129.235 147.424 129.235C145.9 128.231 144.589 126.934 143.567 125.418C142.546 123.903 141.834 122.199 141.473 120.406L140.231 116.599C137.377 107.951 137.231 98.6345 139.812 89.9007L139.879 89.653L129.819 83.9019L128.06 85.1257C127.51 86.902 127.188 88.7412 127.102 90.599C127.102 91.072 127.102 91.5525 127.102 92.033C127.102 92.2582 127.102 92.4835 127.102 92.7012C127.102 93.1066 127.146 93.5046 127.184 93.9025C127.221 94.3004 127.244 94.5407 127.289 94.856C127.334 95.1713 127.379 95.5317 127.438 95.8696C127.498 96.2074 127.596 96.688 127.685 97.0934C127.745 97.3487 127.79 97.6114 127.858 97.8442C128.03 98.5124 128.224 99.1806 128.449 99.8338L137.881 127.193C137.881 127.193 137.184 128.83 135.964 131.435Z" fill="black"/>
<path d="M179.275 14.6108C180.772 15.3616 184.821 23.1324 184.432 40.0479C184.103 54.3881 179.469 57.9244 177.141 58.9455C174.813 59.9666 170.33 59.3434 165.966 58.6152V67.2193C165.966 67.2193 171.999 74.2468 171.617 78.1885C171.235 82.1302 162.912 83.0687 157.275 79.2171C153.617 76.5764 150.478 73.28 148.016 69.4942V48.6971C148.016 48.6971 145.635 51.3174 140.815 48.1115C135.994 44.9056 135.253 38.2835 138.053 35.4305C140.852 32.5774 146.893 33.4859 148.016 37.4201C148.016 37.4201 155.082 38.6739 164.558 32.5549C174.791 25.9479 177.942 20.6923 179.275 14.6108Z" fill="#F1B4A1"/>
<path d="M181.61 30.6405L177.613 28.7259C177.724 28.4593 177.889 28.2182 178.096 28.0174C178.304 27.8165 178.55 27.66 178.819 27.5575C179.089 27.455 179.376 27.4085 179.664 27.4209C179.952 27.4333 180.235 27.5044 180.495 27.6298C181.031 27.8918 181.445 28.3507 181.653 28.9113C181.861 29.4718 181.845 30.091 181.61 30.6405Z" fill="#263238"/>
<path d="M163.78 28.3504L160.037 30.7155C159.875 30.4797 159.762 30.2136 159.705 29.933C159.648 29.6524 159.648 29.3632 159.706 29.0827C159.763 28.8022 159.876 28.5362 160.039 28.3007C160.201 28.0652 160.409 27.865 160.651 27.7123C161.154 27.3949 161.76 27.2841 162.343 27.403C162.925 27.5218 163.44 27.8611 163.78 28.3504Z" fill="#263238"/>
<path d="M147.851 33.4707L148.098 42.24C148.673 42.2534 149.244 42.1497 149.777 41.9351C150.31 41.7205 150.794 41.3996 151.2 40.9917C151.606 40.5839 151.926 40.0976 152.139 39.5623C152.352 39.0271 152.454 38.454 152.44 37.8779C152.388 36.692 151.882 35.572 151.027 34.7511C150.172 33.9301 149.034 33.4715 147.851 33.4707Z" fill="#37474F"/>
<path d="M166.871 35.8958C166.874 36.2489 166.773 36.5949 166.581 36.8909C166.389 37.1869 166.115 37.4199 165.792 37.5608C165.469 37.7017 165.112 37.7444 164.765 37.6835C164.419 37.6227 164.097 37.461 163.841 37.2186C163.585 36.9762 163.406 36.6636 163.326 36.3199C163.245 35.9761 163.268 35.6162 163.389 35.285C163.511 34.9537 163.727 34.6656 164.011 34.4565C164.295 34.2475 164.633 34.1266 164.985 34.1089C165.226 34.1009 165.466 34.1409 165.692 34.2266C165.918 34.3122 166.124 34.4419 166.299 34.608C166.475 34.7742 166.616 34.9735 166.714 35.1945C166.812 35.4156 166.865 35.6539 166.871 35.8958Z" fill="#263238"/>
<path d="M168.421 48.5845L173.159 50.0861C173.074 50.4048 172.926 50.7029 172.723 50.9627C172.52 51.2224 172.267 51.4383 171.979 51.5975C171.691 51.7567 171.374 51.8559 171.047 51.889C170.72 51.9221 170.389 51.8886 170.075 51.7904C169.44 51.5737 168.913 51.119 168.605 50.5214C168.296 49.9238 168.23 49.2297 168.421 48.5845Z" fill="#D27C68"/>
<path d="M180.772 35.1448C180.774 35.4979 180.673 35.844 180.481 36.14C180.289 36.436 180.015 36.6689 179.692 36.8098C179.369 36.9507 179.012 36.9934 178.666 36.9326C178.319 36.8717 177.998 36.7101 177.742 36.4676C177.486 36.2252 177.306 35.9127 177.226 35.5689C177.146 35.2251 177.168 34.8653 177.29 34.534C177.412 34.2027 177.628 33.9146 177.911 33.7056C178.195 33.4965 178.534 33.3756 178.885 33.3579C179.126 33.3499 179.367 33.3899 179.592 33.4756C179.818 33.5613 180.024 33.6909 180.2 33.857C180.375 34.0232 180.516 34.2225 180.614 34.4436C180.712 34.6646 180.766 34.9029 180.772 35.1448Z" fill="#263238"/>
<path d="M171.991 34.1089L172.283 44.9654L177.972 43.1936L171.991 34.1089Z" fill="#D27C68"/>
<path d="M165.966 58.6152C161.37 58.0146 151.916 55.2891 150.441 51.5352C150.441 51.5352 150.935 53.8927 153.757 56.3253C156.579 58.7578 165.966 61.4907 165.966 61.4907V58.6152Z" fill="#D27C68"/>
<path d="M233.012 98.1669C233.012 98.1669 232.832 95.5241 236.305 92.9488C239.779 90.3736 244.315 88.3089 245.797 81.9121L250.58 84.6825L242.526 98.272L233.012 98.1669Z" fill="#6C63FF"/>
<path opacity="0.75" d="M233.012 98.1669C233.012 98.1669 232.832 95.5241 236.305 92.9488C239.779 90.3736 244.315 88.3089 245.797 81.9121L250.58 84.6825L242.526 98.272L233.012 98.1669Z" fill="white"/>
<path d="M233.012 98.1673C233.012 98.1673 227.772 95.5395 216.327 97.912C204.882 100.285 195.51 103.355 173.503 102.867L179.215 106.178L236.351 102.86L233.012 98.1673Z" fill="#6C63FF"/>
<path opacity="0.75" d="M233.012 98.1673C233.012 98.1673 227.772 95.5395 216.327 97.912C204.882 100.285 195.51 103.355 173.503 102.867L179.215 106.178L236.351 102.86L233.012 98.1673Z" fill="white"/>
<path d="M173.503 102.867L153.076 168.81L158.787 172.121L179.215 106.178L173.503 102.867Z" fill="#6C63FF"/>
<path opacity="0.8" d="M173.503 102.867L153.076 168.81L158.787 172.121L179.215 106.178L173.503 102.867Z" fill="white"/>
<path opacity="0.1" d="M173.503 102.867L153.076 168.81L158.787 172.121L179.215 106.178L173.503 102.867Z" fill="black"/>
<g opacity="0.1">
<path d="M245.79 85.4561C245.255 86.8342 244.456 88.0942 243.439 89.165C242.413 90.2367 241.318 91.2399 240.161 92.1682C238.996 93.0411 237.919 94.0242 236.942 95.1038C236.483 95.6339 236.096 96.222 235.789 96.8532C235.5 97.4593 235.359 98.1259 235.377 98.7977L234.681 98.9029C234.668 98.0975 234.859 97.3019 235.235 96.5904C235.579 95.9102 236.012 95.279 236.523 94.7134C237.561 93.6524 238.699 92.6945 239.921 91.8529C241.1 90.9847 242.225 90.0444 243.289 89.0374C244.346 88.0172 245.195 86.8009 245.79 85.4561Z" fill="black"/>
<path d="M244.876 89.1724C244.388 89.9957 243.797 90.7527 243.117 91.4248C242.458 92.123 241.785 92.7912 241.141 93.497C240.497 94.1908 239.92 94.9451 239.419 95.7494C238.928 96.5167 238.62 97.3879 238.521 98.2946L237.817 98.2045C237.993 97.2127 238.39 96.2735 238.978 95.4565C239.546 94.6712 240.187 93.9421 240.894 93.2792C241.583 92.611 242.301 91.9803 242.99 91.3272C243.709 90.6935 244.343 89.9692 244.876 89.1724Z" fill="black"/>
<path d="M195.51 103.355C198.637 103.07 201.746 102.612 204.822 101.981C207.906 101.358 210.953 100.592 214.014 99.879C217.084 99.127 220.227 98.7166 223.386 98.6552C224.973 98.6054 226.561 98.6681 228.139 98.8429C228.936 98.9306 229.724 99.0812 230.497 99.2934C231.317 99.4972 232.083 99.8763 232.743 100.405L232.256 100.915C231.685 100.453 231.025 100.116 230.317 99.9241C229.581 99.7121 228.831 99.5541 228.072 99.4511C226.528 99.252 224.972 99.1616 223.416 99.1808C220.275 99.1807 217.145 99.5307 214.081 100.224C211.012 100.878 207.943 101.591 204.852 102.154C201.762 102.726 198.644 103.127 195.51 103.355Z" fill="black"/>
<path d="M210.616 103.07C212.39 102.83 214.134 102.462 215.893 102.124C217.652 101.786 219.411 101.463 221.185 101.23C222.967 100.967 224.766 100.847 226.567 100.87C228.399 100.867 230.216 101.203 231.927 101.861L231.642 102.507C230.025 101.826 228.297 101.449 226.545 101.396C224.771 101.317 222.994 101.377 221.23 101.576C219.456 101.756 217.689 102.019 215.923 102.327C214.156 102.634 212.397 102.86 210.616 103.07Z" fill="black"/>
</g>
<path d="M250.595 81.3867L241.178 97.4914L219.261 168.202L222.121 169.853L231.522 150.107L253.439 83.031L250.595 81.3867Z" fill="#6C63FF"/>
<path opacity="0.2" d="M244.03 99.1509L253.439 83.0312L231.522 150.108L222.121 169.854L244.03 99.1509Z" fill="black"/>
<path d="M231.784 102.935L175.434 106.561L153.517 177.264L156.377 178.915L212.726 175.289L234.636 104.586L231.784 102.935Z" fill="#6C63FF"/>
<path opacity="0.2" d="M178.287 108.213L156.377 178.915L212.727 175.289L234.637 104.586L178.287 108.213Z" fill="black"/>
<path opacity="0.3" d="M175.434 106.561L178.286 108.213L156.377 178.916L153.517 177.264L175.434 106.561Z" fill="black"/>
<path d="M234.636 104.587L244.023 99.1509L222.113 169.854C220.654 173.668 217.428 175.372 212.719 175.289L234.636 104.587Z" fill="#6C63FF"/>
<path opacity="0.3" d="M234.636 104.587L244.023 99.1509L222.113 169.854C220.474 173.885 217.158 175.425 212.719 175.289L234.636 104.587Z" fill="black"/>
<path d="M240.857 97.3111C239.113 96.2825 235.617 96.6654 233.012 98.167C230.407 99.6686 229.733 101.711 231.478 102.739L234.636 104.586L244.023 99.1505L241.171 97.4913L240.857 97.3111Z" fill="#455A64"/>
<path d="M229.628 120.729C233.012 120.796 236.687 120.368 238.326 117.56L240.505 110.563C238.446 113.386 235.751 114.858 231.522 114.737L229.628 120.729Z" fill="#E0E0E0"/>
<path d="M241.179 97.4912C240.625 100.209 237.167 101.906 231.785 102.935L234.637 104.586C239.263 104.053 242.317 102.176 244.031 99.1505L241.179 97.4912Z" fill="#6C63FF"/>
<path d="M136.234 68.7432C130.38 69.096 124.16 71.0481 121.495 81.6719C118.83 92.2957 111.577 127.936 111.015 132.726C110.454 137.516 110.342 141.383 121.817 145.069C134.766 149.221 155.696 150.851 161.609 151.166C172.515 151.759 179.783 148.538 183.264 142.254C186.745 135.97 187.755 127.606 177.965 131.66C167.575 135.97 163.218 136.075 163.218 136.075L165.209 129.648C161.953 131.067 159.221 135.534 155.965 136.075C153.076 136.563 131.076 128.927 131.076 128.927L138.562 96.8906C138.562 96.8906 145.396 76.7016 136.234 68.7432Z" fill="#F1B4A1"/>
<path d="M137.319 56.8881C136.094 58.2436 134.795 59.5295 133.427 60.7397C130.8 63.3074 128.936 65.5523 127.716 68.9985C126.495 72.4446 126.653 76.589 128.868 79.5097C131.084 82.4303 134.857 83.7892 136.421 87.0176C137.17 88.5643 137.319 90.3362 137.566 92.048C138.09 95.7494 139.228 99.4584 141.496 102.432C145.171 107.267 153.031 109.707 158.054 105.3C159.629 103.771 160.753 101.835 161.302 99.7062C162.733 95.4065 162.635 90.7426 161.025 86.5071C159.528 82.7982 156.662 79.825 154.019 76.8143C151.661 74.1264 148.547 70.6352 148.031 66.9263C148.031 66.9263 147.934 60.0264 147.986 56.753C147.986 55.1537 147.986 53.5395 146.444 52.6986C145.257 51.9897 143.937 51.5347 142.567 51.3622C140.456 51.2571 140.096 51.5199 140.096 51.5199C139.515 53.4685 138.573 55.2898 137.319 56.8881Z" fill="#37474F"/>
<path d="M242.481 116.374C241.8 114.122 239.278 118.349 238.17 124.798C237.114 130.969 235.662 137.419 235.662 137.419L233.963 142.674C233.963 142.674 238.027 140.152 241.343 133.237C244.66 126.322 244.412 122.733 242.481 116.374Z" fill="#F1B4A1"/>
</g>
<defs>
<clipPath id="clip0_791_5897">
<rect width="256" height="235" fill="white"/>
</clipPath>
</defs>
</svg>
