<svg width="20" height="20" viewBox="0 0 20 20" fill="none" xmlns="http://www.w3.org/2000/svg">
<g id="Live area">
<path id="Vector" fill-rule="evenodd" clip-rule="evenodd" d="M1 3C1 1.89543 1.89543 1 3 1H7C7.55228 1 8 1.44772 8 2C8 2.55228 7.55228 3 7 3H3V17H17V13C17 12.4477 17.4477 12 18 12C18.5523 12 19 12.4477 19 13V17C19 18.1046 18.1046 19 17 19H3C1.89543 19 1 18.1046 1 17V3ZM12 3C11.4477 3 11 2.55228 11 2C11 1.44772 11.4477 1 12 1H18C18.5523 1 19 1.44772 19 2V8C19 8.55228 18.5523 9 18 9C17.4477 9 17 8.55228 17 8V4.41421L8.70711 12.7071C8.31658 13.0976 7.68342 13.0976 7.29289 12.7071C6.90237 12.3166 6.90237 11.6834 7.29289 11.2929L15.5858 3H12Z" fill="#9C99C0"/>
</g>
</svg>
