<svg width="154" height="153" viewBox="0 0 154 153" fill="none" xmlns="http://www.w3.org/2000/svg">
<g id="online-learning-concept 1" clip-path="url(#clip0_141_6969)">
<path id="Vector" d="M147.458 155.319H4.70441C3.74496 155.319 2.95996 154.534 2.95996 153.575V146.742C2.95996 145.783 3.74496 144.998 4.70441 144.998H147.458C148.418 144.998 149.203 145.783 149.203 146.742V153.575C149.203 154.534 148.418 155.319 147.458 155.319Z" fill="#F7F7F7"/>
<path id="Vector_2" fill-rule="evenodd" clip-rule="evenodd" d="M72.3796 69.2858C90.4765 66.655 109.39 50.6234 124.482 60.905C139.754 71.3086 141.693 95.1743 136.205 112.766C131.522 127.78 111.699 129.723 99.7917 140.051C89.5164 148.963 85.826 165.911 72.3796 168.125C58.014 170.489 44.1882 161.319 34.1059 150.862C24.2331 140.623 19.1037 126.958 19.0021 112.766C18.8998 98.4656 22.4379 83.18 33.5566 74.1229C44.0489 65.5761 58.9639 71.2361 72.3796 69.2858Z" fill="#C1C4FB"/>
<path id="Vector_3" d="M137.428 133.209C138.46 130.577 139.507 127.656 138.533 125.01C138.3 124.37 137.937 123.687 138.155 123.033C138.445 122.146 139.608 121.841 139.986 120.998C140.422 120.067 139.739 118.991 139.914 117.988C140.088 116.971 141.091 116.302 142.065 115.939C143.039 115.575 144.1 115.343 144.885 114.674C146.383 113.366 146.208 111.025 145.874 109.048C145.54 107.086 145.292 104.76 146.732 103.379C144.086 103.887 141.382 104.411 139.085 105.806C136.788 107.202 134.957 109.673 135.087 112.363C135.16 113.714 135.683 115.154 135.073 116.346C134.404 117.639 132.616 118.148 132.165 119.529C131.642 121.114 133.198 122.568 133.808 124.123C134.39 125.591 134.113 127.234 134.244 128.789C134.375 130.359 135.189 132.133 136.745 132.366L137.428 133.209Z" fill="#FFBE55"/>
<path id="Vector_4" opacity="0.31" d="M137.428 133.209C138.46 130.577 139.507 127.656 138.533 125.01C138.3 124.37 137.937 123.687 138.155 123.033C138.445 122.146 139.608 121.841 139.986 120.998C140.422 120.067 139.739 118.991 139.914 117.988C140.088 116.971 141.091 116.302 142.065 115.939C143.039 115.575 144.1 115.343 144.885 114.674C146.383 113.366 146.208 111.025 145.874 109.048C145.54 107.086 145.292 104.76 146.732 103.379C144.086 103.887 141.382 104.411 139.085 105.806C136.788 107.202 134.957 109.673 135.087 112.363C135.16 113.714 135.683 115.154 135.073 116.346C134.404 117.639 132.616 118.148 132.165 119.529C131.642 121.114 133.198 122.568 133.808 124.123C134.39 125.591 134.113 127.234 134.244 128.789C134.375 130.359 135.189 132.133 136.745 132.366L137.428 133.209Z" fill="white"/>
<path id="Vector_5" d="M136.367 129.763C136.338 122.117 137.82 106.112 146.644 103.437" stroke="white" stroke-width="0.75" stroke-miterlimit="10" stroke-linecap="round"/>
<path id="Vector_6" d="M131.279 132.569C129.709 129.633 128.08 126.362 128.851 123.12C129.04 122.335 129.36 121.492 129.025 120.75C128.575 119.762 127.165 119.544 126.598 118.613C125.973 117.596 126.612 116.229 126.263 115.081C125.914 113.903 124.65 113.278 123.472 112.973C122.295 112.682 121.015 112.566 119.998 111.868C118.064 110.545 117.948 107.769 118.064 105.428C118.181 103.088 118.152 100.326 116.276 98.9158C119.445 99.1484 122.687 99.3955 125.566 100.718C128.444 102.041 130.944 104.687 131.148 107.856C131.25 109.441 130.828 111.2 131.715 112.522C132.674 113.947 134.84 114.296 135.567 115.851C136.396 117.639 134.782 119.544 134.273 121.448C133.808 123.236 134.346 125.126 134.404 126.972C134.462 128.818 133.75 131.014 131.962 131.508L131.279 132.569Z" fill="#FFBE55"/>
<path id="Vector_7" d="M132.049 128.382C131.031 119.413 127.106 100.878 116.393 98.9739" stroke="white" stroke-width="0.75" stroke-miterlimit="10" stroke-linecap="round"/>
<path id="Vector_8" d="M141.208 149.795H127.398C126.438 149.795 125.653 149.01 125.653 148.051L124.49 128.135C124.49 127.176 125.275 126.391 126.235 126.391H142.371C143.33 126.391 144.115 127.176 144.115 128.135L142.952 148.051C142.952 149.01 142.167 149.795 141.208 149.795Z" fill="#CCE9FF"/>
<path id="Vector_9" d="M15.9775 86.5452L24.8886 85.194L30.9472 125.15L22.036 126.501L15.9775 86.5452Z" fill="#FFBE55"/>
<path id="Vector_10" d="M20.4297 85.8735L24.8852 85.1979L30.9437 125.154L26.4882 125.83L20.4297 85.8735Z" fill="#FFBE55"/>
<path id="Vector_11" d="M24.8966 85.2364L15.9854 86.5883L18.0787 81.2241L19.2707 78.2004L21.3059 80.7444L24.8966 85.2364Z" fill="#FFEBC2"/>
<path id="Vector_12" d="M21.3063 80.7444L18.0791 81.2241L19.2711 78.2004L21.3063 80.7444Z" fill="#0E538C"/>
<path id="Vector_13" d="M32.0508 76.0461L41.0277 76.85L37.4233 117.101L28.4463 116.297L32.0508 76.0461Z" fill="#FFBE55"/>
<path id="Vector_14" d="M36.5479 76.4514L41.0363 76.8533L37.4319 117.105L32.9434 116.703L36.5479 76.4514Z" fill="#FFBE55"/>
<path id="Vector_15" d="M41.0327 76.8922L32.0488 76.0927L35.3633 71.3827L37.2385 68.7224L38.605 71.6734L41.0327 76.8922Z" fill="#FFEBC2"/>
<path id="Vector_16" d="M38.605 71.6734L35.3633 71.3827L37.2386 68.7224L38.605 71.6734Z" fill="#0E538C"/>
<path id="Vector_17" d="M46.9343 149.941H11.5221L6.88477 95.1362H49.769L46.9343 149.941Z" fill="#CCE9FF"/>
<path id="Vector_18" opacity="0.5" d="M28.3271 149.941H46.9346L49.7693 95.1362H28.3271V149.941Z" fill="#CCE9FF"/>
<path id="Vector_19" d="M36.1045 134.473H126.089V146.844H36.1045V134.473Z" fill="#FFEBC2"/>
<path id="Vector_20" d="M36.4831 134.473V146.844H130.887V147.775C130.887 148.923 129.884 149.853 128.648 149.853H36.8901C33.9682 149.853 31.5986 147.673 31.5986 144.969V136.697C31.5986 133.994 33.9682 131.813 36.8901 131.813H128.648C129.884 131.813 130.887 132.743 130.887 133.892V134.488H36.4831V134.473Z" fill="#FFBE55"/>
<path id="Vector_21" d="M36.1045 139.983H126.089V146.83H36.1045V139.983Z" fill="#FFEBC2"/>
<path id="Vector_22" d="M47.7344 119.413H120.856V130.17H47.7344V119.413Z" fill="#CCE9FF"/>
<path id="Vector_23" d="M47.7346 119.413V130.17H123.618V130.984C123.618 131.987 122.804 132.787 121.815 132.787H48.0544C45.7139 132.787 43.8096 130.883 43.8096 128.542V121.346C43.8096 119.006 45.7139 117.102 48.0544 117.102H121.815C122.804 117.102 123.618 117.916 123.618 118.904V119.427H47.7346V119.413Z" fill="#2A94F4"/>
<path id="Vector_24" d="M79.338 82.7942C78.3349 81.4714 78.2477 79.6542 79.1926 78.2732C79.9485 77.1684 80.4573 75.8019 80.3992 74.7989C80.2829 72.9963 79.1635 71.3391 77.6372 70.3505C75.631 69.0422 72.9562 68.8532 70.7902 69.8708C68.6242 70.8884 67.0542 73.069 66.778 75.4385C66.5745 77.1393 66.967 79.0001 66.0947 80.4828C65.4551 81.5441 64.2776 82.1691 63.1146 82.5907C61.9371 82.9978 60.7015 83.274 59.6258 83.8991C58.55 84.5241 57.6342 85.5999 57.6487 86.8501C57.6633 87.795 58.2011 88.6672 58.2593 89.5976C58.3465 90.9641 57.3871 92.1706 56.3695 93.0719C55.3373 93.9732 54.1598 94.7582 53.4621 95.9357C52.3136 97.8837 52.8515 100.515 54.3052 102.259C55.7589 104.004 57.9395 104.978 60.12 105.545C66.0802 107.115 72.3602 106.097 78.5094 105.995C80.4137 105.966 82.3617 106.024 84.2079 105.545C86.0541 105.065 87.8567 103.96 88.6272 102.216C89.4122 100.471 89.0196 98.3489 87.973 96.7643C86.9263 95.1798 85.2836 94.0314 83.5537 93.2173C82.3035 92.6213 80.9661 92.1561 79.9485 91.2257C78.9309 90.2953 78.3349 88.7108 79.0182 87.5042C79.2798 87.0391 79.716 86.6756 79.9631 86.2104C80.4573 85.3091 80.2538 84.1607 79.7014 83.2885C79.5997 83.1431 79.4834 82.9832 79.338 82.7942Z" fill="#0E538C"/>
<path id="Vector_25" d="M47.7344 124.21H120.856V130.17H47.7344V124.21Z" fill="#CCE9FF"/>
<path id="Vector_26" d="M80.7334 108.946L89.7464 115.343L100.795 138.166H98.7593L86.4028 117.959C86.4028 117.959 82.1871 118.105 80.7334 116.796C79.2797 115.488 70.9209 109.819 70.9209 109.819L80.7334 108.946Z" fill="#0B4870"/>
<path id="Vector_27" d="M64.786 107.115C63.1433 111.563 64.3063 117.814 69.8304 118.105C75.3544 118.395 77.0989 118.105 77.0989 118.105L87.8563 139.91H90.3276L81.8961 115.488L71.6475 109.819L64.786 107.115Z" fill="#0E538C"/>
<path id="Vector_28" d="M73.174 81.762C74.6277 83.6518 78.1166 88.8851 79.4249 94.6999C80.7332 100.515 84.3675 108.946 84.3675 108.946H80.1518L76.0814 95.136L72.3018 82.1981L73.174 81.762Z" fill="#4EA3FB"/>
<path id="Vector_29" d="M77.6515 74.0428C77.8695 77.6043 76.3141 80.0466 74.0899 80.1629C71.8657 80.2792 70.412 77.0519 71.0807 74.0428C72.6362 71.368 74.7586 71.1499 74.7586 71.1499H76.096L77.6515 74.0428Z" fill="#FFE3CA"/>
<path id="Vector_30" d="M76.1686 71.9204C75.7615 73.1706 74.8602 74.2464 73.6973 74.8569C72.5343 75.4675 71.1387 75.6128 69.874 75.2349L73.0431 70.7139H75.7615L78.3637 72.7781L77.9712 75.1477C76.9536 74.3772 76.1686 71.9204 76.1686 71.9204Z" fill="#0E538C"/>
<path id="Vector_31" d="M73.4217 79.7413C72.9565 81.5439 73.1019 83.4337 73.1019 83.7245C72.6658 84.3059 70.6306 84.1606 70.3398 82.1254C70.776 79.5087 71.6482 76.6013 71.6482 76.6013L72.375 78.2004L73.4217 79.7413Z" fill="#FFE3CA"/>
<path id="Vector_32" d="M70.6304 80.5845C68.8133 81.1805 62.7077 83.9425 62.417 84.524C62.8531 86.1231 65.0337 109.818 65.0337 109.818H74.9188C74.9188 109.818 73.6105 96.7351 74.3374 95.8629C75.0642 94.9907 77.3901 91.9379 77.0994 91.5018C76.8087 91.0657 73.1162 81.6893 73.1162 81.6893L70.6304 80.5845Z" fill="#2A94F4"/>
<path id="Vector_33" d="M62.4166 84.5242C60.992 85.6144 55.0027 95.4269 56.8926 100.66C58.7824 105.894 64.9606 108.975 64.9606 108.975V106.097C64.9606 106.097 59.9453 102.114 60.2361 99.2066C60.5268 96.2992 64.0157 90.339 64.0157 90.339L62.4166 84.5242Z" fill="#4EA3FB"/>
<path id="Vector_34" d="M85.8359 111.49H64.4374C63.7687 111.49 63.2162 110.938 63.2162 110.269L62.6348 96.5754C62.6348 95.9067 63.1872 95.3542 63.8559 95.3542H86.1266C86.7953 95.3542 87.3477 95.9067 87.3477 96.5754L87.057 110.269C87.057 110.938 86.5046 111.49 85.8359 111.49Z" fill="#FFBE55"/>
<path id="Vector_35" d="M89.9791 139.91C91.4182 140.23 93.3662 141.815 94.2966 142.629C94.4856 142.789 94.3693 143.108 94.1076 143.108C92.6103 143.079 89.2231 142.919 88.4381 142.251C87.4206 141.378 87.7113 139.925 87.7113 139.925H89.9791V139.91ZM100.766 138.108C102.045 138.457 103.731 139.939 104.574 140.739C104.763 140.913 104.618 141.219 104.371 141.204C102.961 141.102 99.9369 140.826 99.2537 140.172C98.3524 139.329 98.6868 138.006 98.6868 138.006L100.766 138.108Z" fill="#1A87D8"/>
<path id="Vector_36" d="M75.0643 105.603C76.2686 105.603 77.2449 104.627 77.2449 103.422C77.2449 102.218 76.2686 101.242 75.0643 101.242C73.8601 101.242 72.8838 102.218 72.8838 103.422C72.8838 104.627 73.8601 105.603 75.0643 105.603Z" fill="white"/>
<path id="Vector_37" d="M55.8747 134.386L53.1126 132.787L50.3506 134.386V124.21H55.8747V134.386ZM98.7008 74.1301C98.7008 74.4063 98.599 74.6535 98.4246 74.857C98.599 75.046 98.7008 75.3076 98.7008 75.5838V76.4851C98.7008 76.6741 98.6426 76.8631 98.5554 77.023C98.6426 77.1829 98.7008 77.3719 98.7008 77.5609V78.4622C98.7008 79.0582 98.2211 79.5379 97.625 79.5379H88.2632C87.6672 79.5379 87.1874 79.0582 87.1874 78.4622V77.5463C87.1874 77.3574 87.2456 77.1684 87.3328 77.0085C87.2456 76.8486 87.1874 76.6596 87.1874 76.4706V75.5693C87.1874 75.2931 87.2892 75.046 87.4636 74.8425C87.2892 74.6535 87.1874 74.3918 87.1874 74.1156V73.2143C87.1874 72.6183 87.6672 72.1386 88.2632 72.1386H97.625C98.2211 72.1386 98.7008 72.6183 98.7008 73.2143V74.1301ZM106.173 53.7492C106.173 58.9971 103.12 63.5181 98.7008 65.6696V70.554C98.7008 70.9175 98.3955 71.2227 98.0321 71.2227H87.8561C87.4927 71.2227 87.1874 70.9175 87.1874 70.554V65.6696C82.7682 63.5326 79.7154 58.9971 79.7154 53.7492C79.7154 46.4371 85.632 40.5205 92.9441 40.5205C100.256 40.5205 106.173 46.4516 106.173 53.7492Z" fill="#FFBE55"/>
<path id="Vector_38" opacity="0.23" d="M97.4506 74.9297H88.583M97.4506 76.9649H88.583" stroke="#7F7F7F" stroke-width="2" stroke-miterlimit="10" stroke-linecap="round"/>
<path id="Vector_39" d="M95.2126 55.3774C95.0527 55.2321 94.8201 55.1594 94.573 55.1884C94.2677 55.2175 93.977 55.392 93.788 55.6391C93.6281 55.8571 93.5409 56.1188 93.4972 56.3659C93.3664 56.2933 93.221 56.2206 93.0902 56.1334L93.0466 56.1043H92.8576L92.814 56.1334C92.6686 56.2206 92.5378 56.2933 92.407 56.3659C92.3634 56.1188 92.2761 55.8571 92.1162 55.6391C91.9418 55.392 91.6365 55.2175 91.3312 55.1884C91.0841 55.1594 90.866 55.2321 90.6916 55.3774C90.4735 55.5809 90.4009 55.8717 90.4735 56.177C90.5898 56.584 90.9242 56.9184 91.3167 56.991C91.5638 57.0346 91.7964 57.0201 92.0435 56.962C92.407 61.6865 92.5523 66.4692 92.4506 71.1937H92.8867C92.9884 66.4546 92.8431 61.6574 92.4797 56.9329C92.4797 56.8893 92.4797 56.8457 92.4651 56.8021C92.6396 56.7294 92.7995 56.6421 92.9594 56.5404C93.1193 56.6276 93.2792 56.7294 93.4536 56.8021C93.4536 56.8457 93.4536 56.8893 93.4391 56.9329C93.0757 61.6574 92.9303 66.4546 93.0321 71.1937H93.4682C93.3664 66.4692 93.5118 61.672 93.8752 56.962C94.1078 57.0201 94.3549 57.0492 94.6021 56.991C94.98 56.9184 95.3289 56.584 95.4452 56.177C95.5034 55.8717 95.4307 55.5809 95.2126 55.3774ZM91.3894 56.584C91.1713 56.5404 90.9533 56.3223 90.8806 56.0752C90.8515 55.9734 90.837 55.8135 90.9678 55.7118C91.0405 55.6391 91.1422 55.6246 91.2149 55.6246H91.2731C91.4475 55.6391 91.6365 55.7409 91.7528 55.9008C91.8836 56.0752 91.9563 56.2933 91.9854 56.5404C91.7819 56.5985 91.5929 56.6131 91.3894 56.584ZM95.0091 56.0752C94.9364 56.3223 94.7329 56.5404 94.5003 56.584C94.3113 56.6276 94.1078 56.5985 93.9188 56.5404C93.9624 56.2933 94.0206 56.0752 94.1514 55.9008C94.2532 55.7554 94.4422 55.6536 94.6311 55.6246C94.7184 55.61 94.8347 55.6246 94.9364 55.7118C95.0382 55.8135 95.0236 55.9734 95.0091 56.0752Z" fill="white"/>
<path id="Vector_40" d="M89.4556 42.9482C86.2574 44.1112 81.0241 48.3269 81.4602 55.1594" stroke="white" stroke-width="4" stroke-miterlimit="10" stroke-linecap="round"/>
<path id="Vector_41" d="M71.9384 66.6436C73.9857 66.6436 75.6453 64.984 75.6453 62.9367C75.6453 60.8894 73.9857 59.2297 71.9384 59.2297C69.8911 59.2297 68.2314 60.8894 68.2314 62.9367C68.2314 64.984 69.8911 66.6436 71.9384 66.6436Z" fill="#FFBE55"/>
<path id="Vector_42" d="M111.625 52.3972C112.548 52.3972 113.297 51.6488 113.297 50.7255C113.297 49.8022 112.548 49.0537 111.625 49.0537C110.702 49.0537 109.953 49.8022 109.953 50.7255C109.953 51.6488 110.702 52.3972 111.625 52.3972Z" fill="#FFBE55"/>
<path id="Vector_43" d="M106.173 79.727C107.699 79.727 108.935 78.4903 108.935 76.9649C108.935 75.4395 107.699 74.2029 106.173 74.2029C104.648 74.2029 103.411 75.4395 103.411 76.9649C103.411 78.4903 104.648 79.727 106.173 79.727Z" fill="#FFBE55"/>
<path id="Vector_44" d="M79.7161 41.2038C81.2416 41.2038 82.4782 39.9672 82.4782 38.4417C82.4782 36.9163 81.2416 35.6797 79.7161 35.6797C78.1907 35.6797 76.9541 36.9163 76.9541 38.4417C76.9541 39.9672 78.1907 41.2038 79.7161 41.2038Z" fill="#FFBE55"/>
<path id="Vector_45" opacity="0.14" d="M55.8747 134.386L53.1126 132.787L50.3506 134.386V124.21H55.8747V134.386Z" fill="#0C0C0C"/>
</g>
<defs>
<clipPath id="clip0_141_6969">
<rect width="157" height="157" fill="white" transform="translate(-3 0.5)"/>
</clipPath>
</defs>
</svg>
