<svg width="156" height="140" viewBox="0 0 156 140" fill="none" xmlns="http://www.w3.org/2000/svg">
<g id="artist 1" clip-path="url(#clip0_141_6510)">
<g id="Group">
<path id="Vector" opacity="0.1" d="M77.7733 141.5C114.056 141.5 143.469 136.825 143.469 131.057C143.469 125.29 114.056 120.614 77.7733 120.614C41.4903 120.614 12.0771 125.29 12.0771 131.057C12.0771 136.825 41.4903 141.5 77.7733 141.5Z" fill="#2A94F4"/>
</g>
<path id="Vector_2" d="M108.857 131.057H111.044L103.839 85.1123L101.789 87.0713L108.857 131.057ZM87.2778 131.057H85.0869L91.9627 85.1123L94.0126 87.0713L87.2778 131.057ZM98.9245 88.4469H96.8095L96.9759 131.057H99.0909L98.9245 88.4469ZM96.8095 33.8979H98.9245V41.4287H96.8095V33.8979Z" fill="#0E538C"/>
<path id="Vector_3" d="M102.5 85.9006H93.2344V87.6267H94.7119V88.4897H101.023V87.6267H102.5V85.9006Z" fill="#FFBE55"/>
<path id="Vector_4" d="M85.2783 85.0715H110.456V86.4147H85.2783V85.0715ZM101.193 39.9799H94.5419V38.2332H101.193V39.9799Z" fill="#0E538C"/>
<path id="Vector_5" d="M100.132 39.1067H95.6025V37.3599H100.132L100.132 39.1067Z" fill="#0E538C"/>
<path id="Vector_6" d="M115.543 39.9741H80.1918C80.0788 39.9742 79.9704 40.0183 79.8905 40.0969C79.8106 40.1754 79.7657 40.282 79.7656 40.3931V84.6526C79.7657 84.7637 79.8106 84.8702 79.8905 84.9488C79.9704 85.0273 80.0788 85.0715 80.1918 85.0715H115.543C115.656 85.0715 115.765 85.0273 115.845 84.9488C115.924 84.8702 115.969 84.7637 115.969 84.6526V40.3931C115.969 40.282 115.924 40.1754 115.845 40.0969C115.765 40.0183 115.656 39.9742 115.543 39.9741Z" fill="#F2F2F2"/>
<g id="Clip path group">
<mask id="mask0_141_6510" style="mask-type:luminance" maskUnits="userSpaceOnUse" x="79" y="39" width="37" height="47">
<g id="b">
<path id="Vector_7" d="M115.543 39.9741H80.1918C80.0788 39.9742 79.9704 40.0183 79.8905 40.0969C79.8106 40.1754 79.7657 40.282 79.7656 40.3931V84.6526C79.7657 84.7637 79.8106 84.8702 79.8905 84.9488C79.9704 85.0273 80.0788 85.0715 80.1918 85.0715H115.543C115.656 85.0715 115.765 85.0273 115.845 84.9488C115.924 84.8702 115.969 84.7637 115.969 84.6526V40.3931C115.969 40.282 115.924 40.1754 115.845 40.0969C115.765 40.0183 115.656 39.9742 115.543 39.9741Z" fill="white"/>
</g>
</mask>
<g mask="url(#mask0_141_6510)">
<g id="Group_2">
<path id="Vector_8" d="M99.1998 61.8019C99.1998 61.8019 98.0941 55.8362 101.359 52.7722C103.928 50.3168 105.459 51.3516 108.058 49.226C110.657 47.1004 114.633 40.5176 117.965 40.9916C121.297 41.4655 120.303 46.2738 119.705 48.908C118.999 52.0118 121.016 54.6891 121.703 57.5852C122.261 59.9367 122.286 62.6982 121.101 64.9111C119.823 67.298 116.118 67.9878 115.656 70.7806C115.214 73.4473 120.053 77.7413 117.155 82.0363C113.741 87.0965 106.931 90.0081 100.888 88.3175C95.246 86.7392 90.3769 79.5201 93.9797 74.1764C96.8733 68.9716 100.604 70.5764 99.1998 61.8019Z" fill="#FFBE55"/>
<g id="Group_3">
<path id="Vector_9" d="M115.464 47.8599C113.697 50.7187 112.09 53.6846 110.599 56.6946C109.113 59.7087 107.754 62.7836 106.588 65.9248C105.426 69.065 104.441 72.273 103.815 75.5427C103.495 77.175 103.273 78.8243 103.192 80.475C103.107 82.1244 103.15 83.7776 103.394 85.3962L103.395 85.4016C103.413 85.5382 103.376 85.6765 103.292 85.7866C103.208 85.8966 103.083 85.9697 102.944 85.9899C102.805 86.0101 102.664 85.9759 102.551 85.8947C102.437 85.8134 102.361 85.6916 102.339 85.5556L102.337 85.5474C102.107 83.8375 102.092 82.1178 102.207 80.4171C102.318 78.7146 102.573 77.0297 102.926 75.3707C103.618 72.0473 104.668 68.8188 105.891 65.6685C107.118 62.5179 108.535 59.4462 110.077 56.4405C111.626 53.4369 113.281 50.4926 115.108 47.6382C115.138 47.5935 115.185 47.5622 115.238 47.5507C115.292 47.5392 115.347 47.5486 115.394 47.5767C115.44 47.6049 115.474 47.6498 115.487 47.7018C115.501 47.7538 115.493 47.8089 115.466 47.8555L115.464 47.8599Z" fill="#CCE9FF"/>
<path id="Vector_10" d="M110.205 62.8426C110.822 62.2435 111.567 61.8244 112.338 61.4819C113.113 61.1355 113.963 61.0036 114.793 60.861C115.624 60.7166 116.469 60.6489 117.309 60.6439C118.151 60.6366 118.988 60.7461 119.804 60.9007C119.814 60.9022 119.824 60.9077 119.831 60.9162C119.838 60.9247 119.841 60.9354 119.84 60.9461C119.838 60.9568 119.833 60.9666 119.825 60.9734C119.816 60.9803 119.805 60.9836 119.794 60.9827L119.792 60.9826C118.964 60.96 118.144 60.9399 117.332 61.057C116.521 61.1433 115.719 61.2892 114.937 61.5075C114.151 61.7147 113.408 62.0395 112.631 62.2578C111.852 62.4846 111.077 62.7216 110.248 62.9137L110.245 62.9143C110.236 62.9163 110.227 62.9153 110.218 62.9116C110.21 62.9078 110.202 62.9014 110.198 62.8933C110.193 62.8852 110.192 62.8759 110.193 62.8668C110.194 62.8576 110.198 62.8492 110.205 62.8426ZM105.175 60.8567C104.829 60.3938 104.581 59.9332 104.339 59.4702C104.091 59.0131 103.968 58.5038 103.744 58.0308C103.53 57.5548 103.271 57.0987 102.978 56.6609C102.703 56.2072 102.355 55.8076 102.003 55.3978L102.001 55.396C101.995 55.3882 101.991 55.3784 101.992 55.3684C101.992 55.3584 101.996 55.3489 102.003 55.3415C102.01 55.3342 102.019 55.3295 102.029 55.3284C102.039 55.3273 102.05 55.3297 102.058 55.3354C102.503 55.6495 102.932 56.0033 103.31 56.4062C103.684 56.8118 104.03 57.2469 104.334 57.7102C104.635 58.1721 104.976 58.6315 105.123 59.1699C105.273 59.7031 105.362 60.2614 105.257 60.8403C105.256 60.8488 105.252 60.8567 105.246 60.863C105.239 60.8693 105.232 60.8737 105.223 60.8757C105.214 60.8777 105.205 60.8771 105.197 60.8742C105.189 60.8712 105.182 60.8659 105.176 60.8589L105.175 60.8567ZM104.345 81.7285C104.902 81.1216 105.585 80.6783 106.296 80.3009C107.009 79.9191 107.808 79.7356 108.586 79.5316C109.365 79.3265 110.161 79.187 110.958 79.0945C111.758 79.0079 112.564 79.0101 113.357 79.0656C113.368 79.0665 113.377 79.0712 113.384 79.0788C113.391 79.0863 113.395 79.0961 113.395 79.1063C113.396 79.1165 113.392 79.1264 113.385 79.1341C113.378 79.1418 113.369 79.1468 113.359 79.1481L113.356 79.1483C112.568 79.2251 111.788 79.3097 111.027 79.5027C110.265 79.6732 109.515 79.8873 108.788 80.163C108.056 80.4286 107.373 80.7987 106.642 81.0554C105.911 81.32 105.181 81.5868 104.391 81.798C104.385 81.7997 104.38 81.8004 104.374 81.7999C104.368 81.7995 104.363 81.798 104.358 81.7954C104.352 81.7928 104.348 81.7893 104.344 81.785C104.34 81.7807 104.338 81.7758 104.336 81.7704C104.334 81.7632 104.334 81.7557 104.335 81.7484C104.337 81.7411 104.34 81.7343 104.345 81.7285ZM100.841 80.8371C100.41 80.3612 100.065 79.8818 99.7183 79.4053C99.3674 78.9359 99.122 78.4014 98.7716 77.9267C98.432 77.4454 98.0273 77.0139 97.5913 76.6116C97.1627 76.1953 96.6592 75.8689 96.1352 75.554L96.1328 75.5526C96.1238 75.5473 96.1172 75.539 96.1141 75.5291C96.1111 75.5193 96.1119 75.5088 96.1163 75.4995C96.1207 75.4902 96.1285 75.4829 96.1381 75.4789C96.1478 75.4749 96.1585 75.4746 96.1684 75.478C96.7535 75.6746 97.3287 75.9385 97.8522 76.2869C98.3661 76.644 98.8594 77.0447 99.2896 77.5036C99.7192 77.9588 100.177 78.4167 100.445 78.9881C100.714 79.554 100.919 80.1573 100.921 80.8099C100.921 80.8188 100.918 80.8275 100.913 80.8349C100.908 80.8422 100.901 80.8479 100.892 80.8511C100.884 80.8543 100.874 80.8548 100.866 80.8527C100.857 80.8506 100.849 80.8459 100.843 80.8393L100.841 80.8371Z" fill="#CCE9FF"/>
</g>
<path id="Vector_11" d="M81.0834 47.7471C81.0834 47.7471 75.9963 51.1772 76.0831 55.6137C76.1194 59.1359 77.9444 59.475 78.2397 62.7858C78.5351 66.0966 76.5818 73.5078 79.2709 75.4992C81.96 77.4907 84.7323 73.4105 86.213 71.1376C87.9579 68.4595 91.3118 67.9813 93.8872 66.4209C95.9781 65.1539 97.9899 63.2263 98.7537 60.841C99.5775 58.2682 97.4665 55.197 99.1574 52.9072C100.772 50.7208 107.281 51.0731 108.342 46.0261C109.592 40.0797 106.898 33.277 101.421 30.2504C96.308 27.4248 87.6652 29.1115 86.3434 35.3892C84.6226 41.074 88.4092 42.5473 81.0834 47.7471Z" fill="#FFBE55"/>
<g id="Group_4">
<path id="Vector_12" d="M82.4687 68.9156C83.2892 65.6696 84.2996 62.4594 85.4227 59.2986C86.5527 56.1386 87.8162 53.0246 89.2635 49.9987C90.7135 46.9766 92.3358 44.0292 94.2568 41.2903C95.21 39.9169 96.2445 38.6002 97.3797 37.3812C98.5111 36.1603 99.7352 35.0261 101.076 34.0564L101.081 34.0532C101.137 34.0123 101.185 33.9609 101.221 33.902C101.258 33.843 101.282 33.7775 101.292 33.7094C101.303 33.6412 101.3 33.5717 101.283 33.5048C101.266 33.4379 101.236 33.3748 101.194 33.3193C101.153 33.2638 101.101 33.2169 101.041 33.1812C100.981 33.1455 100.914 33.1218 100.845 33.1115C100.775 33.1011 100.705 33.1042 100.637 33.1207C100.568 33.1372 100.504 33.1667 100.448 33.2076L100.441 33.2125C99.0442 34.2562 97.7914 35.4565 96.644 36.7344C95.4928 38.0108 94.4559 39.3759 93.5066 40.7907C91.5932 43.6138 90.0017 46.6207 88.5874 49.6924C87.1764 52.7677 85.9559 55.9198 84.8714 59.1129C83.7932 62.3093 82.8329 65.5383 82.0582 68.8235C82.0456 68.8766 82.055 68.9325 82.0842 68.9789C82.1133 69.0253 82.16 69.0585 82.2139 69.0712C82.2678 69.084 82.3247 69.0753 82.3722 69.047C82.4196 69.0187 82.4538 68.9732 82.4672 68.9202L82.4687 68.9156Z" fill="#CCE9FF"/>
<path id="Vector_13" d="M89.5861 54.6939C89.5879 55.5464 89.81 56.3615 90.1059 57.1408C90.4011 57.9253 90.9046 58.6114 91.3861 59.2909C91.8676 59.9731 92.4135 60.6102 93.0017 61.2002C93.589 61.7925 94.258 62.2997 94.9439 62.7599C94.9526 62.7662 94.9634 62.769 94.9741 62.7677C94.9849 62.7663 94.9946 62.7609 95.0014 62.7527C95.0083 62.7444 95.0116 62.7339 95.0106 62.7233C95.0097 62.7127 95.0047 62.7028 94.9966 62.6958L94.9947 62.694C94.3953 62.1323 93.8033 61.5742 93.3161 60.9251C92.8073 60.2983 92.3476 59.6356 91.9546 58.9363C91.5506 58.2419 91.2624 57.495 90.8721 56.7985C90.4875 56.0954 90.1128 55.3877 89.6675 54.6736L89.6663 54.6716C89.6614 54.6637 89.6539 54.6576 89.6451 54.6542C89.6363 54.6508 89.6267 54.6503 89.6176 54.6529C89.6085 54.6554 89.6005 54.6608 89.5948 54.6682C89.5891 54.6756 89.586 54.6846 89.5861 54.6939ZM84.609 52.5822C84.0314 52.6672 83.5241 52.8185 83.019 52.9753C82.5146 53.1244 82.0601 53.3974 81.5609 53.5743C81.066 53.7599 80.5539 53.9 80.0319 54.0043C79.5109 54.1321 78.9767 54.1705 78.4327 54.2132L78.4302 54.2135C78.42 54.2143 78.4105 54.2188 78.4034 54.2261C78.3963 54.2334 78.3921 54.2429 78.3916 54.253C78.3912 54.2631 78.3945 54.2729 78.4009 54.2808C78.4073 54.2887 78.4164 54.294 78.4265 54.2957C78.967 54.3854 79.5243 54.4352 80.0815 54.4152C80.6376 54.3904 81.1959 54.3258 81.7443 54.2113C82.2903 54.0964 82.862 54.0106 83.3545 53.7342C83.8447 53.4628 84.3106 53.132 84.6551 52.6514C84.6603 52.6443 84.6631 52.6359 84.6634 52.6272C84.6637 52.6185 84.6614 52.6099 84.6568 52.6025C84.6522 52.5951 84.6454 52.5892 84.6374 52.5855C84.6294 52.5818 84.6205 52.5805 84.6117 52.5818L84.609 52.5822ZM99.0978 37.3033C99.052 38.1196 99.2129 38.9083 99.4409 39.6702C99.6673 40.4367 100.098 41.1237 100.498 41.8098C100.898 42.4979 101.358 43.1519 101.853 43.7735C102.354 44.3922 102.923 44.9536 103.522 45.4679C103.53 45.4747 103.54 45.4783 103.551 45.478C103.561 45.4778 103.571 45.4736 103.579 45.4664C103.586 45.4592 103.591 45.4495 103.592 45.4392C103.592 45.4289 103.589 45.4187 103.582 45.4106L103.581 45.4089C103.081 44.8045 102.593 44.2006 102.197 43.5342C101.783 42.8823 101.409 42.2078 101.096 41.5062C100.772 40.8085 100.559 40.0709 100.229 39.38C99.9053 38.6835 99.5839 37.9862 99.1801 37.2862C99.1775 37.2811 99.1739 37.2767 99.1696 37.273C99.1652 37.2693 99.1602 37.2665 99.1548 37.2648C99.1493 37.263 99.1436 37.2623 99.1379 37.2627C99.1322 37.2632 99.1266 37.2647 99.1215 37.2672C99.1149 37.271 99.1094 37.2762 99.1053 37.2825C99.1012 37.2887 99.0986 37.2959 99.0978 37.3033ZM95.9863 35.4858C95.3392 35.5204 94.7497 35.6167 94.1616 35.7107C93.5756 35.7964 93.0166 36.0016 92.4271 36.0914C91.8403 36.1934 91.2437 36.215 90.6461 36.1939C90.0435 36.1881 89.4533 36.0665 88.8568 35.9226L88.854 35.922C88.8439 35.9195 88.8332 35.9208 88.824 35.9255C88.8149 35.9303 88.8078 35.9383 88.8042 35.9479C88.8006 35.9575 88.8008 35.968 88.8047 35.9775C88.8085 35.987 88.8158 35.9948 88.8252 35.9993C89.3793 36.2691 89.9751 36.4847 90.5953 36.6045C91.2151 36.7117 91.852 36.7739 92.4863 36.7508C93.1177 36.73 93.7706 36.7269 94.3724 36.5117C94.9703 36.3007 95.5501 36.0187 96.0227 35.5602C96.0291 35.554 96.0334 35.546 96.0351 35.5373C96.0368 35.5286 96.0358 35.5196 96.0322 35.5115C96.0285 35.5034 96.0225 35.4965 96.0148 35.4919C96.0072 35.4872 95.9982 35.485 95.9892 35.4854L95.9863 35.4858Z" fill="#CCE9FF"/>
</g>
</g>
</g>
</g>
<path id="Vector_14" d="M96.8096 33.8979H97.867V37.3599H96.8096V33.8979Z" fill="#FFBE55"/>
<path id="Vector_15" d="M102.5 85.9006H93.2344V87.6267H94.7119V88.4897H101.023V87.6267H102.5V85.9006Z" fill="#0E538C"/>
<path id="Vector_16" d="M96.8096 33.8979H97.867V37.3599H96.8096V33.8979Z" fill="#2A94F4"/>
<path id="Vector_17" d="M34.0741 75.0327L34.6788 74.301L35.0311 75.2118L33.378 83.7409L32.4211 83.5616L34.0741 75.0327ZM30.0608 75.9296L30.3092 75.4397L30.7408 75.8268L32.0822 84.4085L31.4023 84.5113L30.0608 75.9296ZM28.2505 74.151L28.3837 73.7825L28.594 74.0257C28.8762 74.3523 29.0606 74.7494 29.1268 75.1729C29.1384 75.2468 29.1318 75.3223 29.1077 75.3933C29.0835 75.4642 29.0424 75.5283 28.9879 75.5805L29.8192 83.1897L29.5717 83.2523L28.469 75.6807C28.3837 75.6316 28.3106 75.5643 28.255 75.4839C28.1995 75.4034 28.1629 75.3118 28.1479 75.2157C28.092 74.8579 28.1272 74.4921 28.2505 74.151Z" fill="#0B4870"/>
<path id="Vector_18" d="M29.2498 75.9216L29.3005 75.5654L29.4362 75.8199C29.6185 76.1616 29.7499 76.5667 29.8162 76.9902C29.8397 77.1402 29.8206 77.2871 29.765 77.3846L30.7511 84.9703L30.615 85.0161L29.4773 77.4497C29.3725 77.3398 29.294 77.163 29.2636 76.9685C29.2075 76.6109 29.2029 76.2511 29.2498 75.9216ZM31.4141 76.7775C31.4699 76.6483 31.6529 76.6325 31.7344 76.7477C31.8279 76.88 31.8892 77.0315 31.9137 77.1907C31.9372 77.3407 31.9181 77.4876 31.8625 77.5851L32.8486 85.1708L32.7125 85.2166L31.5748 77.6503C31.47 77.5404 31.3915 77.3636 31.3611 77.169C31.3371 77.0158 31.3693 76.8812 31.4141 76.7775Z" fill="#0B4870"/>
<path id="Vector_19" d="M32.8835 76.3154L33.0307 76.0308L33.0906 76.28C33.1709 76.6145 33.1852 76.9886 33.1315 77.3607C33.1125 77.4925 33.0535 77.6105 32.9732 77.6773L31.8212 84.2904L31.6777 84.2926L32.6789 77.6555C32.6088 77.5357 32.5823 77.3667 32.6069 77.1958C32.6523 76.8812 32.7473 76.5787 32.8835 76.3154Z" fill="#0B4870"/>
<path id="Vector_20" d="M29.7217 87.284H34.344L34.3569 87.1819C35.2612 80.0246 35.2612 79.9942 35.2612 79.9842V79.8662L35.1412 79.8679C35.0787 79.8687 28.8991 79.9513 28.8186 79.9513H28.6826L29.7217 87.284Z" fill="#FFBE55"/>
<path id="Vector_21" d="M37.3385 79.3164H41.4038C41.5077 79.3164 41.592 79.3992 41.592 79.5014V86.6962H37.1504V79.5014C37.1504 79.3992 37.2346 79.3164 37.3385 79.3164Z" fill="#F2F2F2"/>
<path id="Vector_22" d="M38.5967 77.7183H40.1441C40.2449 77.7183 40.3267 77.7987 40.3267 77.8978V79.3164H38.4141V77.8978C38.4141 77.7986 38.4959 77.7183 38.5967 77.7183Z" fill="#FFBE55"/>
<path id="Vector_23" d="M37.7602 82.3011H37.8363C37.9436 82.3011 38.034 82.2274 38.0605 82.1251C38.2832 81.2617 38.7988 80.656 39.4004 80.656C40.0021 80.656 40.5176 81.2617 40.7404 82.1251C40.7668 82.2275 40.8572 82.3011 40.9645 82.3011H40.9822C41.1092 82.3011 41.2121 82.4023 41.2121 82.5271V83.8614C41.2121 83.9862 41.1092 84.0874 40.9822 84.0874H40.8977C40.7989 84.0874 40.7085 84.1478 40.6779 84.2403C40.4301 84.989 39.9515 85.4975 39.4004 85.4975C38.8494 85.4975 38.3707 84.989 38.1229 84.2403C38.0923 84.1478 38.0019 84.0874 37.9031 84.0874H37.7602C37.6992 84.0874 37.6407 84.0636 37.5976 84.0212C37.5545 83.9788 37.5303 83.9213 37.5303 83.8614V82.5271C37.5303 82.4023 37.6332 82.3011 37.7602 82.3011Z" fill="#0B4870"/>
<g id="Group_5">
<path id="Vector_24" d="M45.5135 131.36C45.5479 131.36 45.5824 131.357 45.6176 131.351C45.9583 131.297 46.1883 130.99 46.1312 130.665L38.2134 89.2229C38.1555 88.8986 37.8303 88.6799 37.4932 88.7331C37.1524 88.7876 36.9224 89.0949 36.9795 89.4199L44.8972 130.862C44.9485 131.153 45.2138 131.36 45.5135 131.36ZM25.0913 131.36C25.3918 131.36 25.6563 131.153 25.7075 130.862L34.1518 89.4199C34.2089 89.0949 33.9788 88.7876 33.638 88.7331C33.2952 88.6834 32.9749 88.8986 32.9178 89.2229L24.4736 130.665C24.4163 130.99 24.6465 131.297 24.9872 131.351C25.0225 131.357 25.0569 131.36 25.0913 131.36Z" fill="#0B4870"/>
<path id="Vector_25" d="M46.1397 90.2997H25.4521V86.4412H46.1398L46.1397 90.2997ZM42.8914 116.789H27.6684V115.616H42.8914V116.789Z" fill="#0B4870"/>
</g>
<path id="Vector_26" d="M113.88 130.264H122.336L122.359 130.083C124.013 117.439 124.013 117.385 124.013 117.368V117.159L123.794 117.162C123.68 117.163 112.375 117.31 112.228 117.31H111.979L113.88 130.264Z" fill="#CCE9FF"/>
<path id="Vector_27" d="M113.314 117.296L118.848 117.226V118.669C118.848 119.08 118.326 119.265 118.06 118.95C117.745 118.578 117.133 118.736 117.044 119.211L116.843 120.295C116.74 120.852 115.965 120.942 115.734 120.423L115.149 119.113C114.998 118.774 114.492 118.833 114.426 119.197L114.314 119.806C114.21 120.373 113.388 120.386 113.266 119.822L112.719 117.304L113.314 117.296ZM71.2374 98.6514H66.3232L66.8955 110.342H70.6652L71.2374 98.6514Z" fill="#FFBE55"/>
<path id="Vector_28" d="M67.4551 108.281L67.7985 127.529H69.7602L70.1038 108.281H67.4551Z" fill="#FFBE55"/>
<path id="Vector_29" d="M68.4696 103.677C74.1407 103.677 78.738 101.759 78.738 99.392C78.738 97.0254 74.1407 95.1069 68.4696 95.1069C62.7985 95.1069 58.2012 97.0254 58.2012 99.392C58.2012 101.759 62.7985 103.677 68.4696 103.677Z" fill="#FFBE55"/>
<g id="Group_6">
<path id="Vector_30" d="M75.2144 128.019H63.2803V126.789H75.2144V128.019Z" fill="#FFBE55"/>
<path id="Vector_31" d="M72.9261 129.602C72.9261 130.573 73.6581 131.36 74.5609 131.36C75.4638 131.36 76.1957 130.573 76.1957 129.602C76.1957 128.631 75.4638 127.844 74.5609 127.844C73.6581 127.844 72.9261 128.631 72.9261 129.602ZM67.613 129.602C67.613 130.573 68.3449 131.36 69.2478 131.36C70.1506 131.36 70.8825 130.573 70.8825 129.602C70.8825 128.631 70.1506 127.844 69.2478 127.844C68.3449 127.844 67.613 128.631 67.613 129.602ZM62.2998 129.602C62.2998 130.573 63.0317 131.36 63.9346 131.36C64.8375 131.36 65.5694 130.573 65.5694 129.602C65.5694 128.631 64.8375 127.844 63.9346 127.844C63.0317 127.844 62.2998 128.631 62.2998 129.602Z" fill="#FFBE55"/>
</g>
<path id="Vector_32" d="M92.3446 92.4914C94.7561 93.9427 93.3192 96.4096 93.3192 96.4096L89.1514 94.4505L88.3311 91.4609L92.3446 92.4914Z" fill="#3D2210"/>
<path id="Vector_33" d="M78.0346 136.034L78.1338 138.43L76.3658 138.697L76.2949 136.053L78.0346 136.034Z" fill="#EDAC90"/>
<path id="Vector_34" d="M76.3279 136.707C76.3279 136.707 83.6444 136.707 84.736 138.316C85.5318 139.489 76.2295 139.974 76.2295 139.974L76.3279 136.707Z" fill="#0B4870"/>
<path id="Vector_35" d="M83.3244 122.94L82.0732 125L80.4453 124.272L81.8578 122.021L83.3244 122.94Z" fill="#EDAC90"/>
<path id="Vector_36" d="M81.3996 122.751C81.3996 122.751 87.0516 125.29 87.6629 128.455C87.9305 129.841 79.6199 125.267 79.6199 125.267L81.3996 122.751ZM80.182 65.0214C83.0527 63.2846 79.3888 61.7837 82.7557 61.9502C83.5176 61.9877 84.3452 62.0605 84.9806 61.6457C85.8063 61.1065 85.9561 59.9558 85.7499 59.0026C85.2566 56.7182 83.0453 54.9078 80.6701 54.8431C77.4427 54.7554 74.6397 57.4933 71.4151 57.3326C70.185 57.2715 69.0247 56.788 67.8444 56.4414C64.4041 55.4309 59.9767 55.9685 58.2702 59.0744C57.8133 59.9059 57.5944 60.8533 57.0912 61.6587C55.6627 63.9451 52.5274 64.3938 50.2312 65.8448C47.6792 67.4575 46.1643 70.5313 46.4581 73.4999C46.5807 74.7361 47.049 76.0183 48.0706 76.7496C48.0706 76.7496 51.5443 81.1045 59.4076 76.7496C67.2714 72.3944 80.182 65.0214 80.182 65.0214Z" fill="#0B4870"/>
<path id="Vector_37" d="M73.5576 73.3092C74.7827 71.9417 93.5605 92.1649 97.5684 94.2938C101.577 96.4228 100.657 94.2938 100.657 94.2938L92.6128 85.4741L77.1434 68.4199L73.5576 73.3092Z" fill="#2A94F4"/>
<path id="Vector_38" d="M75.955 65.6598C72.5531 64.0382 68.4985 64.4528 65.5365 66.7627C65.5056 66.7869 65.4747 66.811 65.4438 66.8356C60.2771 70.8985 53.7511 78.8819 55.6847 92.5675L73.9384 90.4386C73.9384 90.4386 71.3718 87.3897 74.6792 78.3634C76.4991 73.3981 78.1036 68.762 78.1036 68.762L75.955 65.6598Z" fill="#2A94F4"/>
<path id="Vector_39" d="M66.2037 72.1913C66.2037 72.1913 67.7503 88.3098 73.9382 90.4388C80.126 92.5678 91.1663 92.2905 91.1663 92.2905C91.1663 92.2905 92.1193 91.4463 80.2754 88.6652C79.7836 88.5498 79.2701 88.4312 78.7335 88.3099C78.7335 88.3099 72.0184 84.4958 72.3653 72.8339C72.3812 72.3051 72.3597 71.7765 72.2788 71.2542C72.0119 69.5382 71.168 66.094 68.7076 66.4128C65.4436 66.8357 66.2037 72.1913 66.2037 72.1913Z" fill="#2A94F4"/>
<path id="Vector_40" opacity="0.21" d="M66.2037 72.1913C66.2037 72.1913 67.7503 88.3098 73.9382 90.4388C80.126 92.5678 91.1663 92.2905 91.1663 92.2905C91.1663 92.2905 92.1193 91.4463 80.2754 88.6652C79.7836 88.5498 79.2701 88.4312 78.7335 88.3099C78.7335 88.3099 72.0184 84.4958 72.3653 72.8339C72.3812 72.3051 72.3597 71.7765 72.2788 71.2542C72.0119 69.5382 71.168 66.094 68.7076 66.4128C65.4436 66.8357 66.2037 72.1913 66.2037 72.1913Z" fill="#F7F7F7"/>
<path id="Vector_41" d="M55.6846 92.5676C55.6846 92.5676 69.6068 108.991 72.3912 113.857C75.176 118.723 73.9382 136.015 74.8665 136.493C75.7945 136.971 79.3483 136.498 79.3483 136.498L79.5684 123.375L79.7182 116.503C79.7902 113.207 79.2128 109.928 78.0177 106.847L74.2474 97.1294C74.2474 97.1294 89.6381 98.0694 86.9327 105.645C83.5324 115.164 80.4352 122.372 80.4352 122.372L83.5292 123.588C83.5292 123.588 98.0567 105.645 94.6668 97.7379C91.2777 89.8304 73.9381 90.4385 73.9381 90.4385L55.6846 92.5676Z" fill="#0E538C"/>
<path id="Vector_42" d="M85.7709 61.3093L83.313 66.4064C82.7657 67.5416 81.384 68.0227 80.232 67.4792L79.5519 67.1584L78.4022 68.432C77.5939 69.3278 76.1999 69.4097 75.2891 68.6148L74.743 68.1388C73.6901 67.2203 73.5938 65.6364 74.528 64.601L80.209 58.3066L85.7709 61.3093Z" fill="#3D2210"/>
<path id="Vector_43" d="M76.8291 65.6967C76.8291 65.6967 79.1233 66.2479 80.1822 65.0215C80.1822 65.0215 78.9913 61.9503 80.2183 61.9418C81.4449 61.9332 81.5231 64.2781 81.5231 64.2781C81.5231 64.2781 82.3925 61.8007 83.0619 61.5457C83.0619 61.5457 86.0691 64.1611 87.1534 61.9979C87.1534 61.9979 86.9908 60.5243 85.1951 58.7708C83.4003 57.0177 79.8283 57.9358 79.8283 57.9358L76.8291 65.6967Z" fill="#0B4870"/>
<path id="Vector_44" d="M73.166 64.4382C73.166 64.4382 74.8855 65.6382 76.8291 65.6967C78.7732 65.7548 80.0243 57.6956 80.0243 57.6956L73.166 64.4382Z" fill="#0B4870"/>
<path id="Vector_45" d="M101.555 94.1873C102.694 94.8169 104.203 93.7222 104.256 94.3511C104.367 95.6872 104.558 95.1069 104.935 94.5334C105.472 93.718 105.843 98.2474 103.276 97.6085C100.709 96.9695 99.8604 95.0343 99.8604 95.0343C99.8604 95.0343 99.9565 94.6319 100.414 94.3462C101.234 93.8336 101.555 94.1873 101.555 94.1873Z" fill="#3D2210"/>
<path id="Vector_46" d="M107.316 88.4172L107.656 88.0603L107.636 88.452C107.609 88.9778 107.467 89.5341 107.227 90.0591C107.141 90.245 107.003 90.3937 106.856 90.4584L102.286 99.7027L102.074 99.6457L106.433 90.3025C106.381 90.0966 106.416 89.8372 106.527 89.5959C106.73 89.1525 107.001 88.7475 107.316 88.4172Z" fill="#0B4870"/>
</g>
<defs>
<clipPath id="clip0_141_6510">
<rect width="255" height="141" fill="white" transform="translate(-50 0.5)"/>
</clipPath>
</defs>
</svg>
