<svg width="20" height="20" viewBox="0 0 20 20" fill="none" xmlns="http://www.w3.org/2000/svg">
<g id="share" clip-path="url(#clip0_2101_7977)">
<path id="Vector" fill-rule="evenodd" clip-rule="evenodd" d="M16 2C14.8954 2 14 2.89543 14 4C14 5.10457 14.8954 6 16 6C17.1046 6 18 5.10457 18 4C18 2.89543 17.1046 2 16 2ZM12 4C12 1.79086 13.7909 0 16 0C18.2091 0 20 1.79086 20 4C20 6.20914 18.2091 8 16 8C14.7961 8 13.7164 7.46811 12.9831 6.62651L7.91208 9.162C7.96969 9.43223 8 9.71258 8 10C8 10.2874 7.96969 10.5678 7.91208 10.838L12.9831 13.3735C13.7164 12.5319 14.7961 12 16 12C18.2091 12 20 13.7909 20 16C20 18.2091 18.2091 20 16 20C13.7909 20 12 18.2091 12 16C12 15.7126 12.0303 15.4322 12.0879 15.162L7.01694 12.6265C6.28363 13.4681 5.20393 14 4 14C1.79086 14 0 12.2091 0 10C0 7.79086 1.79086 6 4 6C5.20393 6 6.28363 6.53189 7.01694 7.3735L12.0879 4.83801C12.0303 4.56777 12 4.28742 12 4ZM4 8C2.89543 8 2 8.89543 2 10C2 11.1046 2.89543 12 4 12C5.10457 12 6 11.1046 6 10C6 8.89543 5.10457 8 4 8ZM16 14C14.8954 14 14 14.8954 14 16C14 17.1046 14.8954 18 16 18C17.1046 18 18 17.1046 18 16C18 14.8954 17.1046 14 16 14Z" fill="#9C99C0"/>
</g>
<defs>
<clipPath id="clip0_2101_7977">
<rect width="20" height="20" fill="white"/>
</clipPath>
</defs>
</svg>
