<svg width="14" height="11" viewBox="0 0 14 11" fill="none" xmlns="http://www.w3.org/2000/svg">
<g id="Group">
<path id="Vector" d="M12.8691 2.8335C13.0452 4.60691 13.0452 6.39341 12.8691 8.16683" stroke="black" stroke-linecap="round"/>
<path id="Vector_2" d="M7.66667 5.50005C7.66667 4.24405 7.558 3.01338 7.35 1.81671C7.268 1.34738 6.72533 1.13738 6.33667 1.41338L4.68 2.58805C4.45452 2.74778 4.18499 2.8335 3.90867 2.83338H2.33333C1.97971 2.83338 1.64057 2.97386 1.39052 3.2239C1.14048 3.47395 1 3.81309 1 4.16671V6.83338C1 7.187 1.14048 7.52614 1.39052 7.77619C1.64057 8.02624 1.97971 8.16671 2.33333 8.16671H3.90867C4.18499 8.16659 4.45452 8.25232 4.68 8.41205L6.33667 9.58671C6.72533 9.86271 7.268 9.65338 7.35 9.18338C7.56128 7.96699 7.66723 6.73465 7.66667 5.50005Z" stroke="black" stroke-linejoin="round"/>
<path id="Vector_3" d="M10.251 3.5C10.3608 4.83107 10.3608 6.16893 10.251 7.5" stroke="black" stroke-linecap="round"/>
</g>
</svg>
