<svg width="20" height="20" viewBox="0 0 20 20" fill="none" xmlns="http://www.w3.org/2000/svg">
<g id="Live area" clip-path="url(#clip0_2429_4930)">
<path id="Vector" fill-rule="evenodd" clip-rule="evenodd" d="M9.99996 0.5C10.3806 0.5 10.7282 0.716099 10.8967 1.05743L13.4258 6.18205L19.0812 7.00382C19.4579 7.05855 19.7708 7.32239 19.8884 7.68441C20.0061 8.04642 19.908 8.44382 19.6354 8.70951L15.5432 12.6985L16.5092 18.331C16.5735 18.7061 16.4193 19.0853 16.1114 19.309C15.8034 19.5328 15.3952 19.5623 15.0583 19.3851L9.99996 16.7258L4.94166 19.3851C4.60475 19.5623 4.19648 19.5328 3.88854 19.309C3.58059 19.0853 3.42637 18.7061 3.49071 18.331L4.45676 12.6985L0.364517 8.70951C0.0919447 8.44382 -0.00615235 8.04642 0.111473 7.68441C0.229098 7.32239 0.542045 7.05855 0.918731 7.00382L6.57408 6.18205L9.10322 1.05743C9.27168 0.716099 9.61932 0.5 9.99996 0.5ZM9.99996 3.75955L8.13488 7.53862C7.98921 7.83376 7.70765 8.03833 7.38194 8.08566L3.21149 8.69166L6.22926 11.6333C6.46494 11.863 6.57249 12.194 6.51685 12.5184L5.80445 16.672L9.53462 14.7109C9.82594 14.5578 10.174 14.5578 10.4653 14.7109L14.1955 16.672L13.4831 12.5184C13.4274 12.194 13.535 11.863 13.7707 11.6333L16.7884 8.69166L12.618 8.08566C12.2923 8.03833 12.0107 7.83376 11.865 7.53862L9.99996 3.75955Z" fill="#9C99C0"/>
</g>
<defs>
<clipPath id="clip0_2429_4930">
<rect width="20" height="20" fill="white"/>
</clipPath>
</defs>
</svg>
