<svg width="153" height="122" viewBox="0 0 153 122" fill="none" xmlns="http://www.w3.org/2000/svg">
<g id="indian-man-booking-flight-ticket-online 1" clip-path="url(#clip0_141_6569)">
<g id="Layer 2">
<g id="Layer 1">
<path id="Vector" d="M49.329 121.177C44.5135 119.678 40.1929 118.147 34.9952 115.24C29.6344 112.242 5.8208 97.9765 2.72407 73.2861C1.91279 66.5192 2.58616 59.6576 4.69767 53.175C5.65484 50.3808 7.6403 44.7688 12.6514 39.2188C18.7855 32.4207 25.785 29.7858 29.8893 28.2958C36.0784 26.0798 42.6475 25.108 49.2164 25.4367C52.9384 25.5577 59.5082 25.8291 66.9759 29.0777C71.8476 31.1962 74.8762 33.6127 79.3391 37.2242C86.4096 42.9513 87.3402 45.3353 99.7093 57.1612C103.105 60.4069 105.897 62.965 110.158 65.4848C113.113 67.2315 115.501 68.2082 119.908 69.9903C130.739 74.3719 133.823 75.2591 137.367 77.7257C144.26 82.5263 143.813 87.7616 144.109 88.8887C144.88 91.7712 145.058 94.7788 144.634 97.7316C143.73 103.653 140.527 107.525 138.538 109.867C135.809 113.054 132.502 115.7 128.789 117.669C126.211 119.023 123.542 120.195 120.8 121.177L49.329 121.177Z" fill="#F9E0C0"/>
<path id="Vector_2" d="M34.0407 116.991C26.9276 113.012 3.47602 98.0947 0.35306 73.1801C-0.489333 66.1094 0.21423 58.941 2.41549 52.1664C3.30328 49.5733 5.38219 43.5007 10.7276 37.5788C17.2731 30.3269 24.7342 27.6173 28.7424 26.1618C35.2066 23.8453 42.0683 22.8296 48.9297 23.1735C52.367 23.2846 59.5201 23.5156 67.4836 26.9779L67.3651 27.248C59.4535 23.8085 52.3391 23.5787 48.9201 23.4683C42.0965 23.125 35.2724 24.1348 28.8439 26.4389C24.8597 27.8858 17.4443 30.5787 10.9482 37.7757C5.64304 43.6532 3.57776 49.6856 2.69568 52.2617C0.508712 58.9938 -0.190092 66.1172 0.647185 73.1435C3.75272 97.9211 27.1031 112.772 34.1858 116.734L34.0407 116.991Z" fill="#F4C5A2"/>
<path id="Vector_3" d="M141.577 0.5H91.5278C90.1452 0.5 89.0244 1.61595 89.0244 2.99254V39.6105C89.0244 40.9871 90.1452 42.103 91.5278 42.103H141.577C142.96 42.103 144.081 40.9871 144.081 39.6105V2.99254C144.081 1.61595 142.96 0.5 141.577 0.5Z" fill="#E5E1E5"/>
<path id="Vector_4" d="M144.081 5.44434H89.0244V5.67087H144.081V5.44434Z" fill="#A2AEE6"/>
<path id="Vector_5" d="M92.1377 4.29328C93.4556 4.29328 93.4578 2.25391 92.1377 2.25391C90.8198 2.25391 90.8176 4.29328 92.1377 4.29328Z" fill="#FFBA55"/>
<path id="Vector_6" d="M95.5508 4.29328C96.8687 4.29328 96.8709 2.25391 95.5508 2.25391C94.2329 2.25391 94.2307 4.29328 95.5508 4.29328Z" fill="#F73C4F"/>
<path id="Vector_7" d="M98.7373 4.29328C100.055 4.29328 100.057 2.25391 98.7373 2.25391C97.4194 2.25391 97.4172 4.29328 98.7373 4.29328Z" fill="#4F66D0"/>
<path id="Vector_8" d="M140.476 8.98389H92.1377V20.2412H140.476V8.98389Z" fill="#A2AEE6"/>
<path id="Vector_9" d="M93.3843 37.9862L93.1016 37.73C93.2668 37.5491 93.4561 37.3915 93.6642 37.2617L93.867 37.5842C93.6885 37.6957 93.5261 37.831 93.3843 37.9862ZM109.869 38.6218C109.753 38.6218 109.638 38.6145 109.523 38.5997L109.572 38.2223C109.983 38.2751 110.401 38.2174 110.782 38.055L110.932 38.4047C110.596 38.5485 110.234 38.6224 109.869 38.6218ZM98.6407 38.2911C98.2835 38.2915 97.9298 38.2208 97.6004 38.0831L97.4819 38.0336L97.6296 37.6827L97.7481 37.7322C98.0929 37.8767 98.4681 37.9349 98.8407 37.9017L98.8743 38.281C98.7963 38.2876 98.7186 38.2911 98.6407 38.2911ZM108.211 38.0532L107.157 37.2329L107.392 36.9331L108.446 37.7533L108.211 38.0532ZM100.198 37.8316L100.026 37.4914L101.221 36.8921L101.393 37.2323L100.198 37.8316ZM112.043 37.5466L111.759 37.291L112.658 36.3042L112.941 36.5598L112.043 37.5466ZM96.248 37.5192L95.9881 37.4109C95.7055 37.293 95.4022 37.2324 95.0959 37.2326L95.0375 37.2332L95.0261 36.8526L95.0959 36.852C95.4528 36.8517 95.8063 36.9223 96.1355 37.0596L96.3957 37.1682L96.248 37.5192ZM102.587 36.6333L102.416 36.2931L103.416 35.7917C103.485 35.7566 103.557 35.7248 103.629 35.696L103.771 36.0489C103.709 36.0738 103.648 36.1014 103.588 36.1315L102.587 36.6333ZM106.102 36.4131L106.051 36.3733C105.74 36.1323 105.373 35.9739 104.984 35.9132L105.043 35.537C105.497 35.6079 105.924 35.7924 106.287 36.0732L106.338 36.1132L106.102 36.4131ZM113.839 35.573L113.556 35.3174L114.027 34.7998C114.181 34.6312 114.355 34.4826 114.546 34.3577L114.756 34.6758C114.592 34.783 114.442 34.9106 114.31 35.0554L113.839 35.573ZM115.918 34.3015L115.899 33.9215C115.941 33.9193 115.983 33.9174 116.025 33.9187H117.246V34.2993H116.024C115.987 34.298 115.952 34.2999 115.918 34.3015ZM122.597 34.2993H121.259V33.9187H122.597V34.2993ZM119.921 34.2993H118.584V33.9187H119.921V34.2993ZM123.978 34.1948L123.873 33.8287C124.271 33.7149 124.631 33.4966 124.915 33.1966L125.193 33.4579C124.862 33.8073 124.442 34.0618 123.978 34.1948ZM126.055 32.4225L125.759 32.1808L126.608 31.151L126.903 31.3927L126.055 32.4225ZM127.752 30.363L127.456 30.1213L128.305 29.0918L128.6 29.3335L127.752 30.363ZM135.733 29.9413C135.424 29.9415 135.118 29.8887 134.827 29.7851L134.528 29.6791L134.657 29.3206L134.955 29.4266C135.252 29.532 135.568 29.5759 135.883 29.5557L135.907 29.9357C135.849 29.9394 135.791 29.9413 135.733 29.9413ZM133.268 29.2309L132.009 28.7831L132.137 28.4246L133.397 28.8724L133.268 29.2309ZM129.564 28.5691L129.413 28.2195C129.857 28.0292 130.344 27.9613 130.823 28.0229L130.773 28.4003C130.362 28.346 129.944 28.4044 129.564 28.5691ZM137.269 29.4629L137.051 29.1505C137.224 29.0306 137.38 28.888 137.515 28.7263L137.809 28.9693C137.652 29.1575 137.471 29.3235 137.269 29.4629ZM93.3843 19.1123L93.1016 18.856C93.2668 18.6751 93.4561 18.5175 93.6642 18.3877L93.867 18.7102C93.6885 18.8218 93.5261 18.957 93.3843 19.1123ZM109.869 19.7482C109.753 19.7482 109.638 19.7408 109.523 19.7261L109.572 19.3487C109.983 19.4015 110.401 19.3438 110.782 19.1814L110.932 19.531C110.596 19.6749 110.234 19.7488 109.869 19.7482ZM98.6407 19.4171C98.2835 19.4175 97.9298 19.3468 97.6004 19.2092L97.4822 19.1603L97.6293 18.8087L97.7478 18.8579C98.0925 19.0031 98.4679 19.0614 98.8407 19.0277L98.8743 19.407C98.7963 19.4137 98.7186 19.4171 98.6407 19.4171ZM108.211 19.1792L107.157 18.3593L107.392 18.0595L108.446 18.8794L108.211 19.1792ZM100.198 18.9577L100.026 18.6174L101.221 18.0181L101.393 18.3584L100.198 18.9577ZM112.043 18.673L111.759 18.4174L112.658 17.4305L112.941 17.6862L112.043 18.673ZM96.248 18.6455L95.9881 18.5373C95.7056 18.4192 95.4022 18.3585 95.0959 18.3586L95.0375 18.3593L95.0261 17.9787L95.0959 17.978C95.453 17.9778 95.8066 18.0486 96.1358 18.1863L96.3957 18.2946L96.248 18.6455ZM102.587 17.7594L102.416 17.4192L103.416 16.9177C103.486 16.8824 103.557 16.8505 103.63 16.8218L103.771 17.1758C103.709 17.2001 103.648 17.2276 103.588 17.2576L102.587 17.7594ZM106.102 17.5394L106.051 17.4997C105.741 17.2584 105.373 17.0999 104.984 17.0392L105.043 16.663C105.497 16.7338 105.925 16.9186 106.287 17.1998L106.338 17.2396L106.102 17.5394ZM113.839 16.699L113.556 16.4434L114.027 15.9261C114.181 15.7575 114.355 15.6089 114.546 15.484L114.756 15.8021C114.592 15.9094 114.442 16.0369 114.31 16.1818L113.839 16.699ZM115.918 15.4275L115.899 15.0475C115.941 15.0453 115.983 15.0444 116.025 15.0447H117.246V15.4253H116.024C115.987 15.4247 115.952 15.4259 115.918 15.4275ZM122.596 15.4253H121.259V15.0447H122.596V15.4253ZM119.921 15.4253H118.584V15.0447H119.921V15.4253ZM123.978 15.3208L123.873 14.9548C124.271 14.8408 124.631 14.6225 124.916 14.3226L125.193 14.5839C124.862 14.9333 124.442 15.1877 123.978 15.3208ZM126.055 13.5485L125.759 13.3068L126.608 12.2773L126.903 12.519L126.055 13.5485ZM127.752 11.4893L127.456 11.2476L128.305 10.2178L128.6 10.4595L127.752 11.4893ZM135.733 11.0674C135.424 11.0675 135.118 11.0147 134.827 10.9111L134.528 10.8048L134.657 10.4463L134.955 10.5526C135.252 10.658 135.568 10.7019 135.882 10.6817L135.907 11.0617C135.849 11.0655 135.791 11.0674 135.733 11.0674ZM133.268 10.357L132.008 9.90884L132.137 9.55034L133.397 9.99847L133.268 10.357ZM129.564 9.69487L129.413 9.34521C129.857 9.15523 130.343 9.08733 130.822 9.1486L130.773 9.52605C130.362 9.47178 129.944 9.53015 129.564 9.69487ZM137.269 10.5889L137.051 10.2765C137.224 10.1567 137.38 10.014 137.515 9.85235L137.809 10.0954C137.652 10.2835 137.471 10.4495 137.269 10.5889Z" fill="#4F66D0"/>
<path id="Vector_10" d="M113.275 23.0647H92.1377V23.2912H113.275V23.0647Z" fill="#A2AEE6"/>
<path id="Vector_11" d="M113.275 26.4905H92.1377V26.717H113.275V26.4905Z" fill="#A2AEE6"/>
<path id="Vector_12" d="M113.275 29.9167H92.1377V30.1433H113.275V29.9167Z" fill="#A2AEE6"/>
<path id="Vector_13" d="M95.2188 16.7126C95.9977 16.7126 96.629 16.0839 96.629 15.3084C96.629 14.5329 95.9977 13.9043 95.2188 13.9043C94.44 13.9043 93.8086 14.5329 93.8086 15.3084C93.8086 16.0839 94.44 16.7126 95.2188 16.7126Z" fill="white"/>
<path id="Vector_14" d="M95.2208 13.188C94.9535 13.188 94.6888 13.2404 94.4419 13.3422C94.195 13.444 93.9706 13.5933 93.7816 13.7815C93.5926 13.9696 93.4427 14.193 93.3404 14.4389C93.2382 14.6848 93.1855 14.9483 93.1855 15.2144C93.1855 16.1068 94.4792 18.0667 95.0039 18.8246C95.0252 18.8633 95.0565 18.8957 95.0947 18.9183C95.1328 18.9408 95.1764 18.9527 95.2208 18.9527C95.2651 18.9527 95.3087 18.9408 95.3468 18.9183C95.385 18.8957 95.4163 18.8633 95.4376 18.8246C95.9617 18.0667 97.256 16.1068 97.256 15.2144C97.256 14.9483 97.2034 14.6848 97.1011 14.4389C96.9988 14.193 96.8489 13.9696 96.6599 13.7815C96.4709 13.5933 96.2465 13.444 95.9996 13.3422C95.7527 13.2404 95.488 13.188 95.2208 13.188ZM95.2208 14.1336C95.4354 14.1336 95.6453 14.197 95.8238 14.3158C96.0023 14.4345 96.1414 14.6033 96.2236 14.8008C96.3057 14.9983 96.3272 15.2156 96.2854 15.4253C96.2435 15.6349 96.1401 15.8275 95.9883 15.9786C95.8365 16.1298 95.6431 16.2327 95.4325 16.2744C95.222 16.3161 95.0037 16.2947 94.8054 16.2129C94.607 16.1311 94.4375 15.9926 94.3182 15.8149C94.199 15.6371 94.1353 15.4282 94.1353 15.2144C94.1353 14.9278 94.2497 14.6529 94.4532 14.4502C94.6568 14.2475 94.9329 14.1337 95.2208 14.1336Z" fill="#F73C4F"/>
<path id="Vector_15" d="M137.296 9.08219C138.075 9.08219 138.706 8.45354 138.706 7.67806C138.706 6.90258 138.075 6.27393 137.296 6.27393C136.517 6.27393 135.886 6.90258 135.886 7.67806C135.886 8.45354 136.517 9.08219 137.296 9.08219Z" fill="white"/>
<path id="Vector_16" d="M137.298 5.55762C137.031 5.5576 136.767 5.61 136.52 5.71184C136.273 5.81367 136.048 5.96293 135.859 6.15111C135.67 6.33928 135.52 6.56268 135.418 6.80854C135.316 7.05441 135.263 7.31792 135.263 7.58404C135.263 8.47647 136.557 10.4363 137.082 11.1942C137.103 11.233 137.134 11.2653 137.172 11.2879C137.211 11.3105 137.254 11.3224 137.298 11.3224C137.343 11.3224 137.386 11.3105 137.425 11.2879C137.463 11.2653 137.494 11.233 137.515 11.1942C138.039 10.4363 139.334 8.47647 139.334 7.58404C139.334 7.31792 139.281 7.05441 139.179 6.80854C139.077 6.56268 138.927 6.33928 138.738 6.15111C138.549 5.96293 138.324 5.81367 138.077 5.71184C137.83 5.61 137.566 5.5576 137.298 5.55762ZM137.298 6.50328C137.513 6.50328 137.723 6.56666 137.902 6.68542C138.08 6.80417 138.219 6.97296 138.301 7.17045C138.383 7.36793 138.405 7.58524 138.363 7.79488C138.321 8.00453 138.218 8.1971 138.066 8.34825C137.914 8.4994 137.721 8.60233 137.51 8.64403C137.3 8.68574 137.081 8.66433 136.883 8.58254C136.685 8.50074 136.515 8.36221 136.396 8.18448C136.277 8.00675 136.213 7.7978 136.213 7.58404C136.213 7.29741 136.327 7.02252 136.531 6.81984C136.735 6.61716 137.011 6.50329 137.298 6.50328ZM115.005 23.9763L114.567 24.1951L114.516 23.5381L114.018 23.1041L114.456 22.8853L114.712 23.0339L115.654 22.5601L114.564 21.7413L115.003 21.5225L116.314 22.2306L117.079 21.8491C117.166 21.8057 117.267 21.7985 117.359 21.8292C117.452 21.8598 117.528 21.9257 117.572 22.0125C117.616 22.0992 117.623 22.1996 117.592 22.2917C117.562 22.3838 117.495 22.46 117.408 22.5036L116.652 22.8814L116.434 24.3539L115.996 24.5727L115.986 23.2138L115.04 23.6859L115.005 23.9763Z" fill="#4F66D0"/>
<path id="Vector_17" d="M95.2208 36.1044C94.9731 36.2144 94.5862 36.4268 94.1503 36.6754L92.0625 36.3853C91.9456 36.3687 91.8265 36.3768 91.713 36.4089L91.2603 36.5368C91.2213 36.5368 91.2213 36.5756 91.2603 36.5905L93.0033 37.3518C92.4146 37.7028 91.8904 38.0226 91.6606 38.1668C91.6196 38.1924 91.5735 38.2087 91.5255 38.2146C91.4775 38.2205 91.4287 38.2159 91.3827 38.2011L90.9273 38.0568C90.8549 38.0313 90.7758 38.0313 90.7033 38.0568L90.415 38.1741L91.3785 38.9742C91.427 39.0144 91.4858 39.0403 91.5483 39.0489C91.6108 39.0576 91.6744 39.0488 91.7321 39.0233C92.1921 38.8182 93.4048 38.262 94.3071 37.7934C96.3097 36.7363 96.5322 36.5532 96.5322 36.3853C96.5322 36.1223 95.7675 35.8531 95.2208 36.1044Z" fill="#A2AEE6"/>
<path id="Vector_18" d="M96.5321 40.1921H90.415V40.5728H96.5321V40.1921Z" fill="#A2AEE6"/>
<path id="Vector_19" d="M142.514 26.0328C142.242 25.9571 141.791 25.8691 141.279 25.777L139.818 24.1637C139.739 24.0758 139.642 24.0054 139.533 23.957L139.076 23.7488C139.042 23.7488 139.019 23.7488 139.039 23.7903C139.058 23.8321 139.593 24.8908 139.914 25.5376C139.21 25.4275 138.576 25.3369 138.296 25.2981C138.249 25.2896 138.204 25.2714 138.164 25.2448C138.125 25.2182 138.091 25.1838 138.065 25.1436L137.789 24.7347C137.744 24.6708 137.68 24.6228 137.607 24.5977L137.299 24.5101L137.532 25.7519C137.544 25.8145 137.574 25.8724 137.617 25.9194C137.661 25.9663 137.717 26.0004 137.778 26.018C138.284 26.1622 139.62 26.5281 140.656 26.7481C142.95 27.2357 143.255 27.2357 143.377 27.0945C143.5 26.9548 143.122 26.1889 142.514 26.0328Z" fill="#A2AEE6"/>
<path id="Vector_20" d="M143.416 28.3169H137.299V28.6976H143.416V28.3169Z" fill="#A2AEE6"/>
<path id="Vector_21" d="M71.64 43.0894L76.4228 37.0193L79.352 39.1815L73.6071 50.8627C72.9901 52.1391 72.287 53.3237 70.8643 53.3237L71.64 43.0894Z" fill="#F9977A"/>
<path id="Vector_22" d="M76.4229 37.0192L77.6075 34.3496C77.7433 34.0435 77.945 33.7708 78.1983 33.5508L80.0925 31.9055C80.0925 31.9055 81.1592 31.4228 82.7107 32.7262C82.7107 32.7262 82.6268 33.6429 80.445 33.1602L80.4804 34.0779L82.7107 33.8848L84.1652 33.9331C84.1652 33.9331 86.0076 32.6297 86.347 32.6297C86.347 32.6297 88.5773 32.7745 84.4561 34.8503L83.5513 36.3143C83.3537 36.6341 83.0771 36.8981 82.7479 37.0813C82.4187 37.2645 82.0479 37.3606 81.6707 37.3606H80.238L79.352 39.1814L76.4229 37.0192Z" fill="#F9977A"/>
<path id="Vector_23" d="M80.4315 35.9608L79.8496 35.1885L88.286 31.085L88.6254 31.8182L80.4315 35.9608Z" fill="#1B2E35"/>
<path id="Vector_24" d="M82.4822 37.2062L80.5802 36.88C80.4979 36.8659 80.4232 36.8233 80.3694 36.7597C80.3156 36.6961 80.2861 36.6156 80.2861 36.5325C80.2861 36.4841 80.2961 36.4362 80.3156 36.3918C80.335 36.3473 80.3634 36.3074 80.399 36.2744C80.4345 36.2414 80.4766 36.216 80.5225 36.1999C80.5683 36.1838 80.617 36.1773 80.6655 36.1807L83.0013 36.3468L81.4073 35.9312C81.3495 35.9161 81.2953 35.8897 81.2478 35.8536C81.2004 35.8175 81.1606 35.7724 81.1308 35.7208C81.1011 35.6693 81.0819 35.6123 81.0744 35.5533C81.0669 35.4943 81.0713 35.4344 81.0873 35.3771C81.1192 35.2628 81.1952 35.1657 81.2988 35.1071C81.4024 35.0485 81.5251 35.0331 81.64 35.0643L83.2437 35.4998L82 34.75C81.9153 34.6989 81.8535 34.6174 81.8275 34.5223C81.8015 34.4272 81.8133 34.3257 81.8603 34.239C81.9046 34.1574 81.977 34.0945 82.0642 34.0619C82.1513 34.0293 82.2474 34.0292 82.3347 34.0616L84.4558 34.8503" fill="#F9977A"/>
<path id="Vector_25" d="M82.4822 37.2774C82.4781 37.2774 82.4741 37.277 82.4701 37.2761L80.5681 36.9501C80.4604 36.9316 80.3641 36.8726 80.2989 36.7853C80.2338 36.6981 80.2048 36.5892 80.218 36.4813C80.2312 36.3733 80.2855 36.2745 80.3698 36.2054C80.4541 36.1362 80.5618 36.102 80.6708 36.1097L82.2368 36.2211L81.3893 35.9999C81.3228 35.9825 81.2604 35.9522 81.2057 35.9108C81.151 35.8693 81.1051 35.8175 81.0705 35.7584C81.036 35.6992 81.0135 35.6338 81.0044 35.566C80.9953 35.4981 80.9997 35.4292 81.0175 35.3631C81.0352 35.2969 81.0659 35.2349 81.1078 35.1807C81.1496 35.1264 81.2019 35.0809 81.2614 35.0467C81.321 35.0126 81.3868 34.9905 81.455 34.9817C81.5231 34.973 81.5924 34.9777 81.6587 34.9957L82.7703 35.2974L81.963 34.8107C81.8655 34.7521 81.7936 34.6592 81.7612 34.5505C81.7289 34.4418 81.7385 34.3249 81.7881 34.2228C81.8378 34.1208 81.9239 34.0408 82.0297 33.9987C82.1354 33.9565 82.2531 33.9552 82.3598 33.995L84.4809 34.7836C84.4897 34.7868 84.4978 34.7918 84.5047 34.7981C84.5115 34.8045 84.5171 34.8122 84.521 34.8207C84.5249 34.8292 84.527 34.8384 84.5273 34.8477C84.5276 34.8571 84.5261 34.8664 84.5227 34.8751C84.516 34.8927 84.5026 34.907 84.4854 34.9148C84.4682 34.9226 84.4485 34.9233 84.4308 34.9168L82.3097 34.1281C82.2386 34.1025 82.1605 34.1029 82.0896 34.1294C82.0188 34.1559 81.9597 34.2067 81.9231 34.2727C81.8847 34.3434 81.8752 34.426 81.8964 34.5035C81.9177 34.581 81.9681 34.6474 82.0372 34.6889L83.2809 35.4388C83.2956 35.4477 83.3067 35.4616 83.3119 35.4779C83.3171 35.4943 83.3163 35.512 83.3094 35.5278C83.3025 35.5434 83.2902 35.5561 83.2748 35.5636C83.2593 35.571 83.2417 35.5728 83.2251 35.5685L81.6213 35.1333C81.5731 35.1202 81.5228 35.1167 81.4733 35.123C81.4238 35.1293 81.376 35.1453 81.3327 35.1701C81.2894 35.1948 81.2514 35.2279 81.221 35.2673C81.1905 35.3067 81.1682 35.3517 81.1553 35.3997C81.1424 35.4478 81.1392 35.4979 81.1458 35.5472C81.1524 35.5964 81.1687 35.6439 81.1938 35.6869C81.2189 35.7299 81.2523 35.7675 81.292 35.7976C81.3318 35.8277 81.3771 35.8497 81.4254 35.8623L83.0194 36.2779C83.0367 36.2824 83.0517 36.2931 83.0614 36.308C83.0711 36.3229 83.0749 36.3408 83.072 36.3584C83.0688 36.3757 83.0593 36.3913 83.0453 36.4022C83.0314 36.4131 83.014 36.4186 82.9963 36.4177L80.6606 36.2517C80.5883 36.2466 80.5168 36.2694 80.4608 36.3153C80.4049 36.3612 80.3688 36.4268 80.36 36.4985C80.3512 36.5701 80.3704 36.6424 80.4136 36.7004C80.4568 36.7583 80.5207 36.7976 80.5922 36.81L82.4942 37.136C82.5118 37.139 82.5277 37.1485 82.5386 37.1626C82.5496 37.1767 82.5548 37.1944 82.5533 37.2122C82.5518 37.2299 82.5436 37.2465 82.5305 37.2585C82.5173 37.2706 82.5001 37.2773 82.4822 37.2774Z" fill="#DD765E"/>
<path id="Vector_26" d="M64.3333 89.046L63.687 84.4014C63.687 84.4014 70.8242 79.4956 73.9923 81.6464L73.0307 116.236C70.6765 120.108 67.686 118.148 67.686 118.148L66.0879 97.164L52.0505 106.287L50.2996 107.361C45.7703 107.754 45.6797 104.593 45.6797 104.593L64.3333 89.046Z" fill="#F9977A"/>
<path id="Vector_27" d="M64.333 89.0458C64.5179 89.1049 64.7083 89.1453 64.9013 89.1664C65.0829 89.1848 65.2662 89.1735 65.4441 89.1329C65.6255 89.093 65.8021 89.0341 65.971 88.9572C66.1427 88.877 66.3185 88.7913 66.4944 88.6875C66.3851 88.866 66.2406 89.0205 66.0695 89.1417C65.8985 89.2629 65.7045 89.3482 65.4993 89.3925C65.288 89.439 65.0683 89.4309 64.8611 89.3689C64.6593 89.3099 64.477 89.1984 64.333 89.0458ZM72.7441 83.0164C72.7991 84.4542 72.8249 85.8919 72.8462 87.3297C72.8622 88.0486 72.8593 88.7675 72.8652 89.4864C72.878 90.2219 72.7572 90.9537 72.5086 91.6464C72.2516 92.3367 71.8698 92.9744 71.3822 93.5279C70.9034 94.0724 70.3901 94.5858 69.8455 95.0651C68.7605 96.0085 67.5187 96.8742 66.0877 97.1639C66.7793 96.9635 67.4344 96.6543 68.028 96.2482C68.6265 95.8537 69.1885 95.4072 69.7076 94.9137C70.2304 94.4242 70.7281 93.9089 71.1988 93.3696C72.1222 92.285 72.6272 90.9082 72.623 89.4864C72.6289 88.7675 72.626 88.0486 72.642 87.3297C72.6633 85.8919 72.6891 84.4542 72.7441 83.0164Z" fill="#DD765E"/>
<path id="Vector_28" d="M72.7438 62.7382L74.5679 81.6464H72.7438V83.3192L60.743 84.7531L60.119 74.8594L57.1365 69.033C56.6056 67.9959 56.3517 66.8402 56.3992 65.677L56.6148 60.3933L72.7438 62.7382Z" fill="#FFBA55"/>
<path id="Vector_29" d="M47.976 102.679C47.976 102.679 43.4001 102.478 42.6283 105.015C42.5891 105.147 42.5813 105.286 42.6057 105.422C42.6301 105.557 42.6858 105.685 42.7686 105.796L51.2819 117.26C51.3211 117.312 51.3709 117.356 51.4281 117.388C51.4853 117.42 51.5487 117.439 51.614 117.445C51.6794 117.451 51.7452 117.443 51.8073 117.422C51.8694 117.401 51.9263 117.367 51.9744 117.323C52.5247 116.821 53.4033 115.754 53.074 114.266C52.6057 112.151 50.4179 111.424 50.7638 107.076C50.7638 107.076 47.2632 104.86 47.976 102.679ZM67.4315 115.119C67.4315 115.119 64.5433 118.711 66.1442 120.829C66.2281 120.938 66.3366 121.027 66.4609 121.087C66.5852 121.147 66.7219 121.178 66.8603 121.177L81.1792 121.099C81.2448 121.099 81.3096 121.085 81.3693 121.057C81.429 121.03 81.4822 120.991 81.5256 120.942C81.569 120.893 81.6015 120.835 81.621 120.773C81.6405 120.711 81.6466 120.645 81.6389 120.58C81.5567 119.841 81.2105 118.506 79.8097 117.892C77.8181 117.02 76.4052 118.592 73.0842 115.748C73.0842 115.748 68.7794 116.979 67.4315 115.119Z" fill="#935B50"/>
<path id="Vector_30" d="M65.4644 15.7671C66.4666 15.6152 67.4906 15.7026 68.4521 16.0221C68.9028 16.1812 70.5511 16.7631 71.3545 18.317C71.6596 18.9071 71.7286 19.617 71.8667 21.0368C71.9529 21.9236 72.2959 22.5588 72.2954 23.6404C72.2776 24.5167 72.1332 25.386 71.8667 26.2214C71.4672 27.529 71.7244 28.2718 71.5252 28.5163C70.7224 29.5013 68.2853 28.7284 68.2487 30.0138C68.2261 30.8075 69.5715 34.234 69.544 35.1638C69.48 37.3305 65.8459 35.063 63.6718 31.831C63.5731 31.6844 62.0869 30.8181 62.2424 29.4143C62.3255 28.6644 62.965 25.1455 62.9036 24.6915C62.6815 23.0505 61.851 22.8504 61.1963 20.8668C61.0186 20.3688 60.9725 19.8337 61.0621 19.3128C61.1518 18.7919 61.3744 18.3027 61.7085 17.892C62.6715 16.7671 64.0009 16.015 65.4644 15.7671Z" fill="#F9977A"/>
<path id="Vector_31" d="M71.5231 22.8427C71.7079 22.8427 71.8577 22.6573 71.8577 22.4285C71.8577 22.1996 71.7079 22.0142 71.5231 22.0142C71.3383 22.0142 71.1885 22.1996 71.1885 22.4285C71.1885 22.6573 71.3383 22.8427 71.5231 22.8427Z" fill="#0A0709"/>
<path id="Vector_32" d="M68.5065 22.8427C68.6913 22.8427 68.8411 22.6573 68.8411 22.4285C68.8411 22.1996 68.6913 22.0142 68.5065 22.0142C68.3217 22.0142 68.1719 22.1996 68.1719 22.4285C68.1719 22.6573 68.3217 22.8427 68.5065 22.8427Z" fill="#0A0709"/>
<path id="Vector_33" d="M69.9324 21.6866C69.8869 21.6867 69.8425 21.6721 69.8059 21.645C69.7693 21.6179 69.7425 21.5798 69.7296 21.5363C69.7166 21.4927 69.7181 21.4462 69.7339 21.4036C69.7496 21.361 69.7788 21.3247 69.8171 21.3C70.1881 21.0534 70.6245 20.9226 71.0705 20.9241C71.5166 20.9256 71.952 21.0594 72.3213 21.3085C72.3657 21.3422 72.3949 21.3919 72.4025 21.4468C72.4102 21.5018 72.3957 21.5576 72.3622 21.6019C72.3287 21.6463 72.279 21.6757 72.2238 21.6837C72.1687 21.6917 72.1126 21.6776 72.0678 21.6446C71.7695 21.4428 71.4168 21.3356 71.0562 21.3371C70.6956 21.3385 70.3438 21.4486 70.0472 21.6528C70.0131 21.6749 69.9732 21.6867 69.9324 21.6866ZM66.8054 21.6866C66.7598 21.6867 66.7154 21.6721 66.6788 21.645C66.6423 21.6179 66.6155 21.5798 66.6025 21.5362C66.5895 21.4927 66.591 21.4462 66.6068 21.4036C66.6226 21.3611 66.6518 21.3247 66.69 21.3C67.061 21.0534 67.4974 20.9226 67.9434 20.9241C68.3895 20.9256 68.825 21.0594 69.1943 21.3085C69.2386 21.3422 69.2678 21.3919 69.2754 21.4468C69.2831 21.5018 69.2686 21.5576 69.2351 21.6019C69.2016 21.6463 69.1519 21.6757 69.0967 21.6837C69.0416 21.6917 68.9855 21.6776 68.9407 21.6446C68.6424 21.4428 68.2898 21.3356 67.9291 21.337C67.5685 21.3385 67.2167 21.4486 66.9201 21.6528C66.886 21.6749 66.8461 21.6867 66.8054 21.6866Z" fill="#1E1D22"/>
<path id="Vector_34" d="M69.6448 21.7722C69.6116 22.1171 69.6749 22.4645 69.8275 22.7759C69.9652 23.0918 70.1415 23.3896 70.3525 23.6625L70.5215 23.863C70.5921 23.9394 70.6309 24.0397 70.6298 24.1436C70.6203 24.2398 70.5899 24.3327 70.5408 24.416C70.4918 24.4994 70.4252 24.5711 70.3455 24.6264C70.1929 24.7247 70.0201 24.7876 69.8398 24.8103C69.6594 24.8331 69.4763 24.8151 69.3039 24.7578C69.4723 24.7875 69.6449 24.7838 69.8119 24.7469C69.9788 24.71 70.1369 24.6407 70.2769 24.543C70.4022 24.4443 70.483 24.3002 70.5016 24.1422C70.5126 24.0014 70.3528 23.8941 70.2434 23.7508C70.029 23.4657 69.8558 23.1521 69.7288 22.8191C69.587 22.4886 69.5575 22.121 69.6448 21.7722ZM64.1614 21.9124C64.0477 21.9497 63.9397 22.0028 63.8409 22.0701C63.7435 22.1341 63.6537 22.2088 63.5733 22.2928C63.4066 22.4649 63.2526 22.6487 63.1123 22.8428C63.1258 22.7818 63.1478 22.7241 63.1659 22.6637L63.2469 22.4949C63.3101 22.3854 63.3865 22.284 63.4745 22.1931C63.5615 22.0992 63.6681 22.0254 63.7867 21.977C63.9054 21.9285 64.0333 21.9064 64.1614 21.9124Z" fill="#DD765E"/>
<path id="Vector_35" d="M63.8894 23.6402C63.9256 23.3848 63.9227 23.1253 63.8809 22.8708C63.8636 22.7452 63.8324 22.6219 63.7878 22.5032C63.7494 22.3806 63.69 22.266 63.6367 22.1414C63.7389 22.2315 63.8237 22.3394 63.887 22.4599C63.9509 22.5818 63.9956 22.7127 64.0197 22.8481C64.0675 23.1192 64.0216 23.3985 63.8894 23.6402Z" fill="#DD765E"/>
<path id="Vector_36" d="M65.9359 25.1845C65.9359 25.1845 65.3816 22.8017 65.483 22.1195C65.6245 21.1689 65.6953 20.6936 65.5809 20.3068C65.3979 19.6876 65.701 19.6069 66.0908 18.9415C66.4566 18.3169 67.59 18.8225 67.8729 18.7184C68.6667 18.4262 68.6373 18.0934 69.174 18.0601C69.7245 18.0261 70.1284 17.8813 70.484 18.2349C70.8466 18.5958 71.5121 19.5552 71.6762 19.3887C72.0222 18.93 72.2346 18.3853 72.2901 17.8143C72.2942 17.2515 72.1604 16.6961 71.9003 16.1964C71.77 15.9077 71.2848 14.8334 70.2745 14.5466C69.6927 14.3814 69.5811 14.6604 68.3224 14.7345C67.0169 14.8115 66.9764 14.5209 66.2927 14.7143C65.5359 14.9286 65.5647 15.2904 64.2714 15.9938C63.8426 16.2195 63.4019 16.4218 62.951 16.5999C61.3274 17.2844 61.115 17.175 60.7416 17.5343C59.9366 18.3089 60.068 19.6407 60.0998 19.9624C60.1893 20.8684 60.5446 21.1407 61.3173 22.5921C62.5409 24.8905 62.2954 25.8563 62.7438 26.1786C62.9638 26.3367 64.1245 25.5151 64.1191 25.1103C64.1121 24.5797 63.7281 24.4122 63.2759 23.6452C62.96 23.1092 62.5063 22.3396 62.7675 21.642C62.9255 21.2202 63.1018 21.3356 63.5406 21.3761C64.1362 21.4311 64.4292 22.2572 64.668 22.8634C64.8404 23.3022 64.9147 23.7731 64.8858 24.2433C64.8228 25.2924 66.1411 25.6022 65.9359 25.1845Z" fill="#1E1D22"/>
<path id="Vector_37" d="M68.6084 26.2222C68.6084 26.2222 69.9264 27.4461 71.1049 26.2222H68.6084Z" fill="#0A0709"/>
<path id="Vector_38" d="M68.869 32.4453C68.869 32.4453 72.1679 42.0237 62.2793 29.1189L59.2134 31.6532C57.9026 32.7366 56.9922 34.2244 56.626 35.8809L53.9268 48.0937H57.479L56.6149 60.3931L73.2719 62.8148C73.2719 62.8148 72.8543 39.2528 68.869 32.4453Z" fill="#F73C4F"/>
<path id="Vector_39" d="M61.5336 48.4186L60.3978 54.7011L64.7662 65.025L66.71 66.8412C66.41 68.6737 65.5875 70.3817 64.3404 71.7619C64.3404 71.7619 63.038 69.3744 63.1339 66.889L55.2187 57.8073C54.6528 57.158 54.2371 56.3927 54.001 55.5658C53.7649 54.7388 53.7142 53.8703 53.8524 53.0216L54.6374 48.2009C54.6374 48.2009 59.213 46.5333 61.5336 48.4186Z" fill="#F9977A"/>
<path id="Vector_40" d="M72.7439 81.6462C72.6171 80.5851 72.5193 79.5221 72.4261 78.4587C72.3321 77.3954 72.2622 76.3305 72.179 75.2665C72.1174 74.201 72.0444 73.1363 71.9936 72.07C71.943 71.0038 71.8966 69.9373 71.8799 68.8689C72.0072 69.93 72.1048 70.993 72.1982 72.0563C72.2914 73.1197 72.3624 74.1846 72.4448 75.2486C72.5057 76.3141 72.5797 77.3788 72.6298 78.4451C72.6805 79.5113 72.7268 80.5778 72.7439 81.6462Z" fill="#E6952A"/>
<path id="Vector_41" d="M71.1119 59.2779C70.787 59.1577 70.4679 59.0214 70.1441 58.8928C69.8325 58.7402 69.5219 58.5835 69.2124 58.4227C68.6043 58.0783 68.0292 57.6789 67.4944 57.2297C66.9603 56.7743 66.4901 56.2494 66.0964 55.6693C65.6967 55.0924 65.4414 54.4287 65.3516 53.7336C65.4333 54.0668 65.559 54.3876 65.7255 54.6878C65.8815 54.9903 66.062 55.2796 66.2651 55.553C66.6726 56.0987 67.1439 56.5943 67.6689 57.0293C68.1865 57.4767 68.7376 57.8842 69.3173 58.2483L70.2032 58.7775C70.5049 58.9441 70.8113 59.103 71.1119 59.2779Z" fill="#B02336"/>
<path id="Vector_42" d="M61.1272 31.5566C61.1272 31.5566 65.8713 32.2258 64.7473 38.8216C63.6233 45.4173 63.0234 48.3807 63.0234 48.3807L53.9268 48.0939" fill="#F73C4F"/>
<path id="Vector_43" d="M61.1272 31.5566C61.9096 31.7041 62.6399 32.0516 63.2466 32.5651C63.8532 33.0786 64.3153 33.7403 64.5875 34.4854C64.7287 34.8562 64.8357 35.239 64.9073 35.629C64.9422 35.8238 64.9519 36.022 64.9753 36.2185C65.0027 36.4145 65.0154 36.6123 65.0132 36.8101C65.0171 37.5992 64.9474 38.387 64.8051 39.1632L63.987 43.7863L63.1376 48.4036L63.12 48.4998L63.0197 48.4967C61.5036 48.4489 59.9883 48.3742 58.4726 48.3139C56.9569 48.2538 55.4421 48.1664 53.9268 48.0939C55.4436 48.117 56.961 48.1252 58.4775 48.1607C59.994 48.196 61.511 48.2169 63.0271 48.2647L62.9091 48.3577L63.7256 43.7379L64.5735 39.1239C64.7152 38.3613 64.7934 37.5883 64.8073 36.8129C64.8137 36.6198 64.8053 36.4266 64.7823 36.2347C64.7635 36.0429 64.7584 35.8484 64.7284 35.6582C64.6666 35.2775 64.5703 34.9032 64.4406 34.5399C64.1861 33.8078 63.7539 33.1496 63.1824 32.6238C62.6029 32.0952 61.8942 31.7272 61.1272 31.5566Z" fill="#B02336"/>
<path id="Vector_44" d="M66.8561 64.4717C66.9297 65.3236 66.8919 66.1813 66.7437 67.0235C66.5971 67.87 66.3496 68.696 66.0062 69.4841C65.6568 70.2723 65.1891 71.003 64.6191 71.6511C64.051 72.2952 63.3794 72.8409 62.6318 73.266C62.7967 73.1295 62.9623 72.9956 63.1285 72.8645L63.377 72.6669C63.4573 72.5983 63.5281 72.5184 63.6039 72.4449L64.0579 72.0046C64.1961 71.8458 64.3273 71.6808 64.462 71.5197C64.9937 70.869 65.4315 70.1475 65.7628 69.3761C66.1076 68.6091 66.3692 67.8076 66.5431 66.9852C66.6321 66.5736 66.706 66.1578 66.7542 65.738C66.8121 65.3182 66.8461 64.8954 66.8561 64.4717Z" fill="#E6952A"/>
<path id="Vector_45" d="M69.3032 29.1946L69.3038 29.195C68.7227 29.2901 68.2637 29.462 68.248 30.0137C68.2769 30.3779 68.3487 30.7374 68.4621 31.0849C67.174 31.0017 66.1836 28.313 66.1836 28.313C66.9799 29.4601 69.3032 29.1946 69.3032 29.1946Z" fill="#DD765E"/>
<path id="Vector_46" d="M81.9536 28.7892L81.1924 29.1692L81.1032 28.0282L80.2383 27.2744L80.9995 26.8944L81.4438 27.1525L83.0812 26.3295L81.1878 24.9073L81.949 24.5273L84.2276 25.7572L85.5552 25.0945C85.7066 25.0192 85.8818 25.0068 86.0424 25.06C86.203 25.1132 86.3358 25.2277 86.4116 25.3783C86.4875 25.529 86.5002 25.7034 86.4469 25.8634C86.3937 26.0234 86.2788 26.1557 86.1276 26.2314L84.8134 26.8875L84.4361 29.445L83.6748 29.825L83.6567 27.4649L82.014 28.2849L81.9536 28.7892Z" fill="#A2AEE6"/>
<path id="Vector_47" d="M152.676 121.5H4.50718C4.4211 121.5 4.33855 121.466 4.27768 121.405C4.21681 121.345 4.18262 121.263 4.18262 121.177C4.18262 121.091 4.21681 121.009 4.27768 120.948C4.33855 120.888 4.4211 120.854 4.50718 120.854H152.676C152.762 120.854 152.844 120.888 152.905 120.948C152.966 121.009 153 121.091 153 121.177C153 121.263 152.966 121.345 152.905 121.405C152.844 121.466 152.762 121.5 152.676 121.5Z" fill="#935B50"/>
<path id="Vector_48" d="M124.513 92.5564L90.1729 91.2136L108.423 90.5806L138.687 92.3499L140.791 93.2376L124.513 92.5564Z" fill="#A5716A"/>
<path id="Vector_49" d="M141.361 101.128L122.224 105.864L122.784 92.4841L140.791 93.2377L141.361 101.128Z" fill="#D3A39C"/>
<path id="Vector_50" d="M138.613 93.1465L140.791 93.2376L144.487 70.8943C144.572 70.3814 144.553 69.8569 144.431 69.3515C144.31 68.846 144.087 68.37 143.778 67.9513C143.469 67.5326 143.079 67.1798 142.63 66.9135C142.182 66.6473 141.685 66.473 141.168 66.4009L139.32 66.1433L138.613 93.1465Z" fill="#D3A39C"/>
<path id="Vector_51" d="M103.437 121.177C103.354 120.971 103.312 120.752 103.313 120.531V104.605C103.313 104.134 103.502 103.682 103.836 103.348C104.171 103.015 104.625 102.828 105.099 102.828C105.572 102.828 106.026 103.015 106.361 103.348C106.696 103.682 106.884 104.134 106.884 104.605V120.531C106.885 120.752 106.843 120.971 106.76 121.177H103.437Z" fill="#935B50"/>
<path id="Vector_52" d="M126.646 108.015C126.613 108.015 126.58 108.014 126.547 108.013L90.4061 106.041C89.9334 106.016 89.4903 105.804 89.1744 105.453C88.8585 105.102 88.6955 104.64 88.7214 104.169C88.7473 103.699 88.9599 103.257 89.3125 102.943C89.665 102.628 90.1286 102.466 90.6014 102.492L126.742 104.463C127.206 104.488 127.642 104.693 127.957 105.033C128.272 105.373 128.441 105.823 128.429 106.285C128.416 106.748 128.223 107.188 127.89 107.511C127.557 107.834 127.111 108.015 126.646 108.015Z" fill="#935B50"/>
<path id="Vector_53" d="M88.6008 121.177C88.531 120.979 88.4969 120.77 88.5002 120.56L89.013 84.9377C89.0275 84.0969 89.2203 83.2687 89.5788 82.5074C89.9374 81.7461 90.4536 81.0688 91.0935 80.5201C91.8103 79.8989 92.6491 79.4331 93.5565 79.1521C94.464 78.8712 95.4202 78.7813 96.3644 78.8881L109.321 80.3197C109.791 80.3721 110.221 80.6081 110.516 80.9758C110.812 81.3436 110.948 81.813 110.896 82.2811C110.844 82.7491 110.608 83.1774 110.239 83.472C109.87 83.7665 109.398 83.9031 108.928 83.8519L95.9716 82.4235C95.5222 82.3695 95.0663 82.4095 94.6332 82.5408C94.2001 82.6721 93.7993 82.8919 93.4563 83.1862C93.1913 83.4085 92.9766 83.6841 92.8261 83.9948C92.6756 84.3056 92.5929 84.6445 92.5832 84.9894L92.0704 120.611C92.0679 120.804 92.0328 120.996 91.9665 121.177H88.6008Z" fill="#935B50"/>
<path id="Vector_54" d="M122.261 104.259L89.9283 102.769C89.4322 102.751 88.9622 102.543 88.6173 102.187C88.2723 101.832 88.0794 101.357 88.0791 100.862L88.1465 93.1004C88.1518 92.843 88.2088 92.5892 88.3141 92.3541C88.4195 92.1189 88.5711 91.9072 88.7599 91.7313C88.9488 91.5555 89.1711 91.4191 89.4138 91.3302C89.6565 91.2412 89.9146 91.2016 90.1729 91.2136L122.608 92.4064C123.112 92.4194 123.59 92.6291 123.939 92.9903C124.289 93.3515 124.482 93.8351 124.476 94.3366L124.306 102.396C124.297 102.653 124.237 102.906 124.13 103.139C124.022 103.373 123.868 103.583 123.677 103.756C123.487 103.93 123.264 104.064 123.02 104.15C122.777 104.237 122.519 104.274 122.261 104.259ZM138.687 92.3498L108.423 90.5806L110.498 68.1998C110.557 67.5565 110.856 66.9588 111.337 66.5243C111.817 66.0898 112.443 65.85 113.091 65.8521L138.306 65.9332C138.667 65.9344 139.023 66.0102 139.352 66.156C139.682 66.3018 139.977 66.5142 140.219 66.7799C140.462 67.0455 140.646 67.3585 140.76 67.6989C140.874 68.0393 140.916 68.3996 140.883 68.757L138.687 92.3498Z" fill="#C38F86"/>
<path id="Vector_55" d="M144.838 83.5094C144.647 83.6868 144.419 83.8199 144.171 83.8993C143.922 83.9786 143.659 84.0022 143.4 83.9682L141.242 83.6968L131.485 82.4623C131.124 82.4176 130.758 82.4495 130.41 82.5557C130.062 82.662 129.741 82.8403 129.467 83.079C129.194 83.3176 128.974 83.6112 128.822 83.9405C128.67 84.2697 128.59 84.6272 128.587 84.9894L128.324 120.595C128.325 120.794 128.29 120.991 128.22 121.177H124.858C124.788 120.982 124.753 120.776 124.754 120.569L125.017 84.9636C125.023 84.0989 125.213 83.2453 125.575 82.4591C125.936 81.6728 126.461 80.9719 127.115 80.4024C127.768 79.8329 128.536 79.4078 129.366 79.1552C130.197 78.9025 131.072 78.828 131.933 78.9366L141.527 80.1485L143.848 80.4426C144.08 80.4711 144.304 80.5452 144.508 80.6606C144.711 80.7759 144.89 80.9303 145.033 81.1147L144.838 83.5094Z" fill="#935B50"/>
<path id="Vector_56" d="M141.732 121.177C141.787 121.032 141.821 120.879 141.832 120.724L144.838 83.5093L145.032 81.1146L146.178 66.9085C146.216 66.4385 146.065 65.9727 145.758 65.6138C145.45 65.2548 145.013 65.0319 144.541 64.9942C144.069 64.9565 143.601 65.107 143.24 65.4127C142.88 65.7184 142.656 66.1541 142.618 66.6241L141.527 80.1484L141.242 83.6967L138.275 120.437C138.255 120.688 138.289 120.94 138.376 121.177H141.732Z" fill="#935B50"/>
<path id="Vector_57" d="M141.817 101.017L126.17 103.959L126.893 107.769L142.539 104.827L141.817 101.017Z" fill="#935B50"/>
<path id="Vector_58" d="M38.0405 73.7046H7.42773V115.004H38.0405V73.7046Z" fill="#E19974"/>
<path id="Vector_59" d="M40.9617 70.2144H4.50684V71.3777H40.9617V70.2144Z" fill="#935B50"/>
<path id="Vector_60" d="M34.0096 75.4497H11.459V81.4993H34.0096V75.4497Z" fill="#D6694B"/>
<path id="Vector_61" d="M38.0406 73.7047H7.4279L4.50684 71.3779H40.9617L38.0406 73.7047Z" fill="#D6694B"/>
<path id="Vector_62" d="M34.0096 84.6404H11.459V111.282H34.0096V84.6404Z" fill="#D6694B"/>
<path id="Vector_63" d="M30.8544 88.3049H14.6133V107.617H30.8544V88.3049Z" fill="#935B50"/>
<path id="Vector_64" d="M39.6181 115.004H5.85059V116.698H39.6181V115.004Z" fill="#935B50"/>
<path id="Vector_65" d="M11.9713 121.177H10.7185L9.0957 116.698H13.5941L11.9713 121.177Z" fill="#E19974"/>
<path id="Vector_66" d="M34.7496 121.177H33.4968L31.874 116.698H36.3725L34.7496 121.177Z" fill="#E19974"/>
<path id="Vector_67" d="M22.5008 79.5213C23.0816 79.5213 23.5524 79.0526 23.5524 78.4743C23.5524 77.896 23.0816 77.4272 22.5008 77.4272C21.92 77.4272 21.4492 77.896 21.4492 78.4743C21.4492 79.0526 21.92 79.5213 22.5008 79.5213Z" fill="#935B50"/>
<path id="Vector_68" d="M28.5047 99.0081C29.0855 99.0081 29.5563 98.5394 29.5563 97.9611C29.5563 97.3828 29.0855 96.9141 28.5047 96.9141C27.9239 96.9141 27.4531 97.3828 27.4531 97.9611C27.4531 98.5394 27.9239 99.0081 28.5047 99.0081Z" fill="#E19974"/>
<path id="Vector_69" d="M28.7248 34.522C33.7499 34.522 37.8235 30.466 37.8235 25.4626C37.8235 20.4591 33.7499 16.4031 28.7248 16.4031C23.6996 16.4031 19.626 20.4591 19.626 25.4626C19.626 30.466 23.6996 34.522 28.7248 34.522Z" fill="#FFBA55"/>
<path id="Vector_70" d="M28.724 34.6837C26.8923 34.6837 25.1018 34.1429 23.5788 33.1297C22.0558 32.1164 20.8688 30.6763 20.1679 28.9913C19.4669 27.3064 19.2835 25.4523 19.6408 23.6636C19.9982 21.8749 20.8802 20.2319 22.1754 18.9423C23.4706 17.6527 25.1208 16.7744 26.9173 16.4186C28.7137 16.0628 30.5758 16.2455 32.2681 16.9434C33.9603 17.6413 35.4067 18.8232 36.4244 20.3396C37.442 21.856 37.9851 23.6388 37.9851 25.4626C37.9823 27.9073 37.0057 30.2511 35.2695 31.9798C33.5333 33.7085 31.1794 34.6809 28.724 34.6837ZM28.724 16.5646C26.9565 16.5646 25.2287 17.0865 23.7591 18.0642C22.2895 19.0419 21.1441 20.4316 20.4677 22.0575C19.7913 23.6834 19.6144 25.4724 19.9592 27.1985C20.304 28.9245 21.1551 30.51 22.4049 31.7544C23.6547 32.9988 25.2471 33.8462 26.9806 34.1896C28.7141 34.5329 30.5109 34.3567 32.1439 33.6832C33.7768 33.0098 35.1725 31.8693 36.1545 30.406C37.1365 28.9428 37.6606 27.2224 37.6606 25.4626C37.6579 23.1035 36.7155 20.8418 35.0402 19.1737C33.3648 17.5056 31.0933 16.5673 28.724 16.5646Z" fill="#D77F4A"/>
<path id="Vector_71" d="M28.7238 26.2704C28.7025 26.2705 28.6814 26.2663 28.6617 26.2582C28.642 26.2501 28.6241 26.2382 28.609 26.2231C28.594 26.2081 28.582 26.1903 28.5739 26.1707C28.5657 26.1511 28.5615 26.1301 28.5615 26.1089V20.267C28.5615 20.2242 28.5786 20.1831 28.6091 20.1528C28.6395 20.1225 28.6808 20.1055 28.7238 20.1055C28.7668 20.1055 28.8081 20.1225 28.8386 20.1528C28.869 20.1831 28.8861 20.2242 28.8861 20.267V26.1089C28.8861 26.1301 28.8819 26.1511 28.8738 26.1707C28.8656 26.1903 28.8537 26.2081 28.8386 26.2231C28.8235 26.2382 28.8056 26.2501 28.7859 26.2582C28.7662 26.2663 28.7451 26.2705 28.7238 26.2704Z" fill="#D77F4A"/>
<path id="Vector_72" d="M23.6762 27.479C23.6396 27.479 23.6041 27.4668 23.5754 27.4442C23.5467 27.4217 23.5265 27.3901 23.5181 27.3547C23.5096 27.3193 23.5134 27.282 23.5289 27.249C23.5444 27.216 23.5706 27.1892 23.6033 27.1729L29.691 24.1332C29.7295 24.1139 29.7741 24.1107 29.815 24.1242C29.8559 24.1377 29.8898 24.1668 29.9091 24.2051C29.9284 24.2435 29.9317 24.2879 29.9181 24.3286C29.9046 24.3693 29.8753 24.403 29.8368 24.4222L23.7491 27.462C23.7264 27.4733 23.7015 27.4791 23.6762 27.479Z" fill="#D77F4A"/>
<path id="Vector_73" d="M20.4686 67.2764H37.12V69.9086H20.4686C20.1669 69.9086 19.8776 69.7893 19.6642 69.5769C19.4509 69.3645 19.3311 69.0764 19.3311 68.776V68.409C19.3311 68.1086 19.4509 67.8205 19.6642 67.6081C19.8776 67.3957 20.1669 67.2764 20.4686 67.2764Z" fill="white"/>
<path id="Vector_74" d="M37.6413 69.9759C37.6413 70.0391 37.6161 70.0998 37.5711 70.1445C37.5262 70.1892 37.4653 70.2144 37.4018 70.2144H20.1195C19.4596 70.2144 18.9229 69.4927 18.9229 68.6056C18.9229 67.7187 19.4596 66.9971 20.1195 66.9971H37.4018C37.4653 66.9971 37.5262 67.0222 37.5711 67.0669C37.6161 67.1116 37.6413 67.1723 37.6413 67.2356V67.4233C37.6413 67.4865 37.6161 67.5472 37.5711 67.5919C37.5262 67.6367 37.4653 67.6618 37.4018 67.6618H20.1195C19.7322 67.6618 19.4173 68.0852 19.4173 68.6056C19.4173 69.1262 19.7322 69.5497 20.1195 69.5497H37.4018C37.4653 69.5497 37.5262 69.5748 37.5711 69.6195C37.6161 69.6642 37.6413 69.7249 37.6413 69.7882V69.9759Z" fill="#F65B2B"/>
<path id="Vector_75" d="M17.8709 64.0591H34.5223V66.6913H17.8709C17.5692 66.6913 17.2799 66.572 17.0666 66.3596C16.8532 66.1472 16.7334 65.8591 16.7334 65.5587V65.1917C16.7334 64.8913 16.8532 64.6032 17.0666 64.3908C17.2799 64.1784 17.5692 64.0591 17.8709 64.0591Z" fill="white"/>
<path id="Vector_76" d="M35.0427 66.7586C35.0427 66.8218 35.0174 66.8825 34.9725 66.9272C34.9276 66.972 34.8667 66.9971 34.8031 66.9971H17.5208C16.861 66.9971 16.3242 66.2755 16.3242 65.3883C16.3242 64.5014 16.861 63.7798 17.5208 63.7798H34.8031C34.8667 63.7798 34.9276 63.8049 34.9725 63.8496C35.0174 63.8944 35.0427 63.955 35.0427 64.0183V64.206C35.0427 64.2693 35.0174 64.3299 34.9725 64.3746C34.9276 64.4194 34.8667 64.4445 34.8031 64.4445H17.5208C17.1336 64.4445 16.8186 64.8679 16.8186 65.3883C16.8186 65.9089 17.1336 66.3324 17.5208 66.3324H34.8031C34.8667 66.3324 34.9276 66.3575 34.9725 66.4022C35.0174 66.447 35.0427 66.5076 35.0427 66.5709V66.7586Z" fill="#FFBA55"/>
<path id="Vector_77" d="M23.1883 60.8418H39.8397V63.474H23.1883C22.8866 63.474 22.5973 63.3547 22.384 63.1423C22.1706 62.9299 22.0508 62.6418 22.0508 62.3414V61.9744C22.0508 61.674 22.1706 61.3859 22.384 61.1735C22.5973 60.9611 22.8866 60.8418 23.1883 60.8418Z" fill="white"/>
<path id="Vector_78" d="M40.361 63.5413C40.361 63.6046 40.3358 63.6652 40.2909 63.7099C40.246 63.7547 40.185 63.7798 40.1215 63.7798H22.8392C22.1793 63.7798 21.6426 63.0582 21.6426 62.171C21.6426 61.2841 22.1793 60.5625 22.8392 60.5625H40.1215C40.185 60.5625 40.246 60.5876 40.2909 60.6324C40.3358 60.6771 40.361 60.7377 40.361 60.801V60.9887C40.361 61.052 40.3358 61.1126 40.2909 61.1574C40.246 61.2021 40.185 61.2272 40.1215 61.2272H22.8392C22.452 61.2272 22.137 61.6507 22.137 62.171C22.137 62.6917 22.452 63.1151 22.8392 63.1151H40.1215C40.185 63.1151 40.246 63.1402 40.2909 63.1849C40.3358 63.2297 40.361 63.2903 40.361 63.3536V63.5413Z" fill="#F65B2B"/>
<path id="Vector_79" d="M33.2058 60.5411H29.8538L28.7246 54.6311H34.335L33.2058 60.5411Z" fill="#E19974"/>
<path id="Vector_80" d="M34.2061 55.3055L34.335 54.6311H28.7246L28.8535 55.3055H34.2061Z" fill="#D6694B"/>
<path id="Vector_81" d="M30.8291 58.2377L30.1211 57.5327L29.4131 58.2377L30.1211 58.9426L30.8291 58.2377Z" fill="#D6694B"/>
<path id="Vector_82" d="M32.2461 58.2377L31.5381 57.5327L30.8301 58.2377L31.5381 58.9426L32.2461 58.2377Z" fill="#D6694B"/>
<path id="Vector_83" d="M33.6455 58.2377L32.9375 57.5327L32.2295 58.2377L32.9375 58.9426L33.6455 58.2377Z" fill="#D6694B"/>
<path id="Vector_84" d="M32.8351 49.657C32.8351 49.657 33.1295 53.7973 31.4043 54.6747C31.4043 54.6747 30.8071 53.105 32.8351 49.657Z" fill="#558031"/>
<path id="Vector_85" d="M27.2686 51.4355C28.1575 51.6328 28.9906 52.0262 29.7064 52.5869C30.4223 53.1475 31.0025 53.861 31.4044 54.6748C31.4044 54.6748 28.3009 53.6253 27.2686 51.4355Z" fill="#849F4C"/>
<path id="Vector_86" d="M28.2695 56.8588C28.2695 56.8588 29.7048 54.7208 31.4047 54.6748C31.4047 54.6748 31.1488 56.3963 28.2695 56.8588Z" fill="#A6B862"/>
<path id="Vector_87" d="M30.04 50.2471C30.04 50.2471 32.0315 52.0575 31.4048 54.6747C31.4048 54.6747 30.3016 53.5103 30.04 50.2471Z" fill="#849F4C"/>
<path id="Vector_88" d="M31.4043 54.6746C31.4043 54.6746 32.104 52.1244 35.641 51.4705C35.641 51.4705 34.845 53.7924 31.4043 54.6746Z" fill="#A6B862"/>
<path id="Vector_89" d="M36.578 54.0081C36.578 54.0081 33.8793 52.9003 31.4043 54.6747C31.4043 54.6747 34.6946 55.068 36.578 54.0081Z" fill="#849F4C"/>
<path id="Vector_90" d="M36.5531 56.587C36.5531 56.587 35.2501 54.5088 31.404 54.6746L36.5531 56.587ZM25.8145 54.3383C25.8145 54.3383 29.3586 53.0298 31.4503 54.6121C31.4503 54.6121 29.4642 55.7013 25.8145 54.3383Z" fill="#558031"/>
<path id="Vector_91" d="M28.7217 50.5493C28.7217 50.5493 31.8842 52.7764 31.4305 54.6764C31.4305 54.6764 29.2365 52.9248 28.7217 50.5493Z" fill="#558031"/>
<path id="Vector_92" d="M34.2687 56.8915C34.2687 56.8915 31.6616 56.4483 31.4043 54.6748C31.4043 54.6748 33.3092 54.7687 34.2687 56.8915Z" fill="#849F4C"/>
<path id="Vector_93" d="M9.24726 63.4007C7.57976 63.4007 4.03556 60.8369 3.61242 60.5267C3.58345 60.5054 3.55897 60.4787 3.54038 60.448C3.52179 60.4173 3.50945 60.3833 3.50406 60.3479C3.49868 60.3125 3.50035 60.2763 3.509 60.2415C3.51764 60.2067 3.53308 60.174 3.55443 60.1451C3.57578 60.1163 3.60263 60.0919 3.63345 60.0734C3.66426 60.0549 3.69844 60.0426 3.73402 60.0373C3.76961 60.0319 3.8059 60.0336 3.84084 60.0422C3.87577 60.0508 3.90867 60.0661 3.93764 60.0874C5.56012 61.2781 8.48309 63.0801 9.4143 62.8377C9.44916 62.8287 9.48547 62.8266 9.52115 62.8316C9.55683 62.8365 9.59117 62.8485 9.62222 62.8666C9.65326 62.8848 9.6804 62.9089 9.70208 62.9376C9.72375 62.9662 9.73955 62.9989 9.74855 63.0336C9.75755 63.0683 9.75958 63.1045 9.75453 63.14C9.74949 63.1755 9.73745 63.2097 9.71913 63.2406C9.7008 63.2714 9.67653 63.2984 9.64772 63.3199C9.61891 63.3415 9.58612 63.3571 9.55122 63.366C9.45177 63.3903 9.34964 63.4019 9.24726 63.4007Z" fill="#8B9D36"/>
<path id="Vector_94" d="M9.22093 63.6045C9.1518 63.6045 9.08525 63.5784 9.03463 63.5315C8.98401 63.4846 8.95308 63.4204 8.94803 63.3518L8.28686 54.3254C8.28157 54.2532 8.30527 54.1819 8.35277 54.1272C8.40026 54.0724 8.46765 54.0387 8.54011 54.0334C8.61257 54.0282 8.68417 54.0518 8.73915 54.0991C8.79413 54.1464 8.828 54.2134 8.83329 54.2856L9.49446 63.312C9.49975 63.3841 9.47604 63.4554 9.42855 63.5102C9.38106 63.5649 9.31367 63.5986 9.24122 63.6039C9.23424 63.6042 9.22759 63.6045 9.22093 63.6045ZM12.0022 63.8444C11.9861 63.8444 11.9699 63.843 11.954 63.8403C11.8825 63.8276 11.8189 63.7872 11.7773 63.7279C11.7357 63.6686 11.7195 63.5953 11.7322 63.5241C11.7623 63.3549 12.5138 59.3596 16.3321 57.5857C16.3979 57.5553 16.4732 57.5521 16.5413 57.5769C16.6094 57.6017 16.6649 57.6524 16.6955 57.7178C16.7262 57.7833 16.7295 57.8581 16.7047 57.926C16.68 57.9939 16.6292 58.0492 16.5635 58.0799C13.0009 59.7351 12.2786 63.5806 12.2716 63.6194C12.2604 63.6824 12.2272 63.7395 12.178 63.7806C12.1287 63.8218 12.0665 63.8443 12.0022 63.8444Z" fill="#8B9D36"/>
<path id="Vector_95" d="M11.6754 62.6415C11.4527 62.2073 10.2559 62.2067 9.49164 62.7402C9.15621 62.9813 8.90006 63.316 8.75556 63.7019C8.62544 64.0357 8.41717 64.5697 8.70651 64.9349C8.86134 65.0878 9.05885 65.1908 9.27329 65.2304C9.48773 65.27 9.70917 65.2443 9.90877 65.1568C10.2929 64.8635 10.6391 64.5239 10.9393 64.1458C11.3827 63.5869 11.8549 62.9916 11.6754 62.6415ZM12.6078 62.5922C12.5244 62.8103 12.6899 63.0603 13.0004 63.5293C13.2911 63.9672 13.6564 64.3511 14.08 64.6637C14.2816 64.8507 14.5382 64.9684 14.8121 64.9995C15.0859 65.0305 15.3625 64.9733 15.6013 64.8362C15.775 64.7246 15.9178 64.5713 16.0164 64.3903C16.1151 64.2093 16.1663 64.0065 16.1655 63.8005C16.1605 63.1616 15.6122 62.7663 15.405 62.6169C14.4012 61.893 12.8095 62.0651 12.6078 62.5922ZM15.5521 58.4987C15.6253 58.3746 15.8148 58.4377 16.2392 58.3754C16.5979 58.2931 16.9505 58.186 17.2943 58.0548C17.5873 57.9463 17.8919 57.8718 18.2021 57.8329C18.3307 57.8335 19.0575 57.8368 19.3062 58.3261C19.5667 58.8387 19.0844 59.4557 19.0609 59.4851C18.5946 60.0651 17.798 60.0368 17.5396 60.0276C17.2266 60.012 16.9198 59.9341 16.6375 59.7986C16.3552 59.663 16.1029 59.4726 15.8956 59.2385C15.8375 59.1737 15.4251 58.7143 15.5521 58.4987ZM8.85374 56.1067C8.59474 55.9769 8.74631 55.1519 8.82918 54.7011C8.94256 54.2198 9.09856 53.7494 9.29536 53.2955C9.72473 52.1691 9.82271 52.0478 9.98238 51.9886C10.2015 51.9402 10.4305 51.9647 10.6344 52.0582C10.8382 52.1517 11.0056 52.3091 11.1111 52.5064C11.395 53.0533 10.9598 53.7448 10.4977 54.4792C10.0539 55.1844 9.19061 56.2755 8.85374 56.1067Z" fill="#5E7C24"/>
<path id="Vector_96" d="M8.75487 58.2768C8.94537 57.9681 8.59486 57.3645 8.23964 57.0438C7.91311 56.7885 7.52291 56.6265 7.11093 56.5753C6.52081 56.4336 5.87126 56.2778 5.68782 56.5506C5.5129 56.8107 5.85509 57.3216 5.93323 57.4383C6.18478 57.787 6.53501 58.0532 6.9392 58.2028C7.46349 58.4188 8.50907 58.675 8.75487 58.2768Z" fill="#C4CE6E"/>
<path id="Vector_97" d="M8.78012 60.6686C8.78711 60.4231 8.43057 60.3722 7.70053 59.7809C7.121 59.3115 7.10449 59.1483 6.7681 59.0411C6.25313 58.8771 5.58088 59.0333 5.46767 59.3617C5.43998 59.4421 5.4439 59.5381 5.88479 60.2494C6.22778 60.8027 6.40269 61.0816 6.57182 61.1864C6.94819 61.3878 7.38945 61.4321 7.79864 61.3097C8.10661 61.2371 8.77067 61.0014 8.78012 60.6686ZM9.04845 57.8304C8.80797 57.5593 9.04995 56.9041 9.34498 56.5267C9.62281 56.2189 9.9794 55.9919 10.3767 55.8701C10.9338 55.6286 11.547 55.3627 11.7744 55.5997C11.9912 55.8257 11.7415 56.3882 11.6845 56.5167C11.4964 56.9037 11.197 57.2263 10.8244 57.4437C10.3449 57.7471 9.35873 58.1802 9.04845 57.8304ZM9.22638 60.3787C9.17747 60.138 9.52 60.0262 10.1379 59.3176C10.6285 58.755 10.6168 58.5914 10.9299 58.4276C11.4091 58.177 12.0981 58.2147 12.2658 58.5186C12.3068 58.593 12.3194 58.6883 12.0068 59.4652C11.7636 60.0696 11.6391 60.3745 11.4904 60.5071C11.1545 60.7704 10.7275 60.8904 10.303 60.8406C9.98716 60.8224 9.29265 60.7049 9.22638 60.3787ZM5.29594 61.655C5.26154 61.3874 4.81898 61.2397 4.28997 61.0632C3.812 60.9037 3.43255 60.777 2.98953 60.9152C2.91119 60.9396 2.21431 61.1569 2.15528 61.6797C2.10229 62.1485 2.60468 62.4908 2.64601 62.5181C2.82008 62.6147 3.0119 62.6754 3.21002 62.6965C3.40815 62.7177 3.60853 62.699 3.79922 62.6414C4.48918 62.5092 5.34659 62.0486 5.29594 61.655Z" fill="#5E7C24"/>
<path id="Vector_98" d="M7.28303 62.8879C6.91356 62.6254 6.21622 63.0706 5.88442 63.2825C5.54308 63.4999 5.25069 63.7854 5.02567 64.1209C4.77008 64.5028 4.52687 64.8663 4.6576 65.1813C4.84556 65.6341 5.65698 65.6273 5.76176 65.6251C6.2179 65.6059 6.64883 65.4115 6.96402 65.0826C7.20582 64.8208 7.36756 64.4957 7.43027 64.1456C7.47492 63.9404 7.64764 63.147 7.28303 62.8879Z" fill="#C4CE6E"/>
<path id="Vector_99" d="M4.33861 60.3728C4.13074 60.0719 4.20356 59.8585 4.11776 59.3371C3.98138 58.5081 3.69125 58.402 3.79881 57.9808C3.88348 57.6494 4.17035 57.2956 4.48584 57.2903C4.92772 57.283 5.212 57.963 5.27097 58.1041C5.48542 58.617 5.40635 59.0642 5.27097 59.8303C5.18258 60.3304 5.11515 60.6884 4.90297 60.7427C4.69783 60.7952 4.45362 60.5393 4.33861 60.3728ZM13.7361 60.2988C13.8016 60.1141 14.1491 60.0862 14.5703 60.0523C15.0965 60.0099 15.491 59.9781 15.8707 60.2248C15.9292 60.2628 16.5441 60.6737 16.435 61.162C16.3498 61.5434 15.8737 61.7436 15.5272 61.7538C15.1512 61.7648 14.8956 61.5532 14.4231 61.162C14.0508 60.8538 13.6553 60.5263 13.7361 60.2988Z" fill="#8B9D36"/>
<path id="Vector_100" d="M14.3497 58.8931C14.2552 58.8717 14.2494 58.7407 14.1288 58.3752C13.8594 57.5586 13.6486 57.4844 13.6872 57.1422C13.7299 56.7636 14.0437 56.3604 14.3251 56.3777C14.6318 56.3966 14.8152 56.9099 14.8895 57.1176C14.9843 57.3606 15.018 57.6231 14.9876 57.882C14.9188 58.4122 14.5545 58.9396 14.3497 58.8931Z" fill="#5E7C24"/>
<path id="Vector_101" d="M8.26446 55.3423C8.12129 55.5444 7.30841 55.305 6.76774 54.8244C6.6297 54.7017 6.01875 54.1585 6.17889 53.6407C6.20931 53.5277 6.27175 53.4257 6.35876 53.347C6.44577 53.2683 6.55369 53.2162 6.66963 53.1969C6.89886 53.1913 7.04789 53.4231 7.43027 53.986C8.21654 55.1435 8.32724 55.2537 8.26446 55.3423Z" fill="#8B9D36"/>
<path id="Vector_102" d="M12.7305 60.7919C12.3188 60.9034 11.78 60.0376 11.6509 59.8301C11.3151 59.2994 11.1444 58.6817 11.1602 58.0546C11.1778 57.6625 11.21 56.9475 11.6264 56.7724C12.0253 56.6045 12.565 57.0213 12.8286 57.3395C13.3489 57.9671 13.2661 58.7792 13.1967 59.4602C13.1426 59.9908 13.0704 60.6997 12.7305 60.7919Z" fill="#C4CE6E"/>
<path id="Vector_103" d="M12.7899 70.2145H8.74407L7.4425 63.3391C7.43484 63.2997 7.43599 63.2591 7.44588 63.2202C7.45577 63.1812 7.47416 63.145 7.49973 63.1139C7.5253 63.0829 7.55742 63.0578 7.59382 63.0405C7.63022 63.0232 7.67 63.0142 7.71033 63.0139H13.8236C13.8639 63.0142 13.9037 63.0232 13.9401 63.0405C13.9765 63.0578 14.0086 63.0829 14.0342 63.1139C14.0598 63.145 14.0782 63.1812 14.088 63.2202C14.0979 63.2591 14.0991 63.2997 14.0914 63.3391L12.7899 70.2145Z" fill="#E19974"/>
<path id="Vector_104" d="M13.9974 63.8359L14.0914 63.3391C14.0991 63.2997 14.098 63.2591 14.0881 63.2202C14.0782 63.1812 14.0598 63.145 14.0342 63.1139C14.0086 63.0829 13.9765 63.0578 13.9401 63.0405C13.9037 63.0232 13.8639 63.0142 13.8236 63.0139H7.71033C7.67 63.0142 7.63022 63.0232 7.59382 63.0405C7.55742 63.0578 7.5253 63.0829 7.49973 63.1139C7.47416 63.145 7.45577 63.1812 7.44588 63.2202C7.43599 63.2591 7.43484 63.2997 7.4425 63.3391L7.53655 63.8359H13.9974Z" fill="#D6694B"/>
<path id="Vector_105" d="M9.06779 68.2675L8.21289 67.4085L9.06779 66.5496L9.92236 67.4085L9.06779 68.2675Z" fill="#D6694B"/>
<path id="Vector_106" d="M10.7764 68.2675L9.92188 67.4085L10.7764 66.5496L11.631 67.4085L10.7764 68.2675Z" fill="#D6694B"/>
<path id="Vector_107" d="M12.4659 68.2675L11.6113 67.4085L12.4659 66.5496L13.3205 67.4085L12.4659 68.2675Z" fill="#D6694B"/>
</g>
</g>
</g>
<defs>
<clipPath id="clip0_141_6569">
<rect width="153" height="121" fill="white" transform="translate(0 0.5)"/>
</clipPath>
</defs>
</svg>
